<svg id="Layer_1" enable-background="new 0 0 512 512" viewBox="0 0 512 512" xmlns="http://www.w3.org/2000/svg"><g><g clip-rule="evenodd" fill-rule="evenodd"><path d="m256 88.816c-43.378 0-78.543 35.165-78.543 78.543 0 30.664 17.575 57.22 43.199 70.156v23.31l20.197 10.099v24.685l-20.197 10.099v19.636l20.197 10.099v24.685l-20.197 10.098v22.665l30.295 30.295h10.098l30.295-30.295v-155.377c25.624-12.935 43.199-39.492 43.199-70.155 0-43.377-35.165-78.543-78.543-78.543z" fill="#fdcb50"/><path d="m291.345 279.673c-36.946-21.814-61.728-62.038-61.728-108.049 0-31.67 11.741-60.598 31.109-82.669-1.563-.093-3.139-.14-4.725-.14-43.378 0-78.543 35.165-78.543 78.543 0 30.664 17.575 57.22 43.199 70.156v23.31l20.197 10.099v24.685l-20.197 10.099v19.636l20.197 10.099v24.685l-20.197 10.098v22.665l30.295 30.295h10.098l30.295-30.295z" fill="#fd8f01"/></g><g><g><g><path d="m261.05 433.184h-10.099c-2.652 0-5.196-1.054-7.071-2.929l-30.295-30.295c-1.875-1.875-2.929-4.418-2.929-7.071v-22.665c0-3.788 2.14-7.25 5.528-8.944l14.669-7.334v-12.324l-14.669-7.334c-3.388-1.694-5.528-5.157-5.528-8.944v-19.636c0-3.788 2.14-7.25 5.528-8.944l14.669-7.334v-12.324l-14.669-7.334c-3.388-1.694-5.528-5.157-5.528-8.944v-17.398c-26.801-15.945-43.199-44.548-43.199-76.067 0-48.823 39.72-88.543 88.543-88.543s88.543 39.72 88.543 88.543c0 31.519-16.398 60.122-43.199 76.066v149.463c0 2.652-1.054 5.196-2.929 7.071l-30.295 30.295c-1.875 1.872-4.418 2.926-7.07 2.926zm-5.957-20h1.814l24.437-24.438v-151.231c0-3.774 2.125-7.227 5.494-8.927 23.257-11.74 37.705-35.202 37.705-61.228 0-37.795-30.748-68.543-68.543-68.543s-68.543 30.748-68.543 68.543c0 26.026 14.448 49.488 37.706 61.228 3.369 1.701 5.494 5.153 5.494 8.927v17.13l14.669 7.334c3.388 1.694 5.528 5.157 5.528 8.944v24.685c0 3.788-2.14 7.25-5.528 8.944l-14.669 7.334v7.275l14.669 7.334c3.388 1.694 5.528 5.157 5.528 8.944v24.685c0 3.788-2.14 7.25-5.528 8.944l-14.669 7.334v12.342z" fill="#052a75"/></g><g><path d="m256.008 151.061c-5.523 0-10.003-4.477-10.003-10s4.473-10 9.996-10h.007c5.523 0 10 4.477 10 10s-4.478 10-10 10z" fill="#052a75"/></g></g><g><g><path d="m485.878 266h-107.103c-5.523 0-10-4.477-10-10s4.477-10 10-10h107.103c5.523 0 10 4.477 10 10s-4.477 10-10 10z" fill="#67ccd1"/></g><g><path d="m485.878 448.858h-75.303c-5.523 0-10-4.477-10-10v-77.745l-26.8-15.473c-4.783-2.761-6.422-8.877-3.66-13.66s8.878-6.42 13.66-3.66l31.8 18.359c3.094 1.786 5 5.087 5 8.66v73.519h65.303c5.523 0 10 4.477 10 10s-4.477 10-10 10z" fill="#67ccd1"/></g><g><path d="m378.784 185.022c-3.456 0-6.817-1.793-8.669-5.001-2.762-4.783-1.123-10.899 3.66-13.66l26.8-15.473v-77.746c0-5.523 4.477-10 10-10h75.303c5.523 0 10 4.477 10 10s-4.477 10-10 10h-65.303v73.519c0 3.573-1.906 6.874-5 8.66l-31.8 18.359c-1.575.91-3.294 1.342-4.991 1.342z" fill="#67ccd1"/></g><g><path d="m133.225 266h-107.103c-5.523 0-10-4.477-10-10s4.477-10 10-10h107.103c5.523 0 10 4.477 10 10s-4.477 10-10 10z" fill="#67ccd1"/></g><g><path d="m101.425 448.858h-75.303c-5.523 0-10-4.477-10-10s4.477-10 10-10h65.303v-73.519c0-3.573 1.906-6.874 5-8.66l31.8-18.359c4.782-2.762 10.899-1.123 13.66 3.66 2.762 4.783 1.123 10.899-3.66 13.66l-26.8 15.473v77.745c0 5.523-4.477 10-10 10z" fill="#67ccd1"/></g><g><path d="m133.216 185.022c-1.697 0-3.416-.432-4.991-1.341l-31.8-18.359c-3.094-1.786-5-5.087-5-8.66v-73.52h-65.303c-5.523 0-10-4.477-10-10s4.477-10 10-10h75.303c5.523 0 10 4.477 10 10v77.745l26.8 15.473c4.783 2.761 6.422 8.877 3.66 13.66-1.852 3.208-5.213 5.002-8.669 5.002z" fill="#67ccd1"/></g></g></g><g clip-rule="evenodd" fill="#fd6050" fill-rule="evenodd"><circle cx="26.122" cy="73.142" r="26.122"/><circle cx="26.122" cy="256" r="26.122"/><ellipse cx="26.122" cy="438.858" rx="26.122" ry="26.122" transform="matrix(.385 -.923 .923 .385 -389.007 294.131)"/><ellipse cx="485.878" cy="73.142" rx="26.122" ry="26.122" transform="matrix(.364 -.931 .931 .364 240.756 498.986)"/><ellipse cx="485.878" cy="256" rx="26.122" ry="26.122" transform="matrix(.987 -.16 .16 .987 -34.733 81.135)"/><ellipse cx="485.878" cy="438.858" rx="26.122" ry="26.122" transform="matrix(.331 -.944 .944 .331 -89.207 751.829)"/></g></g><g/><g/><g/><g/><g/><g/><g/><g/><g/><g/><g/><g/><g/><g/><g/></svg>