<svg id="Layer_1" enable-background="new 0 0 512 512" viewBox="0 0 512 512" xmlns="http://www.w3.org/2000/svg"><g><g clip-rule="evenodd" fill-rule="evenodd"><path d="m110.408 40.123v431.755c0 16.568 13.555 30.122 30.122 30.122h230.939c16.567 0 30.122-13.555 30.122-30.122 0-143.918 0-287.837 0-431.755 0-16.567-13.555-30.122-30.122-30.122-81.194 0-149.744 0-230.939 0-16.567-.001-30.122 13.554-30.122 30.122z" fill="#67ccd1"/><path d="m110.408 40.123v431.755c0 16.568 13.555 30.122 30.122 30.122h215.191c-90.984-67.716-149.926-176.077-149.926-298.212 0-71.014 19.936-137.367 54.501-193.788h-119.765c-16.568 0-30.123 13.555-30.123 30.123z" fill="#27a2cc"/><path d="m203.286 55.184h105.429l15.061-45.184h-135.551z" fill="#d2dcfd"/><path d="m185.714 245.587h140.572v114.54h-140.572z" fill="#fdcb50"/><path d="m203.286 55.184h33.453c6.839-15.651 14.713-30.745 23.558-45.184h-72.072z" fill="#93b2f4"/><path d="m208.15 245.587h-22.436v114.54h54.51c-16.49-35.498-27.537-74.032-32.074-114.54z" fill="#fd8f01"/></g><g><g><g><path d="m466.857 266h-60.245c-5.522 0-10-4.477-10-10s4.478-10 10-10h60.245c5.522 0 10 4.477 10 10s-4.477 10-10 10z" fill="#d2dcfd"/></g><g><path d="m441.87 193.089h-35.258c-5.522 0-10-4.477-10-10s4.478-10 10-10h31.116l25.6-25.6c3.907-3.905 10.237-3.905 14.143 0s3.905 10.237 0 14.142l-28.529 28.528c-1.877 1.876-4.42 2.93-7.072 2.93z" fill="#d2dcfd"/></g><g><path d="m470.399 367.44c-2.56 0-5.118-.976-7.071-2.929l-25.6-25.6h-31.116c-5.522 0-10-4.477-10-10s4.478-10 10-10h35.258c2.652 0 5.195 1.054 7.071 2.929l28.529 28.529c3.905 3.905 3.905 10.237 0 14.142-1.953 1.952-4.511 2.929-7.071 2.929z" fill="#d2dcfd"/></g><g><path d="m105.388 266h-60.246c-5.522 0-10-4.477-10-10s4.478-10 10-10h60.245c5.522 0 10 4.477 10 10s-4.477 10-9.999 10z" fill="#d2dcfd"/></g><g><path d="m105.388 193.089h-35.258c-2.652 0-5.195-1.054-7.071-2.929l-28.529-28.528c-3.905-3.905-3.905-10.237 0-14.143 3.906-3.905 10.236-3.905 14.143 0l25.6 25.6h31.115c5.522 0 10 4.477 10 10s-4.478 10-10 10z" fill="#d2dcfd"/></g><g><path d="m41.601 367.44c-2.56 0-5.118-.976-7.071-2.929-3.905-3.905-3.905-10.237 0-14.142l28.528-28.529c1.876-1.875 4.419-2.929 7.071-2.929h35.258c5.522 0 10 4.477 10 10s-4.478 10-10 10h-31.115l-25.6 25.6c-1.952 1.952-4.511 2.929-7.071 2.929z" fill="#d2dcfd"/></g></g><g><path d="m308.063 250.381c-5.522 0-10-4.477-10-10v-36.444c0-23.194-18.869-42.063-42.063-42.063s-42.063 18.87-42.063 42.063v36.444c0 5.523-4.478 10-10 10s-10-4.477-10-10v-36.444c0-34.222 27.842-62.063 62.063-62.063s62.063 27.842 62.063 62.063v36.444c0 5.523-4.477 10-10 10z" fill="#fff"/></g><g fill="#052a75"><path d="m371.47 0h-230.939c-22.124 0-40.123 17.999-40.123 40.123v431.755c0 22.124 17.999 40.122 40.123 40.122h230.939c22.123 0 40.122-17.999 40.122-40.122v-431.755c0-22.124-17.999-40.123-40.122-40.123zm-61.569 20-8.395 25.184h-91.014l-8.393-25.184zm81.691 451.878c0 11.095-9.026 20.122-20.122 20.122h-230.939c-11.096 0-20.123-9.027-20.123-20.122v-431.755c0-11.096 9.027-20.123 20.123-20.123h40.486l12.781 38.346c1.361 4.083 5.183 6.838 9.487 6.838h105.43c4.305 0 8.126-2.754 9.487-6.838l12.782-38.346h40.486c11.096 0 20.122 9.027 20.122 20.123z"/><path d="m271.06 446.816h-30.122c-5.522 0-10 4.477-10 10s4.478 10 10 10h30.122c5.522 0 10-4.477 10-10s-4.477-10-10-10z"/><path d="m245.587 302.445h.413v10.825c0 5.523 4.478 10 10 10s10-4.477 10-10v-10.825h.413c5.522 0 10-4.477 10-10s-4.478-10-10-10h-20.826c-5.522 0-10 4.477-10 10s4.477 10 10 10z"/><path d="m326.286 235.587h-140.572c-5.522 0-10 4.477-10 10v114.54c0 5.523 4.478 10 10 10h140.572c5.522 0 10-4.477 10-10v-114.54c0-5.523-4.477-10-10-10zm-10 114.54h-120.572v-94.54h120.572z"/></g></g><g clip-rule="evenodd" fill="#6864f7" fill-rule="evenodd"><ellipse cx="32.592" cy="145.551" rx="22.592" ry="22.592" transform="matrix(.682 -.731 .731 .682 -96.055 70.071)"/><ellipse cx="32.592" cy="256" rx="22.592" ry="22.592" transform="matrix(.707 -.707 .707 .707 -171.473 98.027)"/><ellipse cx="32.592" cy="366.449" rx="22.592" ry="22.592" transform="matrix(.974 -.228 .228 .974 -82.531 17.03)"/><ellipse cx="479.408" cy="366.449" rx="22.592" ry="22.592" transform="matrix(.707 -.707 .707 .707 -118.703 446.323)"/><ellipse cx="479.408" cy="256" rx="22.592" ry="22.592" transform="matrix(.973 -.232 .232 .973 -46.311 118.204)"/><ellipse cx="479.408" cy="145.551" rx="22.592" ry="22.592" transform="matrix(.979 -.206 .206 .979 -19.688 101.732)"/></g></g><g/><g/><g/><g/><g/><g/><g/><g/><g/><g/><g/><g/><g/><g/><g/></svg>