<svg id="Capa_1" enable-background="new 0 0 510 510" viewBox="0 0 510 510" xmlns="http://www.w3.org/2000/svg"><g><g><g><g><g><path d="m499.964 298.756.036-87.326-34.967-5.567c-5.394-23.147-14.523-44.855-26.704-64.471l20.828-28.671-61.727-61.768-28.684 20.805c-19.607-12.197-41.309-21.341-64.45-26.752l-5.541-34.969-87.325-.037-5.567 34.966c-23.147 5.394-44.855 14.523-64.47 26.705l-28.671-20.828-61.77 61.727 20.805 28.685c-12.197 19.607-21.341 41.308-26.752 64.449l-34.969 5.541-.036 87.324 34.967 5.567c5.394 23.147 14.523 44.855 26.704 64.47l-20.829 28.671 61.727 61.77 28.685-20.806c19.607 12.197 41.308 21.341 64.449 26.752l5.541 34.97 87.325.037 5.567-34.966c23.146-5.394 44.854-14.523 64.47-26.704l28.671 20.829 61.77-61.728-20.805-28.685c12.196-19.607 21.341-41.308 26.752-64.449z" fill="#67ccd1"/></g><g><path d="m270.335 313.784c-72.054-72.054-97.673-172.949-76.884-265.524-18.517 5.507-35.99 13.433-52.058 23.412l-28.671-20.828-61.77 61.727 20.805 28.685c-12.197 19.607-21.341 41.308-26.752 64.449l-34.969 5.541-.036 87.323 34.967 5.567c5.394 23.147 14.523 44.855 26.704 64.47l-20.829 28.671 61.727 61.77 28.685-20.806c19.607 12.197 41.308 21.341 64.449 26.752l5.541 34.97 87.325.037 5.567-34.966c23.146-5.394 44.854-14.523 64.47-26.704l28.671 20.829 61.77-61.728-.073-.101c-68.604-3.306-136.246-31.153-188.639-83.546z" fill="#27a2cc"/></g><g><path d="m363.879 376.201c33.178-29.825 54.044-73.076 54.044-121.201 0-89.98-72.943-162.923-162.923-162.923-24.468 0-47.676 5.394-68.5 15.057l-17.5 55.614 107.33 213.453z" fill="#fff"/></g><g><path d="m186.505 107.144c-55.756 25.874-94.428 82.344-94.428 147.856 0 89.98 72.943 162.923 162.923 162.923 41.855 0 80.018-15.789 108.873-41.728-34.024-13.978-65.904-34.776-93.539-62.411-56.971-56.973-84.905-131.975-83.829-206.64z" fill="#d2dcfd"/></g></g></g><g><g><g><path d="m172 172h166v166h-166z" fill="#fdcb50"/></g><g><path d="m270.335 313.784c-40.382-40.382-66.157-89.826-77.371-141.784h-20.964v166h125.833c-9.547-7.387-18.737-15.455-27.498-24.216z" fill="#fd8f01"/></g><g><path d="m230 172h50v56h-50z" fill="#fff"/></g></g></g></g><g><g fill="#052a75"><path d="m501.572 201.555-28.435-4.527c-5.114-19.299-12.772-37.784-22.83-55.11l16.94-23.318c2.89-3.979 2.459-9.468-1.018-12.946l-61.727-61.77c-3.475-3.477-8.965-3.914-12.944-1.026l-23.329 16.92c-17.317-10.069-35.796-17.741-55.093-22.871l-4.505-28.437c-.77-4.856-4.956-8.433-9.873-8.435l-87.324-.035c-.001 0-.002 0-.004 0-4.916 0-9.103 3.573-9.876 8.428l-4.526 28.434c-19.3 5.115-37.782 12.772-55.109 22.83l-23.319-16.939c-3.977-2.89-9.467-2.459-12.945 1.017l-61.77 61.727c-3.479 3.476-3.913 8.964-1.026 12.945l16.92 23.33c-10.068 17.317-17.739 35.795-22.87 55.091l-28.436 4.505c-4.857.77-8.434 4.956-8.436 9.873l-.037 87.324c-.002 4.918 3.571 9.107 8.428 9.88l28.435 4.527c5.114 19.299 12.772 37.783 22.83 55.11l-16.942 23.318c-2.89 3.979-2.459 9.468 1.018 12.946l61.728 61.771c3.476 3.479 8.965 3.913 12.944 1.026l23.329-16.921c17.318 10.07 35.796 17.741 55.092 22.871l4.506 28.437c.77 4.856 4.956 8.433 9.873 8.435l87.324.035h.004c4.915 0 9.103-3.573 9.876-8.428l4.527-28.434c19.299-5.115 37.783-12.773 55.109-22.83l23.319 16.94c3.979 2.89 9.467 2.46 12.945-1.017l61.77-61.727c3.479-3.476 3.913-8.965 1.026-12.945l-16.921-23.329c10.069-17.317 17.74-35.795 22.87-55.092l28.437-4.505c4.857-.77 8.434-4.956 8.436-9.873l.037-87.325c.002-4.918-3.571-9.107-8.428-9.88zm-11.604 88.66-26.538 4.205c-4.017.636-7.247 3.641-8.173 7.6-5.082 21.735-13.664 42.408-25.506 61.444-2.147 3.453-1.991 7.862.396 11.154l15.793 21.774-49.692 49.658-21.765-15.811c-3.289-2.39-7.699-2.551-11.152-.405-19.048 11.829-39.727 20.395-61.464 25.46-3.96.923-6.967 4.151-7.606 8.167l-4.225 26.535-70.251-.029-4.205-26.538c-.637-4.016-3.641-7.247-7.6-8.172-21.734-5.083-42.407-13.664-61.444-25.506-3.453-2.147-7.863-1.992-11.153.396l-21.774 15.793-49.659-49.692 15.812-21.764c2.39-3.29 2.55-7.699.404-11.153-11.829-19.048-20.396-39.728-25.46-61.465-.923-3.96-4.151-6.967-8.167-7.606l-26.535-4.225.028-70.251 26.537-4.205c4.017-.636 7.247-3.641 8.173-7.6 5.083-21.735 13.665-42.408 25.506-61.445 2.147-3.453 1.991-7.861-.396-11.153l-15.792-21.772 49.691-49.658 21.765 15.81c3.288 2.39 7.697 2.55 11.152.405 19.049-11.829 39.729-20.395 61.465-25.46 3.96-.923 6.967-4.152 7.606-8.167l4.224-26.535 70.252.029 4.204 26.538c.637 4.016 3.641 7.247 7.6 8.172 21.736 5.083 42.409 13.664 61.445 25.506 3.451 2.147 7.861 1.991 11.153-.396l21.774-15.793 49.657 49.692-15.811 21.764c-2.39 3.29-2.55 7.699-.404 11.153 11.829 19.048 20.395 39.728 25.46 61.465.923 3.96 4.151 6.967 8.167 7.606l26.535 4.225z"/><path d="m338 162h-166c-5.522 0-10 4.477-10 10v166c0 5.523 4.478 10 10 10h166c5.522 0 10-4.477 10-10v-166c0-5.523-4.478-10-10-10zm-10 166h-146v-146h146z"/></g><g><path d="m241.518 296.736h-26.535c-5.522 0-10-4.477-10-10s4.478-10 10-10h26.535c5.522 0 10 4.477 10 10s-4.478 10-10 10z" fill="#fff"/></g></g></g><g/><g/><g/><g/><g/><g/><g/><g/><g/><g/><g/><g/><g/><g/><g/></svg>