<svg id="Capa_1" enable-background="new 0 0 509.986 509.986" viewBox="0 0 509.986 509.986" xmlns="http://www.w3.org/2000/svg"><g><g><g><path d="m375.887 499.986h-241.786v-401.457c0-6.996 4.462-13.21 11.085-15.44l215.267-72.482c7.584-2.554 15.434 3.094 15.434 11.104z" fill="#93b2f4"/></g><g><path d="m352.994 427.747c-90.039 0-169.78-44.043-218.893-111.747v183.986h241.786v-73.213c-7.548.633-15.18.974-22.893.974z" fill="#6864f7"/></g><g><path d="m134.101 200.776-80.684 26.314c-7.708 2.514-12.925 9.708-12.925 17.823v255.072h93.609z" fill="#27a2cc"/></g><g><path d="m459.909 122.491-84.022 27.403v350.091h93.609v-370.527c0-4.98-4.856-8.509-9.587-6.967z" fill="#27a2cc"/></g></g><g><g><path d="m254.994 509.986c-5.523 0-10-4.478-10-10v-92.17c0-5.522 4.477-10 10-10s10 4.478 10 10v92.17c0 5.522-4.477 10-10 10z" fill="#fff"/></g><g><path d="m195.097 367.295c-5.523 0-10-4.478-10-10v-41.287c0-5.522 4.477-10 10-10s10 4.478 10 10v41.287c0 5.523-4.477 10-10 10z" fill="#fff"/></g><g><path d="m314.892 367.295c-5.523 0-10-4.478-10-10v-41.287c0-5.522 4.477-10 10-10 5.522 0 10 4.478 10 10v41.287c0 5.523-4.478 10-10 10z" fill="#fff"/></g><g><path d="m254.994 276.143c-5.523 0-10-4.478-10-10v-41.287c0-5.523 4.477-10 10-10s10 4.477 10 10v41.287c0 5.522-4.477 10-10 10z" fill="#fff"/></g><g><path d="m195.097 184.428c-5.523 0-10-4.478-10-10v-41.288c0-5.522 4.477-10 10-10s10 4.478 10 10v41.288c0 5.523-4.477 10-10 10z" fill="#fff"/></g><g><path d="m314.892 184.428c-5.523 0-10-4.478-10-10v-81.994c0-5.522 4.477-10 10-10 5.522 0 10 4.478 10 10v81.994c0 5.523-4.478 10-10 10z" fill="#fff"/></g><g><path d="m422.691 509.986c-5.523 0-10-4.478-10-10v-92.17c0-5.522 4.477-10 10-10 5.522 0 10 4.478 10 10v92.17c0 5.522-4.477 10-10 10z" fill="#fff"/></g><g><path d="m422.691 276.143c-5.523 0-10-4.478-10-10v-71.817c0-5.522 4.477-10 10-10 5.522 0 10 4.478 10 10v71.817c0 5.522-4.477 10-10 10z" fill="#fff"/></g><g><path d="m87.296 362.537c-5.523 0-10-4.478-10-10v-77.923c0-5.522 4.477-10 10-10s10 4.478 10 10v77.923c0 5.522-4.477 10-10 10z" fill="#fff"/></g><g><path d="m195.097 509.731c-5.523 0-10-4.478-10-10v-92.17c0-5.522 4.477-10 10-10s10 4.478 10 10v92.17c0 5.522-4.477 10-10 10z" fill="#fff"/></g><g><path d="m314.892 509.731c-5.523 0-10-4.478-10-10v-92.17c0-5.522 4.477-10 10-10 5.522 0 10 4.478 10 10v92.17c0 5.522-4.478 10-10 10z" fill="#fff"/></g><g><path d="m254.994 367.55c-5.523 0-10-4.477-10-10v-41.288c0-5.522 4.477-10 10-10s10 4.478 10 10v41.288c0 5.523-4.477 10-10 10z" fill="#fff"/></g><g><path d="m195.097 275.889c-5.523 0-10-4.477-10-10v-41.288c0-5.523 4.477-10 10-10s10 4.477 10 10v41.288c0 5.523-4.477 10-10 10z" fill="#fff"/></g><g><path d="m314.892 275.889c-5.523 0-10-4.477-10-10v-41.288c0-5.523 4.477-10 10-10 5.522 0 10 4.477 10 10v41.288c0 5.523-4.478 10-10 10z" fill="#fff"/></g><g><path d="m254.994 184.682c-5.523 0-10-4.478-10-10v-61.641c0-5.522 4.477-10 10-10s10 4.478 10 10v61.641c0 5.523-4.477 10-10 10z" fill="#fff"/></g><g><path d="m87.296 509.731c-5.523 0-10-4.478-10-10v-92.17c0-5.522 4.477-10 10-10s10 4.478 10 10v92.17c0 5.522-4.477 10-10 10z" fill="#fff"/></g><g><path d="m422.691 367.55c-5.523 0-10-4.477-10-10v-41.288c0-5.522 4.477-10 10-10 5.522 0 10 4.478 10 10v41.288c0 5.523-4.477 10-10 10z" fill="#fff"/></g><path d="m499.994 489.986h-20.498v-360.528c0-5.533-2.673-10.776-7.15-14.025-4.474-3.247-10.285-4.161-15.537-2.447l-70.921 23.13v-114.407c0-6.977-3.381-13.57-9.045-17.639-5.658-4.066-12.977-5.163-19.58-2.942l-215.268 72.483c-10.703 3.604-17.894 13.618-17.894 24.918v94.991l-73.784 24.063c-11.858 3.866-19.825 14.85-19.825 27.33v245.072h-20.498c-13.101.422-13.384 19.462 0 20 19.578-.003 102.817.002 124.107 0 84.316-.001 284.043 0 365.893 0 13.053-.398 13.426-19.448 0-19.999zm-449.502-245.072c0-3.799 2.421-7.141 6.026-8.316l67.583-22.041v275.43h-73.609zm93.609-44.137v-102.248c0-2.705 1.719-5.102 4.276-5.963 0 0 215.268-72.483 215.268-72.483 1.065-.4 2.287.491 2.242 1.627.006 85.111-.005 378.377 0 468.276h-221.786zm241.787 289.209v-332.835l73.608-24.006v356.841z" fill="#052a75"/></g></g><g/><g/><g/><g/><g/><g/><g/><g/><g/><g/><g/><g/><g/><g/><g/></svg>