<svg id="Capa_1" enable-background="new 0 0 512 512" viewBox="0 0 512 512" xmlns="http://www.w3.org/2000/svg"><g><g clip-rule="evenodd" fill-rule="evenodd"><path d="m10 145.551h441.796v316.285h-441.796z" fill="#fff"/><path d="m451.796 261.499v200.338h-186.067c-8.813-18.917-13.743-40.007-13.743-62.251 0-81.516 66.082-147.599 147.598-147.599 18.385-.001 35.979 3.371 52.212 9.512z" fill="#d2dcfd"/><path d="m10 55.183h441.796v90.368h-441.796z" fill="#fdcb50"/><path d="m55.183 190.735h50.204v45.183h-50.204z" fill="#fd6050"/><path d="m55.183 281.102h50.204v45.183h-50.204z" fill="#fd6050"/><path d="m55.183 371.469h50.204v45.183h-50.204z" fill="#fd6050"/><g fill="#bc9af4"><path d="m155.592 190.735h50.204v45.183h-50.204z"/><path d="m155.592 281.102h50.204v45.183h-50.204z"/><path d="m155.592 371.469h50.204v45.183h-50.204z"/><path d="m256 190.735h50.204v45.183h-50.204z"/><path d="m256 326.285h15.447c15.533-4.164 30.361-20.19 34.757-41.002v-4.181h-50.204z"/></g><path d="m271.447 326.285h34.757v-41.002c-13.935 11.399-25.75 25.292-34.757 41.002z" fill="#6864f7"/><path d="m356.408 190.735h50.204v45.183h-50.204z" fill="#bc9af4"/><path d="m399.585 502c56.408 0 102.415-46.007 102.415-102.415s-46.007-102.415-102.415-102.415-102.415 46.007-102.415 102.415 46.007 102.415 102.415 102.415z" fill="#67ccd1"/></g><g><path d="m461.796 305.994v-250.81c0-5.523-4.477-10-10-10h-45.225v-12.593c0-17.97-14.62-32.591-32.592-32.591-17.971 0-32.591 14.621-32.591 32.591v12.592h-30.204v-12.592c0-17.97-14.621-32.591-32.592-32.591s-32.592 14.621-32.592 32.591v12.592h-30.204v-12.592c0-17.97-14.62-32.591-32.592-32.591-17.971 0-32.591 14.621-32.591 32.591v12.592h-30.204v-12.592c0-17.97-14.621-32.591-32.593-32.591-17.97 0-32.591 14.621-32.591 32.591v12.592h-45.225c-5.523 0-10 4.477-10 10v406.653c0 5.523 4.477 10 10 10h303.528c20.638 24.542 51.557 40.164 86.057 40.164 61.986 0 112.415-50.429 112.415-112.415 0-38.998-19.962-73.422-50.204-93.591zm-100.408-273.403c0-6.943 5.649-12.591 12.592-12.591s12.591 5.648 12.591 12.591v12.592h-25.184v-12.592zm-95.388 0c0-6.943 5.649-12.591 12.592-12.591s12.591 5.648 12.591 12.591v12.592h-25.183zm-95.387 0c0-6.943 5.648-12.591 12.592-12.591s12.592 5.648 12.592 12.591v12.592h-25.184zm-95.388 0c0-6.943 5.649-12.591 12.592-12.591s12.591 5.648 12.591 12.591v12.592h-25.183zm-55.225 32.593h35.225v12.592c0 17.971 14.621 32.592 32.591 32.592 5.523 0 10-4.477 10-10s-4.477-10-10-10c-6.943 0-12.591-5.648-12.591-12.592v-12.592h75.388v12.592c0 17.971 14.621 32.592 32.591 32.592 5.523 0 10-4.477 10-10s-4.477-10-10-10c-6.943 0-12.591-5.648-12.591-12.592v-12.592h75.387v12.592c0 17.971 14.621 32.592 32.592 32.592 5.523 0 10-4.477 10-10s-4.477-10-10-10c-6.943 0-12.592-5.648-12.592-12.592v-12.592h75.388v12.592c0 17.971 14.621 32.592 32.591 32.592 5.523 0 10-4.477 10-10s-4.477-10-10-10c-6.943 0-12.591-5.648-12.591-12.592v-12.592h80.409v70.368h-421.797zm0 386.652v-296.285h421.796v139.843c-13.039-5.302-27.291-8.224-42.211-8.224-61.986 0-112.415 50.429-112.415 112.415 0 18.85 4.664 36.632 12.898 52.251zm379.585 40.164c-50.958 0-92.415-41.457-92.415-92.415s41.457-92.415 92.415-92.415 92.415 41.457 92.415 92.415-41.457 92.415-92.415 92.415z" fill="#052a75"/><g><path d="m424.931 434.931c-2.559 0-5.119-.976-7.071-2.929l-25.346-25.346c-1.875-1.875-2.929-4.419-2.929-7.071v-56.328c0-5.523 4.477-10 10-10s10 4.477 10 10v52.186l22.417 22.417c3.905 3.905 3.905 10.237 0 14.143-1.953 1.952-4.512 2.928-7.071 2.928z" fill="#fff"/></g></g></g><g/><g/><g/><g/><g/><g/><g/><g/><g/><g/><g/><g/><g/><g/><g/></svg>