<svg id="Capa_1" enable-background="new 0 0 512 512" viewBox="0 0 512 512" xmlns="http://www.w3.org/2000/svg"><g><g><path d="m464.25 203.481c-5.169-20.558-13.3-39.932-23.916-57.655l15.637-37.738-52.098-52.112-37.78 15.643c-17.726-10.607-37.103-18.73-57.663-23.89l-15.619-37.719-73.688-.01-15.642 37.75c-20.558 5.169-39.933 13.3-57.655 23.916l-37.738-15.636-52.112 52.098 15.644 37.78c-10.607 17.726-18.73 37.103-23.89 57.663l-37.72 15.618-.01 73.688 37.75 15.642c5.169 20.558 13.3 39.932 23.916 57.655l-15.636 37.738 52.098 52.112 37.779-15.643c17.727 10.607 37.104 18.73 57.663 23.89l15.619 37.719 73.688.01 15.642-37.75c20.558-5.169 39.933-13.301 57.655-23.916l37.738 15.636 52.112-52.098-15.644-37.78c10.607-17.726 18.73-37.103 23.89-57.663l37.719-15.619.01-73.688z" fill="#bc9af4"/><path d="m363.27 395.762c-136.432 0-247.032-110.6-247.032-247.032 0-29.25 5.097-57.305 14.429-83.345l-22.579-9.355-52.112 52.098 15.644 37.78c-10.607 17.726-18.73 37.103-23.89 57.663l-37.72 15.618-.01 73.688 37.75 15.642c5.169 20.558 13.3 39.932 23.916 57.655l-15.636 37.738 52.098 52.112 37.779-15.643c17.727 10.607 37.104 18.73 57.663 23.889l15.619 37.719 73.688.01 15.642-37.75c20.558-5.169 39.932-13.301 57.655-23.916l37.738 15.636 52.112-52.098-9.343-22.562c-26.058 9.348-54.137 14.453-83.411 14.453z" fill="#6864f7"/><circle cx="256" cy="256" fill="#fdcb50" r="159.762"/><circle cx="256" cy="256" fill="#fff" r="115.583"/></g><g><path d="m256 179.175c-5.523 0-10-4.477-10-10v-26.749c0-5.523 4.477-10 10-10 5.522 0 10 4.477 10 10v26.749c0 5.523-4.478 10-10 10z" fill="#93b2f4"/><path d="m275.262 285.261c-2.56 0-5.118-.976-7.071-2.929l-19.262-19.262c-1.875-1.875-2.929-4.419-2.929-7.071v-42.645c0-5.523 4.477-10 10-10 5.522 0 10 4.477 10 10v38.502l16.333 16.333c3.905 3.905 3.905 10.237 0 14.143-1.953 1.953-4.512 2.929-7.071 2.929z" fill="#fd6050"/><g fill="#93b2f4"><path d="m256 379.574c-5.523 0-10-4.477-10-10v-26.749c0-5.523 4.477-10 10-10 5.522 0 10 4.477 10 10v26.749c0 5.523-4.478 10-10 10z"/><path d="m369.574 266h-26.749c-5.522 0-10-4.477-10-10s4.478-10 10-10h26.749c5.522 0 10 4.477 10 10s-4.477 10-10 10z"/><path d="m169.175 266h-26.749c-5.523 0-10-4.477-10-10s4.477-10 10-10h26.749c5.523 0 10 4.477 10 10s-4.477 10-10 10z"/><path d="m317.395 204.605c-2.56 0-5.118-.976-7.071-2.929-3.905-3.905-3.905-10.237 0-14.142l18.915-18.915c3.907-3.905 10.237-3.905 14.143 0s3.905 10.237 0 14.142l-18.915 18.915c-1.954 1.953-4.514 2.929-7.072 2.929z"/><path d="m175.691 346.309c-2.559 0-5.119-.976-7.071-2.929-3.905-3.905-3.905-10.237 0-14.143l18.915-18.915c3.905-3.905 10.237-3.905 14.143 0 3.905 3.905 3.905 10.237 0 14.143l-18.915 18.915c-1.953 1.953-4.513 2.929-7.072 2.929z"/><path d="m336.31 346.309c-2.56 0-5.118-.976-7.071-2.929l-18.915-18.915c-3.905-3.905-3.905-10.237 0-14.142 3.906-3.905 10.236-3.906 14.143 0l18.915 18.915c3.905 3.905 3.905 10.237 0 14.142-1.954 1.953-4.513 2.929-7.072 2.929z"/><path d="m194.605 204.605c-2.559 0-5.119-.976-7.071-2.929l-18.915-18.915c-3.905-3.905-3.905-10.237 0-14.143 3.905-3.905 10.237-3.905 14.143 0l18.915 18.915c3.905 3.905 3.905 10.237 0 14.143-1.953 1.953-4.512 2.929-7.072 2.929z"/></g><path d="m505.828 209.885-33.172-13.746c-4.915-17.824-12.023-34.96-21.186-51.069l13.737-33.154c1.548-3.737.693-8.038-2.166-10.898l-52.098-52.112c-2.86-2.86-7.162-3.716-10.897-2.169l-33.201 13.747c-16.111-9.154-33.249-16.255-51.074-21.162l-13.721-33.137c-1.548-3.737-5.193-6.174-9.238-6.174l-73.687-.011h-.001c-4.044 0-7.69 2.436-9.238 6.172l-13.746 33.172c-17.823 4.914-34.96 12.023-51.069 21.185l-33.155-13.737c-3.735-1.548-8.037-.693-10.898 2.166l-52.112 52.098c-2.861 2.859-3.717 7.161-2.169 10.897l13.747 33.2c-9.154 16.111-16.255 33.25-21.162 51.076l-33.137 13.721c-3.737 1.547-6.174 5.193-6.174 9.238l-.011 73.687c0 4.045 2.436 7.691 6.172 9.24l33.173 13.746c4.915 17.824 12.023 34.961 21.184 51.069l-13.737 33.154c-1.548 3.737-.693 8.038 2.167 10.898l52.098 52.112c2.86 2.861 7.162 3.716 10.897 2.169l33.2-13.747c16.112 9.154 33.251 16.255 51.076 21.162l13.721 33.137c1.547 3.737 5.193 6.174 9.238 6.174l73.688.01h.001c4.044 0 7.69-2.436 9.238-6.172l13.745-33.172c17.824-4.914 34.961-12.023 51.07-21.185l33.153 13.737c3.737 1.547 8.037.693 10.898-2.166l52.112-52.098c2.86-2.859 3.717-7.161 2.169-10.897l-13.747-33.2c9.153-16.111 16.255-33.25 21.162-51.076l33.137-13.721c3.736-1.547 6.173-5.193 6.174-9.238l.011-73.686c.001-4.045-2.436-7.692-6.172-9.24zm-13.838 76.242-31.546 13.062c-2.924 1.211-5.103 3.735-5.873 6.805-4.851 19.325-12.512 37.817-22.771 54.963-1.624 2.714-1.868 6.038-.658 8.96l13.087 31.606-42.661 42.649-31.564-13.079c-2.925-1.212-6.249-.968-8.967.66-17.144 10.269-35.633 17.939-54.955 22.796-3.067.771-5.589 2.948-6.8 5.87l-13.085 31.578-60.324-.008-13.062-31.546c-1.211-2.924-3.735-5.103-6.805-5.874-19.323-4.85-37.815-12.511-54.962-22.771-2.714-1.625-6.038-1.869-8.96-.658l-31.606 13.087-42.65-42.661 13.079-31.565c1.212-2.925.967-6.251-.66-8.967-10.268-17.143-17.938-35.632-22.796-54.955-.771-3.067-2.948-5.589-5.87-6.8l-31.578-13.085.008-60.324 31.546-13.062c2.924-1.211 5.103-3.735 5.874-6.805 4.85-19.324 12.511-37.816 22.771-54.962 1.625-2.714 1.869-6.038.658-8.96l-13.087-31.606 42.662-42.649 31.565 13.079c2.924 1.212 6.25.968 8.966-.66 17.144-10.269 35.634-17.939 54.955-22.796 3.068-.771 5.59-2.948 6.8-5.87l13.084-31.578 60.324.008 13.062 31.546c1.211 2.925 3.735 5.103 6.805 5.874 19.324 4.85 37.815 12.511 54.962 22.771 2.715 1.625 6.039 1.867 8.96.658l31.607-13.087 42.649 42.661-13.079 31.565c-1.212 2.925-.967 6.251.659 8.967 10.27 17.143 17.939 35.632 22.798 54.955.771 3.067 2.948 5.589 5.87 6.8l31.577 13.085z" fill="#052a75"/><path d="m256 86.238c-93.607 0-169.762 76.155-169.762 169.762s76.155 169.762 169.762 169.762c93.606 0 169.762-76.155 169.762-169.762s-76.156-169.762-169.762-169.762zm0 319.524c-82.579 0-149.762-67.183-149.762-149.762s67.183-149.762 149.762-149.762 149.762 67.183 149.762 149.762-67.183 149.762-149.762 149.762z" fill="#052a75"/><path d="m256 130.417c-69.247 0-125.583 56.336-125.583 125.583s56.336 125.583 125.583 125.583 125.583-56.336 125.583-125.583-56.336-125.583-125.583-125.583zm0 231.166c-58.218 0-105.583-47.364-105.583-105.583s47.365-105.583 105.583-105.583c58.219 0 105.583 47.364 105.583 105.583s-47.364 105.583-105.583 105.583z" fill="#052a75"/></g></g><g/><g/><g/><g/><g/><g/><g/><g/><g/><g/><g/><g/><g/><g/><g/></svg>