<svg id="Capa_1" enable-background="new 0 0 512 512" viewBox="0 0 512 512" xmlns="http://www.w3.org/2000/svg"><g><g clip-rule="evenodd" fill-rule="evenodd"><path d="m245.198 107.757c44.733 20.018 76.103 65.001 76.103 116.96v251.99h-256.077v-251.99c0-51.959 31.37-96.942 76.103-116.96v-33.163h103.871z" fill="#bc9af4"/><path d="m321.301 278.431v198.276h-119.726c-2.497-17.703.861-35.981 10.109-52.001l62.786-108.749c11.138-19.292 28.107-31.776 46.831-37.526z" fill="#6864f7"/><path d="m126.415 10h133.695v64.594h-133.695z" fill="#fff"/><path d="m320.731 212.633h-254.937c-.377 3.979-.57 8.01-.57 12.083v191.745h151.22l61.922-16.885 42.934 16.885v-191.745c.001-4.073-.192-8.104-.569-12.083z" fill="#fff"/><path d="m216.444 416.462h104.856v-138.031c-18.724 5.75-35.692 18.234-46.83 37.526z" fill="#d2dcfd"/><path d="m409.647 502-127.213-.055c-28.424-.013-45.356-30.853-31.619-54.647l62.786-108.749c14.555-25.21 50.83-24.688 65.312.369l62.706 108.501c14.408 24.93-3.022 54.593-31.972 54.581z" fill="#fdcb50"/><path d="m232.312 275.497c9.763 9.763 9.763 25.737 0 35.499l-42.6 42.6c-9.762 9.763-25.737 9.763-35.5 0-9.762-9.763-9.762-25.737 0-35.499l42.6-42.6c9.763-9.762 25.738-9.762 35.5 0z" fill="#fdcb50"/><path d="m154.212 318.097c-9.762 9.763-9.762 25.737 0 35.5 9.762 9.762 25.737 9.762 35.499 0l21.3-21.3-35.499-35.499z" fill="#67ccd1"/></g><g><g fill="#052a75"><path d="m249.634 293.247c0-9.396-3.641-18.21-10.251-24.821-.001 0 0 .001 0 0-13.686-13.683-35.956-13.685-49.642 0l-42.6 42.6c-13.686 13.687-13.686 35.956 0 49.642 6.61 6.611 15.425 10.251 24.821 10.251s18.211-3.641 24.821-10.251l42.599-42.6c6.611-6.61 10.252-15.425 10.252-24.821zm-24.394 10.679-42.6 42.6c-2.833 2.833-6.625 4.393-10.679 4.393-4.053 0-7.846-1.561-10.678-4.394-5.889-5.888-5.889-15.469 0-21.357l42.6-42.6c2.944-2.944 6.811-4.417 10.679-4.417 3.867 0 7.734 1.472 10.678 4.417 2.833 2.833 4.393 6.625 4.393 10.678.001 4.055-1.56 7.847-4.393 10.68z"/><path d="m450.276 442.414-62.705-108.501c-8.697-15.049-24.257-24.032-41.623-24.032h-.011c-5.08.001-10.002.781-14.637 2.265v-87.429c0-52.118-29.661-99.809-76.103-123.271v-16.852h4.912c5.522 0 10-4.477 10-10v-64.594c0-5.523-4.478-10-10-10h-133.694c-5.523 0-10 4.477-10 10v64.594c0 5.523 4.477 10 10 10h4.912v16.851c-46.441 23.462-76.103 71.153-76.103 123.271v251.99c0 5.523 4.477 10 10 10h175.935c.356.69.729 1.375 1.121 2.054 8.373 14.51 23.382 23.177 40.149 23.184l127.214.056h.022c17.31-.001 32.641-8.652 41.009-23.146 8.274-14.332 8.125-31.692-.398-46.44zm-313.861-422.414h113.694v44.594h-113.694zm-61.191 446.707v-241.99c0-46.425 27.55-88.752 70.187-107.832 3.599-1.61 5.916-5.185 5.916-9.128v-23.163h83.871v23.163c0 3.943 2.316 7.518 5.916 9.128 42.637 19.08 70.188 61.406 70.188 107.832v100.182c-2.397 2.592-4.533 5.484-6.36 8.649l-62.786 108.749c-4.394 7.61-6.464 16.02-6.214 24.41zm358.129 12.147c-4.753 8.232-13.607 13.146-23.688 13.146h-.014l-127.213-.055c-9.682-.004-18.005-4.808-22.836-13.18-4.822-8.358-4.87-18.252-.127-26.467l62.785-108.749c4.94-8.556 13.793-13.665 23.681-13.667h.006c10.14 0 19.227 5.249 24.308 14.04l62.705 108.501c4.976 8.61 5.12 18.244.393 26.431z"/></g><g fill="#fff"><path d="m346.366 428.912c5.522 0 10-4.477 10-10v-43.176c0-5.523-4.478-10-10-10s-10 4.477-10 10v43.176c0 5.523 4.477 10 10 10z"/><path d="m346.37 446.815h-.008c-5.522 0-9.996 4.477-9.996 10s4.481 10 10.004 10 10-4.477 10-10-4.478-10-10-10z"/></g></g></g><g/><g/><g/><g/><g/><g/><g/><g/><g/><g/><g/><g/><g/><g/><g/></svg>