<svg id="Capa_1" enable-background="new 0 0 510.028 510.028" viewBox="0 0 510.028 510.028" xmlns="http://www.w3.org/2000/svg"><g><g><g><path d="m124.357 358.234-11.623 51.137 83.18-7.277-20.326-48.342z" fill="#db4b86"/><ellipse cx="138.095" cy="220.236" fill="#fd7da0" rx="128" ry="138.389" transform="matrix(.996 -.087 .087 .996 -18.67 12.874)"/><path d="m126.034 82.374c-15.693 1.373-30.453 5.76-43.847 12.582-4.718 17.157-7.169 35.112-7.169 53.447 0 43.484 14.213 86.009 40.02 119.741 14.074 18.396 31.222 33.757 50.38 45.398l-1.659 5.165c-3.942 12.273-3.129 25.426 1.996 36.979 62.289-13.875 106.011-76.211 99.853-146.606-6.662-76.139-69.151-132.867-139.574-126.706z" fill="#db4b86"/></g><g><path d="m385.678 358.234 11.623 51.137-83.181-7.277 20.327-48.342z" fill="#fd8f01"/><ellipse cx="371.939" cy="220.236" fill="#fdcb50" rx="138.389" ry="128" transform="matrix(.087 -.996 .996 .087 120.124 571.565)"/><path d="m244.427 209.08c-6.159 70.395 37.563 132.731 99.853 146.606 5.125-11.553 5.938-24.707 1.996-36.98l-1.658-5.165c19.159-11.642 36.307-27.003 50.38-45.398 25.808-33.732 40.021-76.257 40.021-119.741 0-18.335-2.452-36.29-7.169-53.447-13.394-6.821-28.154-11.209-43.847-12.582-70.426-6.16-132.915 50.568-139.576 126.707z" fill="#fd8f01"/></g><path d="m229.304 284.678-16.036 49.93h83.498l-16.036-49.93z" fill="#91b706"/><ellipse cx="255.017" cy="148.403" fill="#b1d952" rx="128" ry="138.389"/><path d="m308.103 242.195c-70.693 0-128-61.959-128-138.389 0-31.225 9.569-60.032 25.704-83.188-46.266 20.851-78.79 70.208-78.79 127.784 0 76.43 57.308 138.389 128 138.389 41.811 0 78.937-21.677 102.296-55.201-15.15 6.829-31.771 10.605-49.21 10.605z" fill="#91b706"/></g><g><path d="m298.529 161.85-23.512-13.574 23.512-13.574c4.783-2.761 6.422-8.877 3.66-13.66-2.761-4.782-8.877-6.422-13.66-3.66l-23.512 13.574v-27.149c0-5.523-4.478-10-10-10-5.523 0-10 4.477-10 10v27.149l-23.512-13.574c-4.783-2.76-10.898-1.123-13.66 3.66s-1.123 10.899 3.66 13.66l23.512 13.574-23.512 13.574c-4.783 2.761-6.422 8.877-3.66 13.66 1.852 3.208 5.213 5.001 8.669 5.001 1.696 0 3.416-.432 4.991-1.341l23.512-13.574v27.149c0 5.523 4.477 10 10 10 5.522 0 10-4.477 10-10v-27.149l23.512 13.574c1.575.909 3.294 1.341 4.99 1.341 3.456 0 6.818-1.793 8.67-5.001 2.762-4.783 1.123-10.898-3.66-13.66z" fill="#fff"/><g><path d="m384.872 72.412c-3.861-.338-7.759-.498-11.638-.49-24.182-43.057-68.123-71.908-118.217-71.908-50.096 0-94.039 28.855-118.221 71.917-3.88-.008-7.774.144-11.634.482-36.869 3.226-70.133 21.73-93.666 52.104-23.353 30.142-34.318 68.407-30.876 107.747 3.441 39.34 20.885 75.12 49.117 100.749 18.355 16.662 39.837 27.754 62.673 32.663l-9.428 41.48c-.708 3.116.115 6.382 2.215 8.79 1.908 2.188 4.661 3.427 7.535 3.427.29 0 .581-.013.873-.038l35.335-3.091c5.072 10.041 5.335 22.002.455 32.345-8.73 18.5-6.817 40.37 4.993 57.073 1.949 2.756 5.037 4.228 8.174 4.228 1.995 0 4.011-.596 5.764-1.835 4.51-3.188 5.581-9.429 2.393-13.938-7.655-10.827-8.895-25.001-3.237-36.993 6.393-13.547 7.072-28.898 2.344-42.707l26.96-2.359c3.183-.278 6.041-2.061 7.691-4.797s1.894-6.096.655-9.041l-16.515-39.277c9.176-3.742 17.956-8.539 26.182-14.333h34.052c5.5 12.894 4.68 27.841-2.47 40.096-11.735 20.113-11.735 45.102 0 65.215 8.108 13.896 8.108 31.16 0 45.056-2.783 4.77-1.173 10.894 3.598 13.677 1.585.925 3.318 1.364 5.03 1.364 3.44 0 6.788-1.776 8.647-4.962 11.735-20.113 11.735-45.102 0-65.215-8.108-13.896-8.108-31.16 0-45.056 8.923-15.293 11.047-33.488 6.364-50.175h25.215c8.226 5.794 17.007 10.591 26.183 14.333l-16.515 39.278c-1.238 2.945-.994 6.305.656 9.041 1.649 2.736 4.508 4.519 7.691 4.797l26.959 2.359c-4.728 13.809-4.049 29.16 2.343 42.707 5.659 11.992 4.419 26.166-3.235 36.992-3.188 4.51-2.117 10.75 2.392 13.938 1.754 1.24 3.769 1.836 5.765 1.836 3.137 0 6.226-1.472 8.174-4.228 11.81-16.703 13.724-38.573 4.993-57.074-4.88-10.342-4.616-22.303.456-32.344l35.334 3.091c.291.025.582.038.872.038 2.874 0 5.627-1.24 7.535-3.427 2.1-2.408 2.923-5.674 2.215-8.79l-9.443-41.546c58.886-12.793 105.918-66.045 111.806-133.346 7.13-81.512-48.74-153.221-124.544-159.853zm-129.855-52.398c65.065 0 118 57.595 118 128.389s-52.935 128.389-118 128.389-118-57.595-118-128.389 52.935-128.389 118-128.389zm-234.473 210.507c-3.002-34.309 6.502-67.605 26.762-93.755 20.079-25.917 48.348-41.696 79.6-44.43.12-.01.24-.016.36-.026-6.599 17.314-10.248 36.252-10.248 56.092 0 67.56 42.208 124.713 99.756 142.588l-11.51 35.839c-16.53 12.181-35.822 19.544-55.979 21.307-31.251 2.736-61.83-7.896-86.105-29.933-24.493-22.234-39.634-53.373-42.636-87.682zm160.836 162.806-55.855 4.887 6.788-29.866c2.419.136 4.847.212 7.282.212 3.794 0 7.612-.166 11.433-.5 6.243-.546 12.415-1.546 18.475-2.98zm45.603-68.719 9.371-29.178c6.106.892 12.334 1.362 18.664 1.362 6.329 0 12.557-.47 18.663-1.362l9.372 29.178zm157.526 73.606-55.854-4.887 11.877-28.247c6.06 1.434 12.231 2.434 18.473 2.98 3.79.332 7.552.494 11.293.494 2.486 0 4.959-.08 7.419-.222zm104.982-167.693c-6.17 70.525-63.917 123.285-128.742 117.616-20.153-1.763-39.446-9.126-55.977-21.306l-11.511-35.84c57.549-17.874 99.756-75.028 99.756-142.588 0-19.84-3.649-38.778-10.248-56.092.12.01.241.015.361.026 64.817 5.67 112.531 67.659 106.361 138.184z" fill="#052a75"/><path d="m108.229 269.52c-5.314-2.153-7.887-8.229-5.734-13.543 6.293-15.536-1.227-33.295-16.763-39.588-5.12-2.074-10.95.396-13.023 5.514s.396 10.949 5.514 13.023c5.314 2.153 7.887 8.229 5.734 13.543-6.293 15.536 1.227 33.295 16.763 39.588 1.23.498 2.501.734 3.751.734 3.953 0 7.697-2.359 9.272-6.248 2.073-5.119-.395-10.949-5.514-13.023z" fill="#fdcb50"/><g fill="#27a2cc"><path d="m485.88 59.172c-4.409 3.326-5.287 9.597-1.961 14.006 1.967 2.605 4.961 3.978 7.991 3.978 2.097 0 4.212-.657 6.015-2.018 13.381-10.095 16.054-29.195 5.958-42.577-3.453-4.577-2.539-11.111 2.039-14.565 4.408-3.326 5.285-9.597 1.959-14.005-3.327-4.409-9.596-5.288-14.006-1.959-13.38 10.096-16.053 29.195-5.958 42.575 3.455 4.578 2.541 11.111-2.037 14.565z"/><path d="m409.548 249.112c-3.906-3.905-10.238-3.905-14.143 0s-3.905 10.237 0 14.142l10.137 10.136c1.953 1.953 4.512 2.929 7.071 2.929s5.119-.977 7.071-2.929c3.905-3.905 3.905-10.237 0-14.142z"/><path d="m43.791 36.733c2.559 0 5.119-.977 7.071-2.929l10.227-10.227c3.905-3.905 3.905-10.237 0-14.143-3.905-3.904-10.237-3.904-14.143 0l-10.227 10.227c-3.905 3.905-3.905 10.237 0 14.143 1.953 1.952 4.513 2.929 7.072 2.929z"/></g><path d="m467.416 448.816-9.235 9.235c-3.905 3.905-3.905 10.237 0 14.142 1.953 1.953 4.512 2.929 7.071 2.929s5.118-.977 7.071-2.929l9.235-9.235c3.905-3.905 3.905-10.237 0-14.142-3.904-3.905-10.234-3.905-14.142 0z" fill="#fdcb50"/><path d="m43.17 448.816c-3.906-3.905-10.237-3.905-14.142 0s-3.906 10.237 0 14.142l13.508 13.509c1.953 1.953 4.512 2.929 7.071 2.929s5.119-.977 7.071-2.929c3.905-3.905 3.906-10.237 0-14.142z" fill="#27a2cc"/></g></g></g><g/><g/><g/><g/><g/><g/><g/><g/><g/><g/><g/><g/><g/><g/><g/></svg>