<svg id="Layer_1" enable-background="new 0 0 512 512" viewBox="0 0 512 512" xmlns="http://www.w3.org/2000/svg"><g><g clip-rule="evenodd" fill-rule="evenodd"><path d="m295.744 54.012c27.307 5.342 52.678 16.089 74.958 31.073l34.395-27.884 49.699 49.699-27.883 34.394c14.985 22.283 25.734 47.652 31.076 74.96l44.011 4.603v70.286l-44.001 4.601c-5.344 27.31-16.088 52.686-31.078 74.968l27.876 34.387-49.699 49.699-34.396-27.884c-22.284 14.982-47.651 25.732-74.957 31.074l-4.602 44.012h-70.286l-4.601-44.001c-27.31-5.344-52.686-16.088-74.969-31.078l-34.386 27.876-49.699-49.699 27.884-34.396c-14.982-22.284-25.732-47.651-31.074-74.957l-44.012-4.602v-70.286l44.001-4.601c5.344-27.31 16.088-52.686 31.078-74.968l-27.876-34.387 49.699-49.699 34.396 27.884c22.284-14.982 47.651-25.732 74.957-31.074l4.602-44.012h70.286z" fill="#67ccd1"/><path d="m293.79 476.678-2.647 25.322h-70.286l-4.601-44.001c-27.31-5.344-52.686-16.088-74.969-31.078l-34.386 27.876-49.699-49.699 27.884-34.396c-14.982-22.284-25.732-47.651-31.074-74.957l-44.012-4.602v-70.286l44.001-4.601c5.344-27.31 16.088-52.686 31.078-74.968l-27.876-34.387 49.699-49.699 34.396 27.884c22.284-14.982 47.651-25.732 74.957-31.074l4.602-44.012h66.01c-62.575 56.934-101.856 139.025-101.856 230.29 0 94.583 42.196 179.301 108.779 236.388z" fill="#27a2cc"/><path d="m256 111.414c-79.854 0-144.587 64.735-144.587 144.587 0 79.851 64.734 144.584 144.587 144.584s144.588-64.733 144.588-144.584c-.001-79.852-64.735-144.587-144.588-144.587z" fill="#fff"/><path d="m209.507 119.053c-57.045 19.36-98.094 73.36-98.094 136.948 0 70.196 50.029 128.701 116.376 141.825-27.174-46.213-42.777-100.048-42.777-157.535-.001-43.008 8.722-83.978 24.495-121.238z" fill="#d2dcfd"/><path d="m346.367 355.402c0-49.909-40.458-90.367-90.367-90.367-49.908 0-90.367 40.458-90.367 90.367v13.46c24.754 19.845 56.171 31.724 90.367 31.724s65.612-11.879 90.367-31.724z" fill="#bc9af4"/><path d="m256.198 265.035c-.066 0-.132 0-.199 0zm-.198 88.536-42.651-73.874-1.745-3.022c13.055-7.378 28.129-11.602 44.186-11.639h.012.199c.066-.001.132-.001.199 0h.012c16.057.037 31.13 4.261 44.186 11.639l-1.745 3.023z" fill="#fff"/><path d="m256 156.596c-29.944 0-54.219 24.275-54.219 54.22 0 29.944 24.275 54.219 54.219 54.219s54.219-24.275 54.219-54.219c-.001-29.944-24.275-54.22-54.219-54.22z" fill="#d46b5c"/><path d="m189.652 294.057c-14.906 16.113-24.019 37.663-24.019 61.345v13.46c17.766 14.243 38.965 24.383 62.16 28.972-18.508-31.475-31.647-66.482-38.141-103.777z" fill="#6864f7"/></g><g fill="#052a75"><path d="m256 101.414c-85.24 0-154.587 69.347-154.587 154.587 0 85.238 69.348 154.584 154.587 154.584s154.587-69.346 154.587-154.584c0-85.24-69.347-154.587-154.587-154.587zm-80.367 262.479v-8.491c0-44.289 36.011-80.325 80.291-80.366h.076s.051 0 .076 0c44.28.041 80.291 36.077 80.291 80.366v8.492c-22.443 16.759-50.267 26.691-80.367 26.691-30.101 0-57.925-9.932-80.367-26.692zm36.148-153.077c0-24.383 19.836-44.22 44.219-44.22 24.382 0 44.218 19.837 44.218 44.22 0 24.366-19.809 44.191-44.167 44.219-.017 0-.034 0-.051 0s-.034 0-.051 0c-24.359-.027-44.168-19.853-44.168-44.219zm144.154 135.24c-3.51-37.832-28.106-69.642-61.891-83.532 15.865-11.704 26.174-30.524 26.174-51.708 0-35.411-28.808-64.22-64.218-64.22s-64.219 28.809-64.219 64.22c0 21.183 10.31 40.004 26.174 51.708-33.785 13.889-58.381 45.699-61.891 83.531-21.529-23.867-34.652-55.457-34.652-90.054 0-74.211 60.375-134.587 134.587-134.587s134.587 60.375 134.587 134.587c.001 34.597-13.122 66.187-34.651 90.055z"/><path d="m503.04 210.911-36.787-3.846c-5.346-23.097-14.403-44.942-26.998-65.113l23.31-28.753c3.225-3.978 2.923-9.748-.697-13.369l-49.699-49.699c-3.622-3.621-9.392-3.921-13.369-.697l-28.754 23.311c-20.169-12.593-42.013-21.649-65.111-26.995l-3.847-36.79c-.532-5.092-4.825-8.96-9.945-8.96h-70.286c-5.12 0-9.414 3.868-9.946 8.96l-3.847 36.79c-23.092 5.345-44.933 14.4-65.109 26.996l-28.756-23.312c-3.979-3.226-9.748-2.924-13.369.697l-49.699 49.699c-3.62 3.621-3.921 9.391-.697 13.369l23.303 28.745c-12.591 20.163-21.649 42.011-26.998 65.122l-36.779 3.845c-5.092.532-8.96 4.826-8.96 9.946v70.286c0 5.12 3.868 9.414 8.96 9.946l36.79 3.847c5.345 23.093 14.4 44.933 26.996 65.109l-23.312 28.756c-3.225 3.978-2.923 9.748.697 13.369l49.699 49.699c3.621 3.621 9.391 3.921 13.369.697l28.745-23.303c20.163 12.591 42.011 21.649 65.122 26.998l3.846 36.779c.532 5.092 4.826 8.96 9.946 8.96h70.286c5.12 0 9.413-3.868 9.946-8.96l3.847-36.791c23.093-5.345 44.934-14.4 65.109-26.996l28.756 23.312c3.978 3.225 9.747 2.923 13.369-.697l49.699-49.699c3.621-3.621 3.922-9.391.697-13.369l-23.303-28.745c12.591-20.163 21.649-42.011 26.998-65.122l36.779-3.845c5.092-.532 8.96-4.826 8.96-9.946v-70.286c-.001-5.119-3.869-9.413-8.961-9.945zm-11.04 71.223-35.041 3.664c-4.37.457-7.93 3.713-8.774 8.025-5.011 25.606-14.957 49.597-29.561 71.307-2.453 3.646-2.238 8.465.529 11.879l22.203 27.389-36.958 36.958-27.398-22.211c-3.413-2.767-8.231-2.981-11.877-.531-21.729 14.609-45.717 24.554-71.297 29.559-4.313.844-7.569 4.404-8.026 8.774l-3.666 35.053h-52.268l-3.664-35.041c-.457-4.37-3.713-7.93-8.025-8.774-25.606-5.011-49.597-14.957-71.307-29.561-3.644-2.452-8.465-2.237-11.879.529l-27.389 22.203-36.958-36.958 22.211-27.398c2.767-3.413 2.982-8.231.531-11.877-14.609-21.729-24.555-45.718-29.559-71.298-.844-4.313-4.404-7.569-8.774-8.026l-35.053-3.665v-52.268l35.041-3.664c4.37-.457 7.93-3.713 8.774-8.025 5.011-25.606 14.957-49.597 29.561-71.307 2.453-3.646 2.238-8.465-.529-11.879l-22.203-27.389 36.958-36.958 27.398 22.21c3.413 2.767 8.232 2.982 11.877.531 21.729-14.609 45.718-24.555 71.298-29.559 4.313-.844 7.569-4.404 8.026-8.774l3.665-35.052h52.268l3.665 35.052c.457 4.37 3.713 7.93 8.026 8.774 25.59 5.006 49.578 14.951 71.298 29.558 3.646 2.451 8.465 2.236 11.878-.53l27.397-22.21 36.958 36.958-22.209 27.396c-2.767 3.413-2.982 8.232-.53 11.878 14.608 21.723 24.554 45.711 29.561 71.3.844 4.312 4.404 7.568 8.774 8.025l35.048 3.665z"/></g></g><g/><g/><g/><g/><g/><g/><g/><g/><g/><g/><g/><g/><g/><g/><g/></svg>