<svg id="Capa_1" enable-background="new 0 0 512 512" viewBox="0 0 512 512" xmlns="http://www.w3.org/2000/svg"><g><g><path d="m292.974 172.662.006-42.382-21.713-8.997c-2.973-11.824-7.65-22.968-13.756-33.161l8.994-21.705-29.965-29.974-21.73 8.998c-10.195-6.101-21.34-10.773-33.165-13.74l-8.983-21.695-42.382-.006-8.997 21.713c-11.824 2.973-22.968 7.65-33.161 13.756l-21.705-8.994-29.974 29.964 8.998 21.73c-6.101 10.196-10.773 21.34-13.74 33.165l-21.695 8.983-.006 42.383 21.713 8.997c2.973 11.824 7.65 22.968 13.756 33.161l-8.994 21.705 29.965 29.973 21.729-8.997c10.196 6.101 21.341 10.773 33.166 13.74l8.983 21.695 42.382.006 8.997-21.712c11.824-2.973 22.968-7.65 33.161-13.756l21.705 8.993 29.973-29.965-8.998-21.73c6.101-10.196 10.773-21.34 13.74-33.166z" fill="#bc9af4"/><path d="m292.974 172.662.006-42.382-21.713-8.997c-2.048-8.145-4.922-15.956-8.497-23.367-7.056 5.272-12.748 12.414-16.267 20.907l-2.754 6.647c-2.507.983-4.997 2.016-7.465 3.096l-6.606-2.737c-6.187-2.564-12.686-3.809-19.129-3.81-13.01-.001-25.796 5.079-35.362 14.641l-38.559 38.548c-14.302 14.298-18.583 35.804-10.846 54.489l2.755 6.653c-1.079 2.468-2.111 4.956-3.093 7.463l-6.605 2.735c-8.484 3.513-15.62 9.194-20.892 16.237 7.417 3.575 15.235 6.448 23.386 8.494l8.983 21.695 42.382.006 8.997-21.712c11.824-2.973 22.968-7.65 33.161-13.756l21.705 8.993 29.973-29.965-8.998-21.73c6.101-10.195 10.773-21.34 13.74-33.166z" fill="#6864f7"/><path d="m122.012 212.269c-22.528-10.947-38.057-34.049-38.057-60.779 0-37.299 30.237-67.535 67.535-67.535 26.749 0 49.865 15.551 60.802 38.105z" fill="#d2dcfd"/><path d="m219.025 151.49c0-10.55-2.423-20.533-6.736-29.429-.58-.02-1.16-.042-1.739-.042-13.01-.001-25.796 5.079-35.362 14.641l-38.559 38.548c-9.981 9.978-15.074 23.467-14.615 37.057 8.908 4.328 18.907 6.76 29.476 6.76 37.299 0 67.535-30.236 67.535-67.535z" fill="#93b2f4"/><path d="m501.992 347.218.008-54.523-27.932-11.574c-3.824-15.211-9.841-29.546-17.696-42.66l11.57-27.923-38.548-38.559-27.954 11.575c-13.116-7.848-27.453-13.858-42.666-17.676l-11.557-27.909-54.523-.008-11.574 27.932c-15.211 3.824-29.547 9.841-42.66 17.696l-27.923-11.57-38.559 38.548 11.575 27.954c-7.849 13.116-13.858 27.453-17.676 42.666l-27.909 11.557-.008 54.523 27.932 11.574c3.824 15.211 9.841 29.547 17.696 42.66l-11.57 27.923 38.548 38.559 27.954-11.575c13.116 7.848 27.454 13.858 42.666 17.676l11.557 27.909 54.524.007 11.574-27.932c15.211-3.824 29.547-9.841 42.66-17.696l27.923 11.57 38.559-38.548-11.575-27.954c7.849-13.116 13.858-27.453 17.676-42.666z" fill="#67ccd1"/><circle cx="319.981" cy="319.981" fill="#b1d952" r="73.01"/></g><g><path d="m505.828 283.457-23.376-9.686c-3.563-12.548-8.576-24.632-14.952-36.042l9.68-23.362c1.548-3.736.693-8.038-2.166-10.898l-38.548-38.559c-2.86-2.86-7.163-3.716-10.897-2.169l-23.397 9.688c-11.413-6.371-23.499-11.378-36.046-14.935l-9.668-23.349c-1.547-3.737-5.193-6.174-9.238-6.174l-44.514-.006c-.732-3.074-2.893-5.677-5.897-6.922l-17.181-7.12c-2.694-9.203-6.379-18.084-10.997-26.509l7.113-17.168c1.548-3.736.693-8.038-2.166-10.897l-29.964-29.973c-2.86-2.861-7.162-3.717-10.898-2.169l-17.196 7.121c-8.427-4.615-17.309-8.295-26.512-10.985l-7.107-17.163c-1.547-3.737-5.193-6.174-9.238-6.174l-42.382-.006h-.001c-4.044 0-7.69 2.436-9.238 6.172l-7.12 17.181c-9.203 2.694-18.084 6.378-26.509 10.997l-17.168-7.114c-3.736-1.547-8.037-.694-10.898 2.166l-29.974 29.965c-2.86 2.86-3.716 7.161-2.169 10.898l7.121 17.196c-4.615 8.427-8.295 17.309-10.985 26.512l-17.16 7.106c-3.737 1.547-6.174 5.193-6.174 9.238l-.006 42.382c0 4.045 2.436 7.691 6.172 9.24l17.181 7.119c2.694 9.204 6.378 18.084 10.997 26.509l-7.114 17.168c-1.548 3.737-.693 8.038 2.167 10.898l29.965 29.973c2.859 2.86 7.159 3.717 10.897 2.169l17.196-7.12c8.427 4.615 17.309 8.295 26.512 10.985l7.105 17.159c1.24 2.995 3.829 5.151 6.889 5.891l-.006 44.575c0 4.045 2.436 7.691 6.172 9.24l23.376 9.686c3.562 12.546 8.575 24.632 14.951 36.042l-9.68 23.361c-1.548 3.737-.693 8.038 2.167 10.898l38.548 38.559c2.861 2.86 7.162 3.715 10.898 2.169l23.396-9.688c11.413 6.371 23.499 11.378 36.046 14.936l9.669 23.349c1.548 3.737 5.193 6.174 9.238 6.174l54.524.009h.001c4.044 0 7.69-2.436 9.238-6.172l9.687-23.376c12.547-3.562 24.632-8.576 36.043-14.951l23.36 9.68c3.735 1.547 8.037.694 10.898-2.167l38.559-38.548c2.86-2.859 3.716-7.16 2.169-10.897l-9.688-23.396c6.371-11.412 11.379-23.499 14.936-36.046l23.35-9.668c3.736-1.547 6.173-5.193 6.174-9.238l.007-54.525c.001-4.045-2.436-7.691-6.172-9.239zm-412.525-34.499c-2.715-1.625-6.038-1.869-8.96-.658l-15.556 6.441-20.517-20.522 6.436-15.533c1.212-2.925.967-6.251-.66-8.967-5.692-9.502-9.943-19.75-12.636-30.461-.771-3.067-2.948-5.589-5.87-6.8l-15.54-6.439.004-29.019 15.521-6.427c2.924-1.211 5.103-3.735 5.874-6.805 2.688-10.709 6.935-20.959 12.622-30.465 1.625-2.715 1.869-6.038.658-8.96l-6.441-15.556 20.522-20.517 15.532 6.436c2.926 1.212 6.251.968 8.967-.66 9.503-5.692 19.751-9.943 30.461-12.636 3.067-.771 5.589-2.948 6.8-5.87l6.439-15.54 29.019.004 6.427 15.521c1.211 2.925 3.735 5.103 6.805 5.874 10.709 2.688 20.959 6.935 30.465 12.622 2.715 1.625 6.038 1.868 8.96.658l15.556-6.441 20.517 20.522-6.436 15.533c-1.212 2.924-.967 6.25.659 8.966 5.692 9.503 9.943 19.752 12.637 30.462.771 3.067 2.948 5.588 5.87 6.799l14.948 6.194-8.617 20.795c-12.546 3.562-24.632 8.576-36.042 14.951l-23.361-9.68c-3.736-1.547-8.038-.693-10.898 2.167l-38.559 38.548c-2.86 2.859-3.716 7.161-2.169 10.897l9.688 23.396c-6.371 11.412-11.378 23.499-14.936 36.046l-20.723 8.581-6.196-14.964c-1.211-2.924-3.735-5.103-6.805-5.874-10.709-2.685-20.959-6.931-30.465-12.619zm398.69 91.577-21.736 9c-2.924 1.211-5.103 3.735-5.873 6.805-3.525 14.05-9.097 27.497-16.558 39.965-1.624 2.714-1.868 6.038-.658 8.96l9.018 21.78-29.107 29.101-21.749-9.012c-2.925-1.212-6.249-.968-8.967.66-12.467 7.467-25.911 13.044-39.96 16.577-3.067.771-5.589 2.948-6.8 5.87l-9.017 21.759-41.159-.005-9-21.736c-1.211-2.924-3.735-5.103-6.805-5.874-14.05-3.526-27.496-9.097-39.965-16.558-2.716-1.625-6.039-1.868-8.96-.658l-21.78 9.019-29.1-29.108 9.012-21.75c1.212-2.925.967-6.251-.66-8.967-7.467-12.466-13.044-25.911-16.576-39.959-.771-3.068-2.948-5.589-5.87-6.8l-21.759-9.016.005-41.159 21.736-9c2.925-1.211 5.103-3.735 5.874-6.805 3.526-14.051 9.097-27.497 16.558-39.965 1.625-2.714 1.869-6.038.658-8.96l-9.019-21.78 29.108-29.1 21.75 9.012c2.926 1.212 6.251.968 8.967-.66 12.467-7.467 25.911-13.044 39.96-16.576 3.067-.771 5.589-2.948 6.8-5.87l9.017-21.759 41.159.006 9 21.736c1.211 2.925 3.735 5.103 6.806 5.874 14.048 3.525 27.494 9.096 39.964 16.558 2.715 1.625 6.037 1.869 8.96.658l21.781-9.019 29.1 29.108-9.012 21.75c-1.212 2.924-.967 6.25.659 8.966 7.467 12.465 13.044 25.91 16.577 39.96.771 3.067 2.948 5.589 5.87 6.799l21.759 9.016z" fill="#052a75"/><path d="m319.98 236.971c-45.771 0-83.009 37.238-83.009 83.01s37.238 83.01 83.009 83.01 83.01-37.238 83.01-83.01-37.238-83.01-83.01-83.01zm0 146.02c-34.743 0-63.009-28.266-63.009-63.01s28.266-63.01 63.009-63.01c34.744 0 63.01 28.266 63.01 63.01s-28.265 63.01-63.01 63.01z" fill="#052a75"/><path d="m312.047 346.161c-2.56 0-5.118-.976-7.071-2.929l-16.493-16.494c-3.905-3.905-3.905-10.237 0-14.142 3.907-3.904 10.237-3.905 14.143 0l9.422 9.422 25.29-25.29c3.907-3.905 10.237-3.904 14.143 0 3.905 3.905 3.905 10.237 0 14.142l-32.361 32.36c-1.955 1.955-4.515 2.931-7.073 2.931z" fill="#fff"/></g></g><g/><g/><g/><g/><g/><g/><g/><g/><g/><g/><g/><g/><g/><g/><g/></svg>