<svg id="Capa_1" enable-background="new 0 0 510 510" viewBox="0 0 510 510" xmlns="http://www.w3.org/2000/svg"><g><g><g><g><circle cx="255" cy="255" fill="#fd7da0" r="245"/></g><g><path d="m255.127 215.568c0-74.741 28.842-142.734 75.985-193.496-23.96-7.825-49.538-12.072-76.112-12.072-135.31 0-245 109.69-245 245s109.69 245 245 245c50.538 0 97.498-15.307 136.507-41.53-81.786-49.956-136.38-140.051-136.38-242.902z" fill="#db4b86"/></g><g><circle cx="255" cy="255" fill="#fff" r="189"/></g><g><path d="m255 444c32.092 0 62.31-8.009 88.78-22.121-54.6-51.826-88.654-125.088-88.654-206.311 0-53.096 14.568-102.779 39.901-145.307-12.902-2.782-26.291-4.261-40.027-4.261-104.382 0-189 84.618-189 189s84.618 189 189 189z" fill="#d2dcfd"/></g></g><g><g><g><path d="m246.518 350.785-125.446-125.446 60.077-60.078 65.369 65.369 193.405-193.405 60.077 60.077z" fill="#b1d952"/></g></g><g><path d="m246.518 350.785 29.091-29.091c-12.452-30.932-19.624-64.553-20.398-99.757l-8.693 8.693-65.369-65.369-60.077 60.077z" fill="#91b706"/></g></g></g><path d="m507.071 104.374c3.905-3.905 3.905-10.237 0-14.143l-60.077-60.077c-1.875-1.875-4.419-2.929-7.071-2.929s-5.196 1.054-7.071 2.929l-22.579 22.579c-44.355-34.061-99.13-52.733-155.273-52.733-68.113 0-132.149 26.525-180.312 74.688s-74.688 112.199-74.688 180.312 26.525 132.149 74.688 180.312 112.199 74.688 180.312 74.688 132.149-26.524 180.312-74.688 74.688-112.199 74.688-180.312c0-42.845-10.779-84.966-31.23-122.325zm-67.148-53.007 45.935 45.935-239.34 239.341-111.304-111.304 45.935-45.936 58.298 58.298c1.875 1.875 4.419 2.929 7.071 2.929s5.196-1.054 7.071-2.929zm-5.923 203.633c0 98.701-80.299 179-179 179s-179-80.299-179-179 80.299-179 179-179c36.488 0 71.136 10.723 100.889 31.117l-109.371 109.371-58.298-58.298c-1.875-1.875-4.419-2.929-7.071-2.929s-5.196 1.054-7.071 2.929l-60.078 60.078c-3.905 3.906-3.905 10.237 0 14.143l125.446 125.446c1.875 1.875 4.419 2.929 7.071 2.929s5.196-1.054 7.071-2.929l168.129-168.13c8.15 20.731 12.283 42.623 12.283 65.273zm56 0c0 62.771-24.444 121.785-68.83 166.17-44.386 44.386-103.399 68.83-166.17 68.83s-121.784-24.444-166.17-68.83c-44.386-44.385-68.83-103.399-68.83-166.17s24.444-121.784 68.83-166.17 103.399-68.83 166.17-68.83c50.863 0 100.507 16.623 141.003 47.003l-25.755 25.755c-33.762-24.076-73.418-36.758-115.248-36.758-109.729 0-199 89.271-199 199s89.271 199 199 199 199-89.271 199-199c0-28.1-5.726-55.159-17.003-80.552l26.983-26.983c17.053 33.111 26.02 70.018 26.02 107.535z" fill="#052a75"/></g><g/><g/><g/><g/><g/><g/><g/><g/><g/><g/><g/><g/><g/><g/><g/></svg>