<svg id="Layer_1" enable-background="new 0 0 512 512" viewBox="0 0 512 512" xmlns="http://www.w3.org/2000/svg"><g><g><g><path d="m352.998 106.982c0 87.941-96.998 130.725-96.998 130.725s-96.998-42.783-96.998-130.725c0-53.562 43.427-96.982 96.998-96.982s96.998 43.42 96.998 96.982z" fill="#fd6050"/><path d="m209.943 86.128c0-26.116 6.639-50.682 18.322-72.105-40.056 11.929-69.264 49.034-69.264 92.959 0 87.941 96.998 130.725 96.998 130.725s14.475-6.385 32.242-19.291c-46.672-25.668-78.298-75.287-78.298-132.288z" fill="#db4b86"/></g><ellipse cx="256" cy="106.982" fill="#fff" rx="43.019" ry="43.012"/><g><path d="m315.897 502h-192.007c-15.391 0-27.869-12.477-27.869-27.869v-234.349h219.876z" fill="#fdcb50"/><path d="m142.153 334.957c0-34.509 8.861-66.95 24.432-95.174h-70.564v234.015c0 15.576 12.635 28.203 28.221 28.203h110.137c-55.417-34.964-92.226-96.708-92.226-167.044z" fill="#fd8f01"/></g><g><path d="m285.399 301.822h-219.876l30.498-62.04h219.876z" fill="#fff"/><path d="m144.815 239.782h-48.794l-30.499 62.04h101.42c-11.277-18.586-18.973-39.585-22.127-62.04z" fill="#d2dcfd"/></g><path d="m388.11 502h-72.213v-262.218h100.082v234.349c0 15.392-12.477 27.869-27.869 27.869z" fill="#fdcb50"/><path d="m446.477 301.822h-100.081l-30.499-62.04h100.082z" fill="#fff"/><g><path d="m142.153 398.864h84.068v57.033h-84.068z" fill="#fd6050"/><path d="m152.735 398.864h-10.582v57.033h41.4c-13.213-17.011-23.703-36.24-30.818-57.033z" fill="#db4b86"/></g></g><g><path d="m455.451 297.41-30.499-62.04c-1.682-3.421-5.162-5.588-8.974-5.588h-126.479c6.794-4.685 14.221-10.348 21.666-17.006 33.91-30.328 51.833-66.911 51.833-105.794.001-58.99-47.999-106.982-106.998-106.982s-106.999 47.992-106.999 106.982c0 38.883 17.923 75.466 51.833 105.794 7.445 6.659 14.872 12.321 21.666 17.006h-126.479c-3.812 0-7.292 2.167-8.974 5.588l-30.499 62.04c-1.524 3.1-1.34 6.766.485 9.698 1.826 2.932 5.035 4.714 8.489 4.714h20.499v161.976c0 21.065 17.146 38.203 38.22 38.203h263.517c21.075 0 38.22-17.138 38.22-38.203v-161.976h20.499c3.454 0 6.663-1.782 8.489-4.714s2.009-6.598.485-9.698zm-286.45-190.428c0-47.962 39.028-86.982 86.999-86.982s86.999 39.02 86.999 86.982c0 33.339-15.055 63.791-44.748 90.512-17.163 15.445-34.587 25.183-42.25 29.096-7.669-3.917-25.091-13.653-42.251-29.096-29.693-26.721-44.749-57.173-44.749-90.512zm-66.752 142.8h197.59l-20.667 42.04h-197.59zm3.772 224.015v-161.975h179.377c3.812 0 7.292-2.167 8.974-5.588l11.524-23.443v209.209h-181.654c-10.047 0-18.221-8.166-18.221-18.203zm299.958 0c0 10.037-8.173 18.203-18.22 18.203h-61.861v-209.209l11.524 23.443c1.682 3.421 5.162 5.588 8.974 5.588h59.583zm-53.356-181.975-20.667-42.04h77.795l20.667 42.04z" fill="#052a75"/><g><path d="m226.221 366.136h-84.068c-5.523 0-10-4.477-10-10s4.477-10 10-10h84.068c5.523 0 10 4.477 10 10s-4.477 10-10 10z" fill="#fd6050"/></g></g></g><g/><g/><g/><g/><g/><g/><g/><g/><g/><g/><g/><g/><g/><g/><g/></svg>