<svg id="Capa_1" enable-background="new 0 0 510 510" viewBox="0 0 510 510" xmlns="http://www.w3.org/2000/svg"><g><g><g><g><path d="m361 456h-329c-12.15 0-22-9.85-22-22v-402c0-12.15 9.85-22 22-22h329c12.15 0 22 9.85 22 22v402c0 12.15-9.85 22-22 22z" fill="#67ccd1"/></g><g><path d="m311.304 210c-51.449 0-93.304 41.856-93.304 93.304v152.696h143c12.15 0 22-9.85 22-22v-224z" fill="#27a2cc"/></g><g><path d="m339 210v-156h-285v358h164z" fill="#fff"/></g><g><path d="m339 412v-202h-27.696c-51.449 0-93.304 41.856-93.304 93.304v108.696z" fill="#d2dcfd"/></g></g><g><g><path d="m311.304 276h161.392c15.08 0 27.304 12.224 27.304 27.304v169.392c0 15.08-12.224 27.304-27.304 27.304h-161.392c-15.08 0-27.304-12.224-27.304-27.304v-169.392c0-15.08 12.224-27.304 27.304-27.304z" fill="#fd7da0"/></g><g><path d="m364.101 337.074c0-21.952 5.183-42.691 14.378-61.074h-67.175c-15.079 0-27.304 12.224-27.304 27.304v169.392c0 15.08 12.225 27.304 27.304 27.304h161.392c14.719 0 26.712-11.649 27.277-26.23-75.116-.45-135.872-61.474-135.872-136.696z" fill="#db4b86"/></g><g><path d="m343.914 381h96.172v75h-96.172z" fill="#fdcb50"/></g><g><path d="m371.315 381h-27.401v75h89.458c-28.895-16.418-51.223-43.053-62.057-75z" fill="#fd8f01"/></g></g></g><g><g><g><path d="m196.5 263.39c-5.522 0-10-4.477-10-10v-40.781c0-5.523 4.478-10 10-10s10 4.477 10 10v40.781c0 5.523-4.478 10-10 10z" fill="#6864f7"/></g><g><path d="m174.492 306.05c-1.547 0-3.115-.359-4.583-1.118-19.374-10.012-31.409-29.762-31.409-51.541v-40.781c0-31.981 26.019-58 58-58 7.004 0 13.87 1.246 20.406 3.704 5.17 1.943 7.785 7.71 5.842 12.879s-7.703 7.787-12.88 5.841c-4.278-1.609-8.776-2.424-13.368-2.424-20.953 0-38 17.047-38 38v40.781c0 14.269 7.89 27.209 20.591 33.773 4.906 2.536 6.828 8.568 4.293 13.475-1.777 3.438-5.272 5.411-8.892 5.411z" fill="#6864f7"/></g><g><path d="m218.508 306.05c-3.62 0-7.114-1.973-8.892-5.411-2.535-4.907-.613-10.939 4.293-13.475 12.701-6.564 20.591-19.505 20.591-33.773v-40.781c0-3.277-.421-6.54-1.252-9.698-1.405-5.341 1.786-10.81 7.127-12.215 5.342-1.405 10.811 1.786 12.215 7.127 1.268 4.818 1.91 9.793 1.91 14.786v40.781c0 21.779-12.035 41.529-31.409 51.541-1.468.758-3.037 1.118-4.583 1.118z" fill="#6864f7"/></g><g><path d="m196.5 359.391c-58.448 0-106-47.551-106-106v-40.781c0-23.075 7.316-45.027 21.159-63.483 3.314-4.418 9.581-5.313 14-2 4.418 3.314 5.313 9.582 2 14-11.226 14.967-17.159 32.77-17.159 51.483v40.781c0 47.42 38.579 86 86 86 10.944 0 21.64-2.057 31.789-6.113 5.127-2.052 10.947.446 12.997 5.574s-.446 10.948-5.575 12.997c-12.521 5.005-25.713 7.542-39.211 7.542z" fill="#6864f7"/></g><g><path d="m292.5 242.897c-5.522 0-10-4.477-10-10v-20.288c0-47.42-38.579-86-86-86-13.511 0-26.454 3.062-38.472 9.103-4.938 2.48-10.946.491-13.426-4.444s-.491-10.945 4.443-13.426c14.831-7.454 30.796-11.233 47.454-11.233 58.448 0 106 47.551 106 106v20.288c.001 5.523-4.477 10-9.999 10z" fill="#6864f7"/></g></g><g fill="#052a75"><path d="m472.696 266h-79.696v-234c0-17.645-14.355-32-32-32h-329c-17.645 0-32 14.355-32 32v402c0 17.645 14.355 32 32 32h242v6.696c0 20.57 16.734 37.304 37.304 37.304h161.393c20.569 0 37.303-16.734 37.303-37.304v-169.392c0-20.57-16.734-37.304-37.304-37.304zm-198.696 37.304v142.696h-242c-6.617 0-12-5.383-12-12v-402c0-6.617 5.383-12 12-12h329c6.617 0 12 5.383 12 12v234h-61.696c-20.57 0-37.304 16.734-37.304 37.304zm216 169.392c0 9.542-7.763 17.304-17.304 17.304h-161.392c-9.541 0-17.304-7.763-17.304-17.304v-169.392c0-9.542 7.763-17.304 17.304-17.304h161.393c9.541 0 17.304 7.763 17.304 17.304v169.392z"/><path d="m440.086 371h-65.984v-23.101c0-9.87 8.029-17.899 17.898-17.899 6.836 0 13.172 3.983 16.141 10.148 2.397 4.976 8.376 7.067 13.349 4.67 4.977-2.396 7.067-8.373 4.671-13.349-6.282-13.042-19.691-21.469-34.161-21.469-20.897 0-37.898 17.001-37.898 37.899v23.101h-10.188c-5.522 0-10 4.477-10 10v75c0 5.523 4.478 10 10 10h96.172c5.522 0 10-4.477 10-10v-75c0-5.523-4.478-10-10-10zm-10 75h-76.172v-55h76.172z"/></g></g></g><g/><g/><g/><g/><g/><g/><g/><g/><g/><g/><g/><g/><g/><g/><g/></svg>