<svg id="Layer_1" enable-background="new 0 0 510 510" viewBox="0 0 510 510" xmlns="http://www.w3.org/2000/svg"><g><g><g><path d="m285.435 135.605.069 333.893c0 16.844-13.654 30.498-30.498 30.498-16.844 0-30.498-13.654-30.498-30.498v-271.952z" fill="#fdcb50"/></g><g><path d="m285.456 234.755-.021-99.15-60.927 61.94v44.336c18.492-4.674 37.852-7.166 57.796-7.166 1.054 0 2.102.027 3.152.04z" fill="#fd8f01"/></g><g><path d="m238.859 193.439-21.554-.248c-18.269-.21-32.956-13.74-32.954-30.357v-.006c.002-16.914 15.203-30.565 33.799-30.351l21.554.248c18.267.21 32.954 13.738 32.954 30.354v.005c.001 16.916-15.201 30.569-33.799 30.355z" fill="#fdcb50"/></g><g><path d="m193.479 10.067-173.32-.06-10.159-.004c-.012 33.664 27.27 60.964 60.935 60.975l10.502.346c-.012 33.664 27.27 60.963 60.935 60.975l112.628.039v-61.29c.012-33.664-27.856-60.969-61.521-60.981z" fill="#fd8f01"/></g><g><path d="m489.841 10.007-173.32.06c-33.665.012-61.533 27.317-61.521 60.981v61.291l112.627-.039c33.665-.011 60.947-27.311 60.935-60.975l10.502-.346c33.666-.012 60.948-27.312 60.936-60.976z" fill="#fdcb50"/></g></g><g><path d="m500 .004c-.001 0-.002 0-.003 0l-183.479.063c-18.965.006-36.868 7.378-50.413 20.755-4.341 4.287-8.053 9.024-11.104 14.097-3.052-5.073-6.764-9.81-11.104-14.097-13.546-13.377-31.45-20.748-50.414-20.755l-183.48-.063c-.001 0-.002 0-.003 0-5.52 0-9.998 4.475-10 9.996-.007 18.953 7.368 36.773 20.766 50.179 13.397 13.406 31.213 20.792 50.12 20.799l1.196.006c2.063 15.29 9.027 29.416 20.121 40.516 13.396 13.406 31.213 20.793 50.166 20.799l38.001.013c-3.914 6.16-6.018 13.21-6.018 20.52-.001 7.033 2.291 14.182 5.74 19.963 4.362 7.309-1.481 13.024-1.481 13.024l22.541 6.601 11.204.453 2.153.2v266.425c0 22.331 18.167 40.498 40.498 40.498 22.33 0 40.497-18.167 40.497-40.5l-.067-327.172 72.194-.025c18.953-.006 36.77-7.393 50.166-20.799 11.094-11.1 18.058-25.227 20.121-40.516l1.149-.006c18.954-.006 36.77-7.393 50.167-20.799 13.398-13.406 20.773-31.226 20.766-50.179-.002-5.522-4.478-9.996-10-9.996zm-393.65 107.359c-7.28-7.285-12.084-16.384-13.988-26.278l59.799.296h.051c5.499 0 9.972-4.445 9.999-9.951.027-5.522-4.428-10.022-9.95-10.049l-81.321-.403c-13.61-.004-26.405-5.309-36.026-14.937-7.221-7.225-12.005-16.235-13.94-26.034l172.505.059c13.671.004 26.586 5.326 36.365 14.985s15.163 22.441 15.158 35.995v51.287l-102.625-.033c-13.611-.005-26.406-5.31-36.027-14.937zm88.002 55.466c.001-4.942 2.074-9.713 5.838-13.434 4.528-4.476 11.049-7.019 17.846-6.919l21.554.248c12.721.146 23.069 9.277 23.069 20.36 0 4.943-2.073 9.714-5.837 13.435-4.46 4.408-10.837 6.921-17.538 6.921-.104 0-.206-.001-.309-.002l-21.554-.248c-12.722-.145-23.07-9.277-23.069-20.361zm60.655 327.167c-11.303 0-20.498-9.195-20.498-20.498v-266.109l4.235.049c.179.002.354.003.532.003 11.932 0 23.425-4.611 31.605-12.698 1.698-1.679 3.216-3.479 4.564-5.369l.058 284.124c.001 11.303-9.194 20.498-20.496 20.498zm220.081-443.954c-9.621 9.627-22.416 14.932-36.073 14.937l-81.274.403c-5.522.027-9.978 4.527-9.95 10.049.027 5.506 4.499 9.951 9.999 9.951h.051l59.799-.296c-1.904 9.894-6.708 18.993-13.988 26.278-9.621 9.627-22.416 14.932-36.026 14.937l-102.626.034v-51.284-.007c-.005-13.55 5.379-26.333 15.158-35.992s22.694-14.981 36.366-14.985l172.504-.059c-1.935 9.799-6.719 18.809-13.94 26.034z" fill="#052a75"/><path d="m186.893 366.471c.067 0 .138 0 .206.001l137.72 1.364c.152.002.304.002.457.002 24.857-.001 45.487-20.091 46.085-44.995.299-12.433-4.297-24.204-12.941-33.146-8.643-8.942-20.253-13.935-32.689-14.058l-143.319-1.419c-9.548-.094-18.487-3.901-25.172-10.72-6.685-6.818-10.313-15.831-10.22-25.382.194-19.591 16.192-35.393 35.753-35.393.118 0 .24.001.359.001l27.82.242c.029.001.059.001.089.001.447 0 .883-.04 1.314-.096-13.794-1.608-25.617-9.31-32.264-20.077-29.265 1.379-52.777 25.472-53.07 55.128-.147 14.89 5.512 28.946 15.937 39.579 10.424 10.633 24.365 16.57 39.256 16.717l143.318 1.419c7.041.07 13.614 2.896 18.508 7.959 4.894 5.062 7.495 11.727 7.326 18.766-.339 14.101-12.017 25.475-26.092 25.475-.085 0-.173 0-.259-.001l-137.72-1.364c-.136-.001-.27-.002-.406-.002-22.145 0-40.271 17.904-40.491 40.1l-.004.506c-.106 10.682 3.954 20.765 11.432 28.392 7.479 7.628 17.48 11.887 28.164 11.992l128.075 1.228c5.977.059 11.573 2.442 15.758 6.711 4.185 4.268 6.456 9.911 6.396 15.889l-.056 5.779c-.055 5.523 4.378 10.044 9.901 10.098h.1c5.477 0 9.943-4.413 9.997-9.902l.058-5.777c.112-11.319-4.19-22.005-12.115-30.088s-18.522-12.596-29.848-12.708l-128.072-1.228c-5.339-.053-10.339-2.182-14.076-5.995-3.738-3.812-5.769-8.853-5.715-14.195l.004-.506c.112-11.236 9.286-20.297 20.496-20.297z" fill="#fd8f01"/></g></g><g/><g/><g/><g/><g/><g/><g/><g/><g/><g/><g/><g/><g/><g/><g/></svg>