<svg id="Capa_1" enable-background="new 0 0 512 512" viewBox="0 0 512 512" xmlns="http://www.w3.org/2000/svg"><g><g><g><path d="m493.232 492v-452c0-16.569-13.431-30-30-30h-414.464c-16.569 0-30 13.431-30 30v452c0 5.523 4.477 10 10 10h454.464c5.523 0 10-4.477 10-10z" fill="#fff"/></g><g><path d="m236.8 256c0-100.712 48.544-190.083 123.508-246h-311.54c-16.568 0-30 13.431-30 30v452c0 5.523 4.477 10 10 10h331.541c-74.964-55.917-123.509-145.288-123.509-246z" fill="#d2dcfd"/></g><g><path d="m165.951 154.492h-77.312c-5.523 0-10-4.477-10-10v-75.273c0-5.523 4.477-10 10-10h77.312c5.523 0 10 4.477 10 10v75.273c0 5.523-4.477 10-10 10z" fill="#91b706"/></g><g><path d="m165.951 303.943h-77.312c-5.523 0-10-4.477-10-10v-75.273c0-5.523 4.477-10 10-10h77.312c5.523 0 10 4.477 10 10v75.273c0 5.523-4.477 10-10 10z" fill="#fd8f01"/></g><g><path d="m165.951 453.394h-77.312c-5.523 0-10-4.477-10-10v-75.273c0-5.523 4.477-10 10-10h77.312c5.523 0 10 4.477 10 10v75.273c0 5.523-4.477 10-10 10z" fill="#27a2cc"/></g></g><g fill="#052a75"><path d="m463.232 0h-414.464c-22.056 0-40 17.944-40 40v452c0 11.028 8.972 20 20 20h454.464c11.028 0 20-8.972 20-20v-452c0-22.056-17.944-40-40-40zm20 492h-454.464v-452c0-11.028 8.972-20 20-20h414.464c11.028 0 20 8.972 20 20z"/><path d="m186.252 45.388-56.908 56.909-2.513-2.513c-3.906-3.905-10.238-3.905-14.143 0s-3.905 10.237 0 14.142l9.584 9.583c1.953 1.953 4.512 2.929 7.071 2.929s5.118-.977 7.071-2.929l63.979-63.979c3.905-3.905 3.905-10.237 0-14.143-3.904-3.904-10.234-3.903-14.141.001z"/><path d="m238.297 85.983h144.224c5.522 0 10-4.477 10-10s-4.478-10-10-10h-144.224c-5.522 0-10 4.477-10 10s4.478 10 10 10z"/><path d="m433.36 112.203h-195.063c-5.522 0-10 4.477-10 10s4.478 10 10 10h195.063c5.522 0 10-4.477 10-10s-4.478-10-10-10z"/><path d="m186.252 194.839-56.908 56.909-2.513-2.513c-3.906-3.905-10.236-3.905-14.143 0-3.905 3.905-3.905 10.237 0 14.143l9.584 9.584c1.876 1.875 4.419 2.929 7.071 2.929s5.195-1.054 7.071-2.929l63.979-63.979c3.905-3.905 3.905-10.237 0-14.143-3.904-3.906-10.234-3.905-14.141-.001z"/><path d="m238.297 235.434h144.224c5.522 0 10-4.477 10-10s-4.478-10-10-10h-144.224c-5.522 0-10 4.477-10 10s4.478 10 10 10z"/><path d="m433.36 261.654h-195.063c-5.522 0-10 4.477-10 10s4.478 10 10 10h195.063c5.522 0 10-4.477 10-10s-4.478-10-10-10z"/><path d="m186.252 344.291-56.908 56.909-2.513-2.513c-3.906-3.905-10.236-3.905-14.143 0-3.905 3.905-3.905 10.237 0 14.143l9.584 9.584c1.876 1.875 4.419 2.929 7.071 2.929s5.195-1.054 7.071-2.929l63.979-63.979c3.905-3.905 3.905-10.237 0-14.143-3.904-3.907-10.234-3.906-14.141-.001z"/><path d="m238.297 384.885h144.224c5.522 0 10-4.477 10-10s-4.478-10-10-10h-144.224c-5.522 0-10 4.477-10 10s4.478 10 10 10z"/><path d="m433.36 411.105h-195.063c-5.522 0-10 4.477-10 10s4.478 10 10 10h195.063c5.522 0 10-4.477 10-10s-4.478-10-10-10z"/></g></g><g/><g/><g/><g/><g/><g/><g/><g/><g/><g/><g/><g/><g/><g/><g/></svg>