<svg id="Capa_1" enable-background="new 0 0 510.003 510.003" viewBox="0 0 510.003 510.003" xmlns="http://www.w3.org/2000/svg"><g><g><path id="XMLID_623_" d="m413.066 353.67-403.066 146.332 146.332-403.066z" fill="#fd7da0"/><path d="m148.508 403.465c0-88.037 30.597-168.926 81.734-232.619l-73.91-73.91-146.332 403.066 141.242-51.277c-1.8-14.836-2.734-29.939-2.734-45.26z" fill="#db4b86"/><path d="m151.169 448.518c-34.471-28.608-63.263-63.821-84.436-103.698l-.297-.267-56.436 155.449 140.698-51.08c.299-.256.471-.404.471-.404z" fill="#fd8f01"/><path d="m135.553 154.633c-8.485 98.686 26.474 195.249 92.869 265.539l82.463-29.88c-43.501-57.845-69.115-129.754-68.885-207.332l-85.667-86.023z" fill="#fdcb50"/><path d="m230.106 171.017-73.774-74.081-20.779 57.697c-4.715 54.832 3.99 109.006 24.039 158.385 13.167-52.682 37.567-100.915 70.514-142.001z" fill="#fd8f01"/></g><g><path d="m420.137 346.599-256.733-256.734c-2.417-2.417-5.903-3.432-9.24-2.691-3.337.742-6.064 3.136-7.231 6.35l-146.332 403.065c-1.325 3.65-.417 7.738 2.329 10.484 1.909 1.908 4.465 2.929 7.073 2.929 1.144 0 2.298-.197 3.411-.601l403.064-146.331c3.213-1.167 5.608-3.894 6.35-7.231.741-3.338-.274-6.823-2.691-9.24zm-259.766-231.482 71.656 71.656c.546 71.87 22.334 140.329 63.265 199.017l-63.673 23.116c-62.566-68.656-93.902-160.374-86.157-252.723zm-6.96 322.181c-30.958-26.535-56.484-58.033-75.974-93.743l47.953-132.086c5.917 75.193 35.879 147.179 85.988 204.784zm-84.886-69.197c17.428 28.558 38.675 54.35 63.466 76.973l-105.288 38.225zm246.253 10.614c-36.502-50.634-57.664-109.255-61.951-171.141l142.059 142.059z" fill="#052a75"/><g><path d="m220.099 106.192c-3.44 0-6.788-1.776-8.646-4.962-9.405-16.12-9.405-36.147 0-52.268 5.778-9.903 5.778-22.207 0-32.109-2.783-4.77-1.173-10.894 3.598-13.677 4.768-2.784 10.893-1.174 13.677 3.598 9.406 16.12 9.406 36.148 0 52.268-5.778 9.903-5.778 22.207 0 32.109 2.783 4.771 1.172 10.894-3.598 13.677-1.585.925-3.32 1.364-5.031 1.364z" fill="#fdcb50"/></g><g><path d="m434.906 305.604c-9.037 0-18.074-2.351-26.134-7.054-4.77-2.783-6.381-8.906-3.598-13.677s8.906-6.381 13.677-3.598c9.902 5.777 22.207 5.777 32.109 0 16.12-9.405 36.147-9.406 52.268 0 4.771 2.783 6.381 8.907 3.598 13.677-2.784 4.771-8.909 6.38-13.677 3.598-9.903-5.778-22.206-5.778-32.109 0-8.06 4.703-17.097 7.054-26.134 7.054z" fill="#fdcb50"/></g><g><path d="m403.446 116.566c-.842 0-1.698-.107-2.551-.332-5.341-1.405-8.532-6.874-7.127-12.215 7.06-26.837 28.117-47.895 54.955-54.955 19.876-5.229 35.472-20.824 40.701-40.701 1.405-5.341 6.877-8.533 12.215-7.127 5.341 1.405 8.532 6.874 7.127 12.215-7.06 26.837-28.117 47.895-54.955 54.955-19.876 5.229-35.472 20.824-40.701 40.701-1.18 4.488-5.231 7.459-9.664 7.459z" fill="#fdcb50"/></g><g fill="#27a2cc"><path d="m329.123.937c-5.006-2.33-10.956-.163-13.287 4.844s-.162 10.956 4.844 13.287c7.851 3.656 13.65 10.208 16.33 18.449 2.54 7.811 1.901 16.072-1.782 23.408-5.109-9.904-13.344-18.27-23.921-23.194-.045-.021-.09-.042-.135-.062-8.142-3.645-16.798-3.774-24.375-.363-6.636 2.987-12.078 8.471-15.325 15.443-3.247 6.971-3.942 14.665-1.959 21.666 2.265 7.993 7.934 14.536 15.962 18.422.045.022.09.043.136.064 10.466 4.873 22.274 5.687 33.263 3.126-3.221 7.666-9.18 13.568-16.879 16.687-8.03 3.252-16.776 3.032-24.626-.625-5.006-2.331-10.956-.163-13.287 4.844s-.163 10.956 4.844 13.287c6.774 3.154 14.123 4.738 21.481 4.738 6.489 0 12.985-1.233 19.096-3.708 13.222-5.355 23.323-15.672 28.442-29.051 2.133-5.575 3.152-11.389 3.169-17.173 4.397-3.687 8.156-8.125 10.983-13.224 6.948-12.529 8.345-26.902 3.934-40.471-4.351-13.379-14.159-24.458-26.908-30.394zm-34.997 73.866c-8.418-4.122-5.247-12.058-4.523-13.61.724-1.553 4.76-9.09 13.334-5.298 7.961 3.733 13.806 10.878 16.503 18.971-8.09 3.238-17.534 3.532-25.314-.063z"/><path d="m509.066 180.88c-5.937-12.75-17.015-22.557-30.396-26.907-13.567-4.412-27.94-3.015-40.471 3.934-5.099 2.827-9.538 6.585-13.224 10.983-5.784.017-11.599 1.037-17.173 3.169-13.379 5.119-23.696 15.22-29.051 28.442-5.281 13.039-4.905 27.829 1.031 40.577 1.695 3.641 5.304 5.782 9.072 5.781 1.413 0 2.85-.301 4.215-.937 5.007-2.331 7.175-8.28 4.844-13.287-3.655-7.85-3.877-16.596-.625-24.626 3.119-7.7 9.021-13.659 16.687-16.879-2.559 10.989-1.746 22.798 3.126 33.263.021.045.042.09.064.136 3.886 8.029 10.429 13.698 18.422 15.962 6.999 1.982 14.694 1.287 21.666-1.959 6.972-3.247 12.457-8.689 15.443-15.325 3.411-7.577 3.282-16.233-.363-24.375-.02-.045-.041-.09-.062-.135-4.925-10.577-13.29-18.812-23.194-23.921 7.336-3.683 15.597-4.32 23.408-1.782 8.241 2.68 14.793 8.479 18.449 16.33 2.331 5.007 8.28 7.175 13.287 4.844s7.176-8.282 4.845-13.288zm-54.958 26.186c3.793 8.576-3.745 12.611-5.298 13.334-1.551.723-9.489 3.895-13.61-4.523-3.595-7.782-3.301-17.225-.062-25.314 8.092 2.697 15.237 8.542 18.97 16.503z"/><path d="m342.92 172.482c-2.506-6.487-11.513-8.238-16.3-3.24-6.267 6.19-1.735 17.118 7.071 17.07 6.89.19 12.073-7.533 9.229-13.83z"/><path d="m468.97 110.392c2.452 6.447 11.586 8.255 16.31 3.24 5.627-5.453 2.601-15.474-5.12-16.87-7.677-1.648-14.315 6.431-11.19 13.63z"/><path d="m168.15 17.142c-2.441-6.45-11.579-8.271-16.3-3.239-6.273 6.183-1.731 17.125 7.071 17.069 6.893.185 12.069-7.528 9.229-13.83z"/><path d="m494.2 349.102c-.747-1.813-2.037-3.403-3.68-4.49-4.407-3.07-10.975-1.755-13.87 2.76-2.229 3.282-2.23 7.827 0 11.11 6.874 9.855 21.938 1.797 17.55-9.38z"/></g></g></g><g/><g/><g/><g/><g/><g/><g/><g/><g/><g/><g/><g/><g/><g/><g/></svg>