<svg id="Capa_1" enable-background="new 0 0 510 510" viewBox="0 0 510 510" xmlns="http://www.w3.org/2000/svg"><g><g><path d="m75.333 108 98-98h228.667c8.664 0 16.973 3.438 23.099 9.571 6.127 6.125 9.568 14.431 9.568 23.095v424.667c0 8.665-3.441 16.97-9.568 23.095-6.126 6.134-14.435 9.572-23.099 9.572-68.331 0-225.669 0-294 0-18.041 0-32.667-14.627-32.667-32.667 0-94.145 0-359.333 0-359.333z" fill="#fff"/><path d="m116.64 111.155c0-16.217 1.341-32.119 3.879-47.619l-44.533 44.532v359.333c0 18.04 14.626 32.667 32.667 32.667h294c8.664 0 16.973-3.438 23.099-9.571 6.127-6.125 9.568-14.431 9.568-23.095 0-16.751 0-39.067 0-64.854-8.605.761-17.311 1.173-26.114 1.173-161.58-.001-292.566-130.987-292.566-292.566z" fill="#d2dcfd"/><path d="m189.667 91.667c0-33.794 0-81.667 0-81.667-10.273 0-16.333 0-16.333 0l-98 98v16.333h81.667c18.04 0 32.666-14.626 32.666-32.666z" fill="#d2dcfd"/><circle cx="255" cy="285.498" fill="#bc9af4" r="98"/></g><g fill="#052a75"><path d="m255 393.498c-59.551 0-108-48.449-108-108s48.449-108 108-108 108 48.449 108 108-48.449 108-108 108zm0-196c-48.523 0-88 39.477-88 88 0 48.524 39.477 88 88 88s88-39.476 88-88c0-48.523-39.477-88-88-88z"/><path d="m287.667 275.498h-22.667v-22.666c0-5.523-4.477-10-10-10s-10 4.477-10 10v22.666h-22.667c-5.523 0-10 4.477-10 10s4.477 10 10 10h22.667v22.667c0 5.523 4.477 10 10 10s10-4.477 10-10v-22.667h22.667c5.523 0 10-4.477 10-10s-4.477-10-10-10z"/><path d="m432.174 12.504c-8.055-8.063-18.771-12.504-30.174-12.504h-228.667c-2.652 0-5.196 1.054-7.071 2.929l-98 98c-1.875 1.875-2.929 4.419-2.929 7.071v359.334c.001 23.526 19.141 42.666 42.667 42.666h294c11.403 0 22.119-4.441 30.169-12.499 8.059-8.057 12.498-18.771 12.498-30.167v-424.667c0-11.397-4.439-22.11-12.493-30.163zm-254.698 7.496h2.191v71.667c0 12.498-10.168 22.667-22.667 22.667h-71.666v-2.191zm247.191 447.334c0 6.053-2.357 11.744-6.643 16.028-4.276 4.281-9.967 6.638-16.024 6.638h-294c-12.498 0-22.666-10.168-22.666-22.666v-333h71.666c23.526 0 42.667-19.14 42.667-42.667v-71.667h202.333c6.057 0 11.748 2.357 16.028 6.643 4.281 4.28 6.638 9.97 6.638 16.023v424.668z"/></g></g><g/><g/><g/><g/><g/><g/><g/><g/><g/><g/><g/><g/><g/><g/><g/></svg>