<svg id="Capa_1" enable-background="new 0 0 510.049 510.049" viewBox="0 0 510.049 510.049" xmlns="http://www.w3.org/2000/svg"><g><g><path d="m10 456.961v-446.645h468.736v449.008z" fill="#d46b5c"/><path d="m478.736 244.371c-24.157-12.792-51.697-20.047-80.935-20.047-95.661 0-173.209 77.548-173.209 173.209 0 21.307 3.856 41.712 10.894 60.565l243.25 1.227z" fill="#b55348"/><path d="m186.577 396.124h-95.977c-10.946 0-19.819-8.873-19.819-19.819v-37.641c0-10.946 8.873-19.819 19.819-19.819h95.977c10.946 0 19.819 8.873 19.819 19.819v37.641c0 10.945-8.873 19.819-19.819 19.819z" fill="#fff"/><path d="m277.148 191.395h-67.571c-11.826 0-21.413-9.587-21.413-21.413v-159.666h110.397v159.666c0 11.826-9.587 21.413-21.413 21.413z" fill="#fdcb50"/><circle cx="397.801" cy="397.533" fill="#b1d952" r="102.199"/></g><g fill="#052a75"><path d="m206.674 248.22h-135.893c-5.523 0-10 4.478-10 10s4.477 10 10 10h135.894c13.227-.508 13.296-19.46-.001-20z"/><path d="m488.737 331.891v-321.575c0-5.523-4.478-10-10-10h-468.737c-5.523 0-10 4.477-10 10v446.645c0 5.523 4.477 10 10 10h299.725c20.565 26.033 52.402 42.771 88.076 42.771 90.982.5 144.427-105.154 90.936-177.841zm-20-311.575v83.297h-448.737v-83.297zm-448.737 426.645v-323.348h448.737v187.057c-93.921-74.74-223.124 27.454-171.641 136.29h-277.096zm377.801 42.77c-50.838 0-92.198-41.36-92.198-92.198 5.065-122.315 179.352-122.279 184.398.001 0 50.837-41.361 92.197-92.2 92.197z"/><path d="m432.389 364.089-45.675 45.675-23.5-23.501c-9.73-8.998-23.157 4.375-14.143 14.143 0 0 30.571 30.572 30.571 30.572 3.724 3.871 10.418 3.874 14.143 0 0 0 52.746-52.746 52.746-52.746 3.905-3.905 3.905-10.237 0-14.143-3.905-3.905-10.236-3.905-14.142 0z"/></g></g><g/><g/><g/><g/><g/><g/><g/><g/><g/><g/><g/><g/><g/><g/><g/></svg>