<svg id="Capa_1" enable-background="new 0 0 510.005 510.005" viewBox="0 0 510.005 510.005" xmlns="http://www.w3.org/2000/svg"><g><g><g><g><path d="m10 337.002h298.387v48h-298.387z" fill="#d2dcfd"/></g><g><g><path d="m500.005 255.002h-48l-38.246-96.548h-105.372v226.548h191.618z" fill="#fd7da0"/></g><g><path d="m358.005 158.454v96.548h94l-38.246-96.548z" fill="#fff"/></g><g><path d="m452.005 255.002h48v48h-48z" fill="#fdcb50"/></g></g><g><circle cx="111.005" cy="385.002" fill="#93b2f4" r="48"/></g><g><circle cx="401.069" cy="385.002" fill="#93b2f4" r="48"/></g></g><g><g><path d="m28.544 77.002h279.843v260h-279.843z" fill="#fdcb50"/></g><g><path d="m88.893 81.569c0-1.529.041-3.048.081-4.567h-60.43v260h279.844v-86.632c-14.318 3.796-29.353 5.829-44.865 5.829-96.446 0-174.63-78.184-174.63-174.63z" fill="#fd8f01"/></g><g><path d="m125.267 77.002h86.397v86.398l-21.599-15.186-21.599 15.186-21.599-15.186-21.6 15.186z" fill="#fff"/></g></g></g><g><g fill="#6864f7"><circle cx="111.005" cy="385.005" r="10"/><circle cx="401.072" cy="385.002" r="10"/></g><path d="m500.005 245.002h-41.205l-35.744-90.231c-1.51-3.813-5.196-6.317-9.297-6.317h-95.372v-71.452c0-5.523-4.477-10-10-10h-279.843c-5.523 0-10 4.477-10 10v250h-8.544c-5.523 0-10 4.477-10 10v48c0 5.523 4.477 10 10 10h43.885c4.755 27.23 28.549 48 57.119 48s52.365-20.77 57.119-48h175.825c4.755 27.23 28.549 48 57.119 48s52.365-20.77 57.119-48h41.817c5.523 0 10-4.477 10-10v-130c.002-5.523-4.475-10-9.998-10zm-132-76.548h38.959l30.323 76.548h-69.282zm-329.461-81.452h259.843v240h-259.843zm15.341 288h-33.885v-28h47.243c-6.777 7.795-11.508 17.406-13.358 28zm57.12 48c-20.953 0-38-17.047-38-38s17.047-38 38-38 38 17.047 38 38-17.047 38-38 38zm187.382-48h-130.263c-1.85-10.595-6.58-20.205-13.357-28h143.62zm102.682 48c-20.953 0-38-17.047-38-38s17.047-38 38-38 38 17.047 38 38-17.047 38-38 38zm88.936-48h-31.817c-4.755-27.23-28.549-48-57.119-48s-52.365 20.77-57.119 48h-25.562v-206.548h29.618v86.548c0 5.523 4.477 10 10 10h132v110z" fill="#052a75"/><g><g><path d="m91.649 205.209h-81.649c-5.523 0-10-4.477-10-10s4.477-10 10-10h81.649c5.523 0 10 4.477 10 10s-4.477 10-10 10z" fill="#6864f7"/></g><g><path d="m128.689 255.209h-52.832c-5.523 0-10-4.477-10-10s4.477-10 10-10h52.832c5.523 0 10 4.477 10 10s-4.477 10-10 10z" fill="#6864f7"/></g></g></g></g><g/><g/><g/><g/><g/><g/><g/><g/><g/><g/><g/><g/><g/><g/><g/></svg>