<svg id="Capa_1" enable-background="new 0 0 510 510" viewBox="0 0 510 510" xmlns="http://www.w3.org/2000/svg"><g><g><g><g><path d="m394.49 174.844v175.283c0 11.528-9.345 20.873-20.873 20.873h-325.282c-11.528 0-20.873-9.345-20.873-20.873v-174.813z" fill="#d46b5c"/><path d="m74.638 226.995c0-17.806 2.066-35.129 5.958-51.749l-53.134.068v174.813c0 11.528 9.345 20.874 20.873 20.874h78.091c-32.348-39.111-51.788-89.288-51.788-144.006z" fill="#b55348"/><path d="m170.259 250.892-146.148-37.595c-8.252-1.88-14.111-9.273-14.111-17.803v-94.4c0-10.08 8.104-18.252 18.101-18.252h365.75c9.997 0 18.101 8.172 18.101 18.252v94.4c0 8.53-5.859 15.922-14.111 17.803l-145.375 37.396z" fill="#d46b5c"/><path d="m126.55 82.842h-98.449c-9.997 0-18.101 8.172-18.101 18.252v94.4c0 8.53 5.859 15.922 14.111 17.803l50.536 13c.164-54.516 19.62-104.49 51.903-143.455z" fill="#b55348"/><path d="m252.198 279.102h-82.444c-5.77 0-10.447-4.677-10.447-10.447v-39.512c0-5.77 4.677-10.447 10.447-10.447h82.444c5.77 0 10.447 4.677 10.447 10.447v39.512c0 5.77-4.678 10.447-10.447 10.447z" fill="#fdcb50"/></g><g><circle cx="394.49" cy="371" fill="#d2dcfd" r="105"/></g><path d="m432.911 437.578c-57.99 0-105-47.01-105-105 0-19.133 5.12-37.069 14.061-52.518-31.374 18.159-52.482 52.083-52.482 90.94 0 57.99 47.01 105 105 105 38.857 0 72.781-21.108 90.939-52.482-15.449 8.94-33.385 14.06-52.518 14.06z" fill="#93b2f4"/></g></g><g fill="#052a75"><path d="m476.53 289.895c-19.489-19.591-44.792-31.294-72.04-33.506v-34.75c10.472-4.269 17.461-14.442 17.461-26.145v-94.4c0-15.578-12.606-28.251-28.101-28.251h-121.205v-16.576c0-17.792-14.475-32.267-32.267-32.267h-58.805c-17.792 0-32.267 14.475-32.267 32.267v16.576h-121.205c-15.495 0-28.101 12.673-28.101 28.251v94.4c0 11.703 6.99 21.877 17.461 26.145v128.488c0 17.023 13.85 30.873 30.874 30.873h232.099c2.296 26.837 13.813 51.78 33.036 71.104 21.664 21.778 50.512 33.816 81.23 33.896h.305c63.268-.004 114.829-51.393 114.995-114.699.08-30.718-11.807-59.628-33.47-81.406zm-307.223-233.628c0-6.764 5.503-12.267 12.267-12.267h58.805c6.764 0 12.267 5.503 12.267 12.267v16.576h-83.338v-16.576zm-149.307 44.827c0-4.55 3.634-8.251 8.101-8.251h365.75c4.467 0 8.101 3.701 8.101 8.251v94.4c0 3.892-2.604 7.203-6.332 8.053-.09.021-.18.042-.27.065l-122.705 31.565v-6.034c0-11.274-9.172-20.447-20.447-20.447h-82.444c-11.274 0-20.447 9.173-20.447 20.447v6.034l-122.705-31.565c-.089-.023-.18-.045-.27-.065-3.729-.85-6.332-4.161-6.332-8.053zm232.645 128.05v39.512c0 .247-.2.447-.447.447h-82.444c-.247 0-.447-.2-.447-.447v-39.512c0-.247.2-.447.447-.447h82.444c.246-.001.447.199.447.447zm-215.184 120.983v-123.07l111.845 28.771v12.827c0 11.274 9.172 20.447 20.447 20.447h82.444c11.274 0 20.447-9.173 20.447-20.447v-12.827l111.845-28.771v29.428c-55.18 5.024-99.263 49.211-104.051 104.515h-232.103c-5.996 0-10.874-4.878-10.874-10.873zm367.292 115.376.064-24.556c.015-5.523-4.451-10.012-9.974-10.026-.009 0-.018 0-.027 0-5.51 0-9.985 4.46-10 9.974l-.064 24.558c-21.589-2.301-41.58-11.847-57.104-27.452s-24.965-35.646-27.153-57.247l24.557.064h.027c5.51 0 9.985-4.46 10-9.974.015-5.523-4.451-10.012-9.974-10.026l-24.553-.064c4.784-44.401 40.268-79.704 84.694-84.256l-.064 24.556c-.015 5.523 4.451 10.012 9.974 10.026h.027c5.51 0 9.985-4.46 10-9.974l.064-24.558c21.589 2.301 41.58 11.847 57.104 27.452s24.965 35.646 27.153 57.247l-24.557-.064c-.009 0-.018 0-.027 0-5.51 0-9.985 4.46-10 9.974-.015 5.523 4.451 10.012 9.974 10.026l24.553.064c-4.783 44.402-40.268 79.706-84.694 84.256z"/><path d="m414.419 337.576-19.382 19.281-32.071-32.238c-3.895-3.916-10.227-3.932-14.142-.037-3.915 3.896-3.932 10.227-.037 14.143l39.124 39.328c1.87 1.88 4.411 2.94 7.063 2.947h.026c2.643 0 5.179-1.046 7.053-2.91l26.472-26.334c3.915-3.896 3.932-10.227.037-14.143s-10.228-3.931-14.143-.037z"/></g></g><g/><g/><g/><g/><g/><g/><g/><g/><g/><g/><g/><g/><g/><g/><g/></svg>