<svg id="Capa_1" enable-background="new 0 0 510 510" viewBox="0 0 510 510" xmlns="http://www.w3.org/2000/svg"><g><g><path d="m435 10h-360c-23.748 0-43 19.252-43 43v447h360v-447c0-23.748 19.252-43 43-43z" fill="#fff"/><g fill="#d2dcfd"><path d="m144.467 127c0-39.997 3.786-79.109 11.013-117h-80.48c-23.748 0-43 19.252-43 43v447h236.991c-78.178-103.844-124.524-233.007-124.524-373z"/><path d="m478 290.881h-86v-237.881c0-23.748 19.252-43 43-43 23.748 0 43 19.252 43 43z"/></g></g><g><path d="m435 0h-360c-29.225 0-53 23.776-53 53v447c0 5.523 4.478 10 10 10h360c5.522 0 10-4.477 10-10v-199.119h76c5.522 0 10-4.477 10-10v-237.881c0-29.224-23.775-53-53-53zm-53 490h-340v-437c0-18.196 14.804-33 33-33h318.573c-7.234 9.062-11.573 20.531-11.573 33zm86-209.119h-66v-227.881c0-18.196 14.804-33 33-33s33 14.804 33 33z" fill="#052a75"/><path d="m306.295 363.484c-10.865 0-19.704-7.607-19.704-16.958s8.839-16.958 19.704-16.958 19.705 7.606 19.705 16.957c0 5.523 4.478 10 10 10s10-4.477 10-10c0-17.165-12.637-31.632-29.705-35.77v-6.729c0-5.523-4.478-10-10-10s-10 4.477-10 10v6.729c-17.067 4.137-29.704 18.605-29.704 35.769 0 20.379 17.812 36.958 39.704 36.958 10.865 0 19.705 7.607 19.705 16.958s-8.84 16.959-19.705 16.959-19.704-7.608-19.704-16.959c0-5.523-4.478-10-10-10s-10 4.477-10 10c0 17.165 12.637 31.632 29.704 35.77v7.79c0 5.523 4.478 10 10 10s10-4.477 10-10v-7.788c17.068-4.137 29.705-18.605 29.705-35.77 0-20.379-17.812-36.958-39.705-36.958z" fill="#91b706"/><g><path d="m121 76h-33c-5.522 0-10-4.477-10-10s4.478-10 10-10h33c5.522 0 10 4.477 10 10s-4.478 10-10 10z" fill="#6864f7"/></g><g><path d="m336 76h-159c-5.522 0-10-4.477-10-10s4.478-10 10-10h159c5.522 0 10 4.477 10 10s-4.478 10-10 10z" fill="#6864f7"/></g><g><path d="m121 137h-33c-5.522 0-10-4.477-10-10s4.478-10 10-10h33c5.522 0 10 4.477 10 10s-4.478 10-10 10z" fill="#6864f7"/></g><g><path d="m336 137h-159c-5.522 0-10-4.477-10-10s4.478-10 10-10h159c5.522 0 10 4.477 10 10s-4.478 10-10 10z" fill="#6864f7"/></g><g><path d="m121 198h-33c-5.522 0-10-4.477-10-10s4.478-10 10-10h33c5.522 0 10 4.477 10 10s-4.478 10-10 10z" fill="#6864f7"/></g><g><path d="m336 198h-159c-5.522 0-10-4.477-10-10s4.478-10 10-10h159c5.522 0 10 4.477 10 10s-4.478 10-10 10z" fill="#6864f7"/></g><g><path d="m121 259h-33c-5.522 0-10-4.477-10-10s4.478-10 10-10h33c5.522 0 10 4.477 10 10s-4.478 10-10 10z" fill="#6864f7"/></g><g><path d="m200.934 352.984h-112.934c-5.522 0-10-4.477-10-10s4.478-10 10-10h112.934c5.522 0 10 4.477 10 10s-4.478 10-10 10z" fill="#6864f7"/></g><g><path d="m149 413.984h-61c-5.522 0-10-4.477-10-10s4.478-10 10-10h61c5.522 0 10 4.477 10 10s-4.478 10-10 10z" fill="#6864f7"/></g><g><path d="m336 259h-159c-5.522 0-10-4.477-10-10s4.478-10 10-10h159c5.522 0 10 4.477 10 10s-4.478 10-10 10z" fill="#6864f7"/></g></g></g><g/><g/><g/><g/><g/><g/><g/><g/><g/><g/><g/><g/><g/><g/><g/></svg>