<svg id="Capa_1" enable-background="new 0 0 512 512" viewBox="0 0 512 512" xmlns="http://www.w3.org/2000/svg"><g><g><g><path d="m159.111 405.453-18.657-249.067c-.507-6.772-6.15-12.008-12.941-12.008h-37.218c-6.791 0-12.434 5.236-12.941 12.008l-18.657 249.067z" fill="#ff5f4a"/></g><g><path d="m309.09 361.083-15.333-204.697c-.507-6.772-6.15-12.008-12.941-12.008h-37.218c-6.791 0-12.434 5.236-12.941 12.008l-15.333 204.697z" fill="#ff5f4a"/></g><g><path d="m462.394 361.083-15.334-204.697c-.507-6.772-6.15-12.008-12.941-12.008h-37.218c-6.791 0-12.434 5.236-12.941 12.008l-15.333 204.697z" fill="#ff5f4a"/></g><g><path d="m72.947 215.223-14.25 190.23h100.414l-14.25-190.23z" fill="#be3886"/></g><g><path d="m226.25 215.223-10.926 145.86h93.766l-10.926-145.86z" fill="#be3886"/></g><g><path d="m379.554 215.223-10.927 145.86h93.767l-10.927-145.86z" fill="#be3886"/></g><g><path d="m29.024 486.972v-78.682c0-8.966 6.294-16.699 15.073-18.52l213.339-44.246c8.779-1.821 15.073-9.555 15.073-18.52v-29.582c0-9.2 6.62-17.066 15.685-18.637l185.054-32.062c11.565-2.004 22.143 6.9 22.143 18.637v221.613c0 8.299-6.728 15.027-15.027 15.027h-436.313c-8.3 0-15.027-6.728-15.027-15.028z" fill="#bc97f7"/></g><g><path d="m199.287 361.083c0-1.173.026-2.34.044-3.509l-155.234 32.196c-8.779 1.821-15.073 9.555-15.073 18.52v78.682c0 8.3 6.728 15.027 15.027 15.027h207.642c-32.654-37.795-52.406-87.048-52.406-140.916z" fill="#675efb"/></g><g><path d="m272.866 502h-189.36v-59.299c0-5.614 4.021-10.422 9.547-11.414l166.166-29.84c7.111-1.277 13.647 4.189 13.647 11.414z" fill="#fff"/></g><g><path d="m205.144 411.158-112.09 20.129c-5.526.992-9.547 5.8-9.547 11.415v59.298h168.187c-22.204-25.7-38.431-56.7-46.55-90.842z" fill="#d2dbfe"/></g><g><path d="m401.127 10h-352.862c-17.483 0-31.656 14.173-31.656 31.656 0 17.483 14.173 31.656 31.656 31.656h5.185c16.217 0 29.363 13.146 29.363 29.363h52.274c0-16.217 13.146-29.363 29.363-29.363h236.677c17.483 0 31.656-14.173 31.656-31.656 0-17.483-14.173-31.656-31.656-31.656z" fill="#fff"/></g></g><g><path d="m495.095 243.237c-6.542-5.507-15.128-7.827-23.554-6.367l-8.316 1.441-6.193-82.671c-.893-11.922-10.958-21.261-22.913-21.261h-37.217c-11.955 0-22.02 9.339-22.913 21.261l-7.447 99.422-54.656 9.469-8.157-108.892c-.893-11.922-10.958-21.261-22.913-21.261h-37.217c-11.955 0-22.02 9.339-22.913 21.261l-14.251 190.249-41.118 8.528-14.89-198.777c-.893-11.922-10.958-21.261-22.913-21.261h-37.219c-11.955 0-22.02 9.339-22.913 21.261l-16.67 222.546-8.646 1.793c-13.352 2.769-23.042 14.676-23.042 28.312v78.682c0 13.8 11.227 25.027 25.027 25.027h436.313c13.8 0 25.027-11.227 25.027-25.027v-221.613c0-8.552-3.752-16.615-10.296-22.122zm-101.162-86.104c.116-1.545 1.419-2.755 2.969-2.755h37.217c1.549 0 2.853 1.21 2.969 2.755l6.338 84.607-56.564 9.8zm-153.303 0c.116-1.545 1.42-2.755 2.969-2.755h37.217c1.549 0 2.853 1.21 2.969 2.755l8.302 110.828-5.6.97c-13.894 2.407-23.978 14.389-23.978 28.49v29.582c0 4.204-2.987 7.875-7.104 8.729l-28.598 5.931zm-153.303 0c.116-1.545 1.42-2.755 2.969-2.755h37.217c1.549 0 2.853 1.21 2.969 2.755l15.085 201.379-74.482 15.447zm398.064 329.839c0 2.772-2.255 5.027-5.027 5.027h-436.313c-2.772 0-5.027-2.255-5.027-5.027v-78.682c0-4.204 2.988-7.875 7.104-8.729l15.872-3.292c.029-.005.058-.012.087-.018l197.379-40.936c13.352-2.769 23.043-14.675 23.043-28.312v-29.582c0-4.347 3.109-8.042 7.392-8.784l87.928-15.234c.006-.001.012-.002.019-.003l97.108-16.825c.553-.096 1.081-.138 1.583-.138 2.725 0 4.678 1.259 5.679 2.102 1.186.998 3.174 3.21 3.174 6.82v221.613z" fill="#022777"/><g><path d="m135.087 112.675c-5.523 0-10-4.477-10-10 0-21.705 17.658-39.363 39.363-39.363h236.677c11.941 0 21.656-9.715 21.656-21.656s-9.715-21.656-21.656-21.656h-352.862c-11.941 0-21.656 9.715-21.656 21.656s9.715 21.656 21.656 21.656h5.185c21.705 0 39.363 17.658 39.363 39.363 0 5.523-4.477 10-10 10s-10-4.477-10-10c0-10.677-8.686-19.363-19.363-19.363h-5.185c-22.969 0-41.656-18.687-41.656-41.656s18.686-41.656 41.656-41.656h352.862c22.969 0 41.656 18.687 41.656 41.656s-18.687 41.656-41.656 41.656h-236.677c-10.677 0-19.363 8.686-19.363 19.363 0 5.523-4.477 10-10 10z" fill="#1ba1ce"/></g><g><path d="m330.083 362.575c-5.523 0-10-4.477-10-10v-23.744c0-5.523 4.477-10 10-10s10 4.477 10 10v23.744c0 5.523-4.477 10-10 10z" fill="#fff"/></g><g><path d="m385.256 362.575c-5.523 0-10-4.477-10-10v-23.744c0-5.523 4.477-10 10-10s10 4.477 10 10v23.744c0 5.523-4.477 10-10 10z" fill="#fff"/></g><g><path d="m440.43 362.575c-5.523 0-10-4.477-10-10v-23.744c0-5.523 4.477-10 10-10s10 4.477 10 10v23.744c0 5.523-4.477 10-10 10z" fill="#fff"/></g><g><path d="m330.083 443.451c-5.523 0-10-4.477-10-10v-23.743c0-5.523 4.477-10 10-10s10 4.477 10 10v23.743c0 5.523-4.477 10-10 10z" fill="#fff"/></g><g><path d="m385.256 443.451c-5.523 0-10-4.477-10-10v-23.743c0-5.523 4.477-10 10-10s10 4.477 10 10v23.743c0 5.523-4.477 10-10 10z" fill="#fff"/></g><g><path d="m440.43 443.451c-5.523 0-10-4.477-10-10v-23.743c0-5.523 4.477-10 10-10s10 4.477 10 10v23.743c0 5.523-4.477 10-10 10z" fill="#fff"/></g></g></g><g/><g/><g/><g/><g/><g/><g/><g/><g/><g/><g/><g/><g/><g/><g/></svg>