<svg id="Layer_1" enable-background="new 0 0 512 512" viewBox="0 0 512 512" xmlns="http://www.w3.org/2000/svg"><g><g><path d="m372.748 73.671v428.329h-339.087v-491.998h264.958l46.792 40.192z" fill="#fff"/><path d="m94.135 190.776c0-64.061 12.838-125.127 36.086-180.776h-96.56v492h178.479c-73.433-82.891-118.005-191.86-118.005-311.224z" fill="#d2dcfd"/><path d="m298.62 73.667h74.127l-74.127-63.667z" fill="#d2dcfd"/><path d="m109.894 132.643h89.006v49.006h-89.006z" fill="#fd7da0"/><path d="m109.894 252.358h89.006v49.006h-89.006z" fill="#fd7da0"/><path d="m107.245 370.191h189.27v70.468h-189.27z" fill="#b1d952"/><path d="m129.655 370.191h-22.41v70.468h58.873c-14.049-22.297-26.273-45.856-36.463-70.468z" fill="#91b706"/><path d="m421.324 393.66h57.015v44.17h-57.015z" fill="#fff"/><path d="m421.324 48.894h57.015v344.766h-57.015z" fill="#fdcb50"/><path d="m421.324 48.894h57.015v78.085h-57.015z" fill="#fd7da0"/><path d="m449.831 502-28.507-64.17h57.015z" fill="#bc9af4"/></g><g><g><path d="m296.514 141.831h-42.387c-5.523 0-10-4.477-10-10s4.477-10 10-10h42.387c5.523 0 10 4.477 10 10s-4.477 10-10 10z" fill="#fd6050"/></g><g><path d="m296.514 190.837h-42.387c-5.523 0-10-4.477-10-10s4.477-10 10-10h42.387c5.523 0 10 4.477 10 10s-4.477 10-10 10z" fill="#fd6050"/></g><g><path d="m296.514 261.546h-42.387c-5.523 0-10-4.477-10-10s4.477-10 10-10h42.387c5.523 0 10 4.477 10 10s-4.477 10-10 10z" fill="#fd6050"/></g><g><path d="m296.514 310.553h-42.387c-5.523 0-10-4.477-10-10s4.477-10 10-10h42.387c5.523 0 10 4.477 10 10s-4.477 10-10 10z" fill="#fd6050"/></g><g fill="#052a75"><path d="m379.263 66.082-74.127-63.668c-1.984-1.704-4.511-2.53-7.03-2.401-.173-.008-.347-.013-.521-.013h-263.924c-5.523 0-10 4.477-10 10v492c0 5.523 4.477 10 10 10h339.087c5.523 0 10-4.477 10-10v-426.333c0-.338-.017-.672-.05-1.001.322-3.198-.917-6.422-3.435-8.584zm-70.643-34.311 37.137 31.896h-37.137zm-264.959 460.229v-472h244.959v53.667c0 5.523 4.477 10 10 10h64.127v408.333z"/><path d="m296.514 360.191h-189.27c-5.523 0-10 4.477-10 10v70.468c0 5.523 4.477 10 10 10h189.27c5.523 0 10-4.477 10-10v-70.468c0-5.523-4.477-10-10-10zm-10 70.469h-169.27v-50.468h169.27z"/><path d="m488.12 439.915c.008-.04.23-1.62.218-2.26v-388.761c0-5.523-4.477-10-10-10h-57.015c-5.523 0-10 4.477-10 10v388.762c-.002.128.003.283.012.449.053.94.231 1.868.507 2.768.142.463.299.935.417 1.186l28.34 63.795c1.276 2.872 3.752 5.111 6.806 5.854 4.852 1.18 9.636-1.306 11.564-5.647l28.432-64.002c.276-.587.713-2.115.719-2.144zm-56.796-381.021h37.015v368.936h-37.015zm18.507 418.475-13.123-29.539h26.245z"/></g></g></g><g/><g/><g/><g/><g/><g/><g/><g/><g/><g/><g/><g/><g/><g/><g/></svg>