<svg id="Capa_1" enable-background="new 0 0 510.003 510.003" viewBox="0 0 510.003 510.003" xmlns="http://www.w3.org/2000/svg"><g><g><g><g><path d="m365.473 350.041v-340.041h-355.472v460.796h355.472z" fill="#fff"/></g><g><path d="m294.945 291.565c-26.51 0-48 21.49-48 48v54.749c0 10.36 3.32 20.068 9.033 28.012v48.471h109.495v-120.756-58.476z" fill="#d2dcfd"/></g><g><g><g id="XMLID_300_"><g id="XMLID_301_"><path d="m227.388 114.905v22.189c0 21.898-17.752 39.65-39.65 39.65-21.898 0-39.65-17.752-39.65-39.65v-22.189c0-21.898 17.752-39.65 39.65-39.65 21.898 0 39.65 17.752 39.65 39.65z" fill="#fde0be"/></g></g><g><path d="m187.737 75.255c-21.898 0-39.651 17.752-39.651 39.65v11.202h79.301v-11.202c.001-21.898-17.751-39.65-39.65-39.65z" fill="#d46b5c"/></g><g><path d="m111.884 240.415v21.84h151.706v-21.84c0-35.164-28.506-63.671-63.671-63.671h-24.365c-35.164.001-63.67 28.507-63.67 63.671z" fill="#67ccd1"/></g></g></g></g><g><g><g><path d="m303.978 396.286h186.99v103.717h-186.99z" fill="#d46b5c"/></g><g><path d="m303.978 440.604 93.044 19.646 93.946-19.663v-44.301h-186.99z" fill="#b55348"/></g><g><path d="m500.001 394.313-102.979 21.554-102.077-21.554v-54.748h205.056z" fill="#d46b5c"/></g></g></g></g><g><g><g><path d="m224.109 170.844c8.232-8.865 13.279-20.727 13.279-33.75v-22.189c0-27.377-22.273-49.65-49.651-49.65-27.377 0-49.65 22.273-49.65 49.65v22.189c0 13.023 5.047 24.885 13.279 33.75-28.773 10.033-49.481 37.422-49.481 69.572v21.839c0 5.523 4.478 10 10 10h151.705c5.522 0 10-4.477 10-10v-21.839c0-32.15-20.708-59.539-49.481-69.572zm-66.023-55.939c0-16.349 13.302-29.65 29.651-29.65s29.65 13.301 29.65 29.65v22.189c0 16.349-13.302 29.65-29.651 29.65s-29.65-13.301-29.65-29.65zm95.504 137.35h-131.706v-11.839c0-29.594 24.076-53.671 53.67-53.671h2.184v16.006c0 5.523 4.478 10 10 10s10-4.477 10-10v-16.006h2.183c29.594 0 53.67 24.077 53.67 53.671v11.839z" fill="#052a75"/><g><g><path d="m80.532 415.542c-8.807.052-13.346-10.876-7.07-17.07 4.73-5.007 13.857-3.208 16.3 3.241 2.837 6.292-2.337 14.026-9.23 13.829z" fill="#91b706"/></g><g><path d="m80.532 370.461c-9.831-.043-13.705-12.828-5.551-18.32 5.011-3.504 12.599-1.21 14.78 4.5 2.846 6.293-2.341 14.01-9.229 13.82z" fill="#91b706"/></g><g><path d="m80.532 325.381c-10.88-.132-13.838-14.962-3.83-19.24.609-.24 1.239-.44 1.869-.56 1.29-.27 2.62-.27 3.91 0 11.732 2.561 10.052 19.552-1.949 19.8z" fill="#91b706"/></g></g><g><g><path d="m251.677 415.542h-124.676c-5.522 0-10-4.477-10-10s4.478-10 10-10h124.676c5.522 0 10 4.477 10 10s-4.477 10-10 10z" fill="#6864f7"/></g><g><path d="m251.677 370.461h-124.676c-5.522 0-10-4.477-10-10s4.478-10 10-10h124.676c5.522 0 10 4.477 10 10s-4.477 10-10 10z" fill="#6864f7"/></g><g><path d="m260.024 325.381h-133.023c-5.522 0-10-4.477-10-10s4.478-10 10-10h133.022c5.522 0 10 4.477 10 10s-4.477 10-9.999 10z" fill="#6864f7"/></g></g></g><g><path d="m300.005 480.796h-290.004c-5.522 0-10-4.477-10-10v-460.796c0-5.523 4.478-10 10-10h355.472c5.522 0 10 4.477 10 10v285.564h-20v-275.564h-335.472v440.796h280.004z" fill="#052a75"/></g></g><g><g><path d="m439.473 339.564h-20v-34h-44v34h-20v-44c0-5.523 4.478-10 10-10h64c5.522 0 10 4.477 10 10z" fill="#b55348"/></g><path d="m500.001 329.564h-205.056c-5.522 0-10 4.477-10 10v54.749c0 4.727 3.31 8.808 7.934 9.784l1.1.232v95.674c0 5.523 4.478 10 10 10h186.99c5.522 0 10-4.477 10-10v-95.675l1.082-.227c4.633-.97 7.951-5.055 7.951-9.788v-54.749c-.001-5.522-4.478-10-10.001-10zm-195.056 20h185.057v36.625l-92.971 19.459-92.086-19.444zm176.023 140.439h-166.99v-81.45l80.978 17.099c.682.144 1.374.216 2.066.216.687 0 1.373-.071 2.049-.212l81.897-17.142z" fill="#052a75"/><g><g><path d="m397.473 439.993c-12.15 0-22-9.85-22-22v-26h44v26c0 12.15-9.85 22-22 22z" fill="#fdcb50"/></g></g></g></g></g><g/><g/><g/><g/><g/><g/><g/><g/><g/><g/><g/><g/><g/><g/><g/></svg>