<svg id="Capa_1" enable-background="new 0 0 510.091 510.091" viewBox="0 0 510.091 510.091" xmlns="http://www.w3.org/2000/svg"><g><g><g fill="#27a2cc"><path d="m377.34 120.93c30.716 0 55.617-24.812 55.617-55.42-2.724-73.433-108.521-73.413-111.234 0 0 30.607 24.901 55.42 55.617 55.42z"/><path d="m447.294 177.658h-138.806c-29.62 0-53.631 23.926-53.631 53.441v97.853c1.482 40.43 59.748 40.56 61.371.096v171.042h123.285v-171.138h.039c1.496 40.5 59.869 40.522 61.373 0v-97.852c0-29.515-24.011-53.442-53.631-53.442z"/><path d="m315.122 120.93c30.716 0 55.617-24.812 55.617-55.42-2.723-73.433-108.521-73.413-111.233 0 0 30.607 24.9 55.42 55.616 55.42z"/><path d="m385.077 177.658h-138.806c-29.62 0-53.631 23.926-53.631 53.441v97.853c1.482 40.43 59.748 40.56 61.37.096v171.042h123.285v-171.138h.039c1.496 40.5 59.869 40.522 61.373 0v-97.852c.001-29.515-24.011-53.442-53.63-53.442z"/><path d="m130.773 120.93c30.716 0 55.617-24.812 55.617-55.42-2.723-73.433-108.521-73.413-111.233 0 0 30.607 24.9 55.42 55.616 55.42z"/><path d="m200.728 177.658h-138.806c-29.619 0-53.631 23.926-53.631 53.441v97.853c1.482 40.43 59.748 40.56 61.37.096v171.042h123.285v-171.138h.039c1.496 40.5 59.869 40.522 61.373 0v-97.852c.001-29.515-24.011-53.442-53.63-53.442z"/><path d="m192.991 120.93c30.716 0 55.617-24.812 55.617-55.42-2.724-73.433-108.521-73.413-111.234 0 0 30.607 24.901 55.42 55.617 55.42z"/><path d="m262.945 177.658h-138.806c-29.619 0-53.631 23.926-53.631 53.441v97.853c1.482 40.43 59.748 40.56 61.371.096v171.042h123.285v-171.138h.039c1.496 40.5 59.869 40.522 61.373 0v-97.852c0-29.515-24.011-53.442-53.631-53.442z"/></g><path d="m255.253 120.93c30.716 0 55.617-24.812 55.617-55.42-2.724-73.433-108.521-73.413-111.234 0 0 30.607 24.901 55.42 55.617 55.42z" fill="#67ccd1"/><path d="m325.207 177.658h-138.806c-29.619 0-53.631 23.926-53.631 53.441v97.853c1.482 40.43 59.748 40.56 61.37.096v171.042h123.285v-171.138h.039c1.496 40.5 59.869 40.522 61.373 0v-97.852c.001-29.515-24.01-53.442-53.63-53.442z" fill="#67ccd1"/></g><g fill="#052a75"><path d="m132.527 130.929c10.745 0 21.493-2.646 30.877-7.517 18.243 9.978 42.856 9.903 61.381.009 17.956 9.908 42.953 9.913 60.913.012 18.491 10.028 42.98 9.859 61.158-.109 42.644 23.264 96.933-9.196 96.322-57.817.614-48.613-53.69-81.086-96.324-57.815-18.178-9.967-42.673-10.137-61.159-.109-18.022-9.936-43.118-9.888-61.098.109-18.519-10.133-43.117-10.006-61.363 0-42.644-23.265-96.935 9.2-96.323 57.818-.001 36.072 29.435 65.419 65.616 65.419zm290.652-65.42c.464 29.69-29.754 52.212-58.175 43.671 22.2-23.389 22.196-63.956 0-87.34 28.423-8.542 58.638 13.981 58.175 43.669zm-82.002-37.976c42.834 28.876 13.233 94.677-37.2 81.741 22.308-23.414 22.303-64.119 0-87.528 12.378-3.583 26.866-1.189 37.2 5.787zm-62.684-1.085c39.375 23.674 23.307 83.936-23.24 84.482-45.296-.19-62.44-59.023-24.964-83.405 13.542-9.371 34.201-9.862 48.204-1.077zm-72.045-4.609c-22.216 23.405-22.193 64.003.037 87.383-28.471 8.417-58.66-13.96-58.21-43.713-.296-30.045 29.846-52.12 58.173-43.67zm-73.921-1.749c4.289 0 8.507.598 12.558 1.75-22.214 23.402-22.193 63.997.032 87.377-28.468 8.436-58.657-13.963-58.206-43.708-.001-25.044 20.462-45.419 45.616-45.419z"/><path d="m446.413 167.658c-119.479 0-263.258 0-382.738 0-35.086 0-63.631 28.459-63.631 63.441v97.853c-.29 31.091 34.898 50.994 61.371 34.923v136.215c0 5.523 4.477 10 10 10 55.159-.003 129.535.002 184.649 0 54.425-.002 128.175.001 182.61 0 5.523 0 10-4.477 10-10v-136.215c26.283 16.1 61.807-3.921 61.37-34.923v-97.852c0-34.982-28.544-63.442-63.631-63.442zm-17.732 89.991c-.022.374.002 71.069-.007 71.438-1.009 26.247-39.351 28.008-39.835-.134v-97.853c0-16.798-6.594-32.08-17.322-43.441h13.534c24.058 0 43.63 19.487 43.63 43.441zm-101.255 106.202c11.944 7.48 29.446 7.493 41.401.029l-.04 126.21h-41.362v-126.239zm-2.219-176.193c24.058 0 43.631 19.487 43.631 43.441v97.853c-1.179 27.729-41.123 27.042-41.412-.774v-70.394c0-5.523-4.477-10-10-10s-10 4.477-10 10v232.306h-42.173v-151.512c0-5.523-4.477-10-10-10s-10 4.477-10 10v151.512h-41.112c0-49.168 0-185.249 0-232.306 0-5.523-4.477-10-10-10s-10 4.477-10 10v71.216c-.026 11.324-9.294 20.53-20.684 20.53-11.425.007-20.713-9.281-20.678-20.626.007-18.953-.008-79.885-.008-97.805 0-23.954 19.573-43.441 43.631-43.441h137.702s1.103 0 1.103 0zm-243.792 141.39c-.018-.26.021-71.117-.007-71.399v-26.55c0-23.954 19.573-43.441 43.631-43.441h15.053c-10.727 11.361-17.322 26.643-17.322 43.441.004.141-.007 97.864.004 97.993-1.19 27.09-40.22 27.069-41.359-.044zm-40.684 20.482c-11.407 0-20.687-9.231-20.687-20.578v-97.853c0-23.954 19.573-43.441 43.631-43.441h15.054c-10.727 11.361-17.321 26.643-17.321 43.441v97.853c.015 11.333-9.274 20.582-20.677 20.578zm40.684 14.348c11.942 7.457 29.423 7.456 41.364-.003v126.215h-41.364zm61.364.001c11.942 7.457 29.422 7.455 41.362-.003v126.214h-41.362zm246.009 126.211.04-125.598c11.596 6.984 28.427 6.495 39.846-.614v126.212zm101.256-161.138c-1.025 27.179-40.19 27.3-41.367.115-.018-.045.019-97.896.003-97.968 0-16.798-6.594-32.08-17.321-43.441h15.054c24.058 0 43.631 19.487 43.631 43.441z"/></g></g><g/><g/><g/><g/><g/><g/><g/><g/><g/><g/><g/><g/><g/><g/><g/></svg>