<svg id="Capa_1" enable-background="new 0 0 512.005 512.005" viewBox="0 0 512.005 512.005" xmlns="http://www.w3.org/2000/svg"><g><g clip-rule="evenodd" fill-rule="evenodd"><path d="m10.003 100.37h194.324l-11.043-41.216h-19.674l-8.081-30.162h-29.797z" fill="#fde0be"/><path d="m282.002 45.254-14.768 55.116h234.768l-159.181-90.368h-22.664l-9.445 35.252z" fill="#fde0be"/><path d="m502.002 100.37h-234.768-62.907-194.324v45.183h20.081 451.837 20.081z" fill="#f7b073"/><path d="m481.921 145.553h-451.837v45.184h20.082 50.204 70.286 50.204 70.286 50.203 70.286 50.204 20.082z" fill="#fde0be"/><path d="m50.166 190.737h50.204v220.898h-50.204z" fill="#fde0be"/><path d="m50.166 366.451h50.204v45.184h-50.204z" fill="#f7b073"/><path d="m170.655 190.737h50.204v220.898h-50.204z" fill="#fde0be"/><path d="m170.655 366.451h50.204v45.184h-50.204z" fill="#f7b073"/><path d="m291.145 190.737h50.204v220.898h-50.204z" fill="#fde0be"/><path d="m291.145 366.451h50.204v45.184h-50.204z" fill="#f7b073"/><path d="m411.635 190.737h50.204v220.898h-50.204z" fill="#fde0be"/><path d="m411.635 366.451h50.204v45.184h-50.204z" fill="#f7b073"/><path d="m341.349 411.635h-50.204-70.286-50.204-70.285-50.204-20.082v45.184h451.837v-45.184h-20.082-50.204z" fill="#fde0be"/><g fill="#f7b073"><path d="m481.921 456.819h-451.837-20.081v45.184h491.999v-45.184z"/><path d="m50.166 190.737h50.204v45.184h-50.204z"/><path d="m170.655 190.737h50.204v45.184h-50.204z"/><path d="m291.145 190.737h50.204v45.184h-50.204z"/><path d="m411.635 190.737h50.204v45.184h-50.204z"/></g></g><path d="m481.921 200.737c5.523 0 10-4.477 10-10v-35.184h10.082c5.523 0 10-4.477 10-10v-44.997c.083-3.709-1.971-7.227-5.236-8.981l-159.009-90.269c-1.505-.854-3.206-1.304-4.937-1.304h-22.664c-4.526 0-8.488 3.04-9.659 7.412l-7.459 27.839h-21.037c-4.526 0-8.488 3.04-9.659 7.412l-12.782 47.705h-47.56l-9.058-33.804c-1.171-4.372-5.133-7.412-9.659-7.412h-12l-6.096-22.75c-1.171-4.372-5.133-7.412-9.659-7.412h-29.796c-1.731 0-3.432.449-4.937 1.304l-125.558 71.28c-3.265 1.754-5.318 5.272-5.236 8.981v44.997c0 5.523 4.477 10 10 10h10.082v35.184c0 5.523 4.477 10 10 10h10.082v200.898h-10.082c-5.523 0-10 4.477-10 10v35.184h-10.082c-5.523 0-10 4.477-10 10v45.184c0 5.523 4.477 10 10 10h492c5.523 0 10-4.477 10-10v-45.184c0-5.523-4.477-10-10-10h-10.082v-35.184c0-5.523-4.477-10-10-10h-10.082v-200.899zm-192.246-145.483h21.037c4.526 0 8.488-3.04 9.659-7.412l7.459-27.839h12.35l123.952 70.367h-183.866zm-151.302-16.262h19.482l6.096 22.75c1.171 4.372 5.133 7.412 9.659 7.412h12l5.685 21.216h-143.422zm-118.371 71.378h472v25.184h-472zm20.082 45.183h431.837v25.184h-431.837zm311.265 246.082v-200.898h50.286v200.898zm-190.693-200.898v200.898h-50.286v-200.898zm20 0h30.204v200.898h-30.204zm50.204 0h50.286v200.898h-50.286zm70.285 0h30.204v200.898h-30.204zm-240.979 0h30.204v200.898h-30.204zm431.836 291.266h-472v-25.184h472zm-20.081-45.184h-431.837v-25.184h431.837zm-20.082-45.184h-30.204v-200.898h30.204z" fill="#052a75"/></g><g/><g/><g/><g/><g/><g/><g/><g/><g/><g/><g/><g/><g/><g/><g/></svg>