<svg id="Capa_1" enable-background="new 0 0 511.951 511.951" viewBox="0 0 511.951 511.951" xmlns="http://www.w3.org/2000/svg"><g><g><path d="m38.533 309.272-.512-.512c-37.427-37.427-37.427-98.108 0-135.535l135.204-135.204c37.427-37.427 98.108-37.427 135.535 0l.512.512c37.427 37.427 37.427 98.108 0 135.535l-135.204 135.204c-37.427 37.427-98.108 37.427-135.535 0z" fill="#fff"/><path d="m188.872 188.872c-19.249 19.249-34.367 41.677-44.934 66.66-10.662 25.208-16.191 51.921-16.475 79.431 17.078-3.85 33.311-12.396 46.605-25.691l135.205-135.205c13.294-13.294 21.841-29.527 25.691-46.605-27.51.284-54.224 5.813-79.432 16.475-24.983 10.567-47.411 25.685-66.66 44.935z" fill="#d2dcfd"/><path d="m309.273 38.533-.512-.512c-37.427-37.427-98.108-37.427-135.535 0l-67.602 67.602 83.249 83.249 120.401-14.804c37.426-37.427 37.426-98.108-.001-135.535z" fill="#fd6050"/><path d="m188.872 188.872 52.798 52.798 67.602-67.602c13.294-13.294 21.841-29.527 25.691-46.605-27.51.284-54.224 5.813-79.432 16.475-24.982 10.566-47.41 25.684-66.659 44.934z" fill="#db4b86"/><circle cx="337.193" cy="337.193" fill="#b1d952" r="164.758"/><circle cx="337.193" cy="337.193" fill="#fff" r="120.591"/></g><g><path d="m356.386 366.386c-2.559 0-5.119-.976-7.071-2.929l-19.193-19.193c-1.875-1.875-2.929-4.419-2.929-7.071v-41.539c0-5.523 4.477-10 10-10s10 4.477 10 10v37.397l16.264 16.264c3.905 3.905 3.905 10.237 0 14.143-1.953 1.951-4.512 2.928-7.071 2.928z" fill="#6864f7"/><g fill="#d2dcfd"><path d="m337.193 251.226c-5.523 0-10-4.477-10-10v-23.163c0-5.523 4.477-10 10-10s10 4.477 10 10v23.163c0 5.523-4.477 10-10 10z"/><path d="m337.193 466.323c-5.523 0-10-4.477-10-10v-23.163c0-5.523 4.477-10 10-10s10 4.477 10 10v23.163c0 5.523-4.477 10-10 10z"/><path d="m456.323 347.193h-23.163c-5.523 0-10-4.477-10-10s4.477-10 10-10h23.163c5.523 0 10 4.477 10 10s-4.477 10-10 10z"/><path d="m241.226 347.193h-23.163c-5.523 0-10-4.477-10-10s4.477-10 10-10h23.163c5.523 0 10 4.477 10 10s-4.477 10-10 10z"/><path d="m405.052 279.334c-2.559 0-5.119-.976-7.071-2.929-3.905-3.905-3.905-10.237 0-14.143l16.378-16.378c3.905-3.904 10.237-3.904 14.143 0 3.905 3.905 3.905 10.237 0 14.143l-16.378 16.378c-1.954 1.953-4.513 2.929-7.072 2.929z"/><path d="m252.956 431.43c-2.559 0-5.119-.977-7.071-2.929-3.905-3.905-3.905-10.237 0-14.143l16.378-16.378c3.905-3.905 10.237-3.905 14.143 0 3.905 3.905 3.905 10.237 0 14.143l-16.378 16.378c-1.954 1.952-4.513 2.929-7.072 2.929z"/><path d="m421.43 431.43c-2.559 0-5.119-.977-7.071-2.929l-16.378-16.378c-3.905-3.905-3.905-10.237 0-14.143 3.905-3.905 10.237-3.905 14.143 0l16.378 16.378c3.905 3.905 3.905 10.237 0 14.143-1.953 1.952-4.513 2.929-7.072 2.929z"/><path d="m269.334 279.334c-2.559 0-5.119-.976-7.071-2.929l-16.378-16.378c-3.905-3.905-3.905-10.237 0-14.143 3.905-3.904 10.237-3.904 14.143 0l16.378 16.378c3.905 3.905 3.905 10.237 0 14.143-1.953 1.953-4.513 2.929-7.072 2.929z"/></g><path d="m337.193 162.435c-2.007 0-4.003.047-5.993.114 10.513-16.693 16.143-36.037 16.143-56.249 0-28.27-11.009-54.849-30.999-74.839l-.512-.512c-41.266-41.266-108.411-41.265-149.677 0l-135.206 135.206c-41.266 41.266-41.266 108.411 0 149.677l.512.512c19.99 19.99 46.569 30.999 74.839 30.999 20.211 0 39.556-5.63 56.249-16.143-.067 1.991-.114 3.986-.114 5.993 0 96.362 78.396 174.758 174.758 174.758s174.758-78.396 174.758-174.758-78.396-174.758-174.758-174.758zm-230.893 164.908c-22.928 0-44.484-8.929-60.697-25.141l-.512-.512c-33.468-33.468-33.468-87.925 0-121.393l135.206-135.206c33.468-33.467 87.924-33.468 121.393 0l.512.512c16.212 16.213 25.141 37.769 25.141 60.697 0 22.34-8.497 43.362-23.929 59.423-69.318 13.631-124.06 68.372-137.691 137.691-16.061 15.431-37.083 23.929-59.423 23.929zm230.893 164.608c-85.333 0-154.758-69.424-154.758-154.758s69.424-154.758 154.758-154.758 154.758 69.424 154.758 154.758-69.425 154.758-154.758 154.758z" fill="#052a75"/><path d="m337.193 206.601c-72.008 0-130.591 58.583-130.591 130.591s58.583 130.591 130.591 130.591 130.591-58.583 130.591-130.591-58.583-130.591-130.591-130.591zm0 241.183c-60.98 0-110.591-49.611-110.591-110.591s49.611-110.591 110.591-110.591 110.591 49.611 110.591 110.591-49.611 110.591-110.591 110.591z" fill="#052a75"/></g></g><g/><g/><g/><g/><g/><g/><g/><g/><g/><g/><g/><g/><g/><g/><g/></svg>