<svg id="Layer_1" enable-background="new 0 0 512 512" viewBox="0 0 512 512" xmlns="http://www.w3.org/2000/svg"><g><g clip-rule="evenodd" fill-rule="evenodd"><path d="m350.475 10.001h-261.062v441.795h351.429v-351.428z" fill="#fff"/><path d="m89.413 451.796v-391.591h-50.204v441.795h351.428v-50.204z" fill="#93b2f4"/><path d="m267.58 10.001h-178.167v441.795h224.728c-71.706-57.024-117.688-145.009-117.688-243.744 0-75.236 26.694-144.238 71.127-198.051z" fill="#d2dcfd"/><ellipse cx="202.373" cy="140.532" fill="#fff" rx="67.775" ry="67.775" transform="matrix(.973 -.23 .23 .973 -26.874 50.255)"/><path d="m350.475 100.368h90.367l-90.367-90.367z" fill="#d2dcfd"/><path d="m244.974 193.248c-6.329-17.931-23.333-30.124-42.601-30.124s-36.271 12.193-42.601 30.124c11.64 9.418 26.462 15.059 42.601 15.059 16.138.001 30.961-5.641 42.601-15.059z" fill="#67ccd1"/><path d="m202.372 163.124c12.477 0 22.592-10.115 22.592-22.592s-10.115-22.591-22.592-22.591-22.592 10.115-22.592 22.591c.001 12.477 10.115 22.592 22.592 22.592z" fill="#d46b5c"/><path d="m440.842 162.287-172.33 172.329-14.2 46.15 46.15-14.2 172.329-172.329z" fill="#d2dcfd"/></g><g><g fill="#6864f7"><path d="m134.597 308.673h90.367c5.523 0 10-4.477 10-10s-4.477-10-10-10h-90.367c-5.523 0-10 4.477-10 10s4.477 10 10 10z"/><path d="m270.148 243.489h-135.551c-5.523 0-10 4.477-10 10s4.477 10 10 10h135.551c5.522 0 10-4.477 10-10s-4.478-10-10-10z"/><path d="m256.757 370.74c-15.557-7.638-26.851-.742-34.325 3.821-5.899 3.602-8.934 5.28-13.346 4.097-4.955-1.328-7.547-5.005-11.703-11.391-4.892-7.517-10.98-16.872-24.208-19.261-24.253-4.382-41.151 19.188-46.705 26.931-3.218 4.488-2.189 10.736 2.298 13.955 4.487 3.218 10.735 2.189 13.955-2.298 10.152-14.156 18.951-20.34 26.898-18.906 4.301.776 6.543 3.642 10.999 10.488 4.762 7.317 10.689 16.424 23.29 19.8 2.796.75 5.422 1.07 7.89 1.07 8.908 0 15.75-4.176 21.055-7.415 6.979-4.262 9.669-5.599 15.088-2.938 4.958 2.433 10.948.388 13.384-4.569 2.433-4.957.388-10.95-4.57-13.384z"/></g><g fill="#052a75"><path d="m280.148 140.532c0-42.886-34.89-77.775-77.775-77.775s-77.775 34.89-77.775 77.775 34.89 77.775 77.775 77.775 77.775-34.89 77.775-77.775zm-77.775 57.775c-31.857 0-57.775-25.918-57.775-57.775s25.918-57.775 57.775-57.775 57.775 25.918 57.775 57.775-25.918 57.775-57.775 57.775z"/><path d="m482.792 194.237c0-2.652-1.054-5.196-2.929-7.071l-29.021-29.021v-57.777c0-2.652-1.054-5.196-2.929-7.071l-90.368-90.368c-1.876-1.875-4.419-2.929-7.071-2.929h-261.061c-5.523 0-10 4.477-10 10v40.204h-40.204c-5.523 0-10 4.477-10 10v441.796c0 5.523 4.477 10 10 10h351.428c5.522 0 10-4.477 10-10v-40.204h40.204c5.522 0 10-4.477 10-10v-221.466l29.021-29.021c1.876-1.876 2.93-4.42 2.93-7.072zm-102.155 297.763h-331.428v-421.796h30.204v381.592c0 5.523 4.477 10 10 10h291.224zm50.204-50.204h-331.428v-421.796h246.918l84.51 84.509v53.635l-169.4 169.4c-1.153 1.154-2.007 2.572-2.486 4.13l-14.2 46.15c-1.089 3.541-.133 7.393 2.487 10.012 1.904 1.904 4.458 2.929 7.072 2.929.982 0 1.973-.145 2.94-.443l46.149-14.2c1.56-.479 2.978-1.333 4.131-2.486l123.307-123.306zm-135.693-84.057-25.723 7.915 7.914-25.722 163.502-163.502 17.808 17.808z"/></g></g></g><g/><g/><g/><g/><g/><g/><g/><g/><g/><g/><g/><g/><g/><g/><g/></svg>