<svg id="Layer_1" enable-background="new 0 0 510 510" viewBox="0 0 510 510" xmlns="http://www.w3.org/2000/svg"><g><g><path d="m359 255h132v245h-132z" fill="#f7b073" transform="matrix(-1 0 0 -1 850 755)"/><path d="m19 255h132v245h-132z" fill="#f7b073"/><path d="m151 138h208v362h-208z" fill="#fde0be"/><path d="m151 138h208v362h-208z" fill="#fde0be"/><path d="m250.593 319c0-69.399 25.842-132.753 68.41-181h-168.003v362h168.002c-42.568-48.247-68.409-111.601-68.409-181z" fill="#f7b073"/><path d="m199 355.5h112v144.5h-112z" fill="#67ccd1"/><path d="m359 210h140.999v45h-140.999z" fill="#d2dcfd" transform="matrix(-1 0 0 -1 858.999 465)"/><path d="m135 93h240v45h-240z" fill="#fff"/><g><circle cx="255" cy="74" fill="#fd7da0" r="64"/></g><g fill="#fff"><path d="m403 311.5h44v44h-44z"/><path d="m403 399.5h44v44h-44z"/></g><path d="m10.001 210h140.999v45h-140.999z" fill="#d2dcfd"/><g fill="#fff"><path d="m63 311.5h44v44h-44z" transform="matrix(-1 0 0 -1 170 667)"/><path d="m63 399.5h44v44h-44z" transform="matrix(-1 0 0 -1 170 843)"/></g></g><g><g><path d="m255 504.73c-5.523 0-10-4.477-10-10v-134.585c0-5.523 4.477-10 10-10 5.522 0 10 4.477 10 10v134.585c0 5.523-4.478 10-10 10z" fill="#fff"/></g><path d="m274 64h-9v-9c0-5.523-4.478-10-10-10-5.523 0-10 4.477-10 10v9h-9c-5.523 0-10 4.477-10 10s4.477 10 10 10h9v9c0 5.523 4.477 10 10 10 5.522 0 10-4.477 10-10v-9h9c5.522 0 10-4.477 10-10s-4.478-10-10-10z" fill="#fff"/><path d="m499.999 200h-130.999v-52h6c5.522 0 10-4.477 10-10v-45c0-5.523-4.478-10-10-10h-46.567c.36-2.953.567-5.952.567-9 0-40.804-33.196-74-74-74s-74 33.196-74 74c0 3.048.207 6.047.567 9h-46.567c-5.523 0-10 4.477-10 10v45c0 5.523 4.477 10 10 10h6v52h-130.999c-5.523 0-10 4.477-10 10v45c0 5.185 3.946 9.447 8.999 9.949v235.051c0 5.523 4.477 10 10 10h472c5.522 0 10-4.477 10-10v-235.051c5.052-.502 8.999-4.764 8.999-9.949v-45c0-5.523-4.478-10-10-10zm-358.999 290h-112v-225h112zm0-245h-120.999v-25h120.999zm114-225c29.775 0 54 24.224 54 54s-24.225 54-54 54c-29.776 0-54-24.224-54-54s24.224-54 54-54zm-110 108v-25h41.926c4.073 9.525 10.097 18.019 17.554 25zm156 362h-92v-124.5h92zm48 0h-28v-134.5c0-5.523-4.478-10-10-10h-112c-5.523 0-10 4.477-10 10v134.5h-28v-342h188zm16-362h-59.48c7.458-6.981 13.481-15.475 17.554-25h41.926zm116 362h-112v-225h112zm8.999-245h-120.999v-25h120.999z" fill="#052a75"/><g><g><path d="m303.203 212.75h-96.406c-5.523 0-10-4.477-10-10s4.477-10 10-10h96.406c5.522 0 10 4.477 10 10s-4.477 10-10 10z" fill="#fff"/></g><g><path d="m303.203 256.75h-96.406c-5.523 0-10-4.477-10-10s4.477-10 10-10h96.406c5.522 0 10 4.477 10 10s-4.477 10-10 10z" fill="#fff"/></g><g><path d="m303.203 300.75h-96.406c-5.523 0-10-4.477-10-10s4.477-10 10-10h96.406c5.522 0 10 4.477 10 10s-4.477 10-10 10z" fill="#fff"/></g></g></g></g><g/><g/><g/><g/><g/><g/><g/><g/><g/><g/><g/><g/><g/><g/><g/></svg>