<svg id="Layer_1" enable-background="new 0 0 512.009 512.009" viewBox="0 0 512.009 512.009" xmlns="http://www.w3.org/2000/svg"><g><g><path d="m264.48 310.741-155.979 39.458c-16.063 4.063-32.378-5.664-36.441-21.727l-61.128-241.641c-4.063-16.062 5.664-32.378 21.727-36.441l155.979-39.458c16.063-4.063 32.378 5.664 36.441 21.727l61.127 241.641c4.064 16.062-5.664 32.378-21.726 36.441z" fill="#d2dcfd"/><path d="m133.713 81.883v44.177c0 10.425 3.194 20.102 8.651 28.113-5.626 11.155-8.651 23.585-8.651 36.147v153.5l130.767-33.08c16.063-4.063 25.79-20.379 21.727-36.441l-61.128-241.64c-.066-.262-.145-.517-.217-.776h-41.149c-27.615 0-50 22.386-50 50z" fill="#93b2f4"/><g fill="#fff"><circle cx="84.069" cy="105.738" r="22.089"/><circle cx="169.731" cy="84.069" r="22.089"/><circle cx="105.738" cy="191.4" r="22.089"/><circle cx="127.408" cy="277.062" r="22.089"/></g><path d="m205.803 126.063v35.228c-12.735 3.516-22.09 15.177-22.09 29.03v267.658h245.987v-267.659c0-13.853-9.355-25.514-22.09-29.03v-35.228h-201.807z" fill="#67ccd1"/><path d="m281.701 254.362c0-45.85 10.173-89.318 28.354-128.299h-104.252v35.228c-12.735 3.516-22.09 15.177-22.09 29.03v267.658h176.295c-48.667-53.888-78.307-125.288-78.307-203.617z" fill="#27a2cc"/><path d="m283.697 219.556-49.992 82.06 76.824 82.06h119.171v-164.12z" fill="#fff"/><path d="m281.701 254.362c0-11.773.693-23.382 1.996-34.806h-99.984v164.12h126.816c-18.479-39.241-28.828-83.066-28.828-129.314z" fill="#d2dcfd"/><path d="m374.541 323.705h-84.885l-27.893-19.371 20.983-24.807h91.795z" fill="#d2dcfd"/><path d="m282.746 279.527h-43.873v44.177h50.784c-3.352-14.36-5.677-29.114-6.911-44.177z" fill="#93b2f4"/><circle cx="429.7" cy="460.034" fill="#d2dcfd" r="41.975"/><circle cx="460.034" cy="420.065" fill="#fff" r="41.975"/><path d="m183.713 81.883h245.988v44.177h-245.988z" fill="#6864f7"/></g><path d="m512.009 420.065c0-28.659-23.316-51.975-51.975-51.975-7.212 0-14.085 1.479-20.333 4.146v-181.915c0-15.318-8.78-29.125-22.09-35.838v-18.423h12.09c5.523 0 10-4.477 10-10v-44.177c0-5.523-4.477-10-10-10h-184.384l-10.543-41.677c-2.621-10.358-9.118-19.076-18.295-24.547-9.176-5.471-19.935-7.041-30.294-4.421l-155.979 39.457c-10.357 2.621-19.076 9.118-24.547 18.295-5.471 9.177-7.042 19.936-4.421 30.294l61.127 241.64c4.887 21.013 27.841 34.65 48.588 28.969l62.759-15.876v113.961c0 5.523 4.477 10 10 10h194.62c3.836 24.901 25.41 44.03 51.368 44.03 26.105 0 47.77-19.349 51.424-44.457 18.177-8.105 30.885-26.333 30.885-47.486zm-92.308-304.005h-225.988v-24.177h225.988zm-313.653 224.444c-5.178 1.312-10.558.525-15.146-2.21s-7.837-7.095-9.147-12.274l-61.128-241.641c-2.705-10.691 3.793-21.589 14.485-24.294l155.978-39.458c5.18-1.311 10.559-.525 15.147 2.21s7.837 7.095 9.147 12.274l9.302 36.771h-40.973c-5.523 0-10 4.477-10 10v44.177c0 5.523 4.477 10 10 10h12.09v18.422c-13.31 6.713-22.09 20.52-22.09 35.838v133.067zm273.12 107.475h-185.455v-257.658c0-9.019 6.066-16.993 14.751-19.39 4.336-1.197 7.339-5.142 7.339-9.64v-25.23h181.807v25.23c0 4.498 3.003 8.442 7.339 9.64 8.686 2.397 14.751 10.371 14.751 19.39v197.011c-5.771 7.097-9.709 15.738-11.089 25.2-14.787 6.593-25.679 19.846-29.443 35.447zm50.533 44.03c-17.631 0-31.975-14.344-31.975-31.975 0-10.06 4.81-19.338 12.46-25.283 6.29 21.314 25.897 36.962 49.149 37.272-4.754 11.706-16.242 19.986-29.634 19.986zm30.333-39.969c-17.631 0-31.975-14.344-31.975-31.975s14.344-31.975 31.975-31.975 31.975 14.344 31.975 31.975c0 17.632-14.344 31.975-31.975 31.975z" fill="#052a75"/></g><g/><g/><g/><g/><g/><g/><g/><g/><g/><g/><g/><g/><g/><g/><g/></svg>