<svg id="Capa_1" enable-background="new 0 0 512 512" viewBox="0 0 512 512" xmlns="http://www.w3.org/2000/svg"><g><g><g><g><g><path d="m474.088 450.904h-436.176c-15.416 0-27.912-12.496-27.912-27.911v-270.151c0-15.415 12.496-27.912 27.912-27.912h436.177c15.415 0 27.912 12.496 27.912 27.912v270.151c-.001 15.415-12.497 27.911-27.913 27.911z" fill="#fff"/></g><g><path d="m135.494 216.418c17.418 17.418 40.578 27.011 65.211 27.011 19.625 0 38.315-6.089 53.912-17.373 15.387 10.307 33.789 16.114 53.263 16.114 52.735 0 95.639-42.903 95.639-95.639 0-7.39-.836-14.626-2.437-21.601h-288.762c-9.273 31.383-1.548 66.765 23.174 91.488z" fill="#d2dcfd"/></g><g><path d="m288.408 450.904h-64.816l-19.021 51.082h102.858z" fill="#6864f7"/></g></g></g><g><g><g><path d="m326.922 97.427c20.003-20.003 20.003-52.435 0-72.439-20.003-20.003-52.435-20.003-72.439 0l-46.493 46.493 72.439 72.439z" fill="#fdcb50"/></g><g><path d="m207.991 71.481-43.506 43.506c-20.003 20.003-20.003 52.435 0 72.439 20.003 20.003 52.435 20.003 72.439 0l43.506-43.506z" fill="#bc9af4"/></g><g><path d="m218.608 44.15 88.539 88.539c3.095 3.095 2.698 8.512-.888 12.098l-21.357 21.357c-3.586 3.586-9.002 3.983-12.098.888l-88.539-88.539c-3.095-3.095-2.698-8.512.888-12.098l21.357-21.357c3.586-3.586 9.002-3.983 12.098-.888z" fill="#fff"/></g></g><g><g><circle cx="307.879" cy="146.531" fill="#d2dcfd" r="54.639"/></g></g></g></g><g><g><g><g><path d="m70.456 402.985h-13.643c-5.523 0-10-4.477-10-10s4.477-10 10-10h13.643c5.523 0 10 4.477 10 10s-4.477 10-10 10z" fill="#fd7da0"/></g><g><path d="m223.173 402.985h-112.123c-5.523 0-10-4.477-10-10s4.477-10 10-10h112.123c5.523 0 10 4.477 10 10s-4.477 10-10 10z" fill="#93b2f4"/></g><g><path d="m70.456 309.822h-13.643c-5.523 0-10-4.477-10-10s4.477-10 10-10h13.643c5.523 0 10 4.477 10 10s-4.477 10-10 10z" fill="#b1d952"/></g><g><path d="m223.173 309.822h-112.123c-5.523 0-10-4.477-10-10s4.477-10 10-10h112.123c5.523 0 10 4.477 10 10s-4.477 10-10 10z" fill="#93b2f4"/></g><g><path d="m70.456 356.404h-13.643c-5.523 0-10-4.477-10-10s4.477-10 10-10h13.643c5.523 0 10 4.477 10 10s-4.477 10-10 10z" fill="#fd7da0"/></g><g><path d="m223.173 356.404h-112.123c-5.523 0-10-4.477-10-10s4.477-10 10-10h112.123c5.523 0 10 4.477 10 10s-4.477 10-10 10z" fill="#93b2f4"/></g><g><path d="m70.456 263.241h-13.643c-5.523 0-10-4.477-10-10s4.477-10 10-10h13.643c5.523 0 10 4.477 10 10s-4.477 10-10 10z" fill="#b1d952"/></g><g><path d="m223.173 263.241h-112.123c-5.523 0-10-4.477-10-10s4.477-10 10-10h112.123c5.523 0 10 4.477 10 10s-4.477 10-10 10z" fill="#93b2f4"/></g></g><g><g><path d="m430.595 400.416c-5.522 0-10-4.477-10-10v-137.175c0-5.523 4.478-10 10-10s10 4.477 10 10v137.176c0 5.522-4.478 9.999-10 9.999z" fill="#bc9af4"/></g><g><path d="m386.415 400.416c-5.522 0-10-4.477-10-10v-70.596c0-5.523 4.478-10 10-10s10 4.477 10 10v70.596c0 5.523-4.477 10-10 10z" fill="#fdcb50"/></g><g><path d="m342.235 400.416c-5.522 0-10-4.477-10-10v-137.175c0-5.523 4.478-10 10-10s10 4.477 10 10v137.176c0 5.522-4.477 9.999-10 9.999z" fill="#b1d952"/></g><g><path d="m298.056 400.416c-5.522 0-10-4.477-10-10v-70.596c0-5.523 4.478-10 10-10s10 4.477 10 10v70.596c0 5.523-4.478 10-10 10z" fill="#fd7da0"/></g><g><path d="m452.482 402.985h-176.461c-5.522 0-10-4.477-10-10s4.478-10 10-10h176.462c5.522 0 10 4.477 10 10s-4.478 10-10.001 10z" fill="#93b2f4"/></g></g></g><g><g><path d="m307.879 209.161c-5.522 0-10-4.477-10-10v-105.261c0-5.523 4.478-10 10-10s10 4.477 10 10v105.261c0 5.523-4.478 10-10 10z" fill="#93b2f4"/></g><path d="m474.088 114.93h-109.853c-5.088-9.038-12.282-16.733-20.918-22.417 14.051-23.599 10.759-54.513-9.323-74.596-23.871-23.87-62.711-23.87-86.582 0l-20.448 20.448-1.285-1.285c-3.533-3.533-8.513-5.338-13.668-4.965-4.677.343-9.142 2.421-12.572 5.852l-21.357 21.357c-7.479 7.479-7.877 19.25-.888 26.24l1.286 1.286-21.066 21.066c-2.205 2.205-4.218 4.551-6.038 7.014h-113.464c-20.905 0-37.912 17.007-37.912 37.912v270.151c0 20.904 17.007 37.912 37.912 37.912h171.286l-11.574 31.082h-41.267c-5.523 0-10 4.477-10 10s4.477 10 10 10h199.287c5.522 0 10-4.477 10-10s-4.478-10-10-10h-41.267l-11.574-31.082h171.285c20.905 0 37.912-17.007 37.912-37.912v-270.151c0-20.905-17.007-37.912-37.912-37.912zm-210.848 31.601c0-24.614 20.024-44.639 44.639-44.639s44.639 20.025 44.639 44.639-20.024 44.639-44.639 44.639-44.639-20.025-44.639-44.639zm-1.685-114.472c16.072-16.072 42.225-16.073 58.297 0 14.073 14.073 15.902 36.039 5.071 52.13-5.434-1.487-11.144-2.297-17.043-2.297-10.818 0-21.016 2.685-29.984 7.402l-36.788-36.787zm-48.553 20.628 48.687 48.688c-6.866 7.021-12.144 15.594-15.261 25.139l-53.626-53.626zm-20.381 48.305 50.855 50.855c.354 4.327 1.135 8.533 2.303 12.58l-15.927 15.927c-7.786 7.786-18.137 12.074-29.148 12.074s-21.362-4.288-29.148-12.074-12.074-18.137-12.074-29.148 4.288-21.363 12.074-29.149zm100.414 390.994h-74.07l11.574-31.082h50.922zm198.965-68.993c0 9.876-8.035 17.912-17.912 17.912h-436.176c-9.876 0-17.912-8.035-17.912-17.912v-270.151c0-9.876 8.035-17.912 17.912-17.912h103.765c-1.436 5.239-2.194 10.698-2.194 16.277 0 16.353 6.368 31.727 17.931 43.291 11.563 11.563 26.938 17.931 43.291 17.931s31.728-6.368 43.291-17.932l10.944-10.945c11.701 16.682 31.062 27.617 52.939 27.617 35.642 0 64.639-28.997 64.639-64.639 0-3.962-.377-7.834-1.063-11.601h102.634c9.877 0 17.912 8.035 17.912 17.912v270.152z" fill="#052a75"/></g></g></g><g/><g/><g/><g/><g/><g/><g/><g/><g/><g/><g/><g/><g/><g/><g/></svg>