<svg id="Capa_1" enable-background="new 0 0 512 512" viewBox="0 0 512 512" xmlns="http://www.w3.org/2000/svg"><g><g clip-rule="evenodd" fill-rule="evenodd"><path d="m256 502c135.492 0 246-110.508 246-246s-110.508-246-246-246-246 110.508-246 246 110.508 246 246 246z" fill="#fd6050"/><path d="m256 10c-135.862 0-246 110.138-246 246s110.138 246 246 246c51.392 0 99.096-15.768 138.557-42.718-108.314-39.066-185.749-142.751-185.749-264.531 0-70.283 25.792-134.54 68.424-183.829-6.999-.598-14.077-.922-21.232-.922z" fill="#bc3c85"/><path d="m381.118 98.931c-34.32-27.376-77.804-43.747-125.118-43.747-3.455 0-6.889.088-10.301.26-81.499 27.512-106.218 180.718-28.559 207.465z" fill="#fff"/><path d="m413.068 130.88-179.459 179.459c-29.57 68.419 31.231 134.822 111.737 125.54 66.068-32.879 111.47-101.071 111.47-179.879 0-47.315-16.37-90.802-43.748-125.12z" fill="#fff"/><path d="m245.703 55.444c-106.123 5.36-190.52 93.102-190.52 200.556 0 47.314 16.372 90.798 43.747 125.118l118.215-118.215c-5.434-21.823-8.337-44.648-8.337-68.153.001-50.688 13.422-98.24 36.895-139.306z" fill="#d2dcfd"/><path d="m233.599 310.349-102.719 102.719c34.318 27.378 77.805 43.748 125.12 43.748 32.097 0 62.429-7.543 89.338-20.934-48.876-29.375-88.094-73.18-111.739-125.533z" fill="#d2dcfd"/><path d="m305.682 281.581c38.159 0 69.282-31.123 69.282-69.282s-31.123-69.282-69.282-69.282-69.282 31.123-69.282 69.282c.001 38.159 31.123 69.282 69.282 69.282z" fill="#bc9af4"/><path d="m162.6 164.853c24.392-14.083 55.869-5.648 69.952 18.743l74.302 128.695c14.082 24.391 5.648 55.869-18.743 69.951-24.391 14.082-55.869 5.648-69.952-18.743l-74.302-128.695c-14.083-24.391-5.648-55.868 18.743-69.951z" fill="#67ccd1"/><path d="m162.6 164.854c15.212-8.782 33.178-8.806 47.964-1.665-1.157 10.361-1.756 20.892-1.756 31.563 0 73.323 28.081 140.077 74.061 190.126-23.491 10.18-51.619 1.3-64.711-21.377l-74.302-128.695c-14.082-24.392-5.647-55.87 18.744-69.952z" fill="#27a2cc"/><path d="m162.6 164.854c-24.391 14.082-32.826 45.56-18.744 69.951l37.151 64.348 11.106-26.401 28.676 3.433 48.913-28.24-37.151-64.347c-14.081-24.392-45.56-32.827-69.951-18.744z" fill="#fdcb50"/><path d="m162.6 164.854c-24.391 14.082-32.826 45.56-18.744 69.951l37.151 64.348 39.782-22.968c-7.789-25.776-11.981-53.114-11.981-81.433 0-10.67.598-21.201 1.756-31.563-14.786-7.142-32.752-7.118-47.964 1.665z" fill="#fd8f01"/></g><g><g><path d="m366.766 222.299h-113.46c-5.522 0-10-4.477-10-10s4.478-10 10-10h113.46c5.522 0 10 4.477 10 10s-4.478 10-10 10z" fill="#6864f7"/></g><g fill="#052a75"><path d="m437.02 74.981c-48.353-48.352-112.64-74.981-181.02-74.981s-132.667 26.629-181.02 74.981c-48.351 48.352-74.98 112.639-74.98 181.019s26.629 132.667 74.98 181.02c48.353 48.352 112.64 74.98 181.02 74.98s132.667-26.628 181.02-74.98c48.351-48.353 74.98-112.64 74.98-181.02s-26.629-132.667-74.98-181.019zm-181.02 417.019c-130.131 0-236-105.869-236-236s105.869-236 236-236 236 105.869 236 236-105.869 236-236 236z"/><path d="m305.683 133.018c-28.817 0-54.608 15.291-68.553 39.396-18.31-24.387-52.468-31.844-79.529-16.22-14.11 8.146-24.217 21.351-28.459 37.182-4.241 15.831-2.091 32.32 6.056 46.43l74.301 128.694c8.146 14.11 21.351 24.217 37.182 28.458 5.309 1.422 10.688 2.126 16.031 2.126 10.589 0 21.021-2.766 30.399-8.181 29.229-16.875 39.278-54.383 22.403-83.612l-9.073-15.714c43.368-.409 78.522-35.815 78.522-79.278.001-43.716-35.565-79.281-79.28-79.281zm-22.572 240.565c-9.482 5.475-20.58 6.917-31.254 4.057-10.671-2.859-19.562-9.657-25.038-19.14l-74.302-128.695c-5.476-9.484-6.916-20.583-4.058-31.254 2.859-10.67 9.657-19.562 19.141-25.038 6.474-3.737 13.548-5.513 20.535-5.513 14.251 0 28.133 7.392 35.757 20.596l74.302 128.695c11.361 19.679 4.595 44.931-15.083 56.292zm22.572-102.002c-3.829 0-7.667-.374-11.427-1.112l-44.663-77.359c8.209-24.044 30.562-40.093 56.09-40.093 32.688 0 59.281 26.593 59.281 59.281 0 32.689-26.594 59.283-59.281 59.283z"/></g></g></g><g/><g/><g/><g/><g/><g/><g/><g/><g/><g/><g/><g/><g/><g/><g/></svg>