<svg id="Layer_1" enable-background="new 0 0 512 512" viewBox="0 0 512 512" xmlns="http://www.w3.org/2000/svg"><g><g><g><path d="m140.794 123.097h287.657v289.001h-287.657z" fill="#fdcb50"/><g fill="#fd8f01"><path d="m194.465 215.12c0-32.672 6.7-63.779 18.8-92.024h-72.472v288.998h161.385c-64.789-41.598-107.713-114.274-107.713-196.974z"/><path d="m428.451 123.097v103.702c-57.287 0-103.727-46.429-103.727-103.702z"/></g></g><g><path d="m140.793 412.095h-130.793v-86.737c0-10.638 5.762-20.436 15.044-25.584l30.142-16.717 8.723-58.975c2.12-14.333 14.388-24.946 28.836-24.946h48.049v212.959z" fill="#bc9af4"/><path d="m61.786 255.826c0-13.936 1.676-27.48 4.836-40.439-1.324 2.679-2.256 5.6-2.713 8.696l-8.723 58.975-30.142 16.717c-9.282 5.147-15.044 14.945-15.044 25.583v86.737h130.793v-12.703c-47.472-30.041-79.007-83.11-79.007-143.566z" fill="#6864f7"/></g><path d="m140.793 199.137h-48.049c-14.448 0-26.716 10.613-28.835 24.946l-8.723 58.975-.284.157h85.891z" fill="#fff"/><ellipse cx="92.348" cy="413.525" fill="#67ccd1" rx="48.772" ry="48.913"/><ellipse cx="344.636" cy="413.525" fill="#67ccd1" rx="48.772" ry="48.913"/><ellipse cx="428.448" cy="123.097" fill="#b1d952" rx="73.552" ry="73.534"/></g><g><g><g><path d="m92.35 423.52c-4.121 0-7.905-2.617-9.36-6.472-1.494-3.958-.258-8.577 3.017-11.255 3.234-2.645 7.895-2.986 11.48-.842 3.577 2.139 5.491 6.437 4.663 10.529-.935 4.622-5.077 8.04-9.8 8.04z" fill="#fff"/></g><g><path d="m344.64 423.52c-4.185 0-8.003-2.686-9.415-6.626-1.421-3.962-.141-8.549 3.158-11.176 3.131-2.494 7.559-2.869 11.07-.953 3.65 1.992 5.718 6.219 5.058 10.325-.772 4.797-5.006 8.43-9.871 8.43z" fill="#fff"/></g></g><path d="m512 123.097c0-46.061-37.481-83.534-83.552-83.534-42.686 0-77.999 32.17-82.956 73.534h-204.699c-5.522 0-10 4.478-10 10v66.04h-38.049c-19.255 0-35.904 14.395-38.729 33.483l-8 54.088-25.821 14.321c-12.456 6.908-20.194 20.062-20.194 34.329v86.736c0 5.522 4.478 10 10 10h24.196c4.152 28.438 28.648 50.343 58.151 50.343 29.504 0 54-21.905 58.152-50.343h135.984c4.152 28.438 28.648 50.343 58.151 50.343s53.999-21.905 58.151-50.343h25.661c5.522 0 10-4.478 10-10v-206.058c41.376-4.956 73.554-40.262 73.554-82.939zm-477.313 278.998h-14.687v-76.736c0-7.002 3.791-13.454 9.895-16.839l30.142-16.717c2.723-1.51 4.586-4.202 5.042-7.282l8.723-58.975c1.384-9.354 9.527-16.409 18.943-16.409h38.049v159.863c-10.313-8.96-23.759-14.387-38.445-14.387-28.507-.001-52.339 20.449-57.662 47.482zm57.661 50.343c-21.379 0-38.771-17.456-38.771-38.912 0-21.457 17.393-38.913 38.771-38.913s38.772 17.456 38.772 38.913c0 21.455-17.393 38.912-38.772 38.912zm252.288 0c-21.379 0-38.771-17.456-38.771-38.912 0-21.457 17.393-38.913 38.771-38.913s38.771 17.456 38.771 38.913c0 21.455-17.392 38.912-38.771 38.912zm57.661-50.343c-5.324-27.033-29.155-47.482-57.661-47.482s-52.337 20.45-57.661 47.482h-136.182v-268.998h194.699c4.565 38.085 34.863 68.376 72.956 72.939v196.059zm26.151-215.464c-35.043 0-63.552-28.501-63.552-63.534s28.509-63.534 63.552-63.534 63.552 28.5 63.552 63.534-28.509 63.534-63.552 63.534z" fill="#052a75"/><g><path d="m442.709 141.535c-1.729 0-3.482-.449-5.079-1.394l-14.271-8.437c-3.044-1.8-4.911-5.072-4.911-8.608v-26.075c0-5.522 4.478-10 10-10s10 4.478 10 10v20.371l9.359 5.533c4.754 2.811 6.33 8.943 3.52 13.697-1.866 3.157-5.198 4.913-8.618 4.913z" fill="#fff"/></g></g></g><g/><g/><g/><g/><g/><g/><g/><g/><g/><g/><g/><g/><g/><g/><g/></svg>