<svg id="Layer_1" enable-background="new 0 0 512 512" viewBox="0 0 512 512" xmlns="http://www.w3.org/2000/svg"><g><g><g><g><g><g><g><g><path d="m457.178 449.976h-402.356c-10.73 0-19.428-8.698-19.428-19.428v-401.12c-.001-10.73 8.698-19.428 19.428-19.428h402.357c10.73 0 19.428 8.698 19.428 19.428v401.119c0 10.731-8.699 19.429-19.429 19.429z" fill="#fff"/></g><g><path d="m476.607 373.065c-2.138-1.998-4.817-3.448-7.905-4.188l-194.98-46.71c-1.377-.33-2.773-.498-4.146-.498-5.283 0-10.229 2.431-13.572 6.669-3.295 4.178-4.469 9.561-3.222 14.769l25.602 106.868h178.795c1.956 0 3.842-.296 5.623-.834l-24.11-24.11 35.894-25.008c.723-.504 1.397-1.047 2.021-1.625z" fill="#d2dcfd"/></g><g><g><path d="m476.607 29.428c0-10.73-8.698-19.428-19.428-19.428h-402.357c-10.73 0-19.428 8.698-19.428 19.428v61.657h441.213z" fill="#bc9af4"/></g></g></g></g></g></g><g><path d="m358.697 386.565-93.108 10h-112.286c-22.373 0-40.509-18.137-40.509-40.509 0-22.373 18.137-40.509 40.509-40.509h205.393c20.974 0 38.226 15.94 40.3 36.368.138 1.362-9.791 2.744-9.791 4.142.001 22.371-8.136 30.508-30.508 30.508z" fill="#fdcb50"/></g><g><path d="m269.576 321.67c-5.283 0-10.229 2.431-13.572 6.669-3.295 4.178-4.469 9.561-3.222 14.769l12.806 53.457h93.108c22.373 0 40.509-18.137 40.509-40.509 0-1.306-.068-2.597-.189-3.872l-125.295-30.016c-1.376-.331-2.772-.498-4.145-.498z" fill="#fd8f01"/></g></g><g><g><path d="m424.747 393.309-132.586-31.762 31.763 132.585 27.045-38.817 46.685 46.685 34.961-34.961-46.685-46.685z" fill="#67ccd1"/></g></g></g><g><g fill="#6864f7"><path d="m133.323 162.69c-5.523 0-10 4.477-10 10v45.492l-27.109-50.241c-2.175-4.031-6.811-6.067-11.25-4.947-4.44 1.121-7.551 5.116-7.551 9.695v85.083c0 5.523 4.477 10 10 10s10-4.477 10-10v-45.493l27.109 50.241c1.775 3.291 5.189 5.253 8.799 5.252.812 0 1.635-.1 2.45-.306 4.44-1.121 7.551-5.116 7.551-9.695v-85.081c.001-5.523-4.476-10-9.999-10z"/><path d="m205.575 182.69c5.523 0 10-4.477 10-10s-4.477-10-10-10h-33.116c-5.523 0-10 4.477-10 10v85.083c0 5.523 4.477 10 10 10h33.116c5.523 0 10-4.477 10-10s-4.477-10-10-10h-23.116v-22.542h23.116c5.523 0 10-4.477 10-10s-4.477-10-10-10h-23.116v-22.541z"/><path d="m336.004 162.69c-5.523 0-10 4.477-10 10v45.43c0 6.871-2.37 13.603-6.673 18.957l-6.245 7.77-6.245-7.769c-4.303-5.354-6.673-12.086-6.673-18.957v-45.43c0-5.523-4.477-10-10-10s-10 4.477-10 10v45.43c0 6.871-2.37 13.603-6.673 18.957l-6.246 7.77-6.245-7.769c-4.303-5.354-6.673-12.086-6.673-18.957v-45.43c0-5.523-4.477-10-10-10s-10 4.477-10 10v45.43c0 11.411 3.937 22.593 11.085 31.487l10.073 12.532c2.879 3.581 7.166 5.635 11.76 5.635s8.881-2.054 11.76-5.636c0 0 10.804-13.467 11.158-13.942.355.475 11.158 13.942 11.158 13.942 2.879 3.581 7.166 5.635 11.76 5.635s8.881-2.054 11.761-5.636l10.073-12.532c7.148-8.893 11.084-20.075 11.084-31.486v-45.43c.001-5.524-4.476-10.001-9.999-10.001z"/><path d="m402.894 205.232h-7.865c-6.448 0-11.694-4.467-11.694-9.958 0-6.939 6.526-12.584 14.548-12.584h2.156c5.374 0 10.297 2.566 12.849 6.696 2.902 4.699 9.065 6.153 13.764 3.251 4.698-2.903 6.154-9.065 3.251-13.764-6.168-9.982-17.611-16.184-29.864-16.184h-2.156c-19.05 0-34.548 14.617-34.548 32.584 0 16.519 14.218 29.958 31.694 29.958h7.865c6.448 0 11.693 4.467 11.693 9.958 0 6.939-6.526 12.584-14.548 12.584h-2.156c-5.857 0-11.123-3.031-13.416-7.722-2.425-4.962-8.413-7.017-13.376-4.593-4.961 2.425-7.018 8.414-4.593 13.375 5.624 11.506 17.943 18.94 31.385 18.94h2.156c19.05 0 34.548-14.617 34.548-32.584 0-16.518-14.217-29.957-31.693-29.957z"/></g><g><g><g><g><circle cx="343.25" cy="51.901" fill="#fd6050" r="10"/><circle cx="387.28" cy="51.901" fill="#b1d952" r="10"/><circle cx="431.31" cy="51.901" fill="#fdcb50" r="10"/></g></g></g><path d="m457.178 0h-402.356c-16.227 0-29.428 13.202-29.428 29.428v401.12c0 16.227 13.202 29.428 29.428 29.428h250.637l8.741 36.486c.917 3.831 3.998 6.766 7.869 7.497 3.868.732 7.809-.878 10.061-4.109l20.216-29.016 38.238 38.238c1.953 1.953 4.512 2.929 7.071 2.929s5.119-.976 7.071-2.929l34.961-34.961c3.903-3.903 3.905-10.228.008-14.134h17.485c16.227 0 29.428-13.202 29.428-29.428v-401.121c-.002-16.226-13.203-29.428-29.43-29.428zm-402.356 20h402.356c5.199 0 9.428 4.229 9.428 9.428v51.657h-421.212v-51.657c0-5.199 4.229-9.428 9.428-9.428zm342.832 467.858-39.614-39.614c-1.884-1.883-4.431-2.929-7.071-2.929-3.252-.008-6.353 1.611-8.206 4.284l-14.306 20.534-22.774-95.063 95.063 22.773-20.533 14.306c-2.429 1.692-3.983 4.374-4.245 7.322-.261 2.949.797 5.861 2.89 7.955l39.614 39.614zm59.524-47.882h-37.484l-18.246-18.246 29.015-20.215c3.232-2.252 4.841-6.191 4.11-10.061-.731-3.871-3.666-6.951-7.497-7.869l-132.585-31.763c-3.384-.809-6.942.196-9.401 2.654-2.459 2.459-3.464 6.019-2.654 9.401l18.231 76.1h-245.845c-5.199 0-9.428-4.229-9.428-9.428v-329.464h421.213v329.463c-.001 5.199-4.23 9.428-9.429 9.428z" fill="#052a75"/></g></g></g><g/><g/><g/><g/><g/><g/><g/><g/><g/><g/><g/><g/><g/><g/><g/></svg>