<svg id="Capa_1" enable-background="new 0 0 509.999 509.999" viewBox="0 0 509.999 509.999" xmlns="http://www.w3.org/2000/svg"><g><g clip-rule="evenodd" fill-rule="evenodd"><path d="m65 475h380c-30.25 0-55-24.75-55-55v-340-45h-380v385c0 30.25 24.75 55 55 55z" fill="#fff"/><path d="m65 475h123.955c-72.32-76.94-116.644-180.5-116.644-294.426 0-51.1 8.935-100.108 25.291-145.574h-87.602v385c0 30.25 24.75 55 55 55z" fill="#d2dcfd"/><path d="m390 80v340c0 30.25 24.75 55 55 55s55-24.75 55-55v-295h-55v-45z" fill="#d2dcfd"/><path d="m234.424 213h118.5v118.5h-118.5z" fill="#93b2f4"/></g><g><path d="m499.999 115h-44.999v-35c0-5.523-4.478-10-10-10h-45v-35c0-5.523-4.478-10-10-10h-380c-5.522 0-10 4.477-10 10v385c0 35.841 29.159 65 65 65h380c35.841 0 64.999-29.159 64.999-65v-295c0-5.523-4.478-10-10-10zm-434.999 350c-24.813 0-45-20.187-45-45v-375h360v375c0 17.448 6.91 33.312 18.138 45zm424.999-45c0 24.813-20.187 45-44.999 45-24.813 0-45-20.187-45-45v-330h35v330c0 5.523 4.478 10 10 10s10-4.477 10-10v-285h34.999z" fill="#052a75"/><g fill="#fd6050"><path d="m179.576 90c5.522 0 10-4.477 10-10s-4.478-10-10-10h-38.5c-5.522 0-10 4.477-10 10v88c0 5.523 4.478 10 10 10h38.5c5.522 0 10-4.477 10-10s-4.478-10-10-10h-28.5v-24h17.086c5.522 0 10-4.477 10-10s-4.478-10-10-10h-17.086v-24z"/><path d="m101.075 70c-5.522 0-10 4.477-10 10v45.639l-25.055-50.111c-2.074-4.148-6.726-6.328-11.242-5.26-4.514 1.065-7.702 5.095-7.702 9.732v88c0 5.523 4.478 10 10 10s10-4.477 10-10v-45.639l25.056 50.111c1.722 3.443 5.221 5.529 8.942 5.529.762 0 1.532-.087 2.3-.269 4.514-1.065 7.702-5.095 7.702-9.732v-88c-.001-5.523-4.478-10-10.001-10z"/><path d="m333.416 117.184-11.698-4.845c-5.917-2.451-8.736-9.259-6.285-15.176 2.45-5.917 9.256-8.736 15.177-6.287l5.849 2.422c5.102 2.114 10.951-.309 13.065-5.412 2.113-5.103-.311-10.952-5.413-13.065l-5.849-2.422c-16.104-6.672-34.636 1.004-41.307 17.11-6.672 16.105 1.003 34.635 17.109 41.308l11.698 4.845c5.917 2.451 8.736 9.259 6.285 15.176-2.45 5.917-9.258 8.737-15.177 6.286l-5.849-2.422c-5.097-2.114-10.95.31-13.065 5.412-2.113 5.103.311 10.952 5.413 13.065l5.849 2.422c3.943 1.634 8.032 2.407 12.057 2.407 12.412 0 24.214-7.355 29.251-19.518 6.67-16.105-1.005-34.635-17.11-41.306z"/><path d="m270.355 70.03c-5.513-.424-10.32 3.684-10.749 9.191l-3.925 50.245-4.551-9.708c-1.646-3.512-5.176-5.755-9.055-5.755s-7.408 2.243-9.055 5.755l-4.551 9.708-3.925-50.245c-.43-5.505-5.217-9.617-10.749-9.191-5.506.43-9.62 5.243-9.19 10.749l6.875 88c.354 4.526 3.711 8.246 8.178 9.059 4.457.815 8.919-1.483 10.847-5.593l11.57-24.682 11.57 24.682c1.668 3.558 5.228 5.756 9.051 5.756.595 0 1.195-.053 1.796-.163 4.467-.813 7.824-4.533 8.178-9.059l6.875-88c.431-5.506-3.684-10.319-9.19-10.749z"/></g><g><g><path d="m342.924 430h-285.849c-5.522 0-10-4.477-10-10s4.478-10 10-10h285.849c5.522 0 10 4.477 10 10s-4.478 10-10 10z" fill="#6864f7"/></g><g><path d="m342.924 380.75h-285.849c-5.522 0-10-4.477-10-10s4.478-10 10-10h285.849c5.522 0 10 4.477 10 10s-4.478 10-10 10z" fill="#6864f7"/></g><g><path d="m200 331.5h-142.925c-5.522 0-10-4.477-10-10s4.478-10 10-10h142.925c5.522 0 10 4.477 10 10s-4.478 10-10 10z" fill="#6864f7"/></g><g><path d="m200 282.25h-142.925c-5.522 0-10-4.477-10-10s4.478-10 10-10h142.925c5.522 0 10 4.477 10 10s-4.478 10-10 10z" fill="#6864f7"/></g><g><path d="m200 233h-142.925c-5.522 0-10-4.477-10-10s4.478-10 10-10h142.925c5.522 0 10 4.477 10 10s-4.478 10-10 10z" fill="#6864f7"/></g></g></g></g><g/><g/><g/><g/><g/><g/><g/><g/><g/><g/><g/><g/><g/><g/><g/></svg>