<svg id="Layer_1" enable-background="new 0 0 510 510" viewBox="0 0 510 510" xmlns="http://www.w3.org/2000/svg"><g><g><path d="m32 102.167c-12.15 0-22 9.85-22 22v331.833c0 24.301 19.699 44 44 44 24.301 0 44-19.699 44-44v-353.833z" fill="#93b2f4"/><path d="m58 500h394c26.51 0 48-21.49 48-48v-442h-402v450c0 22.091-17.909 40-40 40z" fill="#fff"/><path d="m256.776 260.598c0-97.474 38.825-185.879 101.851-250.598h-260.627v450c0 22.091-17.909 40-40 40h290.181c-56.841-63.544-91.405-147.435-91.405-239.402z" fill="#d2dcfd"/><g><path d="m142 249.598h48v48h-48z" fill="#db4b86"/><path d="m190 223.598h48v74h-48z" fill="#27a2cc"/></g><path d="m261.603 201.598-11.802 12.488 3.002 76.772 5.878 6.74h27.319v-96z" fill="#fdcb50"/><path d="m238 201.598v96h20.681c-1.245-12.166-1.905-24.505-1.905-37 0-20.095 1.654-39.804 4.826-59z" fill="#fd8f01"/></g><g><g><path d="m342 412.748c-2.56 0-5.118-.976-7.071-2.929-3.905-3.905-3.905-10.237 0-14.142l30.627-30.626c3.908-3.905 10.238-3.904 14.143 0l23.546 23.546 45.495-45.497c3.906-3.905 10.236-3.906 14.143 0 3.905 3.905 3.905 10.237 0 14.142l-52.567 52.568c-1.876 1.875-4.419 2.929-7.071 2.929s-5.195-1.054-7.071-2.929l-23.546-23.546-23.556 23.556c-1.954 1.951-4.513 2.928-7.072 2.928z" fill="#fd7da0"/></g><g fill="#fd8f01"><path d="m194 56c-5.522 0-10 4.477-10 10v52.416l-33.358-57.284c-2.275-3.906-6.885-5.8-11.248-4.622-4.362 1.178-7.394 5.135-7.394 9.654v87.836c0 5.523 4.478 10 10 10s10-4.477 10-10v-50.792l31.441 53.991c2.653 4.545 7.631 6.732 12.392 5.447 4.961-1.342 8.167-5.9 8.167-11.612v-85.034c0-5.523-4.478-10-10-10z"/><path d="m259 76.402c5.522 0 10-4.477 10-10s-4.478-10-10-10h-30c-5.522 0-10 4.477-10 10v87.196c0 5.523 4.478 10 10 10h30c5.522 0 10-4.477 10-10s-4.478-10-10-10h-20v-23.598h17.788c5.522 0 10-4.477 10-10s-4.478-10-10-10h-17.788v-23.598z"/><path d="m442.156 101.398c-10.057-3.987-19.42-8.329-22.29-9.679-2.225-1.911-2.69-4.889-2.352-7.144.259-1.727 1.444-5.932 6.839-7.679 11.362-3.677 22.002 5.369 22.285 5.615 4.101 3.655 10.388 3.322 14.076-.761 3.702-4.099 3.381-10.422-.718-14.124-.774-.7-19.238-17.06-41.804-9.758-10.952 3.546-18.791 12.641-20.457 23.737-1.599 10.642 2.684 20.948 11.174 26.897.448.314.922.591 1.415.827.475.228 11.755 5.624 24.46 10.661 8.055 3.192 12.082 8.122 11.051 13.525-.97 5.083-6.373 10.485-14.475 10.485-6.434 0-12.684-2.221-17.599-6.255-4.269-3.503-10.57-2.883-14.073 1.386-3.504 4.27-2.884 10.57 1.386 14.074 8.482 6.962 19.238 10.795 30.286 10.795 16.813 0 31.162-11.243 34.12-26.733 2.286-11.965-2.642-27.671-23.324-35.869z"/><path d="m378.934 56.326c-5.436-1-10.645 2.596-11.642 8.029l-9.513 51.78-15.033-52.87-.051.014c-.951-3.147-3.425-5.763-6.821-6.733-5.311-1.518-10.845 1.559-12.362 6.868l-15.064 52.727-9.483-51.938c-.991-5.433-6.21-9.031-11.633-8.041-5.434.992-9.033 6.201-8.041 11.633l15.826 86.679c.081.448.193.889.335 1.321 1.612 4.916 6.118 8.205 11.228 8.205h.077c5.142-.033 9.644-3.389 11.201-8.352.025-.082.051-.165.074-.248l15.096-52.837 15.028 52.85c.037.128.076.255.117.382 1.612 4.916 6.118 8.205 11.229 8.205h.076c5.143-.033 9.645-3.389 11.202-8.352.122-.39.221-.786.294-1.188l15.889-86.492c.997-5.431-2.598-10.644-8.029-11.642z"/></g><g fill="#052a75"><path d="m500 0h-402c-5.522 0-10 4.477-10 10v82.167h-56c-17.645 0-32 14.355-32 32v331.833c0 29.776 24.225 54 54 54h398c31.981 0 58-26.019 58-58v-442c0-5.523-4.478-10-10-10zm-480 456v-331.833c0-6.617 5.383-12 12-12s12 5.383 12 12v331.833c0 5.523 4.478 10 10 10s10-4.477 10-10v-331.833c0-4.243-.837-8.292-2.343-12h26.343v343.833c0 18.748-15.252 34-34 34s-34-15.252-34-34zm470-4c0 20.953-17.047 38-38 38h-356.088c7.551-9.29 12.088-21.123 12.088-34v-436h382z"/><path d="m342 454h114c5.522 0 10-4.477 10-10s-4.478-10-10-10h-104v-88.402c0-5.523-4.478-10-10-10s-10 4.477-10 10v98.402c0 5.523 4.478 10 10 10z"/></g><g><g><path d="m455.812 307.598h-125.812c-5.522 0-10-4.477-10-10s4.478-10 10-10h125.812c5.522 0 10 4.477 10 10s-4.478 10-10 10z" fill="#6864f7"/></g><g><path d="m455.812 259.598h-125.812c-5.522 0-10-4.477-10-10s4.478-10 10-10h125.812c5.522 0 10 4.477 10 10s-4.478 10-10 10z" fill="#6864f7"/></g><g><path d="m455.812 211.598h-125.812c-5.522 0-10-4.477-10-10s4.478-10 10-10h125.812c5.522 0 10 4.477 10 10s-4.478 10-10 10z" fill="#6864f7"/></g></g><g><g><path d="m267.812 454h-125.812c-5.522 0-10-4.477-10-10s4.478-10 10-10h125.812c5.522 0 10 4.477 10 10s-4.478 10-10 10z" fill="#6864f7"/></g><g><path d="m267.812 406h-125.812c-5.522 0-10-4.477-10-10s4.478-10 10-10h125.812c5.522 0 10 4.477 10 10s-4.478 10-10 10z" fill="#6864f7"/></g><g><path d="m267.812 358h-125.812c-5.522 0-10-4.477-10-10s4.478-10 10-10h125.812c5.522 0 10 4.477 10 10s-4.478 10-10 10z" fill="#6864f7"/></g></g></g></g><g/><g/><g/><g/><g/><g/><g/><g/><g/><g/><g/><g/><g/><g/><g/></svg>