<svg id="Capa_1" enable-background="new 0 0 512 512" viewBox="0 0 512 512" xmlns="http://www.w3.org/2000/svg"><g><g><g><circle cx="256" cy="54.899" fill="#6864f7" r="44.899"/></g><g><path d="m401.757 263.845c13.665-124.703-51.622-198.595-145.114-198.595-.215 0-.428.008-.644.008-.215-.001-.428-.008-.644-.008-93.491 0-158.779 73.892-145.114 198.595 6.576 60.013-9.077 107.892-25.728 140.138-10.977 21.259 4.355 46.593 28.282 46.593h286.406c23.926 0 39.259-25.334 28.282-46.593-16.649-32.247-32.302-80.125-25.726-140.138z" fill="#fdcb50"/></g><g><path d="m169.906 200.926c0-46.385 12.418-89.867 34.1-127.316-64.7 22.582-104.748 89.982-93.763 190.234 6.576 60.013-9.077 107.892-25.728 140.138-10.978 21.26 4.355 46.593 28.282 46.593h262.132c-116.87-23.016-205.023-126.031-205.023-249.649z" fill="#fd8f01"/></g><g><path d="m300.815 454.332c.056.916.084 1.839.084 2.769 0 24.797-20.102 44.899-44.899 44.899s-44.899-20.102-44.899-44.899c0-1.212.048-2.413.142-3.601" fill="#fd8f01"/></g><g><path d="m211.244 453.501c1.834-23.113 21.172-41.298 44.756-41.298 23.867 0 43.384 18.622 44.815 42.129" fill="#fd8f01"/></g></g><g><path d="m436.37 399.395c-14.83-28.72-31.148-75.361-24.673-134.461 3.713-33.889 1.888-65.15-5.427-92.917-7.083-26.89-19.133-49.959-35.814-68.568-16.565-18.48-36.944-31.845-60.271-39.751.467-2.899.713-5.848.713-8.799.001-30.272-24.627-54.899-54.898-54.899s-54.899 24.627-54.899 54.899c0 2.959.244 5.9.712 8.8-23.327 7.906-43.705 21.271-60.27 39.751-16.681 18.608-28.73 41.678-35.814 68.567-7.314 27.767-9.14 59.029-5.427 92.917 6.476 59.098-9.843 105.74-24.672 134.461-6.784 13.137-6.249 28.506 1.43 41.114 7.653 12.565 21.013 20.067 35.736 20.067h88.426c1.801 28.657 25.675 51.424 54.778 51.424s52.977-22.767 54.777-51.424h88.426c14.724 0 28.083-7.502 35.736-20.067 7.68-12.607 8.215-27.977 1.431-41.114zm-215.269-344.496c0-19.243 15.656-34.899 34.899-34.899s34.898 15.656 34.898 34.899c0 1.207-.063 2.412-.185 3.607-10.862-2.156-22.24-3.257-34.07-3.257l-.598.008-.689-.008c-11.823 0-23.194 1.099-34.05 3.253-.122-1.194-.205-2.394-.205-3.603zm34.899 437.101c-18.07 0-32.975-13.806-34.725-31.424h69.45c-1.75 17.618-16.654 31.424-34.725 31.424zm161.859-61.895c-3.994 6.557-10.968 10.471-18.656 10.471h-286.406c-7.688 0-14.662-3.915-18.656-10.471-4.019-6.598-4.295-14.648-.74-21.534 3.433-6.648 6.938-14.188 10.262-22.547h218.128c5.523 0 10-4.477 10-10s-4.477-10-10-10h-211.117c8.571-28.131 13.917-63.044 9.51-103.268-3.445-31.442-1.801-60.257 4.886-85.644 6.268-23.795 16.821-44.087 31.366-60.312 24.366-27.182 58.573-41.549 98.921-41.549l.689.008.598-.008c40.349 0 74.555 14.368 98.92 41.549 14.545 16.226 25.098 36.518 31.366 60.312 6.688 25.387 8.332 54.202 4.886 85.644-7.019 64.055 10.691 114.651 26.783 145.815 3.556 6.886 3.279 14.936-.74 21.534z" fill="#052a75"/><g fill="#27a2cc"><path d="m404.311 66.768c-5.523 0-10 4.477-10 10s4.477 10 10 10c8.046 0 15.611 3.133 21.3 8.823 5.69 5.689 8.823 13.254 8.823 21.301 0 5.523 4.477 10 10 10s10-4.477 10-10c0-13.389-5.214-25.976-14.681-35.443-9.466-9.467-22.053-14.681-35.442-14.681z"/><path d="m472.943 48.26c-18.332-18.332-42.706-28.428-68.632-28.428-5.523 0-10 4.477-10 10s4.477 10 10 10c20.583 0 39.935 8.016 54.489 22.57 14.555 14.554 22.57 33.906 22.57 54.489 0 5.523 4.477 10 10 10s10-4.477 10-10c.001-25.925-10.095-50.299-28.427-68.631z"/><path d="m107.689 66.768c-13.388 0-25.976 5.214-35.443 14.681s-14.681 22.055-14.681 35.443c0 5.523 4.477 10 10 10s10-4.477 10-10c0-8.046 3.133-15.611 8.823-21.301 5.689-5.69 13.254-8.823 21.3-8.823 5.523 0 10-4.477 10-10s-4.476-10-9.999-10z"/><path d="m107.689 19.833c-25.926 0-50.3 10.096-68.632 28.428s-28.428 42.706-28.428 68.632c0 5.523 4.477 10 10 10s10-4.477 10-10c0-20.583 8.016-39.935 22.57-54.489 14.554-14.555 33.906-22.57 54.489-22.57 5.523 0 10-4.477 10-10s-4.476-10.001-9.999-10.001z"/></g></g></g><g/><g/><g/><g/><g/><g/><g/><g/><g/><g/><g/><g/><g/><g/><g/></svg>