<svg id="Capa_1" enable-background="new 0 0 510 510" viewBox="0 0 510 510" xmlns="http://www.w3.org/2000/svg"><g><g id="Exchange_1_"><g id="Exchange"><path d="m439.004 469.502h30.498c16.844 0 30.498-13.654 30.498-30.498 0-16.843-13.654-30.498-30.498-30.498h-30.498z" fill="#27a2cc"/><path d="m70.996 223.486h-30.498c-16.844 0-30.498-13.655-30.498-30.498 0-16.844 13.654-30.498 30.498-30.498h30.498z" fill="#db4b86"/><path d="m70.996 101.494v-91.494h276.514l91.494 91.494v398.506h-368.008v-337.51" fill="#fff"/><path d="m131.992 139.136c0-44.791 6.288-88.113 18.023-129.136h-79.019v490h230.633c-103.632-85.959-169.637-215.702-169.637-360.864z" fill="#d2dcfd"/><path d="m439.004 101.494h-91.494v-91.494z" fill="#93b2f4"/><path d="m10 168.485v-36.493c0-16.843 13.654-30.498 30.498-30.498h91.494v-30.498l92.51 60.996-92.51 60.996v-30.498h-78.408z" fill="#fd6050"/><path d="m463.684 408.506h-85.675v30.498l-91.494-60.996 91.494-60.996v30.498h91.494c16.844 0 30.498 13.654 30.498 30.498v60.996z" fill="#67ccd1"/></g></g><g id="Exchange_00000093173791087480681030000017293326025750493103_"><path d="m469.502 337.51h-20.498v-236.016c0-2.652-1.054-5.196-2.929-7.071l-91.494-91.494c-1.875-1.875-4.418-2.929-7.071-2.929h-276.514c-5.523 0-10 4.477-10 10v81.494h-20.498c-22.331 0-40.498 18.167-40.498 40.498v60.996c0 22.331 18.167 40.498 40.498 40.498h20.498v266.514c0 5.523 4.477 10 10 10h368.008c5.523 0 10-4.477 10-10v-20.498h20.498c22.33 0 40.497-18.167 40.498-40.497 0 0 0-60.996 0-60.997 0-22.33-18.168-40.498-40.498-40.498zm20.498 40.498v26.09c-6.018-3.547-13.022-5.592-20.498-5.592h-5.818-24.68-60.996c-5.523 0-10 4.477-10 10v11.812l-63.466-42.311 63.466-42.311v11.813c0 5.523 4.477 10 10 10h91.494c11.303.001 20.498 9.197 20.498 20.499zm-449.502-266.514h91.494c5.523 0 10-4.477 10-10v-11.927l64.344 42.424-64.344 42.425v-11.926c0-5.523-4.477-10-10-10h-60.996-17.412-13.086c-7.476 0-14.481 2.044-20.498 5.592v-26.09c0-11.303 9.195-20.498 20.498-20.498zm0 101.991c-27.158-1.033-27.147-39.969 0-40.996h13.086 7.412v40.996zm388.506 276.515h-348.008c0-36.88 0-287.522 0-317.51h40.996v20.498c-.176 7.759 9.102 12.791 15.505 8.348 0 0 92.51-60.996 92.51-60.996 2.807-1.851 4.496-4.987 4.496-8.349s-1.689-6.498-4.496-8.349c0 0-92.51-60.996-92.51-60.996-6.448-4.401-15.639.516-15.504 8.349v20.497h-40.997v-71.492h262.372l85.636 85.636v231.874h-40.996v-20.498c.13-7.826-9.088-12.792-15.547-8.32 0 0-91.493 60.996-91.493 60.996-2.782 1.855-4.453 4.977-4.453 8.32 0 3.344 1.671 6.466 4.453 8.32l91.494 60.996c6.444 4.448 15.682-.466 15.547-8.32v-20.497h40.996c-.001 14.403-.001 57.801-.001 71.493zm40.498-30.498h-20.498v-40.996h14.68 5.818c27.155 1.029 27.149 39.971 0 40.996z" fill="#052a75"/><g fill="#6864f7"><path d="m347.51 172.49h-91.494c-13.225-.478-13.27-19.503 0-20h91.494c13.226.478 13.271 19.503 0 20z"/><path d="m347.51 233.485h-91.494c-13.225-.478-13.27-19.503 0-20h91.494c13.226.479 13.271 19.504 0 20z"/><path d="m224.502 357.51h-92.51c-13.225-.478-13.271-19.503 0-20h92.51c13.225.478 13.271 19.504 0 20z"/><path d="m224.502 418.506h-92.51c-13.225-.478-13.271-19.503 0-20h92.51c13.225.478 13.271 19.504 0 20z"/><path d="m347.51 296.515h-215.518c-5.523 0-10-4.477-10-10s4.477-10 10-10h215.519c13.186.46 13.305 19.49-.001 20z"/></g></g></g><g/><g/><g/><g/><g/><g/><g/><g/><g/><g/><g/><g/><g/><g/><g/></svg>