<svg id="Capa_1" enable-background="new 0 0 512 512" viewBox="0 0 512 512" xmlns="http://www.w3.org/2000/svg"><g><g><g><path d="m415.488 460.677v-450.677h-318.976v450.677h43.228v-407.449h232.52v407.449z" fill="#b55348"/><path d="m139.74 460.677h-129.74" fill="#fff"/><path d="m502 460.677h-129.74" fill="#fff"/><path d="m372.26 53.228-186.962 41.323v407.449l186.962-41.323z" fill="#d46b5c"/><path d="m229.463 263.831c0-68.352 16.838-132.771 46.589-189.339l-90.753 20.058v407.45l105.388-23.293c-38.807-62.376-61.224-136.007-61.224-214.876z" fill="#b55348"/></g></g><g><path d="m502 450.677h-76.512v-440.677c0-5.523-4.477-10-10-10h-318.976c-5.523 0-10 4.477-10 10v440.677h-76.512c-5.523 0-10 4.477-10 10s4.477 10 10 10h129.74c5.523 0 10-4.477 10-10v-397.449h130.941l-97.541 21.559c-4.581 1.012-7.842 5.073-7.842 9.764v407.449c0 3.031 1.375 5.899 3.738 7.797 1.792 1.439 4.006 2.203 6.262 2.203.719 0 1.443-.078 2.158-.236l185.894-41.087h128.65c5.523 0 10-4.477 10-10s-4.477-10-10-10zm-362.26-407.449c-5.523 0-10 4.477-10 10v397.449h-23.228v-430.677h298.976v430.677h-23.228v-397.449c.091-5.373-4.631-10.086-10-10zm55.558 59.355 166.962-36.903v386.966l-166.961 36.902v-386.965z" fill="#052a75"/><g><g><path d="m178.893 309.904c-4.581 0-8.711-3.167-9.75-7.824-1.203-5.391 2.191-10.735 7.582-11.938l53.136-11.858c5.39-1.204 10.735 2.191 11.938 7.582s-2.191 10.735-7.582 11.938l-53.136 11.858c-.734.164-1.467.242-2.188.242z" fill="#fdcb50"/></g><g><g><g><g><path d="m502 215.791h-42.267c-5.523 0-10-4.477-10-10s4.477-10 10-10h42.267c5.523 0 10 4.477 10 10s-4.477 10-10 10z" fill="#fd8f01"/></g><g><path d="m481.227 267.09c-1.461 0-2.945-.322-4.349-1.001l-21.5-10.404c-4.971-2.406-7.051-8.386-4.646-13.357 2.406-4.972 8.385-7.052 13.357-4.646l21.5 10.404c4.971 2.406 7.051 8.386 4.646 13.357-1.726 3.569-5.294 5.647-9.008 5.647z" fill="#fd8f01"/></g><g><path d="m459.741 174.901c-3.715 0-7.282-2.079-9.009-5.646-2.406-4.971-.326-10.952 4.646-13.357l21.5-10.405c4.972-2.406 10.953-.326 13.357 4.646 2.406 4.971.326 10.952-4.646 13.357l-21.5 10.405c-1.403.678-2.887 1-4.348 1z" fill="#fd8f01"/></g></g></g><g><g><g><path d="m52.267 215.791h-42.267c-5.523 0-10-4.477-10-10s4.477-10 10-10h42.267c5.523 0 10 4.477 10 10s-4.477 10-10 10z" fill="#fd8f01"/></g><g><path d="m30.773 267.09c-3.715 0-7.282-2.079-9.009-5.646-2.406-4.972-.326-10.952 4.646-13.357l21.5-10.404c4.972-2.406 10.952-.326 13.357 4.646 2.406 4.972.326 10.952-4.646 13.357l-21.5 10.404c-1.402.679-2.887 1-4.348 1z" fill="#fd8f01"/></g><g><path d="m52.259 174.901c-1.461 0-2.945-.322-4.349-1.001l-21.5-10.405c-4.971-2.406-7.051-8.386-4.646-13.357 2.406-4.972 8.386-7.052 13.357-4.646l21.5 10.405c4.971 2.406 7.051 8.386 4.646 13.357-1.725 3.568-5.293 5.647-9.008 5.647z" fill="#fd8f01"/></g></g></g></g></g></g></g><g/><g/><g/><g/><g/><g/><g/><g/><g/><g/><g/><g/><g/><g/><g/></svg>