<svg id="Layer_1" enable-background="new 0 0 509.976 509.976" viewBox="0 0 509.976 509.976" xmlns="http://www.w3.org/2000/svg"><g><g><g><g><path d="m44.85 256.835h419.701v242.417h-419.701z" fill="#fff"/></g><g><path d="m219.313 500.15v-139.724h-121.713v139.55z" fill="#67ccd1"/></g><g><path d="m261.808 360.426h154.24v99.679h-154.24z" fill="#93b2f4"/></g></g><g><g><path d="m329.627 77.954v78.675c0 2.277 1.846 4.123 4.123 4.123h112.344c10.193 0 18.456 8.263 18.456 18.456v53.441h-419.7v-53.441c0-10.193 8.263-18.456 18.456-18.456h112.344c2.277 0 4.123-1.846 4.123-4.123v-77.34c0-23.765 19.265-43.031 43.031-43.031h69.97c23.624 0 36.853 20.91 36.853 41.696z" fill="#67ccd1"/></g><g><path d="m347.018 232.646h-302.17v-53.44c0-10.19 8.26-18.45 18.46-18.45h112.34c2.28 0 4.12-1.85 4.12-4.13v-77.34c0-21.78 16.2-39.79 37.21-42.63-2.55 10.9-3.88 22.16-3.88 33.69 0 74.5 55.76 138 133.92 162.3z" fill="#27a2cc"/></g></g><g><g><path d="m466.589 232.733v56.772c0 16.56-13.424 29.984-29.984 29.984h-24.672c-16.56 0-29.984-13.424-29.984-29.984v-56.772z" fill="#b1d952"/></g><g><path d="m381.949 232.733v56.772c0 16.56-13.424 29.984-29.984 29.984h-24.672c-16.56 0-29.984-13.424-29.984-29.984v-56.772z" fill="#fff"/></g><g><path d="m297.309 232.733v56.772c0 16.56-13.424 29.984-29.984 29.984h-24.672c-16.56 0-29.984-13.424-29.984-29.984v-56.772z" fill="#b1d952"/></g><g><path d="m212.668 232.733v56.772c0 16.56-13.424 29.984-29.984 29.984h-24.672c-16.56 0-29.984-13.424-29.984-29.984v-56.772z" fill="#fff"/></g><g><path d="m128.028 232.733v56.772c0 16.56-13.424 29.984-29.984 29.984h-24.672c-16.56 0-29.984-13.424-29.984-29.984v-56.772z" fill="#b1d952"/></g></g><g><g><path d="m334.88 76.25-63.806 63.806c-15.161 15.161-39.742 15.161-54.903 0-15.161-15.161-15.161-39.742 0-54.903l63.806-63.806c15.161-15.161 39.742-15.161 54.903 0 15.161 15.161 15.161 39.742 0 54.903z" fill="#fff"/></g><g><path d="m302.92 107.977-31.846 32.079c-15.161 15.161-39.742 15.161-54.903 0-15.161-15.161-15.161-39.742 0-54.903l31.96-32.289z" fill="#fd6050"/></g></g></g></g><g><g><g><g><path d="m92.354 173.632c-5.523 0-10-4.477-10-10v-29.178c0-5.523 4.477-10 10-10s10 4.477 10 10v29.178c0 5.522-4.477 10-10 10z" fill="#93b2f4"/></g><g><path d="m417.622 173.739c-5.522 0-10-4.477-10-10v-29.178c0-5.523 4.478-10 10-10s10 4.477 10 10v29.178c0 5.523-4.478 10-10 10z" fill="#93b2f4"/></g></g><g><path d="m446.378 153.666h-106.46v-68.6l1.74-1.74c19.04-19.04 19.04-50.01 0-69.05s-50.01-19.03-69.04 0l-14.9 14.9h-34.63c-29.24 0-53.03 23.79-53.03 53.03v71.46h-106.46c-15.69 0-28.46 12.77-28.46 28.46v317.85c0 5.52 4.48 10 10 10h419.7c5.52 0 10-4.48 10-10v-317.85c0-15.69-12.77-28.46-28.46-28.46zm-159.62-125.25c5.62-5.62 13-8.43 20.38-8.43s14.76 2.81 20.38 8.43c5.44 5.45 8.44 12.68 8.44 20.38s-3 14.94-8.44 20.38l-63.81 63.81c-5.44 5.44-12.68 8.44-20.38 8.44s-14.93-3-20.38-8.44c-11.24-11.24-11.24-29.52 0-40.76zm-231.62 217.15h63.94v46.3c0 10.88-8.85 19.74-19.74 19.74h-24.46c-10.89 0-19.74-8.86-19.74-19.74zm154.18 244.41h-101.72v-119.55h101.72zm245.52 0h-225.52v-129.55c0-5.52-4.48-10-10-10h-121.72c-5.52 0-10 4.48-10 10v129.55h-32.46v-163.63c5.82 3.34 12.56 5.26 19.74 5.26h24.46c11.82 0 22.45-5.19 29.74-13.41 7.29 8.22 17.92 13.41 29.74 13.41h24.46c11.82 0 22.45-5.19 29.74-13.41 7.29 8.22 17.92 13.41 29.74 13.41h24.46c11.82 0 22.45-5.19 29.74-13.41 7.28 8.22 17.91 13.41 29.74 13.41h24.46c11.82 0 22.45-5.19 29.74-13.41 7.29 8.22 17.92 13.41 29.74 13.41h24.46c7.18 0 13.92-1.91 19.74-5.25zm-315.76-198.11v-46.3h63.94v46.3c0 10.88-8.85 19.74-19.74 19.74h-24.46c-10.89 0-19.74-8.86-19.74-19.74zm83.94 0v-46.3h63.94v46.3c0 10.88-8.85 19.74-19.74 19.74h-24.46c-10.89 0-19.74-8.86-19.74-19.74zm83.94 0v-46.3h63.94v46.3c0 10.88-8.85 19.74-19.74 19.74h-24.46c-10.89 0-19.74-8.86-19.74-19.74zm147.88 0c0 10.88-8.85 19.74-19.74 19.74h-24.46c-10.89 0-19.74-8.86-19.74-19.74v-46.3h63.94zm0-66.3h-399.7v-43.44c0-4.67 3.79-8.46 8.46-8.46h112.34c7.79 0 14.12-6.33 14.12-14.12v-77.34c0-18.21 14.82-33.03 33.03-33.03h14.63l-28.91 28.91c-19.04 19.03-19.04 50.01 0 69.04 9.22 9.22 21.48 14.3 34.52 14.3s25.3-5.08 34.53-14.3l42.06-42.06v54.48c0 7.79 6.33 14.12 14.12 14.12h112.34c4.67 0 8.46 3.79 8.46 8.46z" fill="#052a75"/></g></g><g><g><path d="m135.552 80.544v21.615c0 2.724-2.208 4.932-4.931 4.932h-17.596c-2.723 0-4.931 2.208-4.931 4.931v17.596c0 2.724-2.208 4.931-4.932 4.931h-21.615c-2.724 0-4.931-2.208-4.931-4.931v-17.596c0-2.724-2.208-4.931-4.931-4.931h-17.597c-2.724 0-4.931-2.208-4.931-4.932v-21.615c0-2.724 2.208-4.931 4.931-4.931h17.596c2.724 0 4.931-2.208 4.931-4.931v-17.597c0-2.723 2.208-4.931 4.931-4.931h21.615c2.724 0 4.932 2.208 4.932 4.931v17.596c0 2.724 2.208 4.931 4.931 4.931h17.596c2.724 0 4.932 2.208 4.932 4.932z" fill="#fd6050"/></g><g><path d="m459.77 80.544v21.615c0 2.724-2.208 4.932-4.931 4.932h-17.596c-2.724 0-4.931 2.208-4.931 4.931v17.596c0 2.724-2.208 4.931-4.931 4.931h-21.615c-2.724 0-4.931-2.208-4.931-4.931v-17.596c0-2.724-2.208-4.931-4.931-4.931h-17.596c-2.724 0-4.931-2.208-4.931-4.932v-21.615c0-2.724 2.208-4.931 4.931-4.931h17.596c2.723 0 4.931-2.208 4.931-4.931v-17.597c0-2.723 2.208-4.931 4.931-4.931h21.615c2.724 0 4.931 2.208 4.931 4.931v17.596c0 2.724 2.208 4.931 4.931 4.931h17.596c2.723 0 4.931 2.208 4.931 4.932z" fill="#fd6050"/></g></g></g><g/><g/><g/><g/><g/><g/><g/><g/><g/><g/><g/><g/><g/><g/><g/></svg>