<svg id="Layer_1" enable-background="new 0 0 510 510" viewBox="0 0 510 510" xmlns="http://www.w3.org/2000/svg"><g><g><path d="m78.649 142.082h65.851v269.015h-65.851z" fill="#fd7da0"/><path d="m364.5 76.082 65.851 50.918v283.501h-65.851z" fill="#67ccd1"/><path d="m144.5 10h220v446h-220z" fill="#93b2f4"/><path d="m237.394 151.373c0-52.891 17.175-101.764 46.233-141.373h-139.127v446h220v-93.244c-75.613-40.203-127.106-119.774-127.106-211.383z" fill="#6864f7"/><path d="m188.5 54.082h44v44h-44z" fill="#fdcb50"/><g fill="#d2dcfd"><path d="m276.5 54.082h44v44h-44z"/><path d="m188.5 142.082h44v44h-44z"/><path d="m276.5 142.082h44v44h-44z"/></g><path d="m188.5 230.082h44v44h-44z" fill="#fdcb50"/><path d="m276.5 230.082h44v44h-44z" fill="#fdcb50"/><path d="m377.133 401.912h21.488c34.72 0 62.866 28.146 62.866 62.866v35.222h-147.22v-35.222c0-34.72 28.146-62.866 62.866-62.866z" fill="#d2dcfd"/><path d="m377.133 401.912h1.566c10.444 18.608 16.411 40.052 16.411 62.866v35.222h-80.843v-35.222c0-34.72 28.146-62.866 62.866-62.866z" fill="#93b2f4"/><ellipse cx="387.877" cy="359.997" fill="#d46b5c" rx="42.475" ry="41.915"/><path d="m132.867 401.912h-21.487c-34.72 0-62.866 28.146-62.866 62.866v35.222h147.219v-35.222c0-34.72-28.146-62.866-62.866-62.866z" fill="#fdcb50"/><path d="m132.867 401.912h-1.566c-10.444 18.608-16.411 40.052-16.411 62.866v35.222h80.843v-35.222c0-34.72-28.146-62.866-62.866-62.866z" fill="#fd8f01"/><ellipse cx="122.123" cy="359.997" fill="#fdbeb9" rx="42.475" ry="41.915"/><path d="m243.756 401.912h21.488c34.72 0 62.866 28.146 62.866 62.866v35.222h-147.22v-35.222c0-34.72 28.146-62.866 62.866-62.866z" fill="#fff"/><path d="m250.772 401.912h-7.016c-34.72 0-62.866 28.146-62.866 62.866v35.222h76.297c-13.197-13.698-21.327-32.31-21.327-52.833 0-16.951 5.548-32.6 14.912-45.255z" fill="#d2dcfd"/><ellipse cx="254.5" cy="359.997" fill="#fde0be" rx="42.475" ry="41.915"/></g><g><g><path d="m102.652 196.082h-24c-5.522 0-10-4.477-10-10s4.478-10 10-10h24c5.522 0 10 4.477 10 10s-4.477 10-10 10z" fill="#fff"/></g><g><path d="m102.652 240.082h-24c-5.522 0-10-4.477-10-10s4.478-10 10-10h24c5.522 0 10 4.477 10 10s-4.477 10-10 10z" fill="#fff"/></g><g><path d="m102.652 284.082h-24c-5.522 0-10-4.477-10-10s4.478-10 10-10h24c5.522 0 10 4.477 10 10s-4.477 10-10 10z" fill="#fff"/></g><path d="m440.352 405.099v-278.099c0-3.096-1.434-6.017-3.883-7.911l-61.969-47.916v-61.173c0-5.523-4.478-10-10-10h-220c-5.522 0-10 4.477-10 10v122.082h-55.852c-5.522 0-10 4.477-10 10v263.729c-18.242 13.256-30.135 34.743-30.135 58.968v35.221c0 5.523 4.478 10 10 10h412.973c5.522 0 10-4.477 10-10v-35.222c0-24.663-12.328-46.489-31.134-59.679zm-52.475-13.187c-17.906 0-32.475-14.317-32.475-31.915s14.568-31.916 32.475-31.916 32.475 14.317 32.475 31.916-14.569 31.915-32.475 31.915zm32.475-260.003v187.354c-8.941-6.992-20.219-11.181-32.475-11.181-4.622 0-9.104.6-13.377 1.716v-213.343zm-265.852-111.909h200v299.966c-11.657 9.53-19.098 23.937-19.098 40.031 0 14.359 5.925 27.373 15.48 36.78-11.513 4.431-21.748 11.747-29.721 21.346-7.869-9.416-18.069-16.81-29.702-21.313 9.575-9.41 15.515-22.437 15.515-36.813 0-28.626-23.54-51.916-52.475-51.916s-52.475 23.289-52.475 51.916c0 14.376 5.939 27.403 15.515 36.813-11.389 4.408-21.397 11.594-29.197 20.73-7.907-9.294-17.972-16.404-29.24-20.749 9.564-9.409 15.494-22.428 15.494-36.794 0-16.546-7.874-31.297-20.098-40.81v-299.187zm100 371.912c-17.906 0-32.475-14.317-32.475-31.915s14.568-31.916 32.475-31.916 32.475 14.317 32.475 31.916-14.569 31.915-32.475 31.915zm-99.902-31.915c0 17.598-14.568 31.915-32.475 31.915s-32.475-14.317-32.475-31.915 14.568-31.916 32.475-31.916 32.475 14.318 32.475 31.916zm-20.098-207.915v157.472c-3.971-.954-8.113-1.472-12.377-1.472-12.713 0-24.383 4.499-33.475 11.969v-167.969zm-75.986 312.696c0-29.15 23.716-52.866 52.866-52.866h.743v20.597c0 5.523 4.478 10 10 10s10-4.477 10-10v-20.597h.744c17.885 0 34.372 8.988 44.115 23.743-3.908 8.926-6.092 18.772-6.092 29.124v25.221h-112.376zm259.595 25.222h-127.218v-25.222c0-29.15 23.715-52.866 52.865-52.866h.744v20.597c0 5.523 4.478 10 10 10s10-4.477 10-10v-20.597h.744c29.15 0 52.865 23.716 52.865 52.866zm133.377 0h-113.377v-25.222c0-9.991-2.024-19.518-5.68-28.195 9.65-15.325 26.376-24.671 44.703-24.671h.744v20.597c0 5.523 4.478 10 10 10s10-4.477 10-10v-20.597h.743c29.15 0 52.866 23.716 52.866 52.866v25.222z" fill="#052a75"/></g></g><g/><g/><g/><g/><g/><g/><g/><g/><g/><g/><g/><g/><g/><g/><g/></svg>