<svg id="Capa_1" enable-background="new 0 0 510 510" viewBox="0 0 510 510" xmlns="http://www.w3.org/2000/svg"><g><g><path d="m330.04 282.474h-150.08c-11.015 0-19.944-8.929-19.944-19.944v-127.391c0-11.015 8.929-19.944 19.944-19.944h150.08c11.015 0 19.944 8.929 19.944 19.944v127.391c0 11.015-8.929 19.944-19.944 19.944z" fill="#fdcb50"/><path d="m241.277 115.195h-61.317c-11.015 0-19.944 8.929-19.944 19.944v127.391c0 11.015 8.929 19.944 19.944 19.944h67.633c-25.94-49.167-28.582-115.887-6.316-167.279z" fill="#fd8f01"/><path d="m438.384 500h-366.768c-20.915 0-37.869-16.955-37.869-37.869v-81.383c0-20.915 16.955-37.869 37.869-37.869h366.769c20.915 0 37.869 16.955 37.869 37.869v81.383c0 20.914-16.955 37.869-37.87 37.869z" fill="#d2dcfd"/><path d="m122.895 342.878h-51.28c-20.915 0-37.869 16.955-37.869 37.869v81.383c0 20.915 16.955 37.869 37.869 37.869h52.009c-15.71-49.147-15.99-107.77-.729-157.121z" fill="#93b2f4"/></g><g fill="#1c2e72"><path d="m438.384 510h-366.768c-26.396 0-47.87-21.474-47.87-47.87v-81.383c0-26.395 21.474-47.869 47.87-47.869h366.769c26.395 0 47.87 21.474 47.87 47.869v81.383c-.001 26.396-21.475 47.87-47.871 47.87zm-366.768-157.122c-15.367 0-27.87 12.502-27.87 27.869v81.383c0 15.367 12.502 27.87 27.87 27.87h366.769c15.367 0 27.87-12.502 27.87-27.87v-81.383c0-15.367-12.502-27.869-27.87-27.869z"/><g><path d="m148.379 412.969c-1.707-5.252-7.345-8.126-12.601-6.42l-10.872 3.533v-11.432c0-5.523-4.477-10-10-10s-10 4.477-10 10v11.432l-10.873-3.533c-5.251-1.706-10.894 1.168-12.601 6.42-1.706 5.253 1.168 10.894 6.421 12.601l10.872 3.533-6.72 9.249c-3.246 4.468-2.256 10.722 2.212 13.968 4.422 3.225 10.703 2.284 13.968-2.212 0 0 6.72-9.249 6.72-9.249s6.72 9.249 6.72 9.249c3.266 4.497 9.546 5.436 13.968 2.212 4.468-3.246 5.458-9.501 2.212-13.968l-6.72-9.249 10.872-3.533c5.254-1.707 8.128-7.349 6.422-12.601z"/><path d="m241.775 412.969c-1.707-5.252-7.347-8.126-12.601-6.42l-10.872 3.533v-11.432c0-5.523-4.477-10-10-10s-10 4.477-10 10v11.432l-10.873-3.533c-5.251-1.706-10.894 1.168-12.601 6.42-1.706 5.253 1.168 10.894 6.42 12.601l10.873 3.533-6.72 9.249c-3.246 4.468-2.256 10.722 2.212 13.968 4.422 3.225 10.703 2.284 13.968-2.212 0 0 6.72-9.249 6.72-9.249l6.72 9.249c3.266 4.497 9.546 5.436 13.968 2.212 4.468-3.246 5.458-9.501 2.212-13.968l-6.72-9.249 10.873-3.533c5.253-1.707 8.128-7.349 6.421-12.601z"/><path d="m335.172 412.969c-1.708-5.252-7.347-8.126-12.601-6.42l-10.873 3.533v-11.432c0-5.523-4.477-10-10-10s-10 4.477-10 10v11.432l-10.872-3.533c-5.251-1.706-10.894 1.168-12.601 6.42-1.707 5.253 1.168 10.894 6.42 12.601l10.872 3.533s-6.72 9.249-6.72 9.249c-3.246 4.468-2.256 10.722 2.212 13.968 4.422 3.225 10.703 2.284 13.968-2.212 0 0 6.72-9.249 6.72-9.249s6.72 9.249 6.72 9.249c3.266 4.497 9.546 5.436 13.968 2.212 4.468-3.246 5.458-9.501 2.212-13.968l-6.72-9.249 10.872-3.533c5.255-1.707 8.129-7.349 6.423-12.601z"/><path d="m428.568 412.969c-1.707-5.252-7.346-8.126-12.601-6.42l-10.873 3.533v-11.432c0-5.523-4.477-10-10-10s-10 4.477-10 10v11.432l-10.872-3.533c-5.251-1.706-10.894 1.168-12.601 6.42-1.706 5.253 1.168 10.894 6.42 12.601l10.872 3.533-6.72 9.249c-3.246 4.468-2.256 10.722 2.212 13.968 4.422 3.225 10.703 2.284 13.968-2.212 0 0 6.72-9.249 6.72-9.249l6.72 9.249c3.266 4.497 9.546 5.436 13.968 2.212 4.468-3.246 5.459-9.501 2.212-13.968l-6.72-9.249 10.872-3.533c5.255-1.707 8.13-7.349 6.423-12.601z"/></g><path d="m255 228.508c-5.523 0-10-4.477-10-10v-27.813c0-5.523 4.477-10 10-10s10 4.477 10 10v27.813c0 5.523-4.477 10-10 10z"/><path d="m330.04 105.195h-8.014v-38.17c-.001-36.958-30.068-67.025-67.026-67.025s-67.025 30.067-67.025 67.025v38.17h-8.014c-16.511 0-29.944 13.433-29.944 29.944v127.391c0 16.511 13.433 29.944 29.944 29.944h150.079c16.511 0 29.944-13.433 29.944-29.944v-127.39c0-16.512-13.433-29.945-29.944-29.945zm-122.065-38.17c2.372-62.311 91.698-62.274 94.051.001 0-.001 0 38.169 0 38.169h-94.051zm132.009 195.505c0 5.483-4.461 9.944-9.944 9.944h-150.08c-5.483 0-9.944-4.461-9.944-9.944v-127.39c0-5.483 4.461-9.944 9.944-9.944h150.08c5.483 0 9.944 4.461 9.944 9.944z"/></g></g><g/><g/><g/><g/><g/><g/><g/><g/><g/><g/><g/><g/><g/><g/><g/></svg>