<svg id="Capa_1" enable-background="new 0 0 512.002 512.002" viewBox="0 0 512.002 512.002" xmlns="http://www.w3.org/2000/svg"><g><g><g><path d="m443.022 226.525h-12.864c-7.679 0-14.485-4.938-16.867-12.239-2.646-8.106-5.899-15.938-9.709-23.439-3.482-6.857-2.178-15.169 3.26-20.607l9.098-9.098c6.935-6.935 6.935-18.178 0-25.113l-30.277-30.277c-6.935-6.935-18.178-6.935-25.113 0l-9.098 9.098c-5.438 5.438-13.75 6.743-20.607 3.26-7.502-3.81-15.333-7.063-23.44-9.709-7.3-2.382-12.239-9.188-12.239-16.867v-12.863c0-9.807-7.95-17.757-17.757-17.757h-42.818c-9.807 0-17.757 7.95-17.757 17.757v12.864c0 7.679-4.938 14.485-12.239 16.867-8.106 2.646-15.938 5.899-23.439 9.709-6.857 3.482-15.169 2.178-20.607-3.26l-9.098-9.098c-6.935-6.935-18.178-6.935-25.113 0l-30.275 30.277c-6.935 6.935-6.935 18.178 0 25.113l9.098 9.098c5.438 5.438 6.743 13.75 3.26 20.607-3.81 7.502-7.063 15.333-9.709 23.439-2.383 7.3-9.188 12.239-16.868 12.239h-12.864c-9.807 0-17.757 7.95-17.757 17.757v42.818c0 9.807 7.95 17.757 17.757 17.757h12.864c7.679 0 14.485 4.938 16.867 12.239 2.646 8.106 5.899 15.938 9.709 23.439 3.482 6.857 2.178 15.169-3.26 20.607l-9.098 9.098c-6.935 6.935-6.935 18.178 0 25.113l30.277 30.277c6.935 6.935 18.178 6.935 25.113 0l9.098-9.098c5.438-5.438 13.75-6.742 20.607-3.26 7.502 3.81 15.333 7.064 23.439 9.709 7.3 2.382 12.239 9.188 12.239 16.867v12.864c0 9.807 7.95 17.757 17.757 17.757h42.818c9.807 0 17.757-7.95 17.757-17.757v-12.864c0-7.679 4.938-14.485 12.239-16.867 8.107-2.646 15.938-5.899 23.44-9.709 6.857-3.482 15.169-2.178 20.607 3.26l9.098 9.098c6.935 6.935 18.178 6.935 25.113 0l30.277-30.277c6.935-6.935 6.935-18.178 0-25.113l-9.098-9.098c-5.438-5.438-6.743-13.75-3.26-20.607 3.81-7.502 7.063-15.333 9.709-23.439 2.382-7.3 9.188-12.239 16.867-12.239h12.864c9.807 0 17.757-7.95 17.757-17.757v-42.818c-.001-9.807-7.951-17.758-17.758-17.758zm-187.021 113.183c-40.878 0-74.016-33.138-74.016-74.017 0-40.878 33.138-74.016 74.016-74.016s74.017 33.138 74.017 74.016c0 40.879-33.139 74.017-74.017 74.017z" fill="#d2dcfd"/></g><g><path d="m406.842 361.143c-5.438-5.438-6.743-13.75-3.26-20.606 2.352-4.63 4.49-9.387 6.405-14.255-19.017 6.168-39.304 9.516-60.377 9.516-18.746 0-36.873-2.643-54.035-7.568-11.448 7.26-25.014 11.48-39.573 11.48-40.878 0-74.016-33.138-74.016-74.017 0-7 .993-13.764 2.809-20.182-19.441-30.383-30.713-66.495-30.713-105.242 0-10.08.764-19.982 2.235-29.651l-4.864-4.864c-6.935-6.935-18.178-6.935-25.113 0l-30.277 30.276c-6.935 6.935-6.935 18.178 0 25.113l9.098 9.098c5.438 5.438 6.743 13.75 3.26 20.607-3.81 7.501-7.063 15.333-9.709 23.439-2.383 7.3-9.188 12.239-16.868 12.239h-12.864c-9.807 0-17.757 7.95-17.757 17.757v42.818c0 9.807 7.95 17.757 17.757 17.757h12.864c7.679 0 14.485 4.938 16.868 12.239 2.646 8.106 5.899 15.938 9.709 23.439 3.482 6.857 2.177 15.169-3.26 20.607l-9.098 9.098c-6.935 6.935-6.935 18.178 0 25.113l30.277 30.277c6.935 6.935 18.178 6.935 25.113 0l9.098-9.098c5.438-5.438 13.75-6.743 20.607-3.26 7.501 3.81 15.333 7.063 23.439 9.709 7.3 2.382 12.239 9.188 12.239 16.867v12.865c0 9.807 7.95 17.757 17.758 17.757h42.818c9.807 0 17.757-7.95 17.757-17.757v-12.865c0-7.679 4.938-14.485 12.239-16.867 8.106-2.646 15.938-5.899 23.439-9.709 6.857-3.482 15.169-2.178 20.607 3.26l9.098 9.098c6.935 6.935 18.178 6.935 25.113 0l30.277-30.277c6.935-6.935 6.935-18.178 0-25.113z" fill="#93b2f4"/></g><g><path d="m181.175 468.791c10.278 0 17.836-9.509 15.67-19.556-9.263-42.98-47.486-75.191-93.236-75.191s-83.973 32.211-93.236 75.191c-2.165 10.047 5.392 19.556 15.67 19.556z" fill="#67ccd1"/></g><g><path d="m97.218 374.278c-42.881 2.84-78.017 33.997-86.845 74.957-2.165 10.047 5.392 19.556 15.67 19.556h122.954c-29.811-21.341-49.78-55.552-51.779-94.513z" fill="#27a2cc"/></g><g><circle cx="103.609" cy="339.108" fill="#fde0be" r="48.963"/></g><g><path d="m97.052 367.814c0-27.827 9.159-53.514 24.625-74.213-5.592-2.222-11.684-3.457-18.068-3.457-27.042 0-48.963 21.922-48.963 48.964 0 25.373 19.3 46.237 44.02 48.715-1.057-6.514-1.614-13.196-1.614-20.009z" fill="#f7b073"/></g><g><path d="m485.959 468.791c10.278 0 17.836-9.509 15.67-19.556-9.263-42.98-47.486-75.191-93.236-75.191s-83.973 32.211-93.236 75.191c-2.165 10.047 5.392 19.556 15.67 19.556z" fill="#db4b86"/></g><g><path d="m402.002 374.278c-42.881 2.84-78.017 33.997-86.845 74.957-2.165 10.047 5.392 19.556 15.67 19.556h122.954c-29.811-21.341-49.78-55.552-51.779-94.513z" fill="#bc3c85"/></g><g><circle cx="408.393" cy="339.108" fill="#fde0be" r="48.963"/></g><g><path d="m401.836 367.814c0-27.827 9.159-53.514 24.625-74.213-5.592-2.222-11.684-3.457-18.068-3.457-27.042 0-48.963 21.922-48.963 48.964 0 25.373 19.3 46.237 44.02 48.715-1.057-6.514-1.614-13.196-1.614-20.009z" fill="#f7b073"/></g><g><path d="m333.567 468.791c10.278 0 17.836-9.509 15.67-19.556-9.263-42.98-47.486-75.191-93.236-75.191s-83.973 32.211-93.236 75.191c-2.165 10.047 5.392 19.556 15.67 19.556z" fill="#b1d952"/></g><g><path d="m249.61 374.278c-42.881 2.84-78.017 33.997-86.845 74.957-2.165 10.047 5.392 19.556 15.67 19.556h122.954c-29.811-21.341-49.78-55.552-51.779-94.513z" fill="#91b706"/></g><g><circle cx="256.001" cy="339.108" fill="#fde0be" r="48.963"/></g><g><path d="m249.444 367.814c0-27.827 9.159-53.514 24.625-74.213-5.592-2.222-11.684-3.457-18.068-3.457-27.042 0-48.963 21.922-48.963 48.964 0 25.373 19.3 46.237 44.02 48.715-1.057-6.514-1.614-13.196-1.614-20.009z" fill="#f7b073"/></g></g><g><path d="m511.404 447.128c-6.823-31.661-27.538-58.002-56.243-72.171 7.639-9.942 12.195-22.371 12.195-35.849 0-10.774-2.918-20.874-7.986-29.575 6.977-5.089 11.409-13.31 11.409-22.433v-42.818c0-15.306-12.451-27.757-27.757-27.757h-12.864c-3.36 0-6.319-2.146-7.361-5.341-2.779-8.515-6.244-16.881-10.299-24.865-1.529-3.011-.961-6.631 1.415-9.007l9.097-9.097c5.244-5.243 8.132-12.213 8.132-19.628s-2.888-14.386-8.131-19.627l-30.276-30.277c-10.822-10.822-28.431-10.824-39.255 0l-9.099 9.099c-2.375 2.375-5.993 2.946-9.008 1.415-7.985-4.055-16.352-7.521-24.864-10.299-3.194-1.042-5.341-4-5.341-7.361v-12.866c0-15.306-12.452-27.757-27.758-27.757h-42.817c-15.306 0-27.758 12.452-27.758 27.757v12.864c0 3.36-2.146 6.318-5.341 7.36-8.51 2.777-16.876 6.243-24.865 10.3-3.011 1.529-6.631.961-9.007-1.416l-9.099-9.098c-10.822-10.822-28.431-10.823-39.255 0l-30.277 30.277c-10.822 10.822-10.822 28.432 0 39.255l9.099 9.098c2.376 2.376 2.944 5.996 1.415 9.008-4.055 7.984-7.52 16.35-10.299 24.864-1.042 3.195-4.001 5.342-7.361 5.342h-12.865c-15.306 0-27.758 12.452-27.758 27.757v42.818c0 9.048 4.48 17.288 11.429 22.397-5.08 8.709-8.006 18.821-8.006 29.61 0 13.479 4.557 25.908 12.196 35.85-28.701 14.173-49.426 40.533-56.244 72.17-1.68 7.795.221 15.813 5.216 21.998 4.959 6.142 12.333 9.665 20.23 9.665h459.915c7.898 0 15.272-3.523 20.231-9.665 4.995-6.184 6.896-14.202 5.215-21.997zm-141.974-108.02c0-21.484 17.479-38.963 38.964-38.963s38.963 17.479 38.963 38.963-17.479 38.963-38.963 38.963-38.964-17.479-38.964-38.963zm-308.208-94.825c0-4.277 3.48-7.757 7.758-7.757h12.864c12.04 0 22.639-7.69 26.375-19.136 2.46-7.539 5.527-14.945 9.117-22.014 5.46-10.75 3.408-23.692-5.104-32.206l-9.099-9.098c-3.024-3.024-3.024-7.946 0-10.97l30.277-30.277c1.465-1.465 3.413-2.272 5.484-2.272 2.072 0 4.021.807 5.485 2.272l9.099 9.098c8.514 8.514 21.455 10.566 32.205 5.105 7.074-3.592 14.48-6.66 22.015-9.119 11.445-3.735 19.136-14.334 19.136-26.374v-12.864c0-4.277 3.48-7.757 7.758-7.757h42.817c4.277 0 7.758 3.48 7.758 7.757v12.864c0 12.04 7.69 22.638 19.136 26.374 7.536 2.46 14.943 5.528 22.014 9.119 10.753 5.46 23.693 3.408 32.206-5.105l9.099-9.099c1.465-1.465 3.413-2.272 5.484-2.272 2.072 0 4.021.807 5.485 2.272l30.277 30.278c1.465 1.465 2.272 3.413 2.272 5.485s-.808 4.02-2.273 5.485l-9.098 9.098c-8.513 8.514-10.564 21.456-5.104 32.205 3.59 7.069 6.657 14.475 9.117 22.015 3.736 11.446 14.336 19.136 26.375 19.136h12.864c4.277 0 7.757 3.48 7.757 7.757v42.818c0 3.038-1.751 5.72-4.37 6.986-10.273-8.688-23.54-13.942-38.016-13.942-32.513 0-58.964 26.451-58.964 58.963 0 13.485 4.561 25.918 12.206 35.863-10.949 5.432-20.9 12.758-29.379 21.618-8.394-8.779-18.334-16.126-29.488-21.631 7.639-9.942 12.196-22.371 12.196-35.849 0-4.225-.456-8.343-1.304-12.319 16.761-15.828 26.357-38.029 26.357-61.098 0-46.327-37.689-84.017-84.017-84.017s-84.017 37.69-84.017 84.017c0 23.147 9.575 45.253 26.357 61.1-.848 3.974-1.304 8.093-1.304 12.316 0 13.479 4.556 25.908 12.196 35.85-11.15 5.506-21.09 12.856-29.484 21.635-8.481-8.864-18.429-16.193-29.38-21.626 7.644-9.944 12.203-22.376 12.203-35.859 0-32.513-26.45-58.963-58.963-58.963-14.472 0-27.735 5.25-38.007 13.933-2.602-1.271-4.38-3.961-4.38-6.977v-42.818zm117.213 214.508c-2.497 0-3.998-1.396-4.67-2.229-.692-.858-1.772-2.677-1.225-5.221 6.084-28.231 25.846-51.279 52.863-61.654.064-.025.123-.057.187-.083 8.885 5.371 19.292 8.467 30.41 8.467 11.113 0 21.515-3.094 30.397-8.459 27.125 10.337 46.959 33.407 53.064 61.729.548 2.543-.532 4.363-1.226 5.221-.672.833-2.172 2.229-4.669 2.229zm38.603-119.683c0-21.484 17.479-38.963 38.963-38.963s38.964 17.479 38.964 38.963-17.479 38.963-38.964 38.963-38.963-17.479-38.963-38.963zm38.963-58.963c-20.524 0-38.624 10.547-49.188 26.499-9.508-11.428-14.829-25.9-14.829-40.952 0-35.299 28.718-64.017 64.017-64.017s64.017 28.718 64.017 64.017c0 14.999-5.339 29.507-14.837 40.939-10.565-15.945-28.661-26.486-49.18-26.486zm-191.356 58.963c0-21.484 17.479-38.963 38.964-38.963s38.963 17.479 38.963 38.963-17.479 38.963-38.963 38.963-38.964-17.479-38.964-38.963zm-43.271 117.454c-.693-.858-1.773-2.677-1.226-5.22 6.085-28.231 25.847-51.28 52.864-61.655.064-.025.123-.057.187-.083 8.885 5.371 19.292 8.467 30.41 8.467 11.113 0 21.515-3.094 30.397-8.459 12.723 4.849 24.129 12.729 33.234 22.902-6.676 10.431-11.555 22.107-14.25 34.614-.845 3.919-.783 7.893.12 11.664h-127.066c-2.497-.001-3.998-1.397-4.67-2.23zm469.255 0c-.672.833-2.173 2.229-4.67 2.229h-127.067c.903-3.77.965-7.745.121-11.663-2.697-12.514-7.574-24.19-14.246-34.619 9.054-10.115 20.391-17.969 33.03-22.822.064-.025.123-.057.187-.083 8.885 5.371 19.292 8.467 30.41 8.467 11.113 0 21.515-3.094 30.397-8.459 27.125 10.337 46.958 33.406 53.063 61.73.547 2.543-.533 4.362-1.225 5.22z" fill="#052a75"/><g fill="#27a2cc"><path d="m487.276 81.342c-5.333-1.399-10.785 1.778-12.202 7.1-16.71-24.527-39.896-43.245-67.685-54.498-5.121-2.071-10.949.396-13.022 5.516s.396 10.949 5.515 13.022c23.539 9.532 43.258 25.257 57.668 45.811-5.169-1.07-10.335 2.072-11.692 7.241-1.402 5.342 1.791 10.81 7.133 12.212 0 0 24.838 6.403 25.679 6.403 4.435 0 8.486-2.972 9.665-7.463l6.074-23.132c1.402-5.341-1.791-10.809-7.133-12.212z"/><path d="m104.613 33.944c-27.79 11.254-50.976 29.972-67.685 54.498-1.416-5.322-6.873-8.496-12.201-7.1-5.342 1.403-8.535 6.87-7.133 12.212l6.073 23.132c1.179 4.491 5.23 7.463 9.665 7.463.841 0 25.679-6.403 25.679-6.403 5.342-1.402 8.535-6.87 7.133-12.212-1.357-5.169-6.524-8.311-11.692-7.241 14.409-20.553 34.128-36.278 57.668-45.81 5.118-2.073 7.588-7.903 5.515-13.022-2.073-5.121-7.906-7.588-13.022-5.517z"/></g></g></g><g/><g/><g/><g/><g/><g/><g/><g/><g/><g/><g/><g/><g/><g/><g/></svg>