<svg id="Layer_1" enable-background="new 0 0 512 512" viewBox="0 0 512 512" xmlns="http://www.w3.org/2000/svg"><g><g><path d="m381.431 206.904v-174.814h-306.087v397.616h261.908z" fill="#d2dcfd"/><path d="m337.252 429.706 44.18-222.802v-40h-55.224c-22.091 0-40 17.909-40 40v44.18c0 10.696 4.206 20.404 11.045 27.581v151.042h39.999z" fill="#93b2f4"/><path d="m337.252 66.269v100.635l-40 218.623h-177.728v-319.258z" fill="#fff"/><path d="m326.207 166.904c-22.091 0-40 17.909-40 40v44.18c0 10.696 4.206 20.404 11.045 27.581v106.863h50l-10-178.623v-40h-11.045z" fill="#d2dcfd"/><path d="m75.344 76.269h97.819l55.225-10 55.224 10h97.819v-44.179h-306.087z" fill="#d46b5c"/><path d="m206.298 32.09c0-12.2 9.89-22.09 22.09-22.09s22.09 9.89 22.09 22.09h33.135v44.18h-110.45v-44.18z" fill="#fdcb50"/><path d="m381.611 502h-.359c-24.301 0-44-19.699-44-44v-206.917h88.359v206.917c0 24.301-19.7 44-44 44z" fill="#fd6050"/><path d="m337.252 251.083v54.465c14.241-5.338 29.942-5.305 44.161.111 14.232 5.421 29.948 5.448 44.198.097v-54.672h-88.359z" fill="#fff"/><path d="m326.207 206.904h110.449v44.18h-110.449z" fill="#67ccd1"/></g><g><path d="m293.072 174.628h-129.368c-5.523 0-10-4.477-10-10v-44.179c0-5.523 4.477-10 10-10h129.369c5.523 0 10 4.477 10 10v44.179c-.001 5.523-4.478 10-10.001 10zm-119.368-20h109.369v-24.179h-109.369z" fill="#67ccd1"/><g fill="#052a75"><path d="m436.656 196.904h-45.225v-164.814c0-5.523-4.477-10-10-10h-122.549c-4.212-12.813-16.29-22.09-30.494-22.09s-26.282 9.277-30.495 22.09h-122.549c-5.523 0-10 4.477-10 10v397.616c0 5.523 4.477 10 10 10h251.907v18.294c0 29.776 24.224 54 54 54h.359c29.776 0 54-24.224 54-54v-196.917h1.045c5.523 0 10-4.477 10-10v-44.179c.001-5.523-4.476-10-9.999-10zm-10 44.179h-90.449v-24.179h90.449zm-341.312 178.623v-377.616h120.954c5.523 0 10-4.477 10-10 0-6.667 5.423-12.09 12.09-12.09s12.09 5.423 12.09 12.09c0 5.523 4.477 10 10 10h120.954v154.814h-45.224c-5.523 0-10 4.477-10 10v44.179c0 5.523 4.477 10 10 10h1.044v158.623zm330.267 38.294c0 18.748-15.252 34-34 34h-.359c-18.748 0-34-15.252-34-34v-196.917h68.359z"/><path d="m163.704 218.808h119.328c5.523 0 10-4.477 10-10s-4.477-10-10-10h-119.328c-5.523 0-10 4.477-10 10s4.477 10 10 10z"/><path d="m163.704 262.988h99.246c5.523 0 10-4.477 10-10s-4.477-10-10-10h-99.246c-5.523 0-10 4.477-10 10s4.477 10 10 10z"/><path d="m293.072 287.167h-129.368c-5.523 0-10 4.477-10 10s4.477 10 10 10h129.369c5.523 0 10-4.477 10-10s-4.478-10-10.001-10z"/><path d="m283.031 331.347h-119.327c-5.523 0-10 4.477-10 10s4.477 10 10 10h119.328c5.523 0 10-4.477 10-10s-4.478-10-10.001-10z"/></g></g></g><g/><g/><g/><g/><g/><g/><g/><g/><g/><g/><g/><g/><g/><g/><g/></svg>