<svg id="Layer_1" enable-background="new 0 0 512 512" viewBox="0 0 512 512" xmlns="http://www.w3.org/2000/svg"><g><g><g><g><g><g><path d="m231.078 468.905-6.53-24.49c-18.937-4.568-36.888-12.052-53.528-22.32l-21.846 12.68-52.484-52.8 12.604-21.978c-10.206-16.74-17.646-34.799-22.187-53.85l-24.344-6.57v-74.671l24.344-6.57c4.541-19.05 11.98-37.11 22.187-53.85l-12.604-21.975 52.484-52.8 21.846 12.68c16.639-10.268 34.591-17.752 53.528-22.32l6.53-24.49h74.225l6.53 24.49c18.937 4.568 36.887 12.052 53.527 22.32l21.845-12.68 52.486 52.8-12.604 21.978c10.205 16.737 17.646 34.798 22.186 53.849l24.344 6.571v74.671l-24.344 6.571c-4.54 19.05-11.981 37.112-22.186 53.849l12.604 21.978-52.486 52.8-21.845-12.68c-16.64 10.268-34.59 17.752-53.527 22.32l-6.53 24.49h-74.225z" fill="#bc9af4"/></g></g></g><g><g><path d="m213.829 192.446c0-50.524 14.989-97.547 40.762-136.865h-23.513l-6.531 24.49c-18.937 4.568-36.888 12.052-53.528 22.32l-21.846-12.68-52.484 52.8 12.604 21.978c-10.206 16.74-17.646 34.799-22.187 53.85l-24.344 6.57v74.671l24.344 6.57c4.541 19.05 11.98 37.11 22.187 53.85l-12.603 21.976 52.484 52.8 21.846-12.68c16.64 10.268 34.591 17.752 53.528 22.32l6.531 24.49h74.225l6.531-24.49c18.865-4.551 36.75-11.996 53.337-22.204-89.012-38.262-151.343-126.735-151.343-229.766z" fill="#6864f7"/></g></g></g><g><g><path d="m399.81 262.24c0 45.05-22.63 84.81-57.14 108.54-21.18 14.56-46.83 23.08-74.48 23.08-28.24 0-54.39-8.89-75.82-24.02-33.76-23.83-55.8-63.14-55.8-107.6 0-72.69 58.93-131.61 131.62-131.61s131.62 58.92 131.62 131.61z" fill="#fff"/></g><g><path d="m213.829 192.446c0-17.992 1.901-35.54 5.513-52.454-48.505 19.396-82.771 66.818-82.771 122.248 0 44.46 22.04 83.77 55.8 107.6 21.43 15.13 47.58 24.02 75.82 24.02 13.81 0 27.121-2.125 39.625-6.067-57.29-45.808-93.987-116.292-93.987-195.347z" fill="#d2dcfd"/></g></g><g><g><path d="m342.67 370.78c-21.18 14.56-46.83 23.08-74.48 23.08-28.24 0-54.39-8.89-75.82-24.02 1.01-40.54 34.26-73.11 75.14-73.11 20.76 0 39.55 8.39 53.15 21.97 13.4 13.36 21.76 31.75 22.01 52.08z" fill="#fd6050"/></g><g><ellipse cx="267.512" cy="249.868" fill="#fde0be" rx="46.978" ry="46.867"/></g></g></g><g><g><path d="m47.508 348.969h-8.754v-8.798c0-5.522-4.478-10-10-10s-10 4.478-10 10v8.798h-8.754c-5.522 0-10 4.478-10 10s4.478 10 10 10h8.754v8.798c0 5.522 4.478 10 10 10s10-4.478 10-10v-8.798h8.754c5.522 0 10-4.478 10-10s-4.478-10-10-10z" fill="#6864f7"/><g><g><g><g><path d="m470.469 60.414c-5.522 0-10-4.478-10-10v-7.319c0-5.522 4.478-10 10-10s10 4.478 10 10v7.319c0 5.523-4.478 10-10 10z" fill="#6864f7"/></g><g><path d="m470.469 116.305c-5.522 0-10-4.478-10-10v-7.319c0-5.522 4.478-10 10-10s10 4.478 10 10v7.319c0 5.522-4.478 10-10 10z" fill="#6864f7"/></g></g></g><g><g><g><path d="m502 84.699h-7.302c-5.522 0-10-4.478-10-10s4.478-10 10-10h7.302c5.522 0 10 4.478 10 10s-4.478 10-10 10z" fill="#6864f7"/></g><g><path d="m446.239 84.699h-7.302c-5.522 0-10-4.478-10-10s4.478-10 10-10h7.302c5.522 0 10 4.478 10 10s-4.477 10-10 10z" fill="#6864f7"/></g></g></g></g></g><g fill="#052a75"><path d="m476.223 215.254-18.7-5.048c-4.333-16.006-10.66-31.36-18.868-45.784l9.713-16.937c2.24-3.907 1.593-8.83-1.583-12.024l-52.486-52.8c-3.206-3.226-8.184-3.882-12.112-1.599l-16.759 9.729c-14.315-8.235-29.553-14.588-45.437-18.943l-5.024-18.843c-1.167-4.378-5.132-7.424-9.662-7.424h-74.226c-4.53 0-8.495 3.046-9.662 7.424l-5.024 18.843c-15.888 4.355-31.123 10.708-45.438 18.943l-16.761-9.729c-3.93-2.282-8.907-1.626-12.111 1.599l-52.484 52.8c-3.176 3.194-3.823 8.117-1.583 12.024l9.713 16.937c-8.207 14.425-14.535 29.779-18.868 45.785l-18.701 5.047c-4.363 1.177-7.395 5.135-7.395 9.654v74.671c0 4.52 3.031 8.478 7.395 9.654l18.701 5.047c4.333 16.007 10.661 31.36 18.868 45.784l-9.713 16.937c-2.24 3.907-1.593 8.83 1.583 12.024l52.484 52.8c3.203 3.225 8.181 3.881 12.111 1.599l16.761-9.728c14.314 8.235 29.55 14.588 45.438 18.943l5.024 18.842c1.167 4.378 5.132 7.424 9.662 7.424h74.226c4.53 0 8.495-3.046 9.662-7.424l5.024-18.842c15.884-4.355 31.122-10.708 45.437-18.943l16.759 9.728c3.932 2.281 8.907 1.625 12.112-1.599l52.486-52.8c3.176-3.194 3.823-8.117 1.583-12.024l-9.713-16.937c8.208-14.424 14.535-29.777 18.868-45.783l18.7-5.048c4.363-1.178 7.395-5.135 7.395-9.654v-74.671c-.001-4.519-3.032-8.476-7.395-9.654zm-12.606 76.666-16.949 4.575c-3.54.955-6.272 3.771-7.122 7.337-4.288 17.998-11.353 35.144-20.996 50.96-1.899 3.115-1.951 7.017-.137 10.181l8.811 15.362-41.67 41.919-15.172-8.807c-3.188-1.853-7.137-1.798-10.271.138-15.711 9.694-32.743 16.797-50.621 21.11-3.564.859-6.373 3.602-7.317 7.145l-4.551 17.065h-58.86l-4.551-17.065c-.944-3.543-3.753-6.285-7.317-7.145-17.881-4.314-34.913-11.417-50.62-21.109-3.138-1.936-7.086-1.99-10.271-.139l-15.174 8.807-41.669-41.919 8.811-15.362c1.814-3.164 1.763-7.065-.137-10.181-9.643-15.815-16.707-32.962-20.997-50.962-.85-3.565-3.583-6.381-7.122-7.336l-16.949-4.574v-59.353l16.949-4.574c3.539-.955 6.272-3.77 7.122-7.336 4.29-18 11.354-35.146 20.997-50.963 1.899-3.115 1.951-7.017.137-10.181l-8.811-15.362 41.669-41.919 15.174 8.808c3.185 1.851 7.134 1.797 10.271-.139 15.707-9.693 32.739-16.795 50.62-21.109 3.564-.859 6.373-3.602 7.317-7.145l4.551-17.066h58.86l4.551 17.066c.944 3.543 3.752 6.285 7.317 7.145 17.878 4.313 34.91 11.416 50.621 21.11 3.135 1.936 7.084 1.989 10.271.138l15.172-8.807 41.67 41.918-8.811 15.362c-1.814 3.164-1.763 7.065.137 10.181 9.644 15.815 16.707 32.962 20.996 50.961.85 3.566 3.582 6.382 7.122 7.337l16.949 4.575z"/><path d="m268.19 120.625c-78.089 0-141.618 63.529-141.618 141.618s63.529 141.618 141.618 141.618 141.618-63.529 141.618-141.618-63.529-141.618-141.618-141.618zm-65.47 244.071c3.521-32.766 31.351-57.962 64.792-57.962 33.88 0 61.739 25.546 64.874 58.768-18.643 11.632-40.648 18.359-64.195 18.359-24.086 0-46.559-7.038-65.471-19.165zm27.813-114.828c0-20.329 16.589-36.867 36.979-36.867s36.979 16.538 36.979 36.867c0 20.328-16.589 36.866-36.979 36.866s-36.979-16.538-36.979-36.866zm119.819 101.967c-6.133-25.753-23.894-46.784-47.4-57.469 13.117-10.427 21.538-26.499 21.538-44.498 0-31.356-25.561-56.867-56.979-56.867s-56.979 25.511-56.979 56.867c0 18.02 8.442 34.11 21.586 44.536-23.148 10.566-40.801 31.188-47.183 56.417-23.603-22.198-38.364-53.696-38.364-88.578 0-67.061 54.558-121.618 121.618-121.618s121.618 54.558 121.618 121.618c.002 35.416-15.216 67.345-39.455 89.592z"/></g></g></g><g/><g/><g/><g/><g/><g/><g/><g/><g/><g/><g/><g/><g/><g/><g/></svg>