<svg id="Capa_1" enable-background="new 0 0 510.014 510.014" viewBox="0 0 510.014 510.014" xmlns="http://www.w3.org/2000/svg"><g><g><path d="m54 500h336v-490h-336c-24.301 0-44 19.7-44 44v402c0 24.301 19.699 44 44 44z" fill="#b1d952"/><path d="m189.733 202.867c0-73.613 26.782-140.961 71.116-192.866h-206.849c-24.301-.001-44 19.699-44 43.999v402c0 24.301 19.699 44 44 44h336v-16.164c-116.539-40.17-200.267-150.786-200.267-280.969z" fill="#91b706"/><path d="m65.537 10h-11.537c-24.301 0-44 19.7-44 44v402c0 24.301 19.699 44 44 44h11.537z" fill="#fdcb50"/><path d="m390 500h-336c-24.301 0-44-19.699-44-44 0-24.301 19.699-44 44-44h336z" fill="#fff"/><g><path d="m360.435 296.542h44v49.96h-44z" fill="#fff" transform="matrix(.866 -.5 .5 .866 -109.524 234.293)"/><path d="m424.673 325.98-59.495 34.35 70.72 122.49c9.485 16.429 30.493 22.058 46.922 12.573 16.429-9.485 22.058-30.493 12.573-46.922z" fill="#fdcb50"/><circle cx="309.411" cy="195.04" fill="#67ccd1" r="121.068"/><path d="m291.296 163.706c9.817-36.637 35.43-64.818 67.547-79.194-5.766-2.57-11.805-4.728-18.097-6.414-64.586-17.306-130.972 21.022-148.277 85.608-17.306 64.585 21.022 130.971 85.608 148.277 27.948 7.489 56.231 4.553 80.731-6.414-53.426-23.815-83.132-83.569-67.512-141.863z" fill="#27a2cc"/><path d="m313.138 269.987c31.666-1.568 60.089-23.259 68.736-55.53 10.723-40.02-13.026-81.156-53.047-91.879-5.243-1.405-10.504-2.218-15.714-2.48l-47.843 18.922-28.322 61.943 22.316 44.674z" fill="#fff"/><path d="m291.296 163.706c4.39-16.382 11.942-31.071 21.816-43.594-34.561-1.74-66.846 20.736-76.164 55.513-10.723 40.02 13.026 81.156 53.047 91.879 7.75 2.077 15.539 2.846 23.143 2.469-22.785-28.964-32.114-67.932-21.842-106.267z" fill="#d2dcfd"/></g></g><g><path d="m504.053 443.47-70.72-122.49c-2.762-4.782-8.876-6.422-13.66-3.66l-2.035 1.175-16.936-29.334c16.876-16.311 29.079-36.941 35.311-60.197 9.062-33.816 4.411-69.138-13.094-99.457-6.318-10.942-14.043-20.753-22.919-29.259v-90.248c0-5.523-4.478-10-10-10h-336c-29.776 0-54 24.224-54 54v402c0 29.776 24.224 54 54 54h336c5.522 0 10-4.477 10-10v-59.357l27.237 47.177c5.923 10.259 15.486 17.598 26.929 20.664 3.821 1.024 7.698 1.53 11.551 1.53 7.685 0 15.27-2.016 22.103-5.961 10.259-5.923 17.598-15.486 20.664-26.929s1.492-23.395-4.431-33.654zm-103.735-114.975-20.785 12-15.26-26.431c3.605-1.665 7.168-3.492 10.672-5.516 3.491-2.016 6.863-4.181 10.119-6.474zm5.281-188.988c14.834 25.692 18.774 55.624 11.096 84.28s-26.057 52.607-51.749 67.441c-17.448 10.074-36.515 14.859-55.348 14.858-38.413-.003-75.827-19.923-96.374-55.512-14.833-25.692-18.774-55.624-11.096-84.28 7.678-28.657 26.057-52.607 51.749-67.441 17.115-9.881 36.106-14.928 55.354-14.928 9.646 0 19.36 1.269 28.927 3.833 28.656 7.678 52.607 26.056 67.441 51.749zm-351.599 350.493c-18.748 0-34-15.252-34-34s15.252-34 34-34h326v24h-314c-5.523 0-10 4.477-10 10s4.477 10 10 10h314v24zm0-88c-12.877 0-24.71 4.537-34 12.087v-360.087c0-18.748 15.252-34 34-34h326v64.54c-11.177-7.122-23.498-12.573-36.666-16.102-33.818-9.062-69.138-4.411-99.457 13.094s-52.007 45.769-61.068 79.585-4.411 69.138 13.094 99.457c24.25 42.002 68.394 65.509 113.728 65.508 11.904 0 23.888-1.638 35.617-4.971l16.964 29.383-2.034 1.175c-2.297 1.326-3.973 3.51-4.659 6.072-.687 2.562-.327 5.292.999 7.588l21.171 36.671zm435.165 69.947c-1.684 6.282-5.713 11.533-11.346 14.785-5.633 3.251-12.194 4.115-18.477 2.433-6.282-1.684-11.533-5.712-14.785-11.345l-65.72-113.83 42.175-24.349 65.72 113.83c3.252 5.632 4.117 12.194 2.433 18.476z" fill="#052a75"/><g><path d="m200 348.261h-82.087c-5.523 0-10-4.477-10-10s4.477-10 10-10h82.087c5.523 0 10 4.477 10 10s-4.477 10-10 10z" fill="#fff"/></g><g><path d="m149.268 296.958h-31.355c-5.523 0-10-4.477-10-10s4.477-10 10-10h31.355c5.523 0 10 4.477 10 10s-4.477 10-10 10z" fill="#fff"/></g></g></g><g/><g/><g/><g/><g/><g/><g/><g/><g/><g/><g/><g/><g/><g/><g/></svg>