<svg id="Layer_1" enable-background="new 0 0 512 512" viewBox="0 0 512 512" xmlns="http://www.w3.org/2000/svg"><g><g><g><g><path d="m10 84.917v382.296c0 18.763 15.192 33.973 33.932 33.973h424.135c18.741 0 33.932-15.21 33.932-33.973v-382.296z" fill="#fff"/></g><g><path d="m119.968 145.157c0-20.452 1.454-40.565 4.264-60.24h-114.232v382.297c0 18.763 15.192 33.973 33.932 33.973h271.09c-117.297-75.039-195.054-206.454-195.054-356.03z" fill="#d2dcfd"/></g></g><g><g><path d="m502 57.517c0-18.763-15.192-33.973-33.932-33.973h-424.135c-18.741 0-33.933 15.21-33.933 33.973v37.704h492z" fill="#fd6050"/></g><g><path d="m137.74 23.544h-93.808c-18.74 0-33.932 15.21-33.932 33.973v37.704h112.889c2.898-24.602 7.911-48.556 14.851-71.677z" fill="#db4b86"/></g></g><g><path d="m215.462 146.345h80.891v63.588h-80.891z" fill="#b1d952"/></g><g><path d="m352.762 146.345h80.891v63.588h-80.891z" fill="#b1d952"/></g><g><g><path d="m78.347 261.257h80.891v63.588h-80.891z" fill="#91b706"/></g></g><g><g><path d="m215.462 376.17h80.891v63.588h-80.891z" fill="#b1d952"/></g><g><path d="m352.762 376.17h80.891v63.588h-80.891z" fill="#b1d952"/></g></g><g><g><g><path d="m78.347 146.345h80.891v63.588h-80.891z" fill="#b1d952"/></g></g><g><g><path d="m119.97 146.345h-41.623v63.588h46.558c-3.192-20.737-4.876-41.972-4.935-63.588z" fill="#91b706"/></g></g></g></g><g><g fill="#052a75"><path d="m468.047 13.544h-25.463v-2.73c0-5.523-4.478-10-10-10s-10 4.477-10 10v2.73h-68.292v-2.73c0-5.523-4.478-10-10-10s-10 4.477-10 10v2.73h-68.292v-2.73c0-5.523-4.478-10-10-10s-10 4.477-10 10v2.73h-68.292v-2.73c0-5.523-4.478-10-10-10s-10 4.477-10 10v2.73h-68.292v-2.73c0-5.523-4.478-10-10-10s-10 4.477-10 10v2.73h-25.463c-24.236 0-43.953 19.718-43.953 43.953v409.736c0 24.235 19.717 43.953 43.953 43.953h424.094c24.236 0 43.953-19.717 43.953-43.953v-409.736c0-24.235-19.717-43.953-43.953-43.953zm23.953 453.689c0 13.208-10.745 23.953-23.953 23.953h-424.094c-13.208 0-23.953-10.745-23.953-23.953v-409.736c0-13.208 10.745-23.953 23.953-23.953h25.463v23.836c0 5.523 4.478 10 10 10s10-4.477 10-10v-23.836h68.292v23.836c0 5.523 4.478 10 10 10s10-4.477 10-10v-23.836h68.292v23.836c0 5.523 4.478 10 10 10s10-4.477 10-10v-23.836h68.292v23.836c0 5.523 4.478 10 10 10s10-4.477 10-10v-23.836h68.292v23.836c0 5.523 4.478 10 10 10s10-4.477 10-10v-23.836h25.463c13.208 0 23.953 10.746 23.953 23.953z"/><path d="m159.238 136.345h-80.89c-5.522 0-10 4.477-10 10v63.588c0 5.523 4.478 10 10 10h80.891c5.522 0 10-4.477 10-10v-63.588c-.001-5.523-4.478-10-10.001-10zm-10 63.588h-60.89v-43.588h60.891v43.588z"/><path d="m296.353 136.345h-80.891c-5.522 0-10 4.477-10 10v63.588c0 5.523 4.478 10 10 10h80.891c5.522 0 10-4.477 10-10v-63.588c0-5.523-4.478-10-10-10zm-10 63.588h-60.891v-43.588h60.891z"/><path d="m433.652 136.345h-80.891c-5.522 0-10 4.477-10 10v63.588c0 5.523 4.478 10 10 10h80.891c5.522 0 10-4.477 10-10v-63.588c0-5.523-4.477-10-10-10zm-10 63.588h-60.891v-43.588h60.891z"/><path d="m159.238 251.257h-80.89c-5.522 0-10 4.477-10 10v63.588c0 5.523 4.478 10 10 10h80.891c5.522 0 10-4.477 10-10v-63.588c-.001-5.523-4.478-10-10.001-10zm-10 63.589h-60.89v-43.588h60.891v43.588z"/><path d="m296.353 366.169h-80.891c-5.522 0-10 4.477-10 10v63.589c0 5.523 4.478 10 10 10h80.891c5.522 0 10-4.477 10-10v-63.589c0-5.523-4.478-10-10-10zm-10 63.589h-60.891v-43.589h60.891z"/><path d="m433.652 366.169h-80.891c-5.522 0-10 4.477-10 10v63.589c0 5.523 4.478 10 10 10h80.891c5.522 0 10-4.477 10-10v-63.589c0-5.523-4.477-10-10-10zm-10 63.589h-60.891v-43.589h60.891z"/></g><g><g><path d="m256.001 314.189c-2.385 0-4.768-.849-6.662-2.542l-12.372-11.05c-4.119-3.679-4.477-10-.797-14.12 3.678-4.119 9.999-4.477 14.119-.797l5.866 5.239 14.359-12.233c4.205-3.583 10.515-3.078 14.098 1.127 3.581 4.204 3.077 10.516-1.127 14.097l-21 17.89c-1.871 1.595-4.178 2.389-6.484 2.389z" fill="#fd6050"/></g><g><path d="m394.04 314.189c-2.385 0-4.768-.849-6.662-2.542l-12.372-11.05c-4.119-3.679-4.477-10-.797-14.12 3.677-4.119 10-4.477 14.119-.797l5.866 5.239 14.359-12.233c4.206-3.583 10.515-3.078 14.098 1.127 3.581 4.204 3.077 10.516-1.127 14.097l-21 17.89c-1.871 1.595-4.178 2.389-6.484 2.389z" fill="#fd6050"/></g><g><path d="m120.655 429.41c-2.385 0-4.768-.849-6.662-2.542l-12.372-11.05c-4.119-3.679-4.477-10-.797-14.12 3.677-4.119 10-4.477 14.119-.797l5.866 5.239 14.359-12.233c4.205-3.583 10.516-3.077 14.098 1.127 3.581 4.204 3.077 10.516-1.127 14.097l-21 17.89c-1.87 1.595-4.178 2.389-6.484 2.389z" fill="#fd6050"/></g></g></g></g><g/><g/><g/><g/><g/><g/><g/><g/><g/><g/><g/><g/><g/><g/><g/></svg>