<svg id="Capa_1" enable-background="new 0 0 512.015 512.015" viewBox="0 0 512.015 512.015" xmlns="http://www.w3.org/2000/svg"><g><g clip-rule="evenodd" fill-rule="evenodd"><path d="m391.781 172.844-219.181 219.181c.506 1.532.976 3.085 1.399 4.663 11.957 44.624-14.525 90.492-59.149 102.449-34.366 9.208-69.466-4.384-89.25-31.501l72.797-19.506 9.002-33.597-24.595-24.594-72.797 19.506c3.576-33.375 27.177-62.697 61.543-71.905 16.665-4.465 33.504-3.569 48.684 1.632l219.181-219.182c-.506-1.532-.976-3.084-1.399-4.662-11.957-44.624 14.525-90.492 59.149-102.449 34.366-9.208 69.466 4.384 89.25 31.5l-72.797 19.506-9.002 33.597 24.595 24.595 72.797-19.506c-3.576 33.376-27.177 62.697-61.543 71.906-16.665 4.465-33.503 3.567-48.684-1.633z" fill="#d2dcfd"/><path d="m391.781 172.844-101.733 101.733.118-.28c8.451-20.402-1.323-43.997-21.724-52.447-10.132-4.197-21.278-3.996-30.991.105l101.964-101.965c-.506-1.532-.976-3.085-1.399-4.663-4.192-15.645-3.654-31.441.729-45.877l18.919 7.837c19.96 8.268 31.026 29.09 27.154 49.909 20.819-3.872 41.642 7.194 49.909 27.154l8.062 19.463c-.77.23-1.543.453-2.325.662-16.664 4.467-33.502 3.569-48.683-1.631z" fill="#93b2f4"/><path d="m150.198 273.156h102.92v74.403h-102.92z" fill="#fff" transform="matrix(.707 -.707 .707 .707 -160.392 233.494)"/><path d="m225.951 338.674-53.351 53.351c.506 1.532.976 3.085 1.399 4.663.503 1.877.938 3.757 1.306 5.635l2.817 1.627 37.756 15.639 14.862-26.927c15.011 2.521 30.094 2.433 44.671-.015l14.87 26.942 50.092-20.749-8.536-29.566c12.038-8.575 22.763-19.18 31.595-31.576l29.551 8.532 20.749-50.092-26.932-14.867c2.521-15.009 2.436-30.091-.012-44.665l26.945-14.872-19.983-48.243-.766-1.85-29.565 8.536c-8.575-12.039-19.179-22.765-31.577-31.597l8.531-29.549-50.092-20.749-14.862 26.927c-15.012-2.521-30.094-2.433-44.671.015l-14.87-26.942-50.092 20.749 8.536 29.566c-12.038 8.574-22.763 19.18-31.595 31.576l-29.551-8.532-20.749 50.092 26.927 14.861c-2.521 15.011-2.433 30.094.015 44.671l-26.942 14.87 15.78 38.095 1.164 2.016c3.696.731 7.325 1.71 10.863 2.922l53.131-53.131-1.754-1.756c-5.733-18.389-5.309-38.813 2.639-58 18.033-43.536 67.946-64.211 111.482-46.178s64.211 67.946 46.178 111.482c-17.042 41.142-62.552 61.863-104.248 48.798z" fill="#bc9af4"/><path d="m350.06 353.684c4.822-4.932 9.299-10.269 13.373-15.987l29.551 8.532 20.749-50.092-26.933-14.866c2.521-15.009 2.436-30.091-.012-44.665l26.945-14.872-19.983-48.243-.766-1.85-29.565 8.536c-8.575-12.039-19.179-22.765-31.577-31.597l8.531-29.549-50.092-20.749-14.862 26.927c-15.012-2.521-30.094-2.433-44.671.015l-14.87-26.942-50.092 20.749 8.536 29.566c-5.638 4.016-10.988 8.477-15.99 13.359l35.529 35.529c23.697-22.812 59.54-30.772 91.871-17.38 43.536 18.033 64.211 67.946 46.178 111.482-4.214 10.173-10.17 19.095-17.377 26.569z" fill="#bc9af4"/><g fill="#6864f7"><path d="m171.611 284.283c-5.733-18.389-5.309-38.813 2.639-58 3.833-9.253 9.105-17.473 15.451-24.508l-71.438 71.438c.289 2.699.658 5.385 1.106 8.054l-26.942 14.87 15.78 38.095 1.164 2.016c3.696.731 7.325 1.71 10.863 2.922l18.731-18.731 34.4-34.401z"/><path d="m225.951 338.674-34.376 34.376-18.975 18.975c.506 1.532.976 3.085 1.399 4.663.503 1.877.938 3.757 1.306 5.635l2.817 1.627 37.756 15.639 14.862-26.927c2.682.451 5.366.818 8.05 1.103l71.5-71.5c-21.878 19.735-53.203 27.341-82.628 18.121z"/></g></g><g><path d="m508.51 94.973c-2.504-2.144-5.905-2.915-9.09-2.062l-67.22 18.011-16.43-16.43 6.014-22.443 67.221-18.012c3.185-.854 5.744-3.222 6.841-6.331 1.098-3.109.592-6.559-1.351-9.223-11.025-15.11-26.18-26.479-43.826-32.879-18.067-6.552-37.465-7.377-56.09-2.386-24.163 6.474-44.357 21.97-56.865 43.633-9.789 16.954-13.951 36.097-12.195 55.201l-31.41-13.01c-4.703-1.948-10.121-.051-12.582 4.407l-11.528 20.887c-11.236-1.321-22.565-1.316-33.829.014l-11.536-20.9c-2.46-4.458-7.877-6.354-12.582-4.407l-50.092 20.749c-4.704 1.949-7.193 7.121-5.781 12.013l6.622 22.936c-8.902 7.021-16.915 15.029-23.928 23.912l-22.923-6.618c-4.893-1.413-10.064 1.077-12.013 5.781l-20.749 50.092c-1.949 4.704-.051 10.122 4.407 12.582l20.887 11.528c-1.322 11.236-1.317 22.564.013 33.829l-20.9 11.535c-4.458 2.46-6.355 7.877-4.407 12.582l10.233 24.704c-8.192-.014-16.405 1.055-24.458 3.213-18.626 4.991-35.011 15.403-47.382 30.112-12.084 14.364-19.524 31.787-21.516 50.385-.352 3.278.936 6.519 3.44 8.663 2.505 2.144 5.904 2.916 9.091 2.062l67.22-18.012 16.43 16.43-6.014 22.443-67.221 18.012c-3.185.853-5.744 3.222-6.841 6.331-1.098 3.109-.592 6.559 1.352 9.223 11.025 15.11 26.18 26.48 43.826 32.879 10.292 3.732 21.011 5.606 31.776 5.606 8.135 0 16.297-1.071 24.314-3.219 41.767-11.191 69.389-49.087 69.422-90.403l25.191 10.434c1.247.517 2.544.763 3.823.763 3.545 0 6.951-1.893 8.759-5.169l11.528-20.887c11.236 1.322 22.563 1.317 33.829-.014l11.535 20.9c2.46 4.458 7.88 6.357 12.582 4.407l50.093-20.749c4.705-1.949 7.193-7.121 5.781-12.013l-6.622-22.936c8.901-7.021 16.914-15.029 23.927-23.912l22.923 6.618c4.894 1.413 10.064-1.077 12.013-5.781l20.749-50.093c1.949-4.704.051-10.121-4.407-12.582l-20.893-11.532c1.322-11.236 1.318-22.562-.011-33.823l20.904-11.538c4.458-2.46 6.355-7.877 4.407-12.582l-12.829-30.971c2.865.265 5.741.398 8.619.398 8.159 0 16.33-1.066 24.291-3.2 18.625-4.991 35.01-15.404 47.382-30.112 12.083-14.366 19.523-31.789 21.516-50.387.352-3.275-.935-6.515-3.44-8.659zm-396.248 394.505c-24.2 6.483-50.041-.067-68.318-16.404l57.042-15.285c3.451-.925 6.146-3.62 7.071-7.071l9.002-33.597c.925-3.451-.062-7.133-2.588-9.659l-24.595-24.594c-2.527-2.527-6.209-3.515-9.66-2.588l-57.042 15.284c7.66-23.287 26.764-41.881 50.964-48.365 14.194-3.804 29.014-3.309 42.854 1.433 3.611 1.238 7.613.31 10.312-2.389l156.208-156.209c17.803 7.857 31.108 21.873 38.442 38.495l-156.425 156.425c-2.671 2.671-3.609 6.62-2.424 10.207.466 1.412.882 2.796 1.235 4.116 10.511 39.225-12.851 79.69-52.078 90.201zm71.227-259.368c13.087-31.594 45.33-49.572 77.729-46.066l-83.019 83.02c-1.352-12.486.431-25.224 5.29-36.954zm139.182 57.651c-13.13 31.699-44.976 49.84-77.769 46.105l83.052-83.052c1.34 12.179-.273 24.85-5.283 36.947zm59.285-59.91c-3.716 2.051-5.733 6.225-5.03 10.411 2.308 13.746 2.312 27.659.012 41.353-.703 4.186 1.313 8.36 5.03 10.411l19.104 10.544-13.905 33.571-20.96-6.051c-4.078-1.177-8.455.348-10.918 3.804-8.063 11.315-17.905 21.151-29.253 29.234-3.458 2.463-4.984 6.84-3.806 10.919l6.056 20.975-33.57 13.905-10.549-19.114c-2.052-3.717-6.229-5.733-10.412-5.03-13.751 2.311-27.666 2.315-41.358.016-4.188-.704-8.361 1.313-10.411 5.03l-10.541 19.098-27.402-11.35c-.057-.226-.114-.453-.173-.679l44.023-44.023c8.268 2.275 16.734 3.406 25.187 3.405 13.734 0 27.431-2.986 40.162-8.896 21.723-10.084 38.736-27.831 47.907-49.971 20.114-48.561-3.028-104.432-51.589-124.547-48.56-20.113-104.433 3.029-124.548 51.59-8.099 19.553-9.443 41.322-3.867 61.661l-43.739 43.739c-.379-.102-.759-.201-1.139-.298l-11.179-26.988 19.114-10.549c3.716-2.051 5.733-6.226 5.03-10.412-2.31-13.75-2.315-27.665-.015-41.358.703-4.186-1.313-8.36-5.03-10.411l-19.1-10.54 13.905-33.57 20.96 6.051c4.078 1.179 8.456-.348 10.918-3.805 8.062-11.315 17.904-21.151 29.252-29.234 3.458-2.463 4.984-6.84 3.806-10.919l-6.055-20.975 33.57-13.905 10.549 19.114c2.051 3.716 6.225 5.731 10.412 5.03 13.75-2.311 27.664-2.315 41.357-.016 4.187.703 8.36-1.313 10.411-5.03l10.541-19.098 33.571 13.905-6.051 20.958c-1.178 4.079.348 8.456 3.805 10.918 11.312 8.059 21.148 17.901 29.233 29.254 2.463 3.458 6.84 4.985 10.919 3.806l20.974-6.055 13.905 33.57zm55.92-63.034c-12.277 3.289-25.177 3.355-37.398.203-2.496-2.824-6.467-4.083-10.268-2.985l-22.935 6.621c-7.022-8.904-15.03-16.918-23.912-23.93l6.617-22.92c1.033-3.577-.021-7.304-2.501-9.811-4.826-18.775-2.155-38.328 7.552-55.142 9.836-17.037 25.718-29.224 44.721-34.315 24.2-6.484 50.041.066 68.318 16.403l-57.042 15.285c-3.451.925-6.146 3.62-7.071 7.071l-9.002 33.597c-.925 3.451.062 7.133 2.588 9.659l24.595 24.595c2.526 2.526 6.207 3.514 9.66 2.588l57.042-15.284c-7.66 23.286-26.764 41.881-50.964 48.365z" fill="#052a75"/><g><g><path d="m53.549 162.314c-.001 0 0 0 0 0-4.526 0-8.488-3.04-9.659-7.412-4.754-17.741-18.729-31.716-36.47-36.47-4.372-1.171-7.412-5.133-7.412-9.659s3.04-8.488 7.412-9.659c17.741-4.754 31.716-18.729 36.47-36.47 1.171-4.372 5.133-7.412 9.659-7.412s8.488 3.04 9.659 7.412c4.755 17.742 18.729 31.716 36.47 36.47 4.372 1.171 7.412 5.133 7.412 9.659s-3.04 8.487-7.412 9.659c-17.741 4.754-31.716 18.729-36.47 36.47-1.172 4.372-5.134 7.412-9.659 7.412zm-19.699-53.541c7.779 5.216 14.482 11.919 19.698 19.698 5.217-7.779 11.919-14.482 19.699-19.698-7.779-5.217-14.482-11.919-19.699-19.699-5.216 7.78-11.918 14.483-19.698 19.699z" fill="#fdcb50"/></g><g><path d="m458.467 456.782c-4.526 0-8.488-3.04-9.659-7.412-4.754-17.741-18.729-31.716-36.47-36.47-4.372-1.171-7.412-5.133-7.412-9.659s3.04-8.488 7.412-9.659c17.741-4.754 31.715-18.729 36.47-36.47 1.171-4.372 5.134-7.412 9.659-7.412 4.526 0 8.488 3.04 9.659 7.412 4.754 17.742 18.729 31.716 36.47 36.47 4.372 1.171 7.412 5.133 7.412 9.659s-3.04 8.488-7.412 9.659c-17.742 4.754-31.716 18.729-36.47 36.47-1.172 4.372-5.134 7.412-9.659 7.412zm-19.699-53.541c7.779 5.216 14.482 11.919 19.699 19.699 5.216-7.779 11.919-14.482 19.698-19.699-7.779-5.216-14.482-11.919-19.698-19.699-5.217 7.78-11.92 14.483-19.699 19.699z" fill="#fdcb50"/></g></g></g></g><g/><g/><g/><g/><g/><g/><g/><g/><g/><g/><g/><g/><g/><g/><g/></svg>