<svg id="Layer_1" enable-background="new 0 0 512 512" viewBox="0 0 512 512" xmlns="http://www.w3.org/2000/svg"><g><g><path d="m382.712 430.075c16.564 0 29.991-13.428 29.991-29.991v-357.209h-313.406v357.209c0 16.564 13.428 29.991 29.991 29.991-34.991 0-63.356 28.365-63.356 63.356v8.569h380.136v-8.569c0-34.991-28.366-63.356-63.356-63.356z" fill="#fff"/><path d="m382.712 430.075c16.564 0 29.991-13.428 29.991-29.991v-74.157c-9.266-3.761-19.391-5.834-29.991-5.834-25.761 0-48.716 12.241-63.356 31.211-14.64-18.97-37.595-31.211-63.356-31.211s-48.716 12.241-63.356 31.211c-14.64-18.97-37.595-31.211-63.356-31.211-10.6 0-20.725 2.073-29.991 5.834v74.157c0 16.564 13.428 29.991 29.991 29.991-34.991 0-63.356 28.365-63.356 63.356v8.569h126.712 126.712 126.712v-8.569c0-34.991-28.366-63.356-63.356-63.356z" fill="#d2dcfd"/><path d="m99.297 42.875h313.406v44.18h-313.406z" fill="#d46b5c"/><path d="m286.122 42.875v-2.752c0-16.637-13.486-30.123-30.122-30.123s-30.122 13.486-30.122 30.122v2.752h-32.892v44.18h126.029v-44.18h-32.893z" fill="#d2dcfd"/><circle cx="129.288" cy="400.084" fill="#d46b5c" r="29.991"/><circle cx="256" cy="400.084" fill="#fde0be" r="29.991"/><path d="m319.356 502h-126.712v-8.569c0-34.991 28.365-63.356 63.356-63.356s63.356 28.365 63.356 63.356z" fill="#bc9af4"/><path d="m241.924 441.064c0-3.242.218-6.434.639-9.56-28.536 6.163-49.918 31.548-49.918 61.928v8.568h83.848c-20.708-12.397-34.569-35.048-34.569-60.936z" fill="#6864f7"/><circle cx="382.712" cy="400.084" fill="#fdbeb9" r="29.991"/><path d="m446.068 502h-126.712v-8.569c0-34.991 28.365-63.356 63.356-63.356s63.356 28.365 63.356 63.356z" fill="#fd6050"/><path d="m368.636 441.064c0-3.242.218-6.434.639-9.56-28.536 6.163-49.918 31.548-49.918 61.928v8.568h83.848c-20.708-12.397-34.569-35.048-34.569-60.936z" fill="#db4b86"/><path d="m192.644 502h-126.712v-8.569c0-34.991 28.365-63.356 63.356-63.356s63.356 28.365 63.356 63.356z" fill="#b1d952"/><path d="m115.212 441.064c0-3.242.218-6.434.639-9.56-28.536 6.163-49.918 31.548-49.918 61.928v8.568h83.848c-20.708-12.397-34.569-35.048-34.569-60.936z" fill="#91b706"/></g><g><path d="m412.716 426.495c6.213-7.05 9.987-16.298 9.987-26.411v-357.209c0-5.523-4.478-10-10-10h-117.236c-3.422-18.676-19.818-32.875-39.467-32.875-19.65 0-36.046 14.199-39.467 32.875h-117.236c-5.523 0-10 4.477-10 10v357.209c0 10.113 3.774 19.361 9.987 26.411-25.532 11.49-43.351 37.171-43.351 66.936v8.569c0 5.523 4.477 10 10 10h380.136c5.522 0 10-4.477 10-10v-8.569c-.001-29.765-17.821-55.447-43.353-66.936zm-30.004-6.42c-11.023 0-19.991-8.968-19.991-19.991s8.968-19.992 19.991-19.992 19.991 8.968 19.991 19.992-8.968 19.991-19.991 19.991zm19.991-343.02h-73.688v-24.18h73.688zm0 20v268.403c-5.885-3.411-12.714-5.365-19.991-5.365-22.051 0-39.991 17.94-39.991 39.992 0 10.113 3.774 19.361 9.987 26.411-13.984 6.293-25.655 16.844-33.351 29.992-7.696-13.148-19.367-23.699-33.352-29.992 6.213-7.05 9.987-16.298 9.987-26.411 0-22.051-17.94-39.992-39.991-39.992s-39.991 17.94-39.991 39.992c0 10.113 3.774 19.361 9.987 26.411-13.984 6.293-25.655 16.844-33.351 29.992-7.696-13.148-19.367-23.698-33.351-29.992 6.213-7.05 9.987-16.298 9.987-26.411 0-22.051-17.94-39.992-39.991-39.992-7.277 0-14.107 1.954-19.991 5.365v-268.403zm-166.694 303.029c0-11.023 8.968-19.992 19.991-19.992s19.991 8.968 19.991 19.992-8.968 19.991-19.991 19.991-19.991-8.968-19.991-19.991zm-33.023-347.209h22.892c5.523 0 10-4.477 10-10v-2.752c-.001-11.096 9.026-20.123 20.122-20.123s20.122 9.027 20.122 20.123v2.752c0 5.523 4.478 10 10 10h22.893v24.18h-106.029zm-20 0v24.18h-73.689v-24.18zm-73.689 347.209c0-11.023 8.968-19.992 19.991-19.992s19.991 8.968 19.991 19.992-8.968 19.991-19.991 19.991-19.991-8.968-19.991-19.991zm-33.346 91.916c.76-28.763 24.394-51.925 53.337-51.925s52.577 23.162 53.337 51.925zm126.712 0c.76-28.763 24.394-51.925 53.337-51.925s52.578 23.162 53.338 51.925zm126.712 0c.76-28.763 24.395-51.925 53.337-51.925 28.943 0 52.578 23.162 53.338 51.925z" fill="#052a75"/><path d="m186.911 284.715 8.994-8.994c3.905-3.905 3.905-10.237 0-14.143-3.905-3.905-10.237-3.905-14.143 0l-8.994 8.994-8.994-8.994c-3.905-3.905-10.237-3.905-14.143 0s-3.905 10.237 0 14.143l8.994 8.994-8.994 8.994c-3.905 3.905-3.905 10.237 0 14.143 1.953 1.953 4.512 2.929 7.071 2.929s5.119-.976 7.071-2.929l8.994-8.994 8.994 8.994c1.953 1.953 4.512 2.929 7.071 2.929s5.119-.976 7.071-2.929c3.905-3.905 3.905-10.237 0-14.143z" fill="#fd6050"/><path d="m281.666 223.594h-68.067c-11.371 0-20.623-9.251-20.623-20.622v-22.462l17.138 17.138c1.953 1.953 4.512 2.929 7.071 2.929s5.119-.976 7.071-2.929c3.905-3.905 3.905-10.237 0-14.143l-34.209-34.209c-1.875-1.875-4.419-2.929-7.071-2.929s-5.196 1.054-7.071 2.929l-34.208 34.209c-3.905 3.905-3.905 10.237 0 14.142s10.237 3.905 14.142 0l17.137-17.138v22.462c0 22.399 18.223 40.622 40.623 40.622h68.067c11.371 0 20.622 9.251 20.622 20.623v36.563c0 5.523 4.478 10 10 10s10-4.477 10-10v-36.563c0-22.399-18.223-40.622-40.622-40.622z" fill="#fdcb50"/><path d="m339.935 146.367c-18.36 0-33.298 14.937-33.298 33.297s14.938 33.297 33.298 33.297 33.297-14.937 33.297-33.297-14.936-33.297-33.297-33.297zm0 46.595c-7.332 0-13.298-5.965-13.298-13.297s5.966-13.297 13.298-13.297 13.297 5.965 13.297 13.297-5.965 13.297-13.297 13.297z" fill="#67ccd1"/></g></g><g/><g/><g/><g/><g/><g/><g/><g/><g/><g/><g/><g/><g/><g/><g/></svg>