<svg id="Capa_1" enable-background="new 0 0 512 512" viewBox="0 0 512 512" xmlns="http://www.w3.org/2000/svg"><g><g><path d="m61.284 32.09h389.431v469.91h-389.431z" fill="#d46b5c"/><path d="m61.284 76.269h389.431v425.731h-389.431z" fill="#fff"/><path d="m141.284 268.126c0-71.442 22.507-137.623 60.804-191.857h-140.804v425.731h175.978c-59.338-60.132-95.978-142.719-95.978-233.874z" fill="#d2dcfd"/><path d="m105.464 120.449h301.072v337.371h-301.072z" fill="#d2dcfd"/><path d="m141.284 268.126c0-53.04 12.422-103.171 34.481-147.678h-70.302v337.372h95.125c-37.377-53.828-59.304-119.195-59.304-189.694z" fill="#93b2f4"/><path d="m105.464 120.449h301.072v50.837h-301.072z" fill="#fd6050"/><path d="m105.464 289.135h301.072v50.837h-301.072z" fill="#fd6050"/><path d="m175.766 120.449h-70.302v50.837h50.142c5.344-17.609 12.11-34.596 20.16-50.837z" fill="#db4b86"/><path d="m141.963 289.135h-36.499v50.837h43.616c-3.633-16.52-6.037-33.498-7.117-50.837z" fill="#db4b86"/><path d="m278.09 32.09c0-12.2-9.89-22.09-22.09-22.09s-22.09 9.89-22.09 22.09h-51.915v44.18h148.009v-44.18z" fill="#d2dcfd"/></g><g fill="#052a75"><path d="m450.716 22.09h-164.221c-4.213-12.813-16.291-22.09-30.495-22.09s-26.282 9.277-30.495 22.09h-164.221c-5.522 0-10 4.477-10 10v469.91c0 5.523 4.478 10 10 10h389.432c5.522 0 10-4.477 10-10v-469.91c0-5.523-4.478-10-10-10zm-10 44.179h-100.711v-24.179h100.711zm-206.806-24.179c5.522 0 10-4.477 10-10 0-6.667 5.424-12.09 12.09-12.09s12.09 5.423 12.09 12.09c0 5.523 4.478 10 10 10h41.915v24.179h-128.01v-24.179zm-61.915 0v24.179h-100.711v-24.179zm-100.711 449.91v-405.731h369.432v405.731z"/><path d="m406.536 110.449h-301.072c-5.522 0-10 4.477-10 10v337.371c0 5.523 4.478 10 10 10h301.072c5.522 0 10-4.477 10-10v-337.371c0-5.523-4.477-10-10-10zm-190.715 219.522v-30.836h80.357v30.836zm80.358 20v97.849h-80.357v-97.849zm0-168.685v97.849h-80.357v-97.849zm-80.358-20v-30.837h80.357v30.837zm100.358 20h80.357v97.849h-80.357zm-120.358 97.849h-80.357v-97.849h80.357zm-80.357 20h80.357v30.836h-80.357zm200.715 0h80.357v30.836h-80.357zm80.357-137.849h-80.357v-30.837h80.357zm-200.715-30.837v30.837h-80.357v-30.837zm-80.357 219.522h80.357v97.849h-80.357zm200.715 97.849v-97.849h80.357v97.849z"/><path d="m250.001 240.21h11.998c5.522 0 10-4.477 10-10s-4.478-10-10-10h-11.998c-5.522 0-10 4.477-10 10s4.478 10 10 10z"/><path d="m149.644 240.21h11.998c5.522 0 10-4.477 10-10s-4.478-10-10-10h-11.998c-5.522 0-10 4.477-10 10s4.477 10 10 10z"/><path d="m362.356 220.21h-11.998c-5.522 0-10 4.477-10 10s4.478 10 10 10h11.998c5.522 0 10-4.477 10-10s-4.477-10-10-10z"/><path d="m250.001 408.896h11.998c5.522 0 10-4.477 10-10s-4.478-10-10-10h-11.998c-5.522 0-10 4.477-10 10s4.478 10 10 10z"/><path d="m161.642 388.896h-11.998c-5.522 0-10 4.477-10 10s4.478 10 10 10h11.998c5.522 0 10-4.477 10-10s-4.478-10-10-10z"/><path d="m362.356 388.896h-11.998c-5.522 0-10 4.477-10 10s4.478 10 10 10h11.998c5.522 0 10-4.477 10-10s-4.477-10-10-10z"/></g></g><g/><g/><g/><g/><g/><g/><g/><g/><g/><g/><g/><g/><g/><g/><g/></svg>