<svg id="Capa_1" enable-background="new 0 0 510 510" viewBox="0 0 510 510" xmlns="http://www.w3.org/2000/svg"><g><g><g><path d="m99.139 255c0-52.557 32.557-97.437 78.433-115.251v-61.506c-17.948 4.286-34.872 11.136-50.348 20.135l-28.754-28.508-62.146 62.289 27.508 27.265c-9.921 15.742-17.463 33.079-22.137 51.531h-31.695v88.09h31.694c4.674 18.452 12.216 35.789 22.138 51.531l-27.508 27.265 62.146 62.289 28.752-28.509c15.477 9 32.4 15.849 50.348 20.135v-61.506c-45.874-17.813-78.431-62.693-78.431-115.25z" fill="#93b2f4"/></g><g><g><path d="m177.571 431.757v-61.506c-24.998-9.707-46.024-27.462-60-50.105v101.045l9.652-9.57c15.476 9 32.4 15.85 50.348 20.136z" fill="#6864f7"/></g><g><path d="m177.571 78.243c-17.948 4.286-34.872 11.136-50.348 20.135l-9.652-9.57v101.045c13.976-22.643 35.002-40.398 60-50.105z" fill="#6864f7"/></g></g><g><path d="m177.571 11.467h322.429v487.065h-322.429z" fill="#d2dcfd"/></g></g><g><g fill="#052a75"><path d="m250.758 127.219h176.056c5.522 0 10-4.478 10-10s-4.478-10-10-10h-176.056c-13.2.467-13.294 19.494 0 20z"/><path d="m250.758 218.111h176.056c5.522 0 10-4.478 10-10s-4.478-10-10-10h-176.056c-13.2.467-13.294 19.494 0 20z"/><path d="m250.758 309.003h176.056c5.522 0 10-4.478 10-10s-4.478-10-10-10h-176.056c-13.2.467-13.294 19.494 0 20z"/><path d="m250.758 399.896h176.056c5.522 0 10-4.478 10-10s-4.478-10-10-10h-176.056c-13.2.466-13.294 19.494 0 20z"/><path d="m500 1.468h-322.429c-5.522 0-10 4.478-10 10v59.067c-13.403 3.778-26.35 8.943-38.639 15.458l-23.42-23.223c-3.913-3.881-10.227-3.866-14.12.038l-62.146 62.289c-3.876 3.734-3.861 10.451.039 14.165 0 0 21.933 21.739 21.933 21.739-7.251 12.656-12.991 26.04-17.139 39.954h-24.079c-5.522 0-10 4.478-10 10v88.09c0 5.522 4.478 10 10 10h24.079c4.147 13.914 9.888 27.298 17.139 39.954l-21.934 21.739c-3.896 3.717-3.919 10.428-.039 14.165 0 0 62.146 62.289 62.146 62.289 1.953 1.958 4.516 2.938 7.079 2.938 2.546 0 5.092-.966 7.041-2.899 0 0 23.421-23.223 23.421-23.223 12.289 6.515 25.236 11.68 38.639 15.458v59.067c0 5.522 4.478 10 10 10h322.429c5.522 0 10-4.478 10-10v-487.065c0-5.523-4.478-10-10-10zm-332.429 353.068c-77.329-42.246-77.299-156.849 0-199.072zm-35.321 48.441c-3.909-2.272-8.856-1.643-12.068 1.544l-21.673 21.489-48.02-48.129 20.383-20.202c3.328-3.3 3.919-8.469 1.42-12.435-9.518-15.102-16.551-31.472-20.904-48.655-1.124-4.437-5.116-7.544-9.693-7.544h-21.695v-68.09h21.694c4.577 0 8.569-3.107 9.693-7.544 4.354-17.184 11.387-33.554 20.904-48.655 2.499-3.966 1.908-9.135-1.42-12.435l-20.383-20.202 48.02-48.129 21.673 21.489c3.213 3.187 8.16 3.817 12.068 1.544 11.176-6.499 23.014-11.736 35.321-15.636v41.734c-104.251 47.303-104.201 196.49 0 243.757v41.734c-12.306-3.899-24.144-9.136-35.32-15.635zm357.75 85.555h-302.429c0-134.722 0-332.336 0-467.064h302.429z"/></g><g><g><path d="m295.439 243.128c-5.522 0-10-4.478-10-10v-50.033c0-5.522 4.478-10 10-10s10 4.478 10 10v50.033c0 5.522-4.477 10-10 10z" fill="#6864f7"/></g><g><path d="m382.133 334.02c-5.522 0-10-4.478-10-10v-50.033c0-5.522 4.478-10 10-10s10 4.478 10 10v50.033c0 5.522-4.478 10-10 10z" fill="#6864f7"/></g><g><path d="m295.439 427.797c-5.522 0-10-4.478-10-10v-50.032c0-5.522 4.478-10 10-10s10 4.478 10 10v50.032c0 5.522-4.477 10-10 10z" fill="#6864f7"/></g><g><path d="m382.133 152.235c-5.522 0-10-4.478-10-10v-50.032c0-5.522 4.478-10 10-10s10 4.478 10 10v50.032c0 5.523-4.478 10-10 10z" fill="#6864f7"/></g></g></g></g><g/><g/><g/><g/><g/><g/><g/><g/><g/><g/><g/><g/><g/><g/><g/></svg>