<svg id="Capa_1" enable-background="new 0 0 512 512" viewBox="0 0 512 512" xmlns="http://www.w3.org/2000/svg"><g><g><g><g><path d="m279.96 502h-47.92v-468.04c0-13.233 10.727-23.96 23.96-23.96 13.233 0 23.96 10.727 23.96 23.96z" fill="#93b2f4"/></g><g><path d="m369.085 51.481h-226.17l-113.085 195.868 113.085 195.869h226.17l113.085-195.869z" fill="#fff"/></g><g><path d="m380.101 376.545c-144.198 0-263.45-106.723-283.13-245.486l-67.14 116.29 113.085 195.869h226.17l39.297-68.064c-9.306.913-18.738 1.391-28.282 1.391z" fill="#d2dcfd"/></g><g><path d="m178.708 386.543-85.56-138.194c-.357-.619-.357-1.381 0-2l20.241-52.38 55.319-95.815c.357-.619 1.018-1 1.732-1h171.12c.715 0 1.375.381 1.732 1l85.56 148.194c.357.619.357 1.381 0 2l-73.397 127.128-22.163 11.066c-.357.619-1.018 1-1.732 1h-151.12c-.714.001-1.375-.38-1.732-.999z" fill="#fd6050"/></g><g><path d="m113.39 193.97-30.241 52.38c-.357.619-.357 1.381 0 2l85.56 148.194c.357.619 1.018 1 1.732 1h171.12c.714 0 1.375-.381 1.732-1l12.163-21.066c-110.728-9.454-203.444-81.98-242.066-181.508z" fill="#db4b86"/></g></g></g><g><path d="m490.83 242.349-113.085-195.869c-1.786-3.094-5.087-5-8.66-5h-79.125v-7.52c0-18.726-15.234-33.96-33.96-33.96s-33.96 15.234-33.96 33.96v7.521h-79.125c-3.573 0-6.874 1.906-8.66 5l-113.085 195.868c-1.787 3.094-1.787 6.906 0 10l113.084 195.869c1.786 3.094 5.087 5 8.66 5h79.125v48.782c0 5.523 4.477 10 10 10h47.92c5.523 0 10-4.477 10-10v-48.782h79.125c3.573 0 6.874-1.906 8.66-5l113.086-195.869c1.786-3.094 1.786-6.906 0-10zm-248.79-208.389c0-7.698 6.262-13.96 13.96-13.96s13.96 6.262 13.96 13.96v7.521h-27.92zm27.92 458.04h-27.92v-38.782h27.92zm93.352-58.782h-214.624l-107.311-185.869 107.311-185.869h214.623l107.311 185.869z" fill="#052a75"/><g fill="#fff"><path d="m165.331 238.971h-6.565c-4.47 0-8.107-2.987-8.107-6.658 0-4.88 4.706-8.85 10.489-8.85h1.8c3.917 0 7.487 1.841 9.318 4.805 2.903 4.698 9.064 6.155 13.763 3.251 4.698-2.902 6.154-9.064 3.251-13.763-5.446-8.816-15.537-14.293-26.333-14.293h-1.8c-16.812 0-30.489 12.942-30.489 28.85 0 14.699 12.609 26.658 28.107 26.658h6.565c4.47 0 8.107 2.987 8.107 6.659 0 4.88-4.706 8.85-10.49 8.85h-1.8c-4.261 0-8.073-2.166-9.712-5.519-2.425-4.962-8.413-7.017-13.375-4.593-4.962 2.425-7.019 8.414-4.593 13.375 4.969 10.167 15.834 16.736 27.681 16.736h1.8c16.812 0 30.49-12.942 30.49-28.85 0-14.699-12.609-26.658-28.107-26.658z"/><path d="m237.876 203.463h-28.282c-5.523 0-10 4.477-10 10s4.477 10 10 10h4.141v61.017c0 5.523 4.477 10 10 10s10-4.477 10-10v-61.017h4.141c5.523 0 10-4.477 10-10s-4.477-10-10-10z"/><path d="m283.8 203.463c-15.976 0-28.973 12.997-28.973 28.973v33.072c0 15.976 12.997 28.973 28.973 28.973 15.975 0 28.972-12.997 28.972-28.973v-33.072c0-15.976-12.997-28.973-28.972-28.973zm8.972 62.044c0 4.948-4.025 8.973-8.972 8.973-4.948 0-8.973-4.025-8.973-8.973v-33.072c0-4.948 4.025-8.973 8.973-8.973 4.947 0 8.972 4.025 8.972 8.973z"/><path d="m356.927 203.463h-21.374c-5.523 0-10 4.477-10 10v71.017c0 5.523 4.477 10 10 10s10-4.477 10-10v-16.002h11.374c13.462 0 24.414-10.952 24.414-24.414v-16.187c0-13.462-10.952-24.414-24.414-24.414zm4.414 40.6c0 2.434-1.98 4.414-4.414 4.414h-11.374v-25.015h11.374c2.434 0 4.414 1.98 4.414 4.414z"/></g></g></g><g/><g/><g/><g/><g/><g/><g/><g/><g/><g/><g/><g/><g/><g/><g/></svg>