<svg id="Capa_1" enable-background="new 0 0 511.955 511.955" viewBox="0 0 511.955 511.955" xmlns="http://www.w3.org/2000/svg"><g><g><path d="m157.827 40.348c-33.828-33.828-88.673-33.828-122.501 0-33.828 33.828-33.828 88.673 0 122.501l70.682 70.682 122.5-122.501z" fill="#fff"/><path d="m33.647 42.114c-32.114 33.943-31.571 87.485 1.679 120.735l70.682 70.682 72.862-72.862c-62.129-19.715-113.919-62.621-145.223-118.555z" fill="#d2dcfd"/><path d="m354.083 40.348-70.681 70.681 122.501 122.501 70.681-70.681c33.828-33.828 33.828-88.673 0-122.501-33.828-33.827-88.673-33.827-122.501 0z" fill="#fd6050"/><path d="m333.041 160.669 72.862 72.862 70.681-70.681c33.25-33.25 33.793-86.792 1.679-120.735-31.304 55.933-83.094 98.839-145.222 118.554z" fill="#db4b86"/><g fill="#fdcb50"><circle cx="255.955" cy="396.529" r="22.09"/><circle cx="300.135" cy="308.169" r="22.09"/><circle cx="211.775" cy="308.169" r="22.09"/><circle cx="344.314" cy="440.708" r="22.09"/><circle cx="255.955" cy="484.888" r="22.09"/><circle cx="255.955" cy="219.81" r="22.09"/><circle cx="167.596" cy="440.708" r="22.09"/></g></g><g fill="#052a75"><path d="m164.898 33.277c-18.25-18.249-42.513-28.299-68.322-28.299-25.808 0-50.072 10.05-68.322 28.3-37.672 37.673-37.672 98.97 0 136.643l70.682 70.682c1.953 1.952 4.512 2.929 7.071 2.929s5.119-.977 7.071-2.929l122.501-122.501c3.905-3.905 3.905-10.237 0-14.143zm-58.891 186.112-63.61-63.611c-29.875-29.875-29.875-78.484 0-108.358 14.937-14.938 34.558-22.406 54.179-22.406s39.242 7.469 54.179 22.406l63.611 63.61z"/><path d="m483.655 33.277c-18.249-18.25-42.513-28.3-68.321-28.3s-50.072 10.05-68.322 28.299l-70.682 70.682c-3.905 3.905-3.905 10.237 0 14.143l122.501 122.501c1.953 1.952 4.512 2.929 7.071 2.929s5.118-.977 7.071-2.929l70.682-70.682c18.249-18.25 28.3-42.513 28.3-68.322 0-25.808-10.051-50.072-28.3-68.321zm-14.142 122.501-63.61 63.611-108.359-108.359 63.61-63.61c14.472-14.472 33.713-22.442 54.18-22.442 20.466 0 39.707 7.97 54.179 22.442 14.473 14.472 22.442 33.713 22.442 54.179s-7.97 39.707-22.442 54.179z"/></g></g><g/><g/><g/><g/><g/><g/><g/><g/><g/><g/><g/><g/><g/><g/><g/></svg>