<svg id="Capa_1" enable-background="new 0 0 512 512" viewBox="0 0 512 512" xmlns="http://www.w3.org/2000/svg"><g><g clip-rule="evenodd" fill-rule="evenodd"><path d="m256 416.653c88.485 0 160.653-72.168 160.653-160.653s-72.168-160.653-160.653-160.653-160.653 72.168-160.653 160.653 72.168 160.653 160.653 160.653z" fill="#fdcb50"/><g fill="#67ccd1"><path d="m256 55.184c12.443 0 22.592-10.149 22.592-22.592s-10.149-22.592-22.592-22.592-22.592 10.149-22.592 22.592 10.149 22.592 22.592 22.592z"/><circle cx="98.027" cy="98.027" r="22.592"/><ellipse cx="32.592" cy="256" rx="22.592" ry="22.592" transform="matrix(.232 -.973 .973 .232 -223.985 228.312)"/><circle cx="98.027" cy="413.973" r="22.592"/><ellipse cx="256" cy="479.408" rx="22.592" ry="22.592" transform="matrix(.707 -.707 .707 .707 -264.012 321.434)"/><circle cx="413.973" cy="413.973" r="22.592"/><ellipse cx="479.408" cy="256" rx="22.592" ry="22.592" transform="matrix(.893 -.45 .45 .893 -63.914 242.987)"/><circle cx="413.973" cy="98.027" r="22.592"/></g><path d="m256 95.347c1.788 0 3.566.04 5.34.098-24.864 33.679-39.571 75.316-39.571 120.392 0 79.121 45.288 147.657 111.352 181.122-22.892 12.551-49.171 19.694-77.121 19.694-88.726 0-160.653-71.927-160.653-160.653s71.927-160.653 160.653-160.653z" fill="#fd8f01"/><path d="m190.735 205.796h130.53c11.046 0 20.082 9.038 20.082 20.081v80.327c0 11.043-9.037 20.081-20.082 20.081h-130.53c-11.044 0-20.081-9.037-20.081-20.081v-80.327c-.001-11.045 9.035-20.081 20.081-20.081z" fill="#d46b5c"/><path d="m190.735 205.796h31.283c-.162 3.327-.249 6.674-.249 10.041 0 40.737 12.014 78.664 32.678 110.449h-63.712c-11.044 0-20.081-9.037-20.081-20.081v-80.327c-.001-11.046 9.035-20.082 20.081-20.082z" fill="#b55348"/></g><g><g><g><path d="m256 100.327c-5.523 0-10-4.477-10-10v-30.122c0-5.523 4.477-10 10-10s10 4.477 10 10v30.122c0 5.523-4.477 10-10 10z" fill="#93b2f4"/></g><g><path d="m138.851 148.852c-2.559 0-5.119-.976-7.071-2.929l-21.3-21.3c-3.905-3.905-3.905-10.237 0-14.143 3.905-3.905 10.237-3.905 14.143 0l21.3 21.3c3.905 3.905 3.905 10.237 0 14.143-1.953 1.952-4.513 2.929-7.072 2.929z" fill="#93b2f4"/></g><g><path d="m90.327 266h-30.123c-5.523 0-10-4.477-10-10s4.477-10 10-10h30.123c5.523 0 10 4.477 10 10s-4.477 10-10 10z" fill="#93b2f4"/></g><g><path d="m117.551 404.448c-2.559 0-5.119-.976-7.071-2.929-3.905-3.905-3.905-10.237 0-14.143l21.3-21.3c3.905-3.905 10.237-3.905 14.143 0 3.905 3.905 3.905 10.237 0 14.143l-21.3 21.3c-1.953 1.953-4.513 2.929-7.072 2.929z" fill="#93b2f4"/></g><g><path d="m256 461.795c-5.523 0-10-4.477-10-10v-30.123c0-5.523 4.477-10 10-10s10 4.477 10 10v30.123c0 5.523-4.477 10-10 10z" fill="#93b2f4"/></g><g><path d="m394.448 404.448c-2.559 0-5.119-.976-7.071-2.929l-21.3-21.3c-3.905-3.905-3.905-10.237 0-14.143 3.905-3.905 10.237-3.905 14.143 0l21.3 21.3c3.905 3.905 3.905 10.237 0 14.143-1.953 1.953-4.513 2.929-7.072 2.929z" fill="#93b2f4"/></g><g><path d="m451.795 266h-30.123c-5.523 0-10-4.477-10-10s4.477-10 10-10h30.123c5.523 0 10 4.477 10 10s-4.477 10-10 10z" fill="#93b2f4"/></g><g><path d="m373.148 148.852c-2.559 0-5.119-.976-7.071-2.929-3.905-3.905-3.905-10.237 0-14.143l21.3-21.3c3.905-3.905 10.237-3.905 14.143 0 3.905 3.905 3.905 10.237 0 14.143l-21.3 21.3c-1.953 1.952-4.512 2.929-7.072 2.929z" fill="#93b2f4"/></g></g><g fill="#052a75"><path d="m256 85.347c-94.098 0-170.653 76.554-170.653 170.652s76.555 170.653 170.653 170.653 170.653-76.554 170.653-170.652-76.555-170.653-170.653-170.653zm0 321.305c-83.07 0-150.653-67.583-150.653-150.653s67.583-150.652 150.653-150.652 150.653 67.583 150.653 150.653-67.583 150.652-150.653 150.652z"/><path d="m256 65.184c17.971 0 32.592-14.621 32.592-32.592s-14.621-32.592-32.592-32.592c-17.972 0-32.592 14.621-32.592 32.592s14.62 32.592 32.592 32.592zm0-45.184c6.943 0 12.592 5.649 12.592 12.592s-5.649 12.592-12.592 12.592-12.592-5.648-12.592-12.592 5.649-12.592 12.592-12.592z"/><path d="m98.026 130.603c8.346 0 16.692-3.177 23.046-9.53 12.707-12.708 12.707-33.384 0-46.092-12.707-12.707-33.384-12.707-46.091 0-12.708 12.708-12.708 33.384 0 46.092 6.353 6.353 14.7 9.53 23.045 9.53zm-8.903-41.48c4.909-4.908 12.899-4.909 17.807 0 4.91 4.91 4.91 12.898 0 17.808-4.909 4.91-12.898 4.91-17.808 0-4.909-4.91-4.909-12.899.001-17.808z"/><path d="m32.592 223.408c-17.971 0-32.592 14.621-32.592 32.592s14.621 32.592 32.592 32.592c17.972 0 32.592-14.621 32.592-32.592s-14.621-32.592-32.592-32.592zm0 45.184c-6.944 0-12.592-5.649-12.592-12.592s5.648-12.592 12.592-12.592 12.592 5.649 12.592 12.592-5.649 12.592-12.592 12.592z"/><path d="m74.981 390.927c-6.156 6.156-9.546 14.34-9.546 23.046s3.39 16.89 9.546 23.046c6.354 6.352 14.701 9.53 23.045 9.53 8.346 0 16.692-3.177 23.046-9.53 12.707-12.708 12.707-33.384 0-46.092-12.707-12.707-33.383-12.708-46.091 0zm31.949 31.949c-4.908 4.91-12.897 4.911-17.807 0-2.378-2.378-3.688-5.54-3.688-8.903s1.31-6.525 3.688-8.903c2.455-2.455 5.679-3.683 8.903-3.683 3.225 0 6.449 1.228 8.904 3.683 4.91 4.909 4.91 12.897 0 17.806z"/><path d="m256 446.816c-17.972 0-32.592 14.621-32.592 32.592s14.62 32.592 32.592 32.592c17.971 0 32.592-14.621 32.592-32.592s-14.621-32.592-32.592-32.592zm0 45.184c-6.943 0-12.592-5.648-12.592-12.592s5.649-12.592 12.592-12.592 12.592 5.648 12.592 12.592-5.649 12.592-12.592 12.592z"/><path d="m413.973 381.381c-8.706 0-16.89 3.39-23.046 9.546-12.707 12.708-12.707 33.384 0 46.092 6.156 6.156 14.341 9.546 23.046 9.546s16.89-3.39 23.045-9.546c6.155-6.155 9.546-14.34 9.546-23.045 0-8.706-3.39-16.89-9.546-23.045-6.155-6.158-14.339-9.548-23.045-9.548zm8.904 41.495c-2.378 2.378-5.541 3.688-8.904 3.688-3.364 0-6.526-1.31-8.904-3.688-4.91-4.909-4.91-12.897 0-17.807 2.378-2.378 5.54-3.688 8.904-3.688 3.363 0 6.525 1.31 8.904 3.688 2.378 2.378 3.688 5.54 3.688 8.903s-1.31 6.527-3.688 8.904z"/><path d="m479.408 223.408c-17.971 0-32.592 14.621-32.592 32.592s14.621 32.592 32.592 32.592 32.592-14.621 32.592-32.592-14.621-32.592-32.592-32.592zm0 45.184c-6.943 0-12.592-5.648-12.592-12.592s5.648-12.592 12.592-12.592 12.592 5.649 12.592 12.592-5.649 12.592-12.592 12.592z"/><path d="m413.973 130.603c8.346 0 16.692-3.177 23.046-9.53 12.708-12.708 12.708-33.384 0-46.092-12.708-12.707-33.384-12.708-46.092 0-12.707 12.708-12.707 33.384 0 46.092 6.354 6.353 14.7 9.53 23.046 9.53zm-8.904-41.48c2.455-2.455 5.679-3.682 8.904-3.682 3.224 0 6.449 1.228 8.903 3.682 4.91 4.909 4.91 12.898 0 17.807-4.908 4.91-12.897 4.909-17.807 0-4.909-4.909-4.909-12.898 0-17.807z"/><path d="m321.265 195.796h-25.142v-25.143c0-11.05-8.99-20.041-20.041-20.041h-40.164c-11.051 0-20.041 8.99-20.041 20.041v25.143h-25.143c-16.587 0-30.081 13.494-30.081 30.081v80.327c0 16.587 13.494 30.082 30.081 30.082h130.53c16.587 0 30.082-13.495 30.082-30.082v-80.327c0-16.587-13.494-30.081-30.081-30.081zm-85.347-25.184 40.205.041v25.143h-40.239zm-45.184 45.184h130.53c5.559 0 10.082 4.522 10.082 10.081v8.365l-75.346 31.025-75.347-31.026v-8.365c0-5.558 4.523-10.08 10.081-10.08zm130.531 100.49h-130.53c-5.559 0-10.081-4.522-10.081-10.082v-50.334l71.539 29.458c1.22.502 2.514.753 3.808.753s2.588-.251 3.808-.753l71.539-29.457v50.333c-.002 5.559-4.524 10.082-10.083 10.082z"/></g></g></g><g/><g/><g/><g/><g/><g/><g/><g/><g/><g/><g/><g/><g/><g/><g/></svg>