<svg id="Capa_1" enable-background="new 0 0 512 512" viewBox="0 0 512 512" xmlns="http://www.w3.org/2000/svg"><g><g><path d="m10 49.934h492v351.008h-492z" fill="#fff"/><path d="m169 185.438c0-48.256 10.279-94.107 28.743-135.504h-187.743v351.008h238.157c-49.36-58.084-79.157-133.309-79.157-215.504z" fill="#d2dcfd"/><path d="m502 339.93h-492v61.012h168.094l-1.863.233-20.414 61.012h200.366l-20.414-61.012-1.863-.233h168.094z" fill="#bc9af4"/><circle cx="97.979" cy="118.371" fill="#f7b073" r="24.318"/><path d="m54.665 194.755v-8.749c0-23.922 19.392-43.314 43.314-43.314s43.314 19.392 43.314 43.314v8.749z" fill="#91b706"/><circle cx="414.507" cy="118.371" fill="#fdbeb9" r="24.318"/><path d="m371.193 194.755v-8.749c0-23.922 19.392-43.314 43.314-43.314s43.314 19.392 43.314 43.314v8.749z" fill="#fdcb50"/><circle cx="97.979" cy="263.417" fill="#b55348" r="24.318"/><path d="m54.665 339.801v-8.749c0-23.922 19.392-43.314 43.314-43.314s43.314 19.392 43.314 43.314v8.749z" fill="#27a2cc"/><circle cx="414.507" cy="263.417" fill="#fde0be" r="24.318"/><path d="m371.193 339.801v-8.749c0-23.922 19.392-43.314 43.314-43.314s43.314 19.392 43.314 43.314v8.749z" fill="#b1d952"/><circle cx="256" cy="263.417" fill="#fdbeb9" r="24.318"/><path d="m212.686 339.801v-8.749c0-23.922 19.392-43.314 43.314-43.314s43.314 19.392 43.314 43.314v8.749z" fill="#fd6050"/><circle cx="256" cy="120.431" fill="#d46b5c" r="24.318"/><path d="m212.686 196.815v-8.749c0-23.922 19.392-43.314 43.314-43.314s43.314 19.392 43.314 43.314v8.749z" fill="#67ccd1"/></g><g fill="#052a75"><path d="m54.665 204.755h86.628c5.522 0 10-4.477 10-10v-8.749c0-19.671-10.716-36.875-26.609-46.114 4.757-5.891 7.613-13.377 7.613-21.521 0-18.923-15.395-34.318-34.317-34.318s-34.318 15.395-34.318 34.318c0 8.144 2.857 15.63 7.614 21.521-15.893 9.24-26.61 26.444-26.61 46.114v8.749c-.001 5.523 4.477 10 9.999 10zm43.314-100.702c7.895 0 14.317 6.423 14.317 14.318s-6.423 14.318-14.317 14.318c-7.896 0-14.318-6.423-14.318-14.318s6.423-14.318 14.318-14.318zm0 48.639c17.95 0 32.63 14.271 33.29 32.063h-66.581c.661-17.791 15.341-32.063 33.291-32.063z"/><path d="m371.192 204.755h86.628c5.522 0 10-4.477 10-10v-8.749c0-19.671-10.716-36.875-26.609-46.114 4.757-5.891 7.613-13.377 7.613-21.521 0-18.923-15.395-34.318-34.317-34.318s-34.318 15.395-34.318 34.318c0 8.144 2.857 15.63 7.614 21.521-15.893 9.24-26.61 26.444-26.61 46.114v8.749c-.001 5.523 4.477 10 9.999 10zm43.315-100.702c7.895 0 14.317 6.423 14.317 14.318s-6.423 14.318-14.317 14.318c-7.896 0-14.318-6.423-14.318-14.318s6.422-14.318 14.318-14.318zm0 48.639c17.95 0 32.63 14.271 33.29 32.063h-66.581c.66-17.791 15.341-32.063 33.291-32.063z"/><path d="m212.687 206.814h86.627c5.522 0 10-4.477 10-10v-8.749c0-19.67-10.716-36.874-26.609-46.114 4.757-5.891 7.614-13.377 7.614-21.521 0-18.923-15.396-34.318-34.318-34.318s-34.318 15.395-34.318 34.318c0 8.144 2.857 15.63 7.614 21.521-15.893 9.24-26.609 26.443-26.609 46.114v8.749c-.001 5.523 4.476 10 9.999 10zm43.313-100.701c7.896 0 14.318 6.423 14.318 14.318s-6.423 14.318-14.318 14.318-14.318-6.423-14.318-14.318 6.422-14.318 14.318-14.318zm0 48.639c17.95 0 32.63 14.271 33.29 32.062h-66.58c.66-17.791 15.34-32.062 33.29-32.062z"/><path d="m512 49.874c0-5.523-4.478-10-10-10h-492c-5.522 0-10 4.477-10 10v351.008c0 5.523 4.478 10 10 10h152.418l-13.801 41.245h-77.372c-5.522 0-10 4.477-10 10s4.478 10 10 10h369.51c5.522 0 10-4.477 10-10s-4.478-10-10-10h-77.372l-13.801-41.245h152.418c5.522 0 10-4.477 10-10zm-492 10h472v269.763h-24.216c-.501-19.077-11.064-35.683-26.573-44.699 4.757-5.891 7.613-13.377 7.613-21.521 0-18.923-15.395-34.318-34.317-34.318s-34.318 15.395-34.318 34.318c0 8.144 2.857 15.63 7.614 21.521-15.51 9.017-26.073 25.622-26.574 44.699h-51.951c-.501-19.077-11.063-35.682-26.573-44.699 4.757-5.891 7.614-13.377 7.614-21.521 0-18.923-15.396-34.318-34.318-34.318s-34.318 15.395-34.318 34.318c0 8.144 2.857 15.63 7.614 21.521-15.51 9.017-26.072 25.622-26.573 44.699h-51.465c-.501-19.077-11.064-35.683-26.573-44.699 4.757-5.891 7.613-13.377 7.613-21.521 0-18.923-15.395-34.318-34.317-34.318s-34.318 15.395-34.318 34.318c0 8.144 2.857 15.63 7.614 21.521-15.51 9.017-26.073 25.622-26.574 44.699h-24.704zm394.507 217.861c-7.896 0-14.318-6.423-14.318-14.318s6.423-14.318 14.318-14.318 14.317 6.423 14.317 14.318-6.423 14.318-14.317 14.318zm0 20.003c17.895 0 32.533 14.184 33.278 31.899h-66.556c.744-17.715 15.382-31.899 33.278-31.899zm-158.507-20.003c-7.896 0-14.318-6.423-14.318-14.318s6.423-14.318 14.318-14.318 14.318 6.423 14.318 14.318-6.422 14.318-14.318 14.318zm0 20.003c17.895 0 32.533 14.184 33.278 31.899h-66.555c.744-17.715 15.382-31.899 33.277-31.899zm-158.021-20.003c-7.896 0-14.318-6.423-14.318-14.318s6.423-14.318 14.318-14.318 14.317 6.423 14.317 14.318-6.422 14.318-14.317 14.318zm0 20.003c17.895 0 32.533 14.184 33.278 31.899h-66.556c.745-17.715 15.383-31.899 33.278-31.899zm244.314 154.388h-172.586l13.802-41.245h144.983zm-322.293-61.244v-41.245h472v41.245z"/></g></g><g/><g/><g/><g/><g/><g/><g/><g/><g/><g/><g/><g/><g/><g/><g/></svg>