<svg id="Capa_1" enable-background="new 0 0 512.01 512.01" viewBox="0 0 512.01 512.01" xmlns="http://www.w3.org/2000/svg"><g><g><path d="m377.239 118.481-104.961 25.268-.977-4.06c-5.171-21.478 8.049-43.081 29.527-48.251l23.294-5.608c23.626-5.688 47.389 8.854 53.076 32.48z" fill="#91b706"/><path d="m368.449 106.297 25.268 104.961 4.06-.977c21.478-5.171 34.698-26.773 29.527-48.251l-5.608-23.294c-5.688-23.626-29.451-38.167-53.076-32.48z" fill="#91b706"/><path d="m334.767 315.123-1.898-25.85c-2.765-37.652 5.817-75.268 24.639-107.995l26.388-45.882-37.681-23.059-29.242 42.284c-21.405 30.952-36.628 65.748-44.832 102.476l-3.965 17.749z" fill="#d46b5c"/><path d="m482.472 106.22-104.961 25.268-.977-4.06c-5.171-21.478 8.049-43.081 29.527-48.251l23.294-5.608c23.626-5.688 47.389 8.854 53.076 32.48z" fill="#91b706"/><path d="m327.332 11.283 25.268 104.961 4.06-.977c21.478-5.171 34.698-26.773 29.527-48.251l-5.608-23.294c-5.688-23.626-29.451-38.167-53.076-32.48z" fill="#91b706"/><circle cx="118.83" cy="118.853" fill="#fdcb50" r="39.22"/><path d="m502.005 461.846v-62.095c0-20.784-15.856-38.134-36.555-40.001l-89.75-8.095-81.66-76.827h-229.517l-54.518 66.453v120.565z" fill="#fdcb50"/><path d="m166.822 330.027c0-19.013 2.274-37.493 6.538-55.198h-108.837l-54.518 66.453v120.565h197.26c-25.524-37.589-40.443-82.961-40.443-131.82z" fill="#fd8f01"/><circle cx="102.058" cy="461.846" fill="#6864f7" r="40.163"/><circle cx="407.543" cy="461.846" fill="#6864f7" r="40.163"/><path d="m114.727 351.656h260.973l-81.66-76.827h-169.272l-40.164 58.128z" fill="#d2dcfd"/><path d="m166.822 330.027c0-19.013 2.274-37.493 6.538-55.198h-48.592l-40.163 58.128 30.122 18.699h53.096c-.651-7.124-1.001-14.335-1.001-21.629z" fill="#93b2f4"/><g fill="#b1d952"><path d="m457.142 180.218-92.086-56.351.092-.15c12.684-20.728 39.77-27.248 60.497-14.564l17.025 10.418c20.728 12.684 27.248 39.77 14.564 60.497z"/><path d="m365.056 123.866-92.086-56.351.092-.15c12.684-20.728 39.77-27.248 60.497-14.564l17.025 10.418c20.728 12.684 27.248 39.77 14.564 60.497z"/></g></g><g><path d="m322.25 151.596h20v49.267h-20z" fill="#b55348" transform="matrix(.522 -.853 .853 .522 8.509 367.641)"/><path d="m300.05 199.071h20v55.62h-20z" fill="#b55348" transform="matrix(.245 -.97 .97 .245 14.159 471.942)"/><path d="m55.818 395.642h-42.783c-5.523 0-10-4.477-10-10s4.477-10 10-10h42.783c5.523 0 10 4.477 10 10s-4.477 10-10 10z" fill="#db4b86"/><path d="m496.71 415.723h-23.707c-5.523 0-10-4.477-10-10s4.477-10 10-10h23.707c5.523 0 10 4.477 10 10s-4.477 10-10 10z" fill="#fff"/><path d="m466.332 349.802-86.304-7.784-35.728-33.613-1.459-19.864c-2.628-35.797 5.441-71.164 23.335-102.277l7.922-13.774 9.897 41.11c.621 2.579 2.24 4.805 4.502 6.189 1.584.969 3.393 1.47 5.22 1.47.782 0 1.568-.092 2.34-.278l4.061-.978c19.927-4.797 34.18-20.984 37.537-39.986l14.267 8.73c1.584.969 3.393 1.47 5.22 1.47.784 0 1.572-.092 2.346-.279 2.58-.623 4.807-2.245 6.189-4.511l.086-.141c12.557-20.52 9.728-46.198-5.214-63.503l24.264-5.841c2.581-.621 4.809-2.243 6.193-4.508s1.811-4.987 1.186-7.567l-.039-.158c-3.376-14.023-12.011-25.893-24.313-33.421-12.303-7.53-26.802-9.817-40.825-6.44l-23.294 5.607c-2.289.551-4.509 1.26-6.655 2.104-.225-2.295-.604-4.594-1.155-6.883l-5.607-23.294c-3.376-14.023-12.011-25.893-24.314-33.422-12.303-7.528-26.803-9.815-40.838-6.437l-.171.042c-5.363 1.299-8.66 6.695-7.369 12.06l5.836 24.245c-8.275-2.037-16.971-2.09-25.493-.038-14.023 3.376-25.893 12.011-33.415 24.304l-.092.15c-1.388 2.262-1.82 4.983-1.2 7.564s2.24 4.81 4.504 6.195l17.709 10.837c-18.848 10.741-29.207 33.024-23.881 55.148l.978 4.06c1.104 4.583 5.199 7.662 9.714 7.662.775 0 1.562-.091 2.349-.28l37.182-8.951-3.052 4.413c-22.243 32.163-37.843 67.821-46.367 105.983l-2.218 9.929h-195.629c-2.995 0-5.832 1.342-7.731 3.657l-54.514 66.448c-1.467 1.789-2.269 4.03-2.269 6.343v120.556c0 5.523 4.477 10 10 10h42.889c4.648 22.883 24.922 40.16 49.156 40.16 24.235 0 44.509-17.277 49.157-40.16h207.149c4.648 22.883 24.922 40.16 49.156 40.16 24.235 0 44.509-17.277 49.157-40.16h45.299c5.523 0 10-4.477 10-10v-62.09c.001-26.133-19.626-47.611-45.654-49.958zm-348.743-8.135-18.774-11.654 31.208-45.167h85.862v56.821zm118.296-56.821h54.188l60.396 56.821h-114.584zm165.081-86.202-11.598-48.176 28.868 17.666c1.413 12.848-5.656 25.166-17.27 30.51zm51.63-32.932-72.557-44.401c10.896-9.713 27.306-11.634 40.386-3.629l17.025 10.418c13.077 8.002 18.836 23.485 15.146 37.612zm-44.195-76.813 23.295-5.607c8.828-2.127 17.958-.686 25.704 4.055 4.865 2.977 8.819 7.033 11.615 11.828l-29.077 7-9.073-5.552c-9.615-5.883-20.569-8.55-31.589-7.831 2.757-1.758 5.82-3.098 9.125-3.893zm-37.543-42.837 5.607 23.294c.796 3.306.997 6.643.687 9.899-4.375-10.141-11.735-18.682-21.349-24.566l-9.073-5.552-6.997-29.066c14.574.837 27.536 11.084 31.125 25.991zm-42.519 15.268 17.025 10.418c13.08 8.004 18.839 23.494 15.15 37.614l-72.561-44.403c10.896-9.712 27.306-11.633 40.386-3.629zm-48.128 70.224c-.578-14.019 8.811-26.988 22.957-30.394l4.036-.971 24.772 15.159-3.107 4.493zm1.69 127.723c7.96-35.637 22.528-68.934 43.297-98.968l23.863-34.507 21.315 13.043-21.536 37.446c-19.587 34.056-28.577 72.696-26.063 111.863l-21.888-20.592c-1.854-1.745-4.305-2.717-6.852-2.717h-13.38zm-179.832 232.733c-16.63 0-30.16-13.53-30.16-30.16 0-16.631 13.53-30.161 30.16-30.161 16.631 0 30.161 13.53 30.161 30.161-.001 16.63-13.53 30.16-30.161 30.16zm305.462 0c-16.63 0-30.16-13.53-30.16-30.16 0-16.631 13.53-30.161 30.16-30.161 16.631 0 30.161 13.53 30.161 30.161 0 16.63-13.53 30.16-30.161 30.16zm84.456-40.16h-35.299c-4.648-22.884-24.922-40.161-49.157-40.161s-44.508 17.277-49.157 40.161h-207.148c-4.648-22.884-24.922-40.161-49.157-40.161s-44.508 17.277-49.157 40.161h-32.889v-106.979l49.244-60.025h36.446l-29.323 42.439c-1.556 2.252-2.121 5.043-1.563 7.723s2.19 5.014 4.516 6.458l30.121 18.697c1.583.983 3.41 1.504 5.274 1.504h260.505l89.294 8.054c15.65 1.412 27.451 14.326 27.451 30.039v52.09z" fill="#052a75"/><g fill="#fd8f01"><path d="m118.83 45.457c-5.523 0-10-4.477-10-10v-25.411c0-5.523 4.477-10 10-10s10 4.477 10 10v25.411c0 5.523-4.477 10-10 10z"/><path d="m118.83 237.66c-5.523 0-10-4.477-10-10v-25.411c0-5.523 4.477-10 10-10s10 4.477 10 10v25.411c0 5.523-4.477 10-10 10z"/><path d="m227.637 128.853h-25.411c-5.523 0-10-4.477-10-10s4.477-10 10-10h25.411c5.523 0 10 4.477 10 10s-4.477 10-10 10z"/><path d="m35.434 128.853h-25.411c-5.523 0-10-4.477-10-10s4.477-10 10-10h25.411c5.523 0 10 4.477 10 10s-4.477 10-10 10z"/><path d="m177.8 69.883c-2.559 0-5.119-.976-7.071-2.929-3.905-3.905-3.905-10.237 0-14.143l17.968-17.968c3.905-3.905 10.237-3.905 14.143 0s3.905 10.237 0 14.143l-17.968 17.968c-1.954 1.953-4.513 2.929-7.072 2.929z"/><path d="m41.892 205.791c-2.559 0-5.119-.976-7.071-2.929-3.905-3.905-3.905-10.237 0-14.143l17.968-17.968c3.905-3.905 10.237-3.905 14.143 0 3.905 3.905 3.905 10.237 0 14.143l-17.968 17.968c-1.953 1.953-4.513 2.929-7.072 2.929z"/><path d="m195.768 205.791c-2.559 0-5.119-.976-7.071-2.929l-17.968-17.968c-3.905-3.905-3.905-10.237 0-14.143 3.905-3.905 10.237-3.905 14.143 0l17.968 17.968c3.905 3.905 3.905 10.237 0 14.143-1.953 1.953-4.513 2.929-7.072 2.929z"/><path d="m59.86 69.883c-2.559 0-5.119-.976-7.071-2.929l-17.968-17.968c-3.905-3.905-3.905-10.237 0-14.143s10.237-3.905 14.143 0l17.968 17.968c3.905 3.905 3.905 10.237 0 14.143-1.953 1.953-4.513 2.929-7.072 2.929z"/></g></g></g><g/><g/><g/><g/><g/><g/><g/><g/><g/><g/><g/><g/><g/><g/><g/></svg>