<svg id="Layer_1" enable-background="new 0 0 509.996 509.996" viewBox="0 0 509.996 509.996" xmlns="http://www.w3.org/2000/svg"><g><g><g><path d="m78.528 495.081h54.442l54.442-64.004-66.311-17.589z" fill="#fdcb50"/></g><g><path d="m369.787 45.282c32.441-22.126 77.03-18.818 105.813 9.965s32.091 73.372 9.965 105.813z" fill="#fd7da0"/></g><g><path d="m140.209 45.282c-32.441-22.126-77.03-18.818-105.813 9.965s-32.092 73.372-9.965 105.813z" fill="#fd7da0"/></g><g><path d="m431.468 495.081h-54.442l-54.443-64.004 66.311-17.589z" fill="#fdcb50"/></g><g><circle cx="254.998" cy="275.849" fill="#fd7da0" r="202.332"/></g><g><path d="m207.894 220.181c0-57.429 23.93-109.266 62.358-146.094-5.036-.375-10.122-.57-15.254-.57-111.745 0-202.332 90.587-202.332 202.332s90.587 202.331 202.332 202.331c54.316 0 103.629-21.406 139.974-56.238-104.619-7.799-187.078-95.149-187.078-201.761z" fill="#db4b86"/></g><g><circle cx="254.998" cy="275.849" fill="#fff" r="155.228"/></g><g><path d="m99.77 275.849c0 85.73 69.498 155.228 155.228 155.228 29.618 0 57.296-8.299 80.843-22.692-74.935-29.641-127.947-102.726-127.947-188.204 0-35.569 9.188-68.988 25.306-98.029-75.408 10.598-133.43 75.366-133.43 153.697z" fill="#d2dcfd"/></g></g><g><g><path d="m313.445 87.608c-5.522 0-10-4.477-10-10v-4.247c0-26.714-21.733-48.447-48.447-48.447s-48.447 21.733-48.447 48.447v4.247c0 5.523-4.478 10-10 10s-10-4.477-10-10v-4.247c0-37.742 30.705-68.447 68.447-68.447s68.447 30.705 68.447 68.447v4.247c0 5.523-4.477 10-10 10z" fill="#fdcb50"/></g><g><g><path d="m254.998 147.749c-5.522 0-10-4.477-10-10v-17.129c0-5.523 4.478-10 10-10s10 4.477 10 10v17.129c0 5.523-4.478 10-10 10z" fill="#db4b86"/></g><g><path d="m254.998 441.076c-5.522 0-10-4.477-10-10v-17.128c0-5.523 4.478-10 10-10s10 4.477 10 10v17.128c0 5.523-4.478 10-10 10z" fill="#db4b86"/></g><g><path d="m410.226 285.848h-17.129c-5.522 0-10-4.477-10-10s4.478-10 10-10h17.129c5.522 0 10 4.477 10 10s-4.477 10-10 10z" fill="#db4b86"/></g><g><path d="m116.898 285.848h-17.129c-5.522 0-10-4.477-10-10s4.478-10 10-10h17.129c5.522 0 10 4.477 10 10s-4.477 10-10 10z" fill="#db4b86"/></g><g><path d="m185.958 166.252c-3.457 0-6.817-1.793-8.67-5.001l-8.564-14.833c-2.762-4.783-1.123-10.898 3.66-13.66 4.782-2.762 10.898-1.123 13.66 3.66l8.564 14.833c2.762 4.783 1.123 10.898-3.66 13.66-1.574.909-3.294 1.341-4.99 1.341z" fill="#db4b86"/></g><g><path d="m332.622 420.282c-3.457 0-6.817-1.793-8.67-5.001l-8.564-14.834c-2.762-4.783-1.123-10.899 3.66-13.66s10.899-1.123 13.66 3.66l8.564 14.834c2.762 4.783 1.123 10.899-3.66 13.66-1.574.908-3.294 1.341-4.99 1.341z" fill="#db4b86"/></g><g><path d="m374.605 216.8c-3.457 0-6.818-1.793-8.67-5.001-2.762-4.783-1.123-10.899 3.66-13.66l14.834-8.564c4.787-2.761 10.9-1.122 13.66 3.66 2.762 4.783 1.123 10.899-3.66 13.66l-14.834 8.564c-1.575.909-3.293 1.341-4.99 1.341z" fill="#db4b86"/></g><g><path d="m120.576 363.464c-3.457 0-6.817-1.793-8.67-5.001-2.762-4.783-1.123-10.899 3.66-13.66l14.834-8.564c4.783-2.761 10.898-1.123 13.66 3.66s1.123 10.899-3.66 13.66l-14.834 8.564c-1.574.909-3.294 1.341-4.99 1.341z" fill="#db4b86"/></g><g><path d="m135.39 216.8c-1.696 0-3.415-.432-4.99-1.341l-14.834-8.564c-4.783-2.761-6.422-8.877-3.66-13.66 2.761-4.783 8.876-6.423 13.66-3.66l14.834 8.564c4.783 2.761 6.422 8.877 3.66 13.66-1.851 3.208-5.214 5.001-8.67 5.001z" fill="#db4b86"/></g><g><path d="m389.42 363.464c-1.696 0-3.415-.432-4.99-1.341l-14.834-8.564c-4.783-2.761-6.422-8.877-3.66-13.66s8.875-6.422 13.66-3.66l14.834 8.564c4.783 2.761 6.422 8.877 3.66 13.66-1.853 3.208-5.214 5.001-8.67 5.001z" fill="#db4b86"/></g><g><path d="m324.038 166.252c-1.696 0-3.415-.432-4.99-1.341-4.783-2.762-6.422-8.877-3.66-13.66l8.564-14.833c2.762-4.782 8.876-6.421 13.66-3.66 4.783 2.762 6.422 8.877 3.66 13.66l-8.564 14.833c-1.853 3.208-5.214 5.001-8.67 5.001z" fill="#db4b86"/></g><g><path d="m177.374 420.282c-1.696 0-3.415-.432-4.99-1.341-4.783-2.761-6.422-8.877-3.66-13.66l8.564-14.834c2.761-4.783 8.876-6.421 13.66-3.66 4.783 2.761 6.422 8.877 3.66 13.66l-8.564 14.834c-1.852 3.207-5.214 5.001-8.67 5.001z" fill="#db4b86"/></g></g><g fill="#052a75"><path d="m489.349 55.64 5.168-5.167c3.905-3.905 3.905-10.237 0-14.142-3.904-3.905-10.234-3.905-14.143 0l-5.168 5.167c-31.669-25.529-76.853-27.805-111.054-4.477-2.46 1.678-4.044 4.364-4.321 7.329-.278 2.964.779 5.898 2.885 8.004l50.818 50.818-15.702 15.703c-37.744-34.375-87.884-55.358-142.834-55.358s-105.09 20.983-142.833 55.356l-15.703-15.703 50.818-50.818c2.105-2.105 3.163-5.04 2.885-8.004-.277-2.964-1.861-5.651-4.321-7.329-34.2-23.328-79.385-21.052-111.054 4.477l-5.167-5.167c-3.906-3.905-10.236-3.905-14.143 0-3.905 3.905-3.905 10.237 0 14.142l5.167 5.167c-25.529 31.669-27.803 76.854-4.478 111.054 1.678 2.459 4.364 4.044 7.329 4.322.312.029.623.043.934.043 2.639 0 5.187-1.045 7.07-2.929l50.818-50.818 15.703 15.703c-34.373 37.743-55.356 87.883-55.356 142.833 0 58.007 23.39 110.647 61.224 149.009l-34.227 65.598c-1.618 3.1-1.499 6.819.313 9.81s5.056 4.816 8.552 4.816h54.442c2.933 0 5.717-1.287 7.617-3.521l27.292-32.086c26.596 12.014 56.09 18.706 87.119 18.706s60.523-6.692 87.119-18.706l27.292 32.086c1.9 2.234 4.685 3.521 7.617 3.521h54.442c3.496 0 6.739-1.826 8.552-4.816s1.932-6.709.313-9.81l-34.228-65.598c37.833-38.361 61.224-91.002 61.224-149.009 0-54.95-20.983-105.091-55.356-142.833l15.702-15.703 50.818 50.818c1.884 1.884 4.432 2.929 7.07 2.929.311 0 .622-.014.934-.043 2.965-.278 5.651-1.862 7.329-4.322 23.325-34.198 21.051-79.383-4.478-111.052zm-462.714 89.073c-12.586-27.419-7.116-60.446 14.833-82.396 14.179-14.179 32.979-21.479 51.906-21.479 10.373 0 20.782 2.192 30.488 6.648zm101.713 340.368h-33.323l24.104-46.196c9.49 7.922 19.674 15.038 30.455 21.23zm253.3 0-21.236-24.966c10.781-6.192 20.965-13.308 30.455-21.23l24.104 46.196zm-126.65-16.901c-106.052 0-192.332-86.28-192.332-192.332s86.28-192.332 192.332-192.332 192.332 86.28 192.332 192.332c0 106.053-86.28 192.332-192.332 192.332zm228.363-323.467-97.229-97.228c27.42-12.585 60.447-7.118 82.396 14.832s27.419 54.977 14.833 82.396z"/><path d="m254.998 174.853c-5.522 0-10 4.477-10 10v74.823c0 5.523 4.478 10 10 10s10-4.477 10-10v-74.823c0-5.523-4.478-10-10-10z"/><path d="m250.124 284.291c-4.785-2.761-10.898-1.122-13.66 3.66l-26.309 45.567c-2.762 4.783-1.123 10.899 3.66 13.66 1.575.909 3.294 1.341 4.99 1.341 3.456 0 6.817-1.793 8.67-5.001l26.309-45.567c2.762-4.782 1.123-10.898-3.66-13.66z"/><path d="m254.998 110.62c-91.107 0-165.229 74.121-165.229 165.228s74.121 165.228 165.229 165.228 165.229-74.121 165.229-165.228-74.122-165.228-165.229-165.228zm0 310.456c-80.079 0-145.229-65.149-145.229-145.228s65.15-145.228 145.229-145.228 145.229 65.149 145.229 145.228-65.15 145.228-145.229 145.228z"/></g><g><circle cx="254.998" cy="275.849" fill="#fdcb50" r="23.552"/></g></g></g><g/><g/><g/><g/><g/><g/><g/><g/><g/><g/><g/><g/><g/><g/><g/></svg>