<svg id="Capa_1" enable-background="new 0 0 510 510" viewBox="0 0 510 510" xmlns="http://www.w3.org/2000/svg"><g><g id="Profile"><circle cx="255.005" cy="255.004" fill="#fd8f01" r="245"/><path d="m307.233 494.75c-16.43 3.47-33.47 5.29-50.94 5.29-135.4 0-245-109.57-245-245 0-135.4 109.58-245 245-245 17.47 0 34.5 1.82 50.93 5.29-110.94 23.42-194.06 121.78-194.06 239.71 0 117.96 83.14 216.3 194.07 239.71z" fill="#fd6050"/><g fill="#67ccd1"><path d="m255.005 338.055c-71.196 0-131.93 44.793-155.557 107.736 42 34.042 95.939 54.213 155.557 54.213s113.557-20.171 155.557-54.213c-23.627-62.942-84.361-107.736-155.557-107.736z"/><ellipse cx="255.005" cy="213.479" rx="83.051" ry="83.051" transform="matrix(.707 -.707 .707 .707 -76.263 242.842)"/></g></g><g id="Profile_00000165918979659602113710000006943993036449158802_"><g><path d="m255.005 306.53c-51.309 0-93.051-41.742-93.051-93.051s41.742-93.051 93.051-93.051 93.052 41.742 93.052 93.051-41.744 93.051-93.052 93.051zm0-166.102c-40.28 0-73.051 32.771-73.051 73.051s32.771 73.051 73.051 73.051c40.281 0 73.052-32.771 73.052-73.051s-32.771-73.051-73.052-73.051z" fill="#1c2e72"/></g><g><path d="m255 0c-142.99 0-255 112.01-255 255 0 143 112.01 255 255 255s255-112 255-255c0-142.99-112.01-255-255-255zm0 490c-54.43 0-103.99-17.61-143.41-47.57 24.47-56.75 81.19-94.37 143.42-94.37 62.22 0 118.94 37.62 143.42 94.36-39.43 29.97-88.99 47.58-143.43 47.58zm159.37-60.87c-12.95-27.56-32.79-51.22-57.98-68.98-29.77-21-64.83-32.09-101.38-32.09-36.56 0-71.62 11.09-101.39 32.09-25.19 17.76-45.03 41.42-57.98 68.98-46.74-42.68-75.64-104.41-75.64-174.13 0-131.77 103.23-235 235-235 131.78 0 235 103.23 235 235 0 69.72-28.9 131.45-75.63 174.13z" fill="#1c2e72"/></g></g></g><g/><g/><g/><g/><g/><g/><g/><g/><g/><g/><g/><g/><g/><g/><g/></svg>