<svg id="Capa_1" enable-background="new 0 0 512 512" viewBox="0 0 512 512" xmlns="http://www.w3.org/2000/svg"><g><g><g><g><g><path d="m120.276 318.289-30.457 30.457c-8.65 8.65-8.65 22.675 0 31.325l42.119 42.119c8.65 8.65 22.675 8.65 31.325 0l30.129-30.129z" fill="#fdcb50"/></g><g><path d="m91.57 381.822-73.926 73.926c-10.191 10.191-10.191 26.715 0 36.906l1.71 1.71c10.191 10.191 26.715 10.191 36.906 0l73.926-73.926z" fill="#d46b5c"/></g></g><g><g><circle cx="292.685" cy="219.323" fill="#d46b5c" r="209.315"/></g><g><path d="m386.997 347.138c-122.677 0-222.127-99.449-222.127-222.126 0-29.181 5.637-57.043 15.866-82.57-58.518 37.113-97.366 102.457-97.366 176.881 0 115.601 93.713 209.315 209.315 209.315 74.424 0 139.768-38.848 176.882-97.366-25.527 10.228-53.388 15.866-82.57 15.866z" fill="#b55348"/></g><g><circle cx="292.685" cy="219.323" fill="#fff" r="162.502"/></g><g><path d="m386.997 347.138c-122.677 0-222.127-99.449-222.127-222.126 0-2.06.033-4.113.089-6.159-21.78 27.65-34.776 62.542-34.776 100.471 0 89.747 72.754 162.502 162.502 162.502 37.929 0 72.821-12.996 100.471-34.776-2.046.055-4.099.088-6.159.088z" fill="#d2dcfd"/></g></g></g><g><g><g><path d="m362.923 131.133c-19.81-19.81-51.929-19.81-71.739 0l-43.451 43.451 71.739 71.739 43.451-43.451c19.81-19.81 19.81-51.929 0-71.739z" fill="#fdcb50"/></g><g><path d="m202.054 220.263c-19.81 19.81-19.81 51.929 0 71.739 19.81 19.81 51.929 19.81 71.739 0l45.678-45.678-71.739-71.739z" fill="#bc9af4"/></g><g><path d="m255.654 150.11 87.684 87.684c3.066 3.066 2.672 8.43-.879 11.981l-21.151 21.151c-3.551 3.551-8.915 3.945-11.981.879l-87.684-87.684c-3.066-3.066-2.672-8.43.879-11.981l21.151-21.151c3.551-3.551 8.915-3.945 11.981-.879z" fill="#fff"/></g></g><g><circle cx="344.063" cy="251.502" fill="#d2dcfd" r="54.111"/></g></g></g><g><g><path d="m344.063 313.605c-5.522 0-10-4.477-10-10v-105.21c0-5.523 4.478-10 10-10s10 4.477 10 10v105.21c0 5.523-4.477 10-10 10z" fill="#93b2f4"/></g><g fill="#052a75"><path d="m447.764 64.244c-41.423-41.423-96.497-64.235-155.078-64.235s-113.656 22.812-155.08 64.236c-41.423 41.423-64.236 96.497-64.236 155.078 0 37.311 9.268 73.192 26.691 105.037l-17.314 17.314c-10.703 10.703-12.259 27.134-4.685 39.513l-67.49 67.49c-6.817 6.818-10.572 15.883-10.572 25.525s3.755 18.707 10.572 25.524l1.71 1.71c7.037 7.037 16.281 10.555 25.524 10.555s18.487-3.519 25.524-10.555l67.49-67.49c5.13 3.139 10.953 4.716 16.779 4.716 8.233 0 16.466-3.134 22.734-9.401l17.314-17.314c31.845 17.422 67.727 26.691 105.038 26.691 58.581 0 113.655-22.813 155.078-64.236 41.425-41.423 64.237-96.497 64.237-155.079s-22.812-113.655-64.236-155.079zm-398.576 423.05c-3.04 3.041-7.082 4.715-11.382 4.715-4.299 0-8.342-1.674-11.382-4.715l-1.71-1.71c-3.041-3.04-4.715-7.083-4.715-11.382s1.674-8.342 4.715-11.382l66.855-66.855 24.474 24.473zm107.003-72.175c-4.736 4.737-12.445 4.737-17.183 0l-42.118-42.119c-4.737-4.738-4.737-12.446 0-17.183l13.888-13.888c7.807 11.531 16.763 22.408 26.828 32.473s20.942 19.021 32.473 26.828zm136.495 3.519c-109.903 0-199.315-89.412-199.315-199.315s89.412-199.314 199.315-199.314c109.902 0 199.314 89.412 199.314 199.314s-89.412 199.315-199.314 199.315z"/><path d="m292.686 46.822c-95.118 0-172.502 77.384-172.502 172.502s77.384 172.501 172.502 172.501c95.117 0 172.501-77.384 172.501-172.501s-77.384-172.502-172.501-172.502zm0 325.003c-84.09 0-152.502-68.412-152.502-152.501 0-84.09 68.412-152.502 152.502-152.502 84.089 0 152.501 68.412 152.501 152.502 0 84.089-68.413 152.501-152.501 152.501z"/><path d="m379.292 197.976c13.885-23.398 10.604-54.011-9.298-73.914-11.471-11.47-26.721-17.786-42.941-17.786s-31.471 6.316-42.94 17.786l-20.182 20.182-1.205-1.205c-6.96-6.959-18.677-6.565-26.123.88l-21.151 21.151c-7.444 7.445-7.839 19.163-.879 26.123l1.206 1.206-20.794 20.794c-23.677 23.678-23.677 62.204 0 85.881 11.47 11.47 26.72 17.787 42.941 17.787s31.471-6.317 42.941-17.787l10.759-10.758c11.612 16.492 30.782 27.298 52.441 27.298 35.351 0 64.11-28.76 64.11-64.111-.003-22.347-11.501-42.048-28.885-53.527zm-81.037-59.772c7.692-7.692 17.919-11.928 28.798-11.928s21.106 4.236 28.799 11.929c13.891 13.89 15.709 35.552 5.051 51.446-5.37-1.464-11.011-2.26-16.839-2.26-10.705 0-20.796 2.651-29.677 7.309l-36.314-36.314zm-48.151 20.497 48.081 48.082c-6.742 6.915-11.933 15.34-15.021 24.717l-52.93-52.93zm16.618 126.23c-7.692 7.692-17.919 11.929-28.798 11.929-10.878 0-21.106-4.236-28.798-11.929-15.879-15.879-15.879-41.717 0-57.597l20.794-20.794 50.271 50.271c.351 4.26 1.12 8.401 2.266 12.386zm77.341 10.682c-24.323 0-44.111-19.788-44.111-44.111s19.788-44.111 44.111-44.111c24.322 0 44.11 19.788 44.11 44.111s-19.787 44.111-44.11 44.111z"/></g></g></g><g/><g/><g/><g/><g/><g/><g/><g/><g/><g/><g/><g/><g/><g/><g/></svg>