<svg id="Capa_1" enable-background="new 0 0 512.042 512.042" viewBox="0 0 512.042 512.042" xmlns="http://www.w3.org/2000/svg"><g><g><path d="m428.288 417.276h-418.288v-365.903h454.645v330.886z" fill="#d2dcfd"/><path d="m464.645 382.259v-150.539c-5.125-.777-10.343-1.177-15.624-1.177-27.439 0-53.235 10.685-72.636 30.087l-74.412 74.411c-19.402 19.402-30.087 45.198-30.087 72.636 0 3.225.153 6.426.445 9.598h155.957z" fill="#93b2f4"/><path d="m50.825 95.548h372.995v277.552h-372.995z" fill="#fff"/><path d="m423.82 373.1v-139.46c-17.799 4.469-34.122 13.677-47.435 26.989l-74.412 74.411c-10.938 10.938-19.104 23.908-24.149 38.059h145.996z" fill="#d2dcfd"/><g fill="#6864f7"><path d="m359.973 95.548v24.096c0 11.09-8.99 20.08-20.08 20.08h-18.645c-11.09 0-20.08-8.99-20.08-20.08v-24.096z"/><path d="m359.973 234.324v24.096c0 11.09-8.99 20.08-20.08 20.08h-18.645c-11.09 0-20.08-8.99-20.08-20.08v-24.096z"/><path d="m173.476 95.548v24.096c0 11.09-8.99 20.08-20.08 20.08h-18.644c-11.09 0-20.08-8.99-20.08-20.08v-24.096z"/><path d="m173.476 234.324v24.096c0 11.09-8.99 20.08-20.08 20.08h-18.644c-11.09 0-20.08-8.99-20.08-20.08v-24.096z"/></g><path d="m337.626 445.256-.298-.298c-20.59-20.59-20.59-53.972 0-74.562l74.412-74.412c20.59-20.59 53.972-20.59 74.562 0l.298.298c20.59 20.59 20.59 53.972 0 74.562l-74.412 74.412c-20.59 20.59-53.972 20.59-74.562 0z" fill="#fff"/><path d="m486.6 296.283-.298-.298c-20.59-20.59-53.972-20.59-74.562 0l-37.206 37.206 74.86 74.86 37.206-37.206c20.59-20.59 20.59-53.973 0-74.562z" fill="#fd6050"/></g><g><g fill="#93b2f4"><path d="m171.39 197.024h-54.632c-5.522 0-10-4.477-10-10s4.478-10 10-10h54.632c5.522 0 10 4.477 10 10s-4.478 10-10 10z"/><path d="m357.887 197.024h-54.632c-5.522 0-10-4.477-10-10s4.478-10 10-10h54.632c5.522 0 10 4.477 10 10s-4.478 10-10 10z"/><path d="m171.39 335.8h-54.632c-5.522 0-10-4.477-10-10s4.478-10 10-10h54.632c5.522 0 10 4.477 10 10s-4.478 10-10 10z"/><path d="m357.887 335.8h-54.632c-5.522 0-10-4.477-10-10s4.478-10 10-10h54.632c5.522 0 10 4.477 10 10s-4.478 10-10 10z"/></g><path d="m493.683 289.223-.309-.31c-5.567-5.567-11.935-9.852-18.729-12.885v-224.655c0-5.523-4.478-10-10-10h-454.645c-5.522 0-10 4.477-10 10v365.903c0 5.523 4.478 10 10 10h305.013c3.025 9.228 8.181 17.691 15.25 24.76l.298.297c12.228 12.225 28.286 18.336 44.347 18.336 16.062 0 32.124-6.114 44.353-18.342l74.411-74.412c11.847-11.847 18.371-27.599 18.371-44.353s-6.525-32.504-18.36-44.339zm-473.683-227.85h434.645v209.458c-6.963-.621-14.008-.089-20.825 1.603v-176.886c0-5.523-4.478-10-10-10h-372.995c-5.522 0-10 4.477-10 10v277.552c0 5.523 4.478 10 10 10h266.052c-3.215 7.55-4.929 15.73-4.982 24.175h-291.895zm310.482 301.728h-83.16v-118.777h43.847v14.096c0 16.586 13.494 30.08 30.08 30.08h18.645c16.586 0 30.079-13.494 30.079-30.08v-14.096h43.847v37.038c-3.224 2.188-6.295 4.696-9.15 7.551zm-9.233-213.377h18.645c16.586 0 30.079-13.494 30.079-30.08v-14.096h43.847v118.776h-166.498v-118.776h43.847v14.096c0 16.586 13.494 30.08 30.08 30.08zm-10.08-30.08v-14.096h38.804v14.096c0 5.558-4.521 10.08-10.079 10.08h-18.645c-5.559 0-10.08-4.522-10.08-10.08zm38.804 124.68v14.096c0 5.558-4.521 10.08-10.079 10.08h-18.645c-5.559 0-10.08-4.522-10.08-10.08v-14.096zm-215.221 44.176h18.644c16.586 0 30.08-13.494 30.08-30.08v-14.096h43.847v118.776h-166.498v-118.776h43.847v14.096c0 16.586 13.494 30.08 30.08 30.08zm-10.08-30.08v-14.096h38.804v14.096c0 5.558-4.521 10.08-10.08 10.08h-18.644c-5.559 0-10.08-4.522-10.08-10.08zm-63.847-34.096v-118.776h43.847v14.096c0 16.586 13.494 30.08 30.08 30.08h18.644c16.586 0 30.08-13.494 30.08-30.08v-14.096h43.847v118.776zm63.847-104.68v-14.096h38.804v14.096c0 5.558-4.521 10.08-10.08 10.08h-18.644c-5.559 0-10.08-4.522-10.08-10.08zm354.856 244.13-74.411 74.411c-16.658 16.658-43.762 16.658-60.42 0-.002-.001-.004-.003-.006-.005l-.292-.292c-8.069-8.069-12.514-18.798-12.514-30.21s4.444-22.141 12.514-30.209l74.412-74.412c8.331-8.331 19.272-12.495 30.214-12.495 10.937 0 21.873 4.162 30.194 12.483l.309.31c8.069 8.069 12.514 18.798 12.514 30.209 0 11.412-4.444 22.14-12.514 30.21z" fill="#052a75"/></g></g><g/><g/><g/><g/><g/><g/><g/><g/><g/><g/><g/><g/><g/><g/><g/></svg>