<svg id="Capa_1" enable-background="new 0 0 510 510" viewBox="0 0 510 510" xmlns="http://www.w3.org/2000/svg"><g><g clip-rule="evenodd" fill-rule="evenodd"><ellipse cx="255" cy="255" fill="#fdcb50" rx="245" ry="245" transform="matrix(.707 -.707 .707 .707 -105.625 255)"/><path d="m181.337 21.277c-99.313 31.272-171.337 124.083-171.337 233.723 0 135.309 109.69 245 245 245 4.435 0 8.84-.125 13.217-.357-91.095-60.101-151.217-163.343-151.217-280.643 0-73.916 23.887-142.243 64.337-197.723z" fill="#fd8f01"/><path d="m445 255c0-104.934-85.066-190-190-190-44.94 0-86.228 15.613-118.759 41.696-101.726 111.984-60.891 273.038 60.021 329.036 18.499 6.008 38.236 9.268 58.738 9.268 104.934 0 190-85.066 190-190z" fill="#fd6050"/><path d="m136.257 106.684c-43.436 34.821-71.257 88.315-71.257 148.316 0 84.434 55.082 155.992 131.268 180.733-49.443-58.508-79.268-134.132-79.268-216.733 0-39.393 6.802-77.192 19.257-112.316z" fill="#bc3c85"/><g fill="#fff"><path d="m274.461 183.053c4.975 4.975 8.053 11.851 8.053 19.447 0 3.73-.673 7.178-1.897 10.232-1.316 3.285-3.26 6.272-5.689 8.816-18.19 19.058-27.993 29.59-34.081 40.449-7.401 13.202-8.334 23.204-8.334 40.503 0 12.426 10.074 22.5 22.5 22.5s22.5-10.074 22.5-22.5c0-9.454.284-14.517 2.533-18.53 3.563-6.356 11.849-15.19 27.401-31.484 6.298-6.598 11.366-14.408 14.829-23.054 3.378-8.434 5.236-17.528 5.236-26.932 0-20.018-8.116-38.143-21.236-51.263-13.119-13.121-31.244-21.237-51.262-21.237-13.188 0-25.61 3.577-36.35 9.823-11.067 6.436-20.28 15.733-26.634 26.884-6.116 10.776-2.338 24.47 8.438 30.586s24.47 2.338 30.586-8.438c2.4-4.213 5.898-7.735 10.111-10.185 4.013-2.334 8.741-3.671 13.85-3.671 7.595.001 14.471 3.079 19.446 8.054z"/><path d="m277.513 357.5c0-12.426-10.074-22.5-22.5-22.5h-.013c-12.426 0-22.5 10.074-22.5 22.5s10.074 22.5 22.5 22.5h.013c12.427 0 22.5-10.074 22.5-22.5z"/></g></g><g><g><path d="m255 510c-140.607 0-255-114.393-255-255s114.393-255 255-255 255 114.393 255 255-114.393 255-255 255zm0-490c-129.579 0-235 105.421-235 235s105.421 235 235 235 235-105.42 235-235c0-129.579-105.421-235-235-235z" fill="#052a75"/></g><g><path d="m255 455c-110.28 0-200-89.719-200-200s89.72-200 200-200 200 89.72 200 200-89.72 200-200 200zm0-380c-99.252 0-180 80.748-180 180s80.748 180 180 180 180-80.748 180-180-80.748-180-180-180z" fill="#052a75"/></g></g></g><g/><g/><g/><g/><g/><g/><g/><g/><g/><g/><g/><g/><g/><g/><g/></svg>