<svg id="Capa_1" enable-background="new 0 0 510 510" viewBox="0 0 510 510" xmlns="http://www.w3.org/2000/svg"><g><g><path d="m217.544 31.607-201.534 403.463c-16.683 28.846 4.133 64.93 37.455 64.93h403.069c33.322 0 54.138-36.085 37.456-64.93l-201.534-403.463c-16.661-28.809-58.25-28.809-74.912 0z" fill="#fdcb50"/><path d="m481.673 492.008c-6.93 4.98-15.52 7.99-25.14 7.99h-403.07c-33.32 0-54.14-36.08-37.45-64.93l201.53-403.46c7.14-12.34 18.85-19.4 31.21-21.16l-110.206 322.638c-17.694 51.8 15.588 107.038 69.653 115.602z" fill="#fd8f01"/><g fill="#6864f7"><path d="m276.691 305.82 11.547-130.428c1.565-19.464-13.829-36.113-33.356-36.076-19.575.037-34.922 16.824-33.208 36.324l12.616 130.338c.971 11.046 10.263 19.495 21.352 19.413 11.028-.083 20.166-8.578 21.049-19.571z"/><circle cx="254.945" cy="411.978" r="28.807"/></g></g><g><g><path d="m456.535 510h-403.07c-19.266 0-36.515-9.963-46.142-26.651-9.573-16.596-9.615-36.388-.13-53.009l201.405-403.202c.091-.182.188-.361.29-.538 9.633-16.656 26.871-26.6 46.112-26.6 19.24 0 36.479 9.944 46.111 26.601.103.176.199.355.29.538l201.405 403.203c9.484 16.621 9.443 36.413-.13 53.008-9.626 16.687-26.876 26.65-46.141 26.65zm-230.19-473.634-201.389 403.173c-.091.182-.188.361-.29.538-6.023 10.416-6.03 22.857-.019 33.28 6.014 10.421 16.786 16.643 28.818 16.643h403.069c12.032 0 22.806-6.223 28.818-16.646 6.012-10.422 6.005-22.863-.019-33.279-.103-.176-.199-.355-.29-.538l-201.388-403.17c-6.043-10.254-16.734-16.367-28.655-16.367s-22.612 6.112-28.655 16.366zm-210.335 398.704h.01z" fill="#052a75"/></g><g><path d="m255.486 335.391c-16.085 0-29.748-12.492-31.158-28.538l-12.606-130.25c-1.07-12.165 3.013-24.224 11.193-33.171 8.18-8.948 19.825-14.093 31.949-14.116h.081c12.065 0 23.676 5.076 31.868 13.937 8.21 8.88 12.362 20.886 11.393 32.941l-11.549 130.466c-1.327 16.261-14.622 28.609-30.94 28.73-.077.001-.155.001-.231.001zm-.538-186.076c-.016 0-.03 0-.047 0-6.633.013-12.75 2.715-17.226 7.611-4.476 4.895-6.62 11.23-6.039 17.837l12.606 130.25c.517 5.872 5.443 10.376 11.242 10.376h.083c5.889-.044 10.685-4.503 11.156-10.372.002-.027.004-.054.007-.081l11.546-130.428c.523-6.515-1.658-12.822-6.149-17.68-4.481-4.845-10.581-7.513-17.179-7.513z" fill="#052a75"/></g><g><path d="m254.946 450.785c-21.398 0-38.808-17.409-38.808-38.808s17.409-38.807 38.808-38.807 38.808 17.409 38.808 38.807-17.41 38.808-38.808 38.808zm0-57.615c-10.37 0-18.808 8.437-18.808 18.807 0 10.371 8.438 18.808 18.808 18.808s18.808-8.437 18.808-18.808c-.001-10.37-8.438-18.807-18.808-18.807z" fill="#052a75"/></g></g></g><g/><g/><g/><g/><g/><g/><g/><g/><g/><g/><g/><g/><g/><g/><g/></svg>