<svg id="Capa_1" enable-background="new 0 0 510 510" viewBox="0 0 510 510" xmlns="http://www.w3.org/2000/svg"><g><g><g><g><g><path d="m123 10.005h264v288h-264z" fill="#fff"/></g><g><path d="m291 178.005c-92.784 0-168-75.216-168-168v288h264v-150.127c-27.213 18.984-60.303 30.127-96 30.127z" fill="#d2dcfd"/></g><g><path d="m175 54.005h160v44h-160z" fill="#fd7da0"/></g></g><g><g><path d="m395.182 365.756-147.657-85.25-64.766-18.277-43.917-25.356-63.74 110.402 36.277 20.945 137.187 111.494 30.148 17.406c10.283 5.937 23.433 2.414 29.37-7.87 5.937-10.283 2.414-23.432-7.87-29.37l-22.323-12.888 37.604 21.71c10.283 5.937 23.432 2.414 29.369-7.87 5.937-10.283 2.414-23.432-7.869-29.369l15.189 8.769c10.283 5.937 23.432 2.414 29.369-7.87 5.937-10.283 2.414-23.432-7.869-29.369 10.283 5.937 23.432 2.414 29.369-7.87 5.935-10.281 2.412-23.43-7.871-29.367z" fill="#fde0be"/><g><path d="m300.213 459.882c-48.391-31.549-79.137-85.423-79.137-147.498 0-13.107 1.439-25.877 4.145-38.172l-42.462-11.982-43.917-25.356-63.742 110.402 36.277 20.945 137.187 111.494 30.148 17.406c10.283 5.937 23.432 2.414 29.37-7.87 5.937-10.283 2.414-23.432-7.869-29.369z" fill="#f7b073"/></g></g><g><g><path d="m69.897 356.288-59.897-34.581v-173.638l135.084 77.991z" fill="#fd7da0"/></g><g><path d="m44.37 202.668c0-11.226 1.252-22.157 3.61-32.671l-37.98-21.928v173.637l59.897 34.582 24.488-42.414c-30.677-27.233-50.015-66.958-50.015-111.206z" fill="#db4b86"/></g></g></g><g><g><path d="m398.739 366.952 35.64-20.577-63.741-110.402-22.752 12.845c-10.222 5.771-22.62 6.174-33.195 1.079l-38.415-18.508c-13.222-6.37-28.739-5.791-41.449 1.547l-53.502 30.889c-11.388 6.575-15.275 21.147-8.674 32.52 6.58 11.337 21.095 15.208 32.446 8.654l42.427-24.495z" fill="#fdbeb9"/></g><g><g><path d="m440.103 356.288 59.897-34.581v-173.638l-135.084 77.991z" fill="#67ccd1"/></g><g><path d="m427.912 202.668c0-4.493.211-8.935.601-13.326l-63.598 36.718 75.187 130.228 52.993-30.596c-39.34-26.747-65.183-71.866-65.183-123.024z" fill="#27a2cc"/></g></g><g><g><path d="m126.823 358.825-12.005 6.931c-10.283 5.937-13.807 19.086-7.87 29.37 5.937 10.283 19.086 13.807 29.37 7.87l12.005-6.931c9.794-5.655 13.533-17.93 8.555-28.084-5.48-11.177-19.275-15.38-30.055-9.156z" fill="#fdbeb9"/></g><g><path d="m154.009 392.781-17.691 10.214c-10.283 5.937-13.807 19.086-7.87 29.37 5.937 10.283 19.086 13.807 29.37 7.87l17.691-10.214c10.283-5.937 13.807-19.086 7.87-29.37-5.937-10.284-19.087-13.807-29.37-7.87z" fill="#fdbeb9"/></g><g><path d="m185.787 424.086-12.78 7.378c-10.283 5.937-13.807 19.086-7.87 29.37 5.937 10.283 19.086 13.807 29.37 7.87l12.78-7.378c10.283-5.937 13.807-19.086 7.87-29.37-5.938-10.283-19.087-13.807-29.37-7.87z" fill="#fdbeb9"/></g><g><path d="m216.997 455.719-7.21 4.162c-10.283 5.937-13.807 19.086-7.87 29.37 5.937 10.283 19.086 13.807 29.37 7.87l7.21-4.162c11.824-6.826 14.373-22.801 5.261-32.969-6.787-7.574-17.953-9.356-26.761-4.271z" fill="#fdbeb9"/></g></g></g></g></g><g><g><g><path d="m335 152.863h-160c-5.522 0-10-4.477-10-10s4.478-10 10-10h160c5.522 0 10 4.477 10 10s-4.478 10-10 10z" fill="#6864f7"/></g><g><path d="m221.858 196.863h-46.858c-5.522 0-10-4.477-10-10s4.478-10 10-10h46.858c5.522 0 10 4.477 10 10s-4.477 10-10 10z" fill="#6864f7"/></g></g><path d="m505 139.409c-3.094-1.786-6.906-1.786-10 0l-98 56.58v-185.984c0-5.523-4.478-10-10-10h-264c-5.522 0-10 4.477-10 10v185.985l-98-56.58c-3.094-1.786-6.906-1.786-10 0s-5 5.087-5 8.66v173.637c0 3.573 1.906 6.874 5 8.66l59.897 34.582c1.533.885 3.26 1.34 5 1.34.866 0 1.737-.113 2.588-.341 2.562-.687 4.746-2.362 6.072-4.659l.203-.352 18.125 10.465c-4.027 8.933-3.861 19.61 1.402 28.725 4.153 7.193 10.739 12.114 18.121 14.357-1.751 7.517-.775 15.686 3.379 22.882 5.828 10.094 16.438 15.743 27.333 15.743 1.741 0 3.488-.16 5.225-.453.372 4.588 1.762 9.075 4.132 13.179 4.206 7.287 10.999 12.5 19.127 14.677 2.714.727 5.468 1.087 8.204 1.087 1.796 0 3.582-.17 5.345-.478.368 4.493 1.704 8.975 4.104 13.132 5.828 10.094 16.438 15.743 27.333 15.743 5.34 0 10.749-1.357 15.696-4.214l7.21-4.163c3.602-2.08 6.698-4.801 9.168-7.989l21.048 12.152c4.948 2.857 10.355 4.214 15.696 4.214 10.894-.001 21.505-5.65 27.333-15.744 2.399-4.156 3.736-8.638 4.104-13.131 1.764.308 3.55.478 5.345.478 2.736 0 5.491-.36 8.204-1.087 8.128-2.178 14.921-7.39 19.127-14.676 2.37-4.105 3.759-8.591 4.132-13.179 1.737.293 3.484.453 5.225.453 10.894 0 21.505-5.65 27.333-15.744 4.154-7.196 5.13-15.365 3.379-22.882 7.382-2.244 13.968-7.165 18.121-14.357 5.449-9.439 5.44-20.554.963-29.672l18.044-10.418.723 1.252c1.326 2.297 3.51 3.973 6.072 4.659.852.228 1.721.341 2.588.341 1.74 0 3.467-.455 5-1.34l59.899-34.582c3.094-1.786 5-5.087 5-8.66v-173.638c0-3.572-1.906-6.874-5-8.66zm-372-119.404h244v187.532l-17.084 9.863c-4.783 2.761-6.422 8.877-3.66 13.66l.675 1.169-13.96 7.881c-7.368 4.159-16.319 4.45-23.938.778l-38.416-18.508c-16.215-7.812-35.203-7.102-50.789 1.896l-46.402 26.79-30.924-17.854 1.243-2.153c2.762-4.783 1.123-10.899-3.66-13.66l-17.085-9.863zm-113 295.928v-150.543l111.424 64.331-65.187 112.907zm99.818 58.483 12.005-6.931c1.779-1.027 3.738-1.549 5.724-1.549 1.127 0 2.262.168 3.377.508 3.08.938 5.558 3.047 6.976 5.939 2.652 5.41.643 12.007-4.575 15.021l-12.006 6.932c-5.491 3.17-12.539 1.282-15.71-4.209-3.171-5.493-1.282-12.54 4.209-15.711zm17.29 52.949c-3.17-5.492-1.281-12.54 4.21-15.71l17.69-10.214c5.493-3.173 12.54-1.282 15.71 4.208 3.17 5.492 1.281 12.539-4.21 15.709l-17.69 10.214c-5.494 3.173-12.539 1.283-15.71-4.207zm43.672 33.827c-2.967-.795-5.446-2.698-6.982-5.358s-1.944-5.759-1.149-8.726 2.698-5.447 5.358-6.983l12.78-7.378c1.772-1.023 3.738-1.545 5.731-1.545.998 0 2.004.131 2.995.397 2.967.795 5.446 2.698 6.982 5.358s1.944 5.759 1.149 8.726-2.698 5.447-5.358 6.983l-12.78 7.378c-2.659 1.535-5.758 1.943-8.726 1.148zm52.717 23.106-7.21 4.163c-5.491 3.17-12.538 1.282-15.709-4.209-3.17-5.492-1.282-12.54 4.209-15.71l7.21-4.163c4.686-2.705 10.705-1.744 14.313 2.284 2.323 2.592 3.341 6.05 2.793 9.487-.548 3.438-2.591 6.408-5.606 8.148zm160.895-94.173c-3.17 5.492-10.217 7.381-15.71 4.21l-52.793-30.48c-4.784-2.761-10.9-1.123-13.66 3.66-2.762 4.783-1.123 10.899 3.66 13.66l52.793 30.48c5.491 3.17 7.38 10.218 4.21 15.709-3.171 5.491-10.218 7.381-15.71 4.21l-52.793-30.48c-4.785-2.761-10.9-1.122-13.66 3.66-2.762 4.783-1.123 10.899 3.66 13.66l37.611 21.716c2.656 1.536 4.557 4.014 5.351 6.978.795 2.967.387 6.066-1.149 8.727-1.536 2.66-4.016 4.562-6.982 5.358-2.97.794-6.068.386-8.727-1.149l-37.604-21.711c-4.784-2.762-10.899-1.123-13.66 3.66-2.762 4.783-1.123 10.899 3.66 13.66l22.327 12.891c5.489 3.171 7.375 10.217 4.206 15.707-3.171 5.492-10.219 7.379-15.709 4.21l-24.468-14.127c.01-7.71-2.798-15.169-8.04-21.018-6.037-6.737-14.536-10.335-23.161-10.434.04-5.536-1.386-11.005-4.228-15.926-4.206-7.287-10.999-12.5-19.127-14.677-2.794-.748-5.63-1.098-8.446-1.076-.024-5.293-1.374-10.649-4.204-15.552-5.073-8.785-13.768-14.196-23.119-15.454.5-5.556-.454-11.297-3.063-16.619-3.826-7.805-10.79-13.733-19.105-16.267-8.312-2.532-17.4-1.493-24.928 2.854l-10.86 6.27-22.203-12.819 53.74-93.082 23.65 13.654c-2.543 3.404-4.444 7.293-5.572 11.523-2.328 8.73-1.112 17.842 3.423 25.655 9.325 16.07 30.003 21.587 46.096 12.296l37.427-21.609 142.657 82.363c5.491 3.171 7.38 10.218 4.21 15.709zm3.605-34.291-145.472-83.988-.004.007c-2.992-1.723-6.791-1.857-9.996-.007l-42.427 24.496c-6.564 3.79-14.995 1.539-18.798-5.015-1.85-3.187-2.345-6.902-1.396-10.462s3.229-6.535 6.421-8.378l53.502-30.89c9.854-5.688 21.858-6.137 32.108-1.199l38.416 18.508c13.518 6.512 29.386 5.997 42.451-1.38l14.128-7.976 53.789 93.165zm92.003-39.901-46.237 26.695-65.187-112.908 111.424-64.33z" fill="#052a75"/></g></g><g/><g/><g/><g/><g/><g/><g/><g/><g/><g/><g/><g/><g/><g/><g/></svg>