<svg id="Layer_1" enable-background="new 0 0 510 510" viewBox="0 0 510 510" xmlns="http://www.w3.org/2000/svg"><g><g><g><g><path d="m153.191 112v32c0 56.333 45.667 102 102 102 56.333 0 102-45.667 102-102v-32c0-56.333-45.667-102-102-102-56.333 0-102 45.667-102 102z" fill="#d46b5c"/></g><g><path d="m246.553 100.369c0-33.068 10.779-63.614 29.006-88.333-6.582-1.334-13.392-2.036-20.368-2.036-56.333 0-102 45.667-102 102v32c0 56.333 45.667 102 102 102 22.633 0 43.541-7.376 60.461-19.85-41.539-26.442-69.099-72.892-69.099-125.781z" fill="#b55348"/></g></g><g><g><path d="m294.636 297.924 111.071 26.371c32.749 7.776 55.87 37.028 55.87 70.688v105.017h-206.577-206.577v-105.017c0-33.66 23.12-62.912 55.87-70.688l111.071-26.371 39.636 39.636z" fill="#fdcb50"/></g><g><path d="m153.458 333.08c0-6.978.34-13.877.973-20.689l-50.139 11.904c-32.749 7.776-55.869 37.028-55.869 70.688v105.017h181.405c-46.773-40.45-76.37-100.228-76.37-166.92z" fill="#fd8f01"/></g><g><path d="m298.252 380.777-43.321-43.32-43.321 43.32 20.464 20.464-14.49 98.759h74.832l-14.508-98.879z" fill="#6864f7"/></g><g><path d="m205.54 387.021-47.171-75.547 47.558-23.582 49.073 49.668z" fill="#d2dcfd"/></g><g><path d="m304.46 387.021 47.171-75.547-47.558-23.582-49.073 49.668z" fill="#d2dcfd"/></g></g></g><g><g fill="#052a75"><path d="m408.018 314.566-53.035-12.592-46.468-23.04c-3.865-1.918-8.524-1.138-11.556 1.931l-41.959 42.467-41.959-42.468c-3.031-3.069-7.689-3.848-11.556-1.931l-46.468 23.04-53.034 12.592c-37.424 8.885-63.561 41.954-63.561 80.417v105.018c0 5.523 4.478 10 10 10h413.154c5.522 0 10-4.477 10-10v-105.017c.001-38.463-26.136-71.532-63.558-80.417zm-101.913-14.503 31.201 15.471-34.668 55.523-33.538-33.539zm-102.21 0 37.006 37.455-33.539 33.539-34.668-55.523zm247.682 189.937h-393.154v-95.017c0-29.156 19.813-54.223 48.181-60.958l47.078-11.178 43.376 69.47c1.614 2.585 4.32 4.293 7.349 4.639.379.043.758.064 1.135.064 2.636 0 5.185-1.043 7.07-2.929l42.388-42.389 42.389 42.389c1.886 1.886 4.435 2.929 7.07 2.929.377 0 .756-.021 1.135-.064 3.028-.346 5.734-2.054 7.349-4.639l43.376-69.47 47.079 11.178c28.367 6.735 48.18 31.802 48.18 60.958v95.017z"/><path d="m255.191 256c61.757 0 112-50.243 112-112v-32c0-61.757-50.243-112-112-112s-112 50.243-112 112v32c0 61.757 50.244 112 112 112zm-92-144c0-50.729 41.271-92 92-92s92 41.271 92 92v32c0 50.729-41.271 92-92 92s-92-41.271-92-92z"/></g><g><g><path d="m255.191 161.808c-5.522 0-10-4.477-10-10 0-13.785 8.071-26.286 20.562-31.849 9.947-4.43 16.126-14.731 15.373-25.633-.885-12.837-11.232-23.185-24.069-24.07-7.319-.504-14.277 1.954-19.601 6.923-5.329 4.975-8.265 11.727-8.265 19.013 0 5.523-4.478 10-10 10s-10-4.477-10-10c0-12.703 5.328-24.962 14.618-33.633 9.419-8.792 21.714-13.146 34.623-12.254 22.744 1.568 41.078 19.902 42.646 42.646 1.328 19.249-9.599 37.445-27.189 45.279-5.284 2.353-8.698 7.683-8.698 13.578 0 5.523-4.477 10-10 10z" fill="#fff"/></g><g><path d="m254.939 205.81c-7.833.116-12.79-9.092-8.319-15.55 4.233-6.604 14.686-5.558 17.55 1.721 2.838 6.296-2.338 14.025-9.231 13.829z" fill="#fff"/></g></g></g></g><g/><g/><g/><g/><g/><g/><g/><g/><g/><g/><g/><g/><g/><g/><g/></svg>