<svg id="Capa_1" enable-background="new 0 0 510 510" viewBox="0 0 510 510" xmlns="http://www.w3.org/2000/svg"><g><circle cx="255.887" cy="255" fill="#fdcb50" r="245"/><path d="m296.937 496.57c-13.35 2.26-27.06 3.43-41.05 3.43-135.31 0-245-109.69-245-245s109.69-245 245-245c13.99 0 27.7 1.17 41.05 3.43-115.77 19.52-203.96 120.25-203.96 241.57s88.19 222.05 203.96 241.57z" fill="#fd8f01"/><circle cx="115.081" cy="303.696" fill="#fd6050" r="38.302"/><g><path d="m337.187 392.016 84.323-74.177c12.461-10.906 13.721-29.849 2.815-42.31-10.906-12.461-29.849-13.721-42.31-2.815l-106.838 93.544s32.894 6.295 62.01 25.758z" fill="#67ccd1"/><path d="m397.004 339.212 24.507-21.372c12.461-10.906 13.721-29.849 2.815-42.31-10.906-12.461-29.849-13.721-42.31-2.815l-24.493 21.388z" fill="#27a2cc"/></g><g fill="#6864f9"><circle cx="162.527" cy="185.554" r="37.249"/><circle cx="347.135" cy="185.554" r="37.249"/></g></g><g><g><g><path d="m255 510c-68.113 0-132.149-26.524-180.312-74.688s-74.688-112.199-74.688-180.312 26.525-132.149 74.688-180.312 112.199-74.688 180.312-74.688 132.149 26.524 180.312 74.688 74.688 112.199 74.688 180.312-26.524 132.149-74.688 180.312-112.199 74.688-180.312 74.688zm0-490c-129.58 0-235 105.421-235 235s105.42 235 235 235 235-105.421 235-235-105.42-235-235-235z" fill="#052a75"/></g><g><path d="m162.527 232.803c-26.053 0-47.249-21.196-47.249-47.249s21.196-47.249 47.249-47.249 47.249 21.196 47.249 47.249-21.196 47.249-47.249 47.249zm0-74.498c-15.025 0-27.249 12.224-27.249 27.249s12.224 27.249 27.249 27.249 27.249-12.224 27.249-27.249-12.224-27.249-27.249-27.249z" fill="#052a75"/></g><g><path d="m345.854 232.803c-26.053 0-47.249-21.196-47.249-47.249s21.196-47.249 47.249-47.249 47.249 21.196 47.249 47.249-21.196 47.249-47.249 47.249zm0-74.498c-15.025 0-27.249 12.224-27.249 27.249s12.224 27.249 27.249 27.249 27.249-12.224 27.249-27.249-12.224-27.249-27.249-27.249z" fill="#052a75"/></g></g><g><path d="m431.846 268.945c-14.23-16.27-40.1-18.04-56.42-3.75-.06.05-84.49 73.97-103.2 90.35-5.69-.62-11.48-.94-17.32-.94-40.93 0-79.16 15.73-99.78 41.04-3.49 4.28-2.85 10.58 1.44 14.07 4.28 3.48 10.58 2.84 14.07-1.44 16.91-20.77 49.2-33.67 84.27-33.67 35.22 0 67.58 12.99 84.45 33.89 1.97 2.45 4.87 3.72 7.79 3.72 2.2 0 4.42-.72 6.27-2.22 4.3-3.46 4.97-9.76 1.5-14.06-.97-1.2-1.97-2.38-3.02-3.53l76.2-67.04c16.34-14.3 18.081-40.05 3.75-56.42zm-16.94 41.39c-.13.11-58.6 51.55-78.09 68.69-11.32-8.13-24.87-14.48-39.71-18.67l91.49-80.12c8.16-7.13 21.05-6.29 28.2 1.88 7.03 8.03 6.15 21.15-1.89 28.22z" fill="#052a75"/></g></g><g/><g/><g/><g/><g/><g/><g/><g/><g/><g/><g/><g/><g/><g/><g/></svg>